<?xml version="1.0"?>
<svg xmlns="http://www.w3.org/2000/svg" xmlns:xlink="http://www.w3.org/1999/xlink" xmlns:svgjs="http://svgjs.com/svgjs" version="1.1" width="512" height="512" x="0" y="0" viewBox="0 0 128 128" style="enable-background:new 0 0 512 512" xml:space="preserve" class=""><g><linearGradient xmlns="http://www.w3.org/2000/svg" id="SVGID_1_" gradientTransform="matrix(1 0 0 -1 0 127.89)" gradientUnits="userSpaceOnUse" x1="99.606" x2="28.382" y1="28.278" y2="99.502"><stop stop-opacity="1" stop-color="#e459ff" offset="0"/><stop stop-opacity="1" stop-color="#faecff" offset="1"/></linearGradient><path xmlns="http://www.w3.org/2000/svg" d="m110.8 40.2c0-.7-.4-1.3-1-1.6-2.6-1.2-45-21.3-45-21.3-.5-.2-1-.2-1.5 0-36.6 17.3-25.8 12.1-45 21.3-.6.3-1 .8-1 1.5v47.5c0 .7.4 1.3 1 1.6l45 21.3c.5.2 1 .3 1.5 0l45-21.3c.6-.3 1-.9 1-1.6v-12.1c0-1-.8-1.8-1.8-1.8s-1.8.8-1.8 1.8v11.1l-41.5 19.6v-43.6l11.6-5.5v13.7c0 1.5 1.8 2.3 2.9 1.3l7.9-7 5.7.4c1 .1 1.9-.7 1.9-1.7v-15.3l3.6-1.7 8-3.8v7.9c0 1 .8 1.8 1.8 1.8s1.8-.8 1.8-1.8v-10.7zm-61.2-12.5 40.4 19.1-11 5.6-40.8-19.3zm14.4-6.8 40.9 19.3-10.3 4.9-40.9-19.3zm-43.2 22.1 8.5 4c.9.4 1.9 0 2.3-.9s0-1.9-.8-2.3l-7.7-3.6 11-5.2 40.9 19.4-11 5.2-21-9.9c-.9-.4-1.9 0-2.3.8-.4.9 0 1.9.8 2.3l20.7 9.8v43.6l-41.4-19.6zm71.4 18.9-4.5-.4c-.5 0-.9.1-1.3.4l-5.5 4.9v-11.3l11.3-5.3zm18.6-.4v2.3c0 1-.8 1.8-1.8 1.8s-1.8-.8-1.8-1.8v-2.3c0-1 .8-1.8 1.8-1.8s1.8.9 1.8 1.8zm-55.4 32.6c-.4.9-1.5 1.3-2.4.9l-15.6-7.4c-.9-.4-1.2-1.5-.8-2.3.4-.9 1.5-1.2 2.3-.8l15.6 7.4c.9.3 1.3 1.4.9 2.2zm0-8.7c-.4.9-1.5 1.2-2.3.8l-15.6-7.4c-.9-.4-1.2-1.5-.8-2.3.4-.9 1.5-1.2 2.3-.8l15.6 7.4c.8.4 1.2 1.4.8 2.3z" fill="url(#SVGID_1_)" data-original="url(#SVGID_1_)" style=""/></g></svg>
