<svg width="394" height="394" xmlns="http://www.w3.org/2000/svg" xmlns:xlink="http://www.w3.org/1999/xlink">
 <defs>
  <linearGradient id="a">
   <stop offset="0.15637" stop-color="#926cc6"/>
   <stop offset="0.466" stop-color="#b074ee"/>
   <stop offset="0.752" stop-color="#d8a1dd"/>
   <stop offset="0.898" stop-color="#efbad3"/>
  </linearGradient>
  <linearGradient y2="-0.15688" y1="1.16174" xlink:href="#a" x2="0.5" x1="0.5" id="b" xmlns:xlink="http://www.w3.org/1999/xlink"/>
  <linearGradient y2="-1.10018" y1="1.57258" xlink:href="#a" x2="0.49999" x1="0.49999" id="c" xmlns:xlink="http://www.w3.org/1999/xlink"/>
 </defs>
 <g>
  <title>Layer 1</title>
  <g id="svg_1">
   <path id="svg_2" fill="url(#b)" d="m344.54297,100l-2.60938,0l0,-1.64062c-0.03125,-27.30469 -22.15625,-49.42969 -49.45703,-49.46094l-79.67578,0c-1.01562,0 -1.98437,-0.42578 -2.66797,-1.17578l-28.91406,-31.63282c-9.37891,-10.23828 -22.625,-16.07421 -36.50781,-16.08984l-95.25391,0c-27.30078,0.03125 -49.42578,22.15625 -49.45703,49.45703l0,278.21485c0.03125,27.30078 22.15625,49.42578 49.45703,49.45703l295.08594,0c27.30078,-0.03125 49.42578,-22.15625 49.45703,-49.45703l0,-178.21485c-0.03125,-27.30078 -22.15625,-49.42578 -49.45703,-49.45703zm-290.61328,263.12891l-4.47266,0c-19.57422,-0.02344 -35.43359,-15.88672 -35.45703,-35.45703l0,-278.21485c0.02344,-19.57422 15.88281,-35.43359 35.45703,-35.45703l95.25391,0c9.95312,0.00781 19.44922,4.19531 26.17187,11.53516l28.91016,31.6289c3.33984,3.64844 8.05469,5.72656 13,5.73047l79.67969,0c19.57422,0.02344 35.43359,15.88672 35.45703,35.46094l0,1.64062l-189.08594,0c-27.30078,0.03125 -49.42578,22.15625 -49.45703,49.45703l0,178.21876c-0.02344,19.57031 -15.88672,35.43359 -35.45703,35.45703zm326.07031,-35.45703c-0.02344,19.57031 -15.88281,35.43359 -35.45703,35.45703l-256.16797,0c9.60156,-9.29688 15.01953,-22.09375 15.01172,-35.45703l0,-178.21485c0.02344,-19.57422 15.88281,-35.43359 35.45703,-35.45703l205.69922,0c19.57422,0.02344 35.43359,15.88672 35.45703,35.45703l0,178.21485zm0,0"/>
   <path id="svg_3" fill="url(#c)" d="m306.08984,268.54297l0,-28.96875c0,-3.86328 -3.13281,-7 -7,-7l-49.57031,0l0,-23.84375c13.66797,-3.30078 23.88672,-16.01953 23.88672,-31.17578c0,-17.65625 -13.85547,-32.01953 -30.88672,-32.01953s-30.89062,14.36328 -30.89062,32.01953c0,15.15625 10.21875,27.8789 23.89062,31.17578l0,23.84375l-49.57422,0c-3.86718,0 -7,3.13672 -7,7l0,28.58984c-14.1875,2.88672 -24.92578,15.8711 -24.92578,31.41407c0,17.65234 13.85547,32.01562 30.89063,32.01562c17.03125,0 30.89062,-14.36328 30.89062,-32.01562c0,-14.77344 -9.70703,-27.23438 -22.85547,-30.91407l0,-22.08984l99.14453,0l0,21.67578c-13.98046,3.05859 -24.5,15.94141 -24.5,31.32422c0,17.65625 13.85547,32.01953 30.89063,32.01953c17.03516,0 30.89062,-14.36328 30.89062,-32.01953c-0.0039,-14.92969 -9.91796,-27.51172 -23.28125,-31.03125zm-80.46093,-90.98828c0,-9.9375 7.57422,-18.01953 16.89062,-18.01953c9.3125,0 16.88672,8.08203 16.88672,18.01953c0,9.93359 -7.57422,18.01562 -16.88672,18.01562s-16.89062,-8.08203 -16.89062,-18.01562zm-23.82813,122.01953c0,9.9375 -7.57812,18.01953 -16.89062,18.01953s-16.89063,-8.08203 -16.89063,-18.01953c0,-9.93359 7.57813,-18.01563 16.89063,-18.01563s16.89062,8.08204 16.89062,18.01563zm96.67578,18.01953c-9.3125,0 -16.89062,-8.08203 -16.89062,-18.01953c0,-9.93359 7.57812,-18.01563 16.89062,-18.01563c9.31641,0 16.89063,8.08204 16.89063,18.01563c0,9.9375 -7.57813,18.01953 -16.89063,18.01953zm0,0"/>
  </g>
  <g stroke="null" id="svg_17">
   <circle stroke="null" transform="matrix(0.36309394943613826,0,0,0.36309394943613826,-727.2612721464577,-728.8231003563083) " id="svg_13" fill="#444444" cy="2872.04764" cx="2870.50034" r="214.98056"/>
   <g stroke="null" id="svg_14" transform="matrix(0.25416576460529683,0,0,0.25416576460529683,-703.844114159949,-705.3533120026634) ">
    <linearGradient stroke="null" transform="translate(-8.075798034667969,-12.113697052001953) translate(12.113697052001953,20.189495086669922) translate(81.83968353271484,66.9597396850586) translate(998.522216796875,1011.5747680664062) translate(2709.199951171875,0) translate(1.4210854715202004e-14,2709.88623046875) " id="svg_11">
     <stop stroke="null" offset="0.23359" stop-color="#9864dd"/>
     <stop stroke="null" offset="0.466" stop-color="#c59def"/>
     <stop stroke="null" offset="0.68533" stop-color="#d8a1dd"/>
     <stop stroke="null" offset="0.84749" stop-color="#fff0f7"/>
    </linearGradient>
    <linearGradient stroke="null" transform="translate(-8.075798034667969,-12.113697052001953) translate(12.113697052001953,20.189495086669922) translate(81.83968353271484,66.9597396850586) translate(998.522216796875,1011.5747680664062) translate(2709.199951171875,0) translate(1.4210854715202004e-14,2709.88623046875) " y2="-0.83132" y1="1.5067" xlink:href="#svg_11" x2="0.50011" x1="0.50011" id="svg_10" xmlns:xlink="http://www.w3.org/1999/xlink"/>
    <linearGradient stroke="null" transform="translate(-8.075798034667969,-12.113697052001953) translate(12.113697052001953,20.189495086669922) translate(81.83968353271484,66.9597396850586) translate(998.522216796875,1011.5747680664062) translate(2709.199951171875,0) translate(1.4210854715202004e-14,2709.88623046875) " y2="-0.22611" y1="1.05936" xlink:href="#svg_11" x2="0.50005" x1="0.50005" id="svg_9" xmlns:xlink="http://www.w3.org/1999/xlink"/>
    <path stroke="null" id="svg_15" fill="url(#svg_10)" d="m4116.40053,4001.97701l-95.69922,0l0,-95.69922c0,-5.52344 -4.47656,-10 -10,-10c-5.52344,0 -10,4.47656 -10,10l0,95.69922l-100.60156,0c-5.52344,0 -10,4.47656 -10,10c0,5.52344 4.47656,10 10,10l100.69922,0l0,100.69922c0,5.52344 4.48047,10 10,10c5.52344,0 10,-4.47656 10,-10l0,-100.69922l95.70312,0c5.51953,-0.02734 9.97657,-4.52734 9.94922,-10.05078c-0.02734,-5.51953 -4.52734,-9.97656 -10.05078,-9.94922zm0,0"/>
    <path stroke="null" id="svg_16" fill="url(#svg_9)" d="m4008.59975,3796.97701c-86.96094,-0.01563 -165.36328,52.36328 -198.64062,132.70703c-33.27344,80.34375 -14.86719,172.82031 46.64062,234.29297c83.94922,83.94922 220.05469,83.94922 304,0c83.94922,-83.94531 83.94922,-220.05078 0,-304c-40.22266,-40.45313 -94.95312,-63.13672 -152,-63zm0,410c-107.5,0 -195,-87.5 -195,-195s87.5,-195 195,-195s195,87.5 195,195s-87.5,195 -195,195zm0,0"/>
   </g>
  </g>
 </g>
</svg>