<?xml version="1.0"?>
<svg xmlns="http://www.w3.org/2000/svg" xmlns:xlink="http://www.w3.org/1999/xlink" xmlns:svgjs="http://svgjs.com/svgjs" version="1.1" width="512" height="512" x="0" y="0" viewBox="0 0 394 394" style="enable-background:new 0 0 512 512" xml:space="preserve" class=""><g><linearGradient xmlns="http://www.w3.org/2000/svg" id="a"><stop stop-opacity="1" stop-color="#926cc6" offset="0.15637065637065636"/><stop stop-opacity="1" stop-color="#b074ee" offset="0.466"/><stop stop-opacity="1" stop-color="#d8a1dd" offset="0.752"/><stop stop-opacity="1" stop-color="#efbad3" offset="0.898"/></linearGradient><linearGradient xmlns="http://www.w3.org/2000/svg" xmlns:xlink="http://www.w3.org/1999/xlink" id="b" gradientUnits="userSpaceOnUse" x1="197" x2="197" xlink:href="#a" y1="438.127" y2="-59.163"/><linearGradient xmlns="http://www.w3.org/2000/svg" xmlns:xlink="http://www.w3.org/1999/xlink" id="c" gradientUnits="userSpaceOnUse" x1="241.693" x2="241.693" xlink:href="#a" y1="438.127" y2="-59.163"/><path xmlns="http://www.w3.org/2000/svg" d="m344.542969 100h-2.609375v-1.640625c-.03125-27.304687-22.15625-49.429687-49.457032-49.460937h-79.675781c-1.015625 0-1.984375-.425782-2.667969-1.175782l-28.914062-31.632812c-9.378906-10.238282-22.625-16.074219-36.507812-16.089844h-95.253907c-27.300781.03125-49.425781 22.15625-49.457031 49.457031v278.214844c.03125 27.300781 22.15625 49.425781 49.457031 49.457031h295.085938c27.300781-.03125 49.425781-22.15625 49.457031-49.457031v-178.214844c-.03125-27.300781-22.15625-49.425781-49.457031-49.457031zm-290.613281 263.128906h-4.472657c-19.574219-.023437-35.433593-15.886718-35.457031-35.457031v-278.214844c.023438-19.574219 15.882812-35.433593 35.457031-35.457031h95.253907c9.953124.007812 19.449218 4.195312 26.171874 11.535156l28.910157 31.628906c3.339843 3.648438 8.054687 5.726563 13 5.730469h79.679687c19.574219.023438 35.433594 15.886719 35.457032 35.460938v1.640625h-189.085938c-27.300781.03125-49.425781 22.15625-49.457031 49.457031v178.21875c-.023438 19.570313-15.886719 35.433594-35.457031 35.457031zm326.070312-35.457031c-.023438 19.570313-15.882812 35.433594-35.457031 35.457031h-256.167969c9.601562-9.296875 15.019531-22.09375 15.011719-35.457031v-178.214844c.023437-19.574219 15.882812-35.433593 35.457031-35.457031h205.699219c19.574219.023438 35.433593 15.886719 35.457031 35.457031zm0 0" fill="url(#b)" data-original="url(#b)" style="" class=""/><path xmlns="http://www.w3.org/2000/svg" d="m306.089844 268.542969v-28.96875c0-3.863281-3.132813-7-7-7h-49.570313v-23.84375c13.667969-3.300781 23.886719-16.019531 23.886719-31.175781 0-17.65625-13.855469-32.019532-30.886719-32.019532s-30.890625 14.363282-30.890625 32.019532c0 15.15625 10.21875 27.878906 23.890625 31.175781v23.84375h-49.574219c-3.867187 0-7 3.136719-7 7v28.589843c-14.1875 2.886719-24.925781 15.871094-24.925781 31.414063 0 17.652344 13.855469 32.015625 30.890625 32.015625 17.03125 0 30.890625-14.363281 30.890625-32.015625 0-14.773437-9.707031-27.234375-22.855469-30.914063v-22.089843h99.144532v21.675781c-13.980469 3.058594-24.5 15.941406-24.5 31.324219 0 17.65625 13.855468 32.019531 30.890625 32.019531 17.035156 0 30.890625-14.363281 30.890625-32.019531-.003906-14.929688-9.917969-27.511719-23.28125-31.03125zm-80.460938-90.988281c0-9.9375 7.574219-18.019532 16.890625-18.019532 9.3125 0 16.886719 8.082032 16.886719 18.019532 0 9.933593-7.574219 18.015624-16.886719 18.015624s-16.890625-8.082031-16.890625-18.015624zm-23.828125 122.019531c0 9.9375-7.578125 18.019531-16.890625 18.019531s-16.890625-8.082031-16.890625-18.019531c0-9.933594 7.578125-18.015625 16.890625-18.015625s16.890625 8.082031 16.890625 18.015625zm96.675781 18.019531c-9.3125 0-16.890624-8.082031-16.890624-18.019531 0-9.933594 7.578124-18.015625 16.890624-18.015625 9.316407 0 16.890626 8.082031 16.890626 18.015625 0 9.9375-7.578126 18.019531-16.890626 18.019531zm0 0" fill="url(#c)" data-original="url(#c)" style=""/></g></svg>
