<?xml version="1.0"?>
<svg xmlns="http://www.w3.org/2000/svg" xmlns:xlink="http://www.w3.org/1999/xlink" xmlns:svgjs="http://svgjs.com/svgjs" version="1.1" width="512" height="512" x="0" y="0" viewBox="0 0 394 394" style="enable-background:new 0 0 512 512" xml:space="preserve" class=""><g><linearGradient xmlns="http://www.w3.org/2000/svg" id="a" gradientUnits="userSpaceOnUse" x1="197" x2="197" y1="439.233" y2="-61.551"><stop stop-opacity="1" stop-color="#9775c4" offset="0.21814671814671815"/><stop stop-opacity="1" stop-color="#b074ee" offset="0.466"/><stop stop-opacity="1" stop-color="#d8a1dd" offset="0.752"/><stop stop-opacity="1" stop-color="#efbad3" offset="0.898"/></linearGradient><path xmlns="http://www.w3.org/2000/svg" d="m344.542969 100h-2.609375v-1.644531c-.03125-27.300781-22.15625-49.425781-49.457032-49.457031h-79.675781c-1.015625 0-1.984375-.425782-2.667969-1.175782l-28.914062-31.632812c-9.378906-10.238282-22.625-16.074219-36.507812-16.089844h-95.253907c-27.300781.03125-49.425781 22.15625-49.457031 49.457031v278.214844c.03125 27.300781 22.15625 49.425781 49.457031 49.457031h295.085938c27.300781-.03125 49.425781-22.15625 49.457031-49.457031v-178.214844c-.03125-27.300781-22.15625-49.425781-49.457031-49.457031zm-290.617188 263.128906h-4.46875c-19.574219-.023437-35.433593-15.886718-35.457031-35.457031v-278.214844c.023438-19.574219 15.882812-35.433593 35.457031-35.457031h95.253907c9.953124.011719 19.449218 4.195312 26.171874 11.535156l28.910157 31.628906c3.339843 3.648438 8.054687 5.726563 13 5.730469h79.679687c19.574219.023438 35.433594 15.886719 35.457032 35.457031v1.644532h-189.085938c-27.300781.03125-49.425781 22.15625-49.457031 49.457031v178.21875c-.023438 19.570313-15.886719 35.433594-35.460938 35.457031zm326.074219-35.457031c-.023438 19.570313-15.882812 35.433594-35.457031 35.457031h-256.171875c9.605468-9.296875 15.019531-22.09375 15.015625-35.457031v-178.214844c.019531-19.574219 15.882812-35.433593 35.457031-35.457031h205.699219c19.574219.023438 35.433593 15.886719 35.457031 35.457031zm0 0" fill="url(#a)" data-original="url(#a)" style="" class=""/></g></svg>
