<svg version="1.1" xmlns="http://www.w3.org/2000/svg" xmlns:xlink="http://www.w3.org/1999/xlink" width="2059.9833984375" height="3204"><defs/><g><g transform="translate(-1198,-302) scale(1,1)"><rect fill="#C0C0C0" stroke="none" x="1225" y="319" width="1782" height="1504" opacity="0.2"/></g><g transform="translate(-1198,-302) scale(1,1)"><rect fill="#ffffff" stroke="none" x="1218" y="312" width="1782" height="1504"/></g><g transform="translate(-1198,-302) scale(1,1)"><path fill="none" stroke="#000000" d="M 1218 312 L 3000 312 L 3000 1816 L 1218 1816 L 1218 312 Z Z" stroke-miterlimit="10"/></g><g transform="translate(-1198,-302) scale(1,1)"><rect fill="#ffffff" stroke="none" x="1208" y="319" width="20" height="10"/></g><g transform="translate(-1198,-302) scale(1,1)"><path fill="none" stroke="#000000" d="M 1208 319 L 1228 319 L 1228 329 L 1208 329 L 1208 319 Z Z" stroke-miterlimit="10"/></g><g transform="translate(-1198,-302) scale(1,1)"><rect fill="#ffffff" stroke="none" x="1208" y="339" width="20" height="10"/></g><g transform="translate(-1198,-302) scale(1,1)"><path fill="none" stroke="#000000" d="M 1208 339 L 1228 339 L 1228 349 L 1208 349 L 1208 339 Z Z" stroke-miterlimit="10"/></g><g transform="translate(-1198,-302) scale(1,1)"><g><path fill="none" stroke="none"/><text fill="#000000" stroke="none" font-family="Arial" font-size="26px" font-style="normal" font-weight="bold" text-decoration="none" x="2052.58642578125" y="344.5">Client-side</text></g></g><g transform="translate(-1198,-302) scale(1,1)"><rect fill="#C0C0C0" stroke="none" x="1281" y="375" width="1686" height="904" opacity="0.2"/></g><g transform="translate(-1198,-302) scale(1,1)"><rect fill="#ffffff" stroke="none" x="1274" y="368" width="1686" height="904"/></g><g transform="translate(-1198,-302) scale(1,1)"><path fill="none" stroke="#000000" d="M 1274 368 L 2960 368 L 2960 1272 L 1274 1272 L 1274 368 Z Z" stroke-miterlimit="10"/></g><g transform="translate(-1198,-302) scale(1,1)"><rect fill="#ffffff" stroke="none" x="1264" y="375" width="20" height="10"/></g><g transform="translate(-1198,-302) scale(1,1)"><path fill="none" stroke="#000000" d="M 1264 375 L 1284 375 L 1284 385 L 1264 385 L 1264 375 Z Z" stroke-miterlimit="10"/></g><g transform="translate(-1198,-302) scale(1,1)"><rect fill="#ffffff" stroke="none" x="1264" y="395" width="20" height="10"/></g><g transform="translate(-1198,-302) scale(1,1)"><path fill="none" stroke="#000000" d="M 1264 395 L 1284 395 L 1284 405 L 1264 405 L 1264 395 Z Z" stroke-miterlimit="10"/></g><g transform="translate(-1198,-302) scale(1,1)"><path fill="none" stroke="#000000" d="M 1284 406 L 2960 406" stroke-miterlimit="10"/></g><g transform="translate(-1198,-302) scale(1,1)"><g><path fill="none" stroke="none"/><text fill="#000000" stroke="none" font-family="Arial" font-size="26px" font-style="normal" font-weight="bold" text-decoration="none" x="2020.8310546875" y="400.5">EditorComponent</text></g></g><g transform="translate(-1198,-302) scale(1,1)"><rect fill="#C0C0C0" stroke="none" x="1417" y="535" width="590" height="272" opacity="0.2"/></g><g transform="translate(-1198,-302) scale(1,1)"><rect fill="#ffffff" stroke="none" x="1410" y="528" width="590" height="272"/></g><g transform="translate(-1198,-302) scale(1,1)"><path fill="none" stroke="#000000" d="M 1410 528 L 2000 528 L 2000 800 L 1410 800 L 1410 528 Z Z" stroke-miterlimit="10"/></g><g transform="translate(-1198,-302) scale(1,1)"><rect fill="#ffffff" stroke="none" x="1400" y="535" width="20" height="10"/></g><g transform="translate(-1198,-302) scale(1,1)"><path fill="none" stroke="#000000" d="M 1400 535 L 1420 535 L 1420 545 L 1400 545 L 1400 535 Z Z" stroke-miterlimit="10"/></g><g transform="translate(-1198,-302) scale(1,1)"><rect fill="#ffffff" stroke="none" x="1400" y="555" width="20" height="10"/></g><g transform="translate(-1198,-302) scale(1,1)"><path fill="none" stroke="#000000" d="M 1400 555 L 1420 555 L 1420 565 L 1400 565 L 1400 555 Z Z" stroke-miterlimit="10"/></g><g transform="translate(-1198,-302) scale(1,1)"><g><path fill="none" stroke="none"/><text fill="#000000" stroke="none" font-family="Arial" font-size="26px" font-style="normal" font-weight="bold" text-decoration="none" x="1578.49560546875" y="560.5">EditorWindowManager</text></g></g><g transform="translate(-1198,-302) scale(1,1)"><rect fill="#C0C0C0" stroke="none" x="2377" y="807" width="550" height="312" opacity="0.2"/></g><g transform="translate(-1198,-302) scale(1,1)"><rect fill="#ffffff" stroke="none" x="2370" y="800" width="550" height="312"/></g><g transform="translate(-1198,-302) scale(1,1)"><path fill="none" stroke="#000000" d="M 2370 800 L 2920 800 L 2920 1112 L 2370 1112 L 2370 800 Z Z" stroke-miterlimit="10"/></g><g transform="translate(-1198,-302) scale(1,1)"><rect fill="#ffffff" stroke="none" x="2360" y="807" width="20" height="10"/></g><g transform="translate(-1198,-302) scale(1,1)"><path fill="none" stroke="#000000" d="M 2360 807 L 2380 807 L 2380 817 L 2360 817 L 2360 807 Z Z" stroke-miterlimit="10"/></g><g transform="translate(-1198,-302) scale(1,1)"><rect fill="#ffffff" stroke="none" x="2360" y="827" width="20" height="10"/></g><g transform="translate(-1198,-302) scale(1,1)"><path fill="none" stroke="#000000" d="M 2360 827 L 2380 827 L 2380 837 L 2360 837 L 2360 827 Z Z" stroke-miterlimit="10"/></g><g transform="translate(-1198,-302) scale(1,1)"><path fill="none" stroke="#000000" d="M 2380 838 L 2920 838" stroke-miterlimit="10"/></g><g transform="translate(-1198,-302) scale(1,1)"><g><path fill="none" stroke="none"/><text fill="#000000" stroke="none" font-family="Arial" font-size="26px" font-style="normal" font-weight="bold" text-decoration="none" x="2516.31201171875" y="832.5">CanvasBoxComponent</text></g></g><g transform="translate(-1198,-302) scale(1,1)"><rect fill="#C0C0C0" stroke="none" x="2417" y="871" width="469.9375" height="200" opacity="0.2"/></g><g transform="translate(-1198,-302) scale(1,1)"><rect fill="#ffffff" stroke="none" x="2410" y="864" width="469.9375" height="200"/></g><g transform="translate(-1198,-302) scale(1,1)"><path fill="none" stroke="#000000" d="M 2410 864 L 2879.9375 864 L 2879.9375 1064 L 2410 1064 L 2410 864 Z Z" stroke-miterlimit="10"/></g><g transform="translate(-1198,-302) scale(1,1)"><rect fill="#ffffff" stroke="none" x="2400" y="871" width="20" height="10"/></g><g transform="translate(-1198,-302) scale(1,1)"><path fill="none" stroke="#000000" d="M 2400 871 L 2420 871 L 2420 881 L 2400 881 L 2400 871 Z Z" stroke-miterlimit="10"/></g><g transform="translate(-1198,-302) scale(1,1)"><rect fill="#ffffff" stroke="none" x="2400" y="891" width="20" height="10"/></g><g transform="translate(-1198,-302) scale(1,1)"><path fill="none" stroke="#000000" d="M 2400 891 L 2420 891 L 2420 901 L 2400 901 L 2400 891 Z Z" stroke-miterlimit="10"/></g><g transform="translate(-1198,-302) scale(1,1)"><path fill="none" stroke="#000000" d="M 2420 902 L 2879.9375 902" stroke-miterlimit="10"/></g><g transform="translate(-1198,-302) scale(1,1)"><g><path fill="none" stroke="none"/><text fill="#000000" stroke="none" font-family="Arial" font-size="26px" font-style="normal" font-weight="bold" text-decoration="none" x="2514.103515625" y="896.5">LineCanvasComponent</text></g></g><g transform="translate(-1198,-302) scale(1,1)"><g><path fill="none" stroke="none"/><text fill="#000000" stroke="none" font-family="Arial" font-size="26px" font-style="normal" font-weight="normal" text-decoration="none" x="2425" y="932.5">+lineCanvasModel: LineCanvas</text></g></g><g transform="translate(-1198,-302) scale(1,1)"><rect fill="#C0C0C0" stroke="none" x="1561" y="575" width="286" height="87" opacity="0.2"/></g><g transform="translate(-1198,-302) scale(1,1)"><rect fill="#ffffff" stroke="none" x="1554" y="568" width="286" height="87"/></g><g transform="translate(-1198,-302) scale(1,1)"><path fill="none" stroke="#000000" d="M 1554 568 L 1840 568 L 1840 655 L 1554 655 L 1554 568 Z Z" stroke-miterlimit="10"/></g><g transform="translate(-1198,-302) scale(1,1)"><rect fill="#ffffff" stroke="none" x="1544" y="575" width="20" height="10"/></g><g transform="translate(-1198,-302) scale(1,1)"><path fill="none" stroke="#000000" d="M 1544 575 L 1564 575 L 1564 585 L 1544 585 L 1544 575 Z Z" stroke-miterlimit="10"/></g><g transform="translate(-1198,-302) scale(1,1)"><rect fill="#ffffff" stroke="none" x="1544" y="595" width="20" height="10"/></g><g transform="translate(-1198,-302) scale(1,1)"><path fill="none" stroke="#000000" d="M 1544 595 L 1564 595 L 1564 605 L 1544 605 L 1544 595 Z Z" stroke-miterlimit="10"/></g><g transform="translate(-1198,-302) scale(1,1)"><path fill="none" stroke="#000000" d="M 1564 606 L 1840 606" stroke-miterlimit="10"/></g><g transform="translate(-1198,-302) scale(1,1)"><g><path fill="none" stroke="none"/><text fill="#000000" stroke="none" font-family="Arial" font-size="26px" font-style="normal" font-weight="bold" text-decoration="none" x="1625.41552734375" y="600.5">ToolsWindow</text></g></g><g transform="translate(-1198,-302) scale(1,1)"><rect fill="#C0C0C0" stroke="none" x="1465" y="671" width="286" height="88" opacity="0.2"/></g><g transform="translate(-1198,-302) scale(1,1)"><rect fill="#ffffff" stroke="none" x="1458" y="664" width="286" height="88"/></g><g transform="translate(-1198,-302) scale(1,1)"><path fill="none" stroke="#000000" d="M 1458 664 L 1744 664 L 1744 752 L 1458 752 L 1458 664 Z Z" stroke-miterlimit="10"/></g><g transform="translate(-1198,-302) scale(1,1)"><rect fill="#ffffff" stroke="none" x="1448" y="671" width="20" height="10"/></g><g transform="translate(-1198,-302) scale(1,1)"><path fill="none" stroke="#000000" d="M 1448 671 L 1468 671 L 1468 681 L 1448 681 L 1448 671 Z Z" stroke-miterlimit="10"/></g><g transform="translate(-1198,-302) scale(1,1)"><rect fill="#ffffff" stroke="none" x="1448" y="691" width="20" height="10"/></g><g transform="translate(-1198,-302) scale(1,1)"><path fill="none" stroke="#000000" d="M 1448 691 L 1468 691 L 1468 701 L 1448 701 L 1448 691 Z Z" stroke-miterlimit="10"/></g><g transform="translate(-1198,-302) scale(1,1)"><path fill="none" stroke="#000000" d="M 1468 702 L 1744 702" stroke-miterlimit="10"/></g><g transform="translate(-1198,-302) scale(1,1)"><g><path fill="none" stroke="none"/><text fill="#000000" stroke="none" font-family="Arial" font-size="26px" font-style="normal" font-weight="bold" text-decoration="none" x="1538.07373046875" y="696.5">LogWindow</text></g></g><g transform="translate(-1198,-302) scale(1,1)"><rect fill="#C0C0C0" stroke="none" x="2145" y="439" width="286.640625" height="248" opacity="0.2"/></g><g transform="translate(-1198,-302) scale(1,1)"><rect fill="#ffffff" stroke="none" x="2138" y="432" width="286.640625" height="248"/></g><g transform="translate(-1198,-302) scale(1,1)"><path fill="none" stroke="#000000" d="M 2138 432 L 2424.640625 432 L 2424.640625 680 L 2138 680 L 2138 432 Z Z" stroke-miterlimit="10"/></g><g transform="translate(-1198,-302) scale(1,1)"><rect fill="#ffffff" stroke="none" x="2128" y="439" width="20" height="10"/></g><g transform="translate(-1198,-302) scale(1,1)"><path fill="none" stroke="#000000" d="M 2128 439 L 2148 439 L 2148 449 L 2128 449 L 2128 439 Z Z" stroke-miterlimit="10"/></g><g transform="translate(-1198,-302) scale(1,1)"><rect fill="#ffffff" stroke="none" x="2128" y="459" width="20" height="10"/></g><g transform="translate(-1198,-302) scale(1,1)"><path fill="none" stroke="#000000" d="M 2128 459 L 2148 459 L 2148 469 L 2128 469 L 2128 459 Z Z" stroke-miterlimit="10"/></g><g transform="translate(-1198,-302) scale(1,1)"><path fill="none" stroke="#000000" d="M 2148 470 L 2424.640625 470" stroke-miterlimit="10"/></g><g transform="translate(-1198,-302) scale(1,1)"><g><path fill="none" stroke="none"/><text fill="#000000" stroke="none" font-family="Arial" font-size="26px" font-style="normal" font-weight="bold" text-decoration="none" x="2171.43408203125" y="464.5">GlobalEditorService</text></g></g><g transform="translate(-1198,-302) scale(1,1)"><g><path fill="none" stroke="none"/><text fill="#000000" stroke="none" font-family="Arial" font-size="26px" font-style="normal" font-weight="normal" text-decoration="none" x="2153" y="500.5">+model: EditorModel</text></g></g><g transform="translate(-1198,-302) scale(1,1)"><path fill="none" stroke="#000000" d="M 2497 799 L 2390 681" stroke-miterlimit="10" stroke-dasharray="3"/></g><g transform="translate(-1198,-302) scale(1,1)"><path fill="none" stroke="#000000" d="M 2399.944998417889 685.7007453098616 L 2390 681 L 2393.708246934945 691.3561047054128" stroke-miterlimit="10"/></g><g transform="translate(-1198,-302) scale(1,1)"><path fill="none" stroke="#000000" d="M 2001 608 L 2127 584" stroke-miterlimit="10" stroke-dasharray="3"/></g><g transform="translate(-1198,-302) scale(1,1)"><path fill="none" stroke="#000000" d="M 2117.804464289872 590.0367311521854 L 2127 584 L 2116.2291608088153 581.766387876636" stroke-miterlimit="10"/></g><g transform="translate(-1198,-302) scale(1,1)"><rect fill="#C0C0C0" stroke="none" x="1473" y="887" width="854" height="343" opacity="0.2"/></g><g transform="translate(-1198,-302) scale(1,1)"><rect fill="#ffffff" stroke="none" x="1466" y="880" width="854" height="343"/></g><g transform="translate(-1198,-302) scale(1,1)"><path fill="none" stroke="#000000" d="M 1466 880 L 2320 880 L 2320 1223 L 1466 1223 L 1466 880 Z Z" stroke-miterlimit="10"/></g><g transform="translate(-1198,-302) scale(1,1)"><rect fill="#ffffff" stroke="none" x="1456" y="887" width="20" height="10"/></g><g transform="translate(-1198,-302) scale(1,1)"><path fill="none" stroke="#000000" d="M 1456 887 L 1476 887 L 1476 897 L 1456 897 L 1456 887 Z Z" stroke-miterlimit="10"/></g><g transform="translate(-1198,-302) scale(1,1)"><rect fill="#ffffff" stroke="none" x="1456" y="907" width="20" height="10"/></g><g transform="translate(-1198,-302) scale(1,1)"><path fill="none" stroke="#000000" d="M 1456 907 L 1476 907 L 1476 917 L 1456 917 L 1456 907 Z Z" stroke-miterlimit="10"/></g><g transform="translate(-1198,-302) scale(1,1)"><g><path fill="none" stroke="none"/><text fill="#000000" stroke="none" font-family="Arial" font-size="26px" font-style="normal" font-weight="bold" text-decoration="none" x="1768.66015625" y="912.5">SocketSessionService</text></g></g><g transform="translate(-1198,-302) scale(1,1)"><rect fill="#C0C0C0" stroke="none" x="1249" y="2015" width="1950" height="1488" opacity="0.2"/></g><g transform="translate(-1198,-302) scale(1,1)"><rect fill="#ffffff" stroke="none" x="1242" y="2008" width="1950" height="1488"/></g><g transform="translate(-1198,-302) scale(1,1)"><path fill="none" stroke="#000000" d="M 1242 2008 L 3192 2008 L 3192 3496 L 1242 3496 L 1242 2008 Z Z" stroke-miterlimit="10"/></g><g transform="translate(-1198,-302) scale(1,1)"><rect fill="#ffffff" stroke="none" x="1232" y="2015" width="20" height="10"/></g><g transform="translate(-1198,-302) scale(1,1)"><path fill="none" stroke="#000000" d="M 1232 2015 L 1252 2015 L 1252 2025 L 1232 2025 L 1232 2015 Z Z" stroke-miterlimit="10"/></g><g transform="translate(-1198,-302) scale(1,1)"><rect fill="#ffffff" stroke="none" x="1232" y="2035" width="20" height="10"/></g><g transform="translate(-1198,-302) scale(1,1)"><path fill="none" stroke="#000000" d="M 1232 2035 L 1252 2035 L 1252 2045 L 1232 2045 L 1232 2035 Z Z" stroke-miterlimit="10"/></g><g transform="translate(-1198,-302) scale(1,1)"><g><path fill="none" stroke="none"/><text fill="#000000" stroke="none" font-family="Arial" font-size="26px" font-style="normal" font-weight="bold" text-decoration="none" x="2155.53369140625" y="2040.5">Server-side</text></g></g><g transform="translate(-1198,-302) scale(1,1)"><rect fill="#C0C0C0" stroke="none" x="2752" y="2687" width="390" height="432" opacity="0.2"/></g><g transform="translate(-1198,-302) scale(1,1)"><rect fill="#ffffff" stroke="none" x="2745" y="2680" width="390" height="432"/></g><g transform="translate(-1198,-302) scale(1,1)"><path fill="none" stroke="#000000" d="M 2745 2680 L 3135 2680 L 3135 3112 L 2745 3112 L 2745 2680 Z Z" stroke-miterlimit="10"/></g><g transform="translate(-1198,-302) scale(1,1)"><rect fill="#ffffff" stroke="none" x="2735" y="2687" width="20" height="10"/></g><g transform="translate(-1198,-302) scale(1,1)"><path fill="none" stroke="#000000" d="M 2735 2687 L 2755 2687 L 2755 2697 L 2735 2697 L 2735 2687 Z Z" stroke-miterlimit="10"/></g><g transform="translate(-1198,-302) scale(1,1)"><rect fill="#ffffff" stroke="none" x="2735" y="2707" width="20" height="10"/></g><g transform="translate(-1198,-302) scale(1,1)"><path fill="none" stroke="#000000" d="M 2735 2707 L 2755 2707 L 2755 2717 L 2735 2717 L 2735 2707 Z Z" stroke-miterlimit="10"/></g><g transform="translate(-1198,-302) scale(1,1)"><g><path fill="none" stroke="none"/><text fill="#000000" stroke="none" font-family="Arial" font-size="26px" font-style="normal" font-weight="bold" text-decoration="none" x="2846.255859375" y="2712.5">JPA Repositories</text></g></g><g transform="translate(-1198,-302) scale(1,1)"><path fill="none" stroke="#000000" d="M 2152 1817 L 2164 2007" stroke-miterlimit="10" stroke-dasharray="3"/></g><g transform="translate(-1198,-302) scale(1,1)"><path fill="none" stroke="#000000" d="M 2159.1582761081945 1997.1228693561582 L 2164 2007 L 2167.5605702603975 1996.5921981465453" stroke-miterlimit="10"/></g><g transform="translate(-1198,-302) scale(1,1)"><path fill="none" stroke="#000000" d="M 2023 879 L 2178 681" stroke-miterlimit="10" stroke-dasharray="3"/></g><g transform="translate(-1198,-302) scale(1,1)"><path fill="none" stroke="#000000" d="M 2175.050232819604 691.5971162861157 L 2178 681 L 2168.4209068368855 686.4074924107554" stroke-miterlimit="10"/></g><g transform="translate(-1198,-302) scale(1,1)"><rect fill="#C0C0C0" stroke="none" x="1265" y="1359" width="397" height="392" opacity="0.2"/></g><g transform="translate(-1198,-302) scale(1,1)"><rect fill="#ffffff" stroke="none" x="1258" y="1352" width="397" height="392"/></g><g transform="translate(-1198,-302) scale(1,1)"><path fill="none" stroke="#000000" d="M 1258 1352 L 1655 1352 L 1655 1744 L 1258 1744 L 1258 1352 Z Z" stroke-miterlimit="10"/></g><g transform="translate(-1198,-302) scale(1,1)"><rect fill="#ffffff" stroke="none" x="1248" y="1359" width="20" height="10"/></g><g transform="translate(-1198,-302) scale(1,1)"><path fill="none" stroke="#000000" d="M 1248 1359 L 1268 1359 L 1268 1369 L 1248 1369 L 1248 1359 Z Z" stroke-miterlimit="10"/></g><g transform="translate(-1198,-302) scale(1,1)"><rect fill="#ffffff" stroke="none" x="1248" y="1379" width="20" height="10"/></g><g transform="translate(-1198,-302) scale(1,1)"><path fill="none" stroke="#000000" d="M 1248 1379 L 1268 1379 L 1268 1389 L 1248 1389 L 1248 1379 Z Z" stroke-miterlimit="10"/></g><g transform="translate(-1198,-302) scale(1,1)"><g><path fill="none" stroke="none"/><text fill="#000000" stroke="none" font-family="Arial" font-size="26px" font-style="normal" font-weight="bold" text-decoration="none" x="1389.94921875" y="1384.5">auth Module</text></g></g><g transform="translate(-1198,-302) scale(1,1)"><rect fill="#C0C0C0" stroke="none" x="2024" y="2575" width="374" height="488" opacity="0.2"/></g><g transform="translate(-1198,-302) scale(1,1)"><rect fill="#ffffff" stroke="none" x="2017" y="2568" width="374" height="488"/></g><g transform="translate(-1198,-302) scale(1,1)"><path fill="none" stroke="#000000" d="M 2017 2568 L 2391 2568 L 2391 3056 L 2017 3056 L 2017 2568 Z Z" stroke-miterlimit="10"/></g><g transform="translate(-1198,-302) scale(1,1)"><rect fill="#ffffff" stroke="none" x="2007" y="2575" width="20" height="10"/></g><g transform="translate(-1198,-302) scale(1,1)"><path fill="none" stroke="#000000" d="M 2007 2575 L 2027 2575 L 2027 2585 L 2007 2585 L 2007 2575 Z Z" stroke-miterlimit="10"/></g><g transform="translate(-1198,-302) scale(1,1)"><rect fill="#ffffff" stroke="none" x="2007" y="2595" width="20" height="10"/></g><g transform="translate(-1198,-302) scale(1,1)"><path fill="none" stroke="#000000" d="M 2007 2595 L 2027 2595 L 2027 2605 L 2007 2605 L 2007 2595 Z Z" stroke-miterlimit="10"/></g><g transform="translate(-1198,-302) scale(1,1)"><g><path fill="none" stroke="none"/><text fill="#000000" stroke="none" font-family="Arial" font-size="26px" font-style="normal" font-weight="bold" text-decoration="none" x="2120.85009765625" y="2600.5">Spring Security</text></g></g><g transform="translate(-1198,-302) scale(1,1)"><rect fill="#C0C0C0" stroke="none" x="2055" y="2623" width="328" height="71" opacity="0.2"/></g><g transform="translate(-1198,-302) scale(1,1)"><rect fill="#ffffff" stroke="none" x="2048" y="2616" width="328" height="71"/></g><g transform="translate(-1198,-302) scale(1,1)"><path fill="none" stroke="#000000" d="M 2048 2616 L 2376 2616 L 2376 2687 L 2048 2687 L 2048 2616 Z Z" stroke-miterlimit="10"/></g><g transform="translate(-1198,-302) scale(1,1)"><rect fill="#ffffff" stroke="none" x="2048" y="2616" width="328" height="71"/></g><g transform="translate(-1198,-302) scale(1,1)"><path fill="none" stroke="#000000" d="M 2048 2616 L 2376 2616 L 2376 2687 L 2048 2687 L 2048 2616 Z Z" stroke-miterlimit="10"/></g><g transform="translate(-1198,-302) scale(1,1)"><g><path fill="none" stroke="none"/><text fill="#000000" stroke="none" font-family="Arial" font-size="26px" font-style="normal" font-weight="bold" text-decoration="none" x="2087.712890625" y="2648.5">SecurityConfiguration</text><path fill="none" stroke="#000000" d="M 2348.50634765625 2648.5 L 2075.49365234375 2648.5" stroke-miterlimit="10"/></g></g><g transform="translate(-1198,-302) scale(1,1)"><rect fill="#C0C0C0" stroke="none" x="2529" y="1375" width="421" height="352" opacity="0.2"/></g><g transform="translate(-1198,-302) scale(1,1)"><rect fill="#ffffff" stroke="none" x="2522" y="1368" width="421" height="352"/></g><g transform="translate(-1198,-302) scale(1,1)"><path fill="none" stroke="#000000" d="M 2522 1368 L 2943 1368 L 2943 1720 L 2522 1720 L 2522 1368 Z Z" stroke-miterlimit="10"/></g><g transform="translate(-1198,-302) scale(1,1)"><rect fill="#ffffff" stroke="none" x="2512" y="1375" width="20" height="10"/></g><g transform="translate(-1198,-302) scale(1,1)"><path fill="none" stroke="#000000" d="M 2512 1375 L 2532 1375 L 2532 1385 L 2512 1385 L 2512 1375 Z Z" stroke-miterlimit="10"/></g><g transform="translate(-1198,-302) scale(1,1)"><rect fill="#ffffff" stroke="none" x="2512" y="1395" width="20" height="10"/></g><g transform="translate(-1198,-302) scale(1,1)"><path fill="none" stroke="#000000" d="M 2512 1395 L 2532 1395 L 2532 1405 L 2512 1405 L 2512 1395 Z Z" stroke-miterlimit="10"/></g><g transform="translate(-1198,-302) scale(1,1)"><g><path fill="none" stroke="none"/><text fill="#000000" stroke="none" font-family="Arial" font-size="26px" font-style="normal" font-weight="bold" text-decoration="none" x="2608.14111328125" y="1400.5">Left-panel-Component</text></g></g><g transform="translate(-1198,-302) scale(1,1)"><rect fill="#C0C0C0" stroke="none" x="2569" y="1543" width="349" height="159" opacity="0.2"/></g><g transform="translate(-1198,-302) scale(1,1)"><rect fill="#ffffff" stroke="none" x="2562" y="1536" width="349" height="159"/></g><g transform="translate(-1198,-302) scale(1,1)"><path fill="none" stroke="#000000" d="M 2562 1536 L 2911 1536 L 2911 1695 L 2562 1695 L 2562 1536 Z Z" stroke-miterlimit="10"/></g><g transform="translate(-1198,-302) scale(1,1)"><rect fill="#ffffff" stroke="none" x="2552" y="1543" width="20" height="10"/></g><g transform="translate(-1198,-302) scale(1,1)"><path fill="none" stroke="#000000" d="M 2552 1543 L 2572 1543 L 2572 1553 L 2552 1553 L 2552 1543 Z Z" stroke-miterlimit="10"/></g><g transform="translate(-1198,-302) scale(1,1)"><rect fill="#ffffff" stroke="none" x="2552" y="1563" width="20" height="10"/></g><g transform="translate(-1198,-302) scale(1,1)"><path fill="none" stroke="#000000" d="M 2552 1563 L 2572 1563 L 2572 1573 L 2552 1573 L 2552 1563 Z Z" stroke-miterlimit="10"/></g><g transform="translate(-1198,-302) scale(1,1)"><g><path fill="none" stroke="none"/><text fill="#000000" stroke="none" font-family="Arial" font-size="26px" font-style="normal" font-weight="bold" text-decoration="none" x="2605.66650390625" y="1568.5">FileBrowserComponent</text></g></g><g transform="translate(-1198,-302) scale(1,1)"><rect fill="#C0C0C0" stroke="none" x="1321" y="1415" width="285" height="44" opacity="0.2"/></g><g transform="translate(-1198,-302) scale(1,1)"><rect fill="#ffffff" stroke="none" x="1314" y="1408" width="285" height="44"/></g><g transform="translate(-1198,-302) scale(1,1)"><path fill="none" stroke="#000000" d="M 1314 1408 L 1599 1408 L 1599 1452 L 1314 1452 L 1314 1408 Z Z" stroke-miterlimit="10"/></g><g transform="translate(-1198,-302) scale(1,1)"><rect fill="#ffffff" stroke="none" x="1304" y="1415" width="20" height="10"/></g><g transform="translate(-1198,-302) scale(1,1)"><path fill="none" stroke="#000000" d="M 1304 1415 L 1324 1415 L 1324 1425 L 1304 1425 L 1304 1415 Z Z" stroke-miterlimit="10"/></g><g transform="translate(-1198,-302) scale(1,1)"><rect fill="#ffffff" stroke="none" x="1304" y="1435" width="20" height="10"/></g><g transform="translate(-1198,-302) scale(1,1)"><path fill="none" stroke="#000000" d="M 1304 1435 L 1324 1435 L 1324 1445 L 1304 1445 L 1304 1435 Z Z" stroke-miterlimit="10"/></g><g transform="translate(-1198,-302) scale(1,1)"><g><path fill="none" stroke="none"/><text fill="#000000" stroke="none" font-family="Arial" font-size="26px" font-style="normal" font-weight="bold" text-decoration="none" x="1391.4091796875" y="1440.5">AuthService</text></g></g><g transform="translate(-1198,-302) scale(1,1)"><path fill="none" stroke="#000000" d="M 2646 1367 L 2333 681" stroke-miterlimit="10" stroke-dasharray="3"/></g><g transform="translate(-1198,-302) scale(1,1)"><path fill="none" stroke="#000000" d="M 2341.0482558378694 688.4983716877864 L 2333 681 L 2333.388826811391 691.9931257479728" stroke-miterlimit="10"/></g><g transform="translate(-1198,-302) scale(1,1)"><rect fill="#C0C0C0" stroke="none" x="2078" y="2847" width="256" height="80" opacity="0.2"/></g><g transform="translate(-1198,-302) scale(1,1)"><rect fill="#ffffff" stroke="none" x="2071" y="2840" width="256" height="80"/></g><g transform="translate(-1198,-302) scale(1,1)"><path fill="none" stroke="#000000" d="M 2071 2840 L 2327 2840 L 2327 2920 L 2071 2920 L 2071 2840 Z Z" stroke-miterlimit="10"/></g><g transform="translate(-1198,-302) scale(1,1)"><rect fill="#ffffff" stroke="none" x="2071" y="2840" width="256" height="80"/></g><g transform="translate(-1198,-302) scale(1,1)"><path fill="none" stroke="#000000" d="M 2071 2840 L 2327 2840 L 2327 2920 L 2071 2920 L 2071 2840 Z Z" stroke-miterlimit="10"/></g><g transform="translate(-1198,-302) scale(1,1)"><g><path fill="none" stroke="none"/><text fill="#000000" stroke="none" font-family="Arial" font-size="26px" font-style="normal" font-weight="bold" text-decoration="none" x="2120.94921875" y="2872.5">AuthManager</text><path fill="none" stroke="#000000" d="M 2282.05908203125 2872.5 L 2115.94091796875 2872.5" stroke-miterlimit="10"/></g></g><g transform="translate(-1198,-302) scale(1,1)"><rect fill="#C0C0C0" stroke="none" x="2062" y="2735" width="301.619140625" height="95" opacity="0.2"/></g><g transform="translate(-1198,-302) scale(1,1)"><rect fill="#ffffff" stroke="none" x="2055" y="2728" width="301.619140625" height="95"/></g><g transform="translate(-1198,-302) scale(1,1)"><path fill="none" stroke="#000000" d="M 2055 2728 L 2356.619140625 2728 L 2356.619140625 2823 L 2055 2823 L 2055 2728 Z Z" stroke-miterlimit="10"/></g><g transform="translate(-1198,-302) scale(1,1)"><rect fill="#ffffff" stroke="none" x="2055" y="2728" width="301.619140625" height="95"/></g><g transform="translate(-1198,-302) scale(1,1)"><path fill="none" stroke="#000000" d="M 2055 2728 L 2356.619140625 2728 L 2356.619140625 2823 L 2055 2823 L 2055 2728 Z Z" stroke-miterlimit="10"/></g><g transform="translate(-1198,-302) scale(1,1)"><g><path fill="none" stroke="none"/><text fill="#000000" stroke="none" font-family="Arial" font-size="26px" font-style="normal" font-weight="bold" text-decoration="none" x="2077.94873046875" y="2760.5">MyUserDetailsService</text><path fill="none" stroke="#000000" d="M 2341.66845703125 2760.5 L 2069.95068359375 2760.5" stroke-miterlimit="10"/></g></g><g transform="translate(-1198,-302) scale(1,1)"><rect fill="#C0C0C0" stroke="none" x="2094" y="2783" width="201.978515625" height="39" opacity="0.2"/></g><g transform="translate(-1198,-302) scale(1,1)"><rect fill="#ffffff" stroke="none" x="2087" y="2776" width="201.978515625" height="39"/></g><g transform="translate(-1198,-302) scale(1,1)"><path fill="none" stroke="#000000" d="M 2087 2776 L 2288.978515625 2776 L 2288.978515625 2815 L 2087 2815 L 2087 2776 Z Z" stroke-miterlimit="10"/></g><g transform="translate(-1198,-302) scale(1,1)"><rect fill="#ffffff" stroke="none" x="2087" y="2776" width="201.978515625" height="39"/></g><g transform="translate(-1198,-302) scale(1,1)"><path fill="none" stroke="#000000" d="M 2087 2776 L 2288.978515625 2776 L 2288.978515625 2815 L 2087 2815 L 2087 2776 Z Z" stroke-miterlimit="10"/></g><g transform="translate(-1198,-302) scale(1,1)"><g><path fill="none" stroke="none"/><text fill="#000000" stroke="none" font-family="Arial" font-size="26px" font-style="normal" font-weight="bold" text-decoration="none" x="2103.4765625" y="2808.5">MyUserDetails</text><path fill="none" stroke="#000000" d="M 2277.58642578125 2808.5 L 2098.39208984375 2808.5" stroke-miterlimit="10"/></g></g><g transform="translate(-1198,-302) scale(1,1)"><rect fill="#C0C0C0" stroke="none" x="2087" y="2951" width="215.9921875" height="72" opacity="0.2"/></g><g transform="translate(-1198,-302) scale(1,1)"><rect fill="#ffffff" stroke="none" x="2080" y="2944" width="215.9921875" height="72"/></g><g transform="translate(-1198,-302) scale(1,1)"><path fill="none" stroke="#000000" d="M 2080 2944 L 2295.9921875 2944 L 2295.9921875 3016 L 2080 3016 L 2080 2944 Z Z" stroke-miterlimit="10"/></g><g transform="translate(-1198,-302) scale(1,1)"><rect fill="#ffffff" stroke="none" x="2080" y="2944" width="215.9921875" height="72"/></g><g transform="translate(-1198,-302) scale(1,1)"><path fill="none" stroke="#000000" d="M 2080 2944 L 2295.9921875 2944 L 2295.9921875 3016 L 2080 3016 L 2080 2944 Z Z" stroke-miterlimit="10"/></g><g transform="translate(-1198,-302) scale(1,1)"><g><path fill="none" stroke="none"/><text fill="#000000" stroke="none" font-family="Arial" font-size="26px" font-style="normal" font-weight="bold" text-decoration="none" x="2099.87158203125" y="2976.5">JwtUtilsService</text><path fill="none" stroke="#000000" d="M 2284.099609375 2976.5 L 2091.892578125 2976.5" stroke-miterlimit="10"/></g></g><g transform="translate(-1198,-302) scale(1,1)"><rect fill="#C0C0C0" stroke="none" x="1279" y="2255" width="423" height="144" opacity="0.2"/></g><g transform="translate(-1198,-302) scale(1,1)"><rect fill="#ffffff" stroke="none" x="1272" y="2248" width="423" height="144"/></g><g transform="translate(-1198,-302) scale(1,1)"><path fill="none" stroke="#000000" d="M 1272 2248 L 1695 2248 L 1695 2392 L 1272 2392 L 1272 2248 Z Z" stroke-miterlimit="10"/></g><g transform="translate(-1198,-302) scale(1,1)"><rect fill="#ffffff" stroke="none" x="1272" y="2248" width="423" height="144"/></g><g transform="translate(-1198,-302) scale(1,1)"><path fill="none" stroke="#000000" d="M 1272 2248 L 1695 2248 L 1695 2392 L 1272 2392 L 1272 2248 Z Z" stroke-miterlimit="10"/></g><g transform="translate(-1198,-302) scale(1,1)"><path fill="none" stroke="#000000" d="M 1272 2286 L 1695 2286" stroke-miterlimit="10"/></g><g transform="translate(-1198,-302) scale(1,1)"><g><path fill="none" stroke="none"/><text fill="#000000" stroke="none" font-family="Arial" font-size="26px" font-style="normal" font-weight="bold" text-decoration="none" x="1400.40283203125" y="2280.5">AuthController</text><path fill="none" stroke="#000000" d="M 1575.2109375 2280.5 L 1391.7890625 2280.5" stroke-miterlimit="10"/></g></g><g transform="translate(-1198,-302) scale(1,1)"><g><path fill="none" stroke="none"/><text fill="#000000" stroke="none" font-family="Arial" font-size="26px" font-style="normal" font-weight="normal" text-decoration="none" x="1277" y="2316.5">POST register</text></g></g><g transform="translate(-1198,-302) scale(1,1)"><g><path fill="none" stroke="none"/><text fill="#000000" stroke="none" font-family="Arial" font-size="26px" font-style="normal" font-weight="normal" text-decoration="none" x="1277" y="2344.5">POST login</text></g></g><g transform="translate(-1198,-302) scale(1,1)"><g><path fill="none" stroke="none"/><text fill="#000000" stroke="none" font-family="Arial" font-size="26px" font-style="normal" font-weight="normal" text-decoration="none" x="1277" y="2372.5">POST log_me _out</text></g></g><g transform="translate(-1198,-302) scale(1,1)"><rect fill="#C0C0C0" stroke="none" x="1526" y="2111" width="433.78515625" height="88" opacity="0.2"/></g><g transform="translate(-1198,-302) scale(1,1)"><rect fill="#ffffff" stroke="none" x="1519" y="2104" width="433.78515625" height="88"/></g><g transform="translate(-1198,-302) scale(1,1)"><path fill="none" stroke="#000000" d="M 1519 2104 L 1952.78515625 2104 L 1952.78515625 2192 L 1519 2192 L 1519 2104 Z Z" stroke-miterlimit="10"/></g><g transform="translate(-1198,-302) scale(1,1)"><rect fill="#ffffff" stroke="none" x="1519" y="2104" width="433.78515625" height="88"/></g><g transform="translate(-1198,-302) scale(1,1)"><path fill="none" stroke="#000000" d="M 1519 2104 L 1952.78515625 2104 L 1952.78515625 2192 L 1519 2192 L 1519 2104 Z Z" stroke-miterlimit="10"/></g><g transform="translate(-1198,-302) scale(1,1)"><g><path fill="none" stroke="none"/><text fill="#000000" stroke="none" font-family="Arial" font-size="26px" font-style="normal" font-weight="bold" text-decoration="none" x="1552.3564453125" y="2136.5">JwtAuthRequestHandlerService</text><path fill="none" stroke="#000000" d="M 1933.1142578125 2136.5 L 1538.6708984375 2136.5" stroke-miterlimit="10"/></g></g><g transform="translate(-1198,-302) scale(1,1)"><path fill="none" stroke="#000000" d="M 1590 2247 L 1669 2193" stroke-miterlimit="10"/></g><g transform="translate(-1198,-302) scale(1,1)"><path fill="none" stroke="#000000" d="M 1662.985536281168 2202.210115426793 L 1669 2193 L 1658.2345968454172 2195.2596669930094" stroke-miterlimit="10"/></g><g transform="translate(-1198,-302) scale(1,1)"><path fill="none" stroke="#000000" d="M 1746 2193 L 1896 2808 L 2070 2849" stroke-miterlimit="10"/></g><g transform="translate(-1198,-302) scale(1,1)"><path fill="none" stroke="#000000" d="M 2059.1427662992924 2850.7664870133162 L 2070 2849 L 2061.0736814793086 2842.5718713712963" stroke-miterlimit="10"/></g><g transform="translate(-1198,-302) scale(1,1)"><path fill="none" stroke="#000000" d="M 1751 2193 L 1960 2800 L 2054 2790" stroke-miterlimit="10"/></g><g transform="translate(-1198,-302) scale(1,1)"><path fill="none" stroke="#000000" d="M 2044.3396570684847 2795.2609670637175 L 2054 2790 L 2043.4490405181841 2786.889171490892" stroke-miterlimit="10"/></g><g transform="translate(-1198,-302) scale(1,1)"><path fill="none" stroke="#000000" d="M 1742 2193 L 1856 2888 L 2079 2950" stroke-miterlimit="10"/></g><g transform="translate(-1198,-302) scale(1,1)"><path fill="none" stroke="#000000" d="M 2068.081120494218 2951.3334430389828 L 2079 2950 L 2070.336299643312 2943.2220728736934" stroke-miterlimit="10"/></g><g transform="translate(-1198,-302) scale(1,1)"><rect fill="#C0C0C0" stroke="none" x="1239" y="2111" width="298.3515625" height="96" opacity="0.2"/></g><g transform="translate(-1198,-302) scale(1,1)"><rect fill="#ffffff" stroke="none" x="1232" y="2104" width="298.3515625" height="96"/></g><g transform="translate(-1198,-302) scale(1,1)"><path fill="none" stroke="#000000" d="M 1232 2104 L 1530.3515625 2104 L 1530.3515625 2200 L 1232 2200 L 1232 2104 Z Z" stroke-miterlimit="10"/></g><g transform="translate(-1198,-302) scale(1,1)"><rect fill="#ffffff" stroke="none" x="1232" y="2104" width="298.3515625" height="96"/></g><g transform="translate(-1198,-302) scale(1,1)"><path fill="none" stroke="#000000" d="M 1232 2104 L 1530.3515625 2104 L 1530.3515625 2200 L 1232 2200 L 1232 2104 Z Z" stroke-miterlimit="10"/></g><g transform="translate(-1198,-302) scale(1,1)"><g><path fill="none" stroke="none"/><text fill="#000000" stroke="none" font-family="Arial" font-size="26px" font-style="normal" font-weight="bold" text-decoration="none" x="1257.625" y="2136.5">JwtAuthRequestFilter</text><path fill="none" stroke="#000000" d="M 1515.517578125 2136.5 L 1246.833984375 2136.5" stroke-miterlimit="10"/></g></g><g transform="translate(-1198,-302) scale(1,1)"><path fill="#ffffff" stroke="none" d="M 1512 1856 L 1740 1856 L 1750 1866 L 1750 1990 L 1512 1990 L 1512 1856"/></g><g transform="translate(-1198,-302) scale(1,1)"><path fill="none" stroke="#000000" d="M 1512 1856 L 1740 1856 L 1750 1866 L 1750 1990 L 1512 1990 L 1512 1856 L 1512 1856" stroke-miterlimit="10"/></g><g transform="translate(-1198,-302) scale(1,1)"><path fill="none" stroke="#000000" d="M 1740 1856 L 1740 1866 L 1750 1866 L 1740 1856" stroke-miterlimit="10"/></g><g transform="translate(-1198,-302) scale(1,1)"><g><path fill="none" stroke="none"/><text fill="#000000" stroke="none" font-family="Arial" font-size="26px" font-style="normal" font-weight="normal" text-decoration="none" x="1517" y="1887">Minden REST</text><text fill="#000000" stroke="none" font-family="Arial" font-size="26px" font-style="normal" font-weight="normal" text-decoration="none" x="1517" y="1913">kérés előtt ezen a</text><text fill="#000000" stroke="none" font-family="Arial" font-size="26px" font-style="normal" font-weight="normal" text-decoration="none" x="1517" y="1939">filteren átfut az</text><text fill="#000000" stroke="none" font-family="Arial" font-size="26px" font-style="normal" font-weight="normal" text-decoration="none" x="1517" y="1965">üzenet.</text></g></g><g transform="translate(-1198,-302) scale(1,1)"><path fill="none" stroke="#000000" d="M 1556 1992 L 1434 2103" stroke-miterlimit="10" stroke-dasharray="3"/></g><g transform="translate(-1198,-302) scale(1,1)"><rect fill="#C0C0C0" stroke="none" x="2775" y="2039" width="479.9833984375" height="287" opacity="0.2"/></g><g transform="translate(-1198,-302) scale(1,1)"><rect fill="#ffffff" stroke="none" x="2768" y="2032" width="479.9833984375" height="287"/></g><g transform="translate(-1198,-302) scale(1,1)"><path fill="none" stroke="#000000" d="M 2768 2032 L 3247.9833984375 2032 L 3247.9833984375 2319 L 2768 2319 L 2768 2032 Z Z" stroke-miterlimit="10"/></g><g transform="translate(-1198,-302) scale(1,1)"><rect fill="#ffffff" stroke="none" x="2768" y="2032" width="479.9833984375" height="287"/></g><g transform="translate(-1198,-302) scale(1,1)"><path fill="none" stroke="#000000" d="M 2768 2032 L 3247.9833984375 2032 L 3247.9833984375 2319 L 2768 2319 L 2768 2032 Z Z" stroke-miterlimit="10"/></g><g transform="translate(-1198,-302) scale(1,1)"><path fill="none" stroke="#000000" d="M 2768 2070 L 3247.9833984375 2070" stroke-miterlimit="10"/></g><g transform="translate(-1198,-302) scale(1,1)"><g><path fill="none" stroke="none"/><text fill="#000000" stroke="none" font-family="Arial" font-size="26px" font-style="normal" font-weight="bold" text-decoration="none" x="2875.75732421875" y="2064.5">ManagementController</text><path fill="none" stroke="#000000" d="M 3149.5634765625 2064.5 L 2866.419921875 2064.5" stroke-miterlimit="10"/></g></g><g transform="translate(-1198,-302) scale(1,1)"><g><path fill="none" stroke="none"/><text fill="#000000" stroke="none" font-family="Arial" font-size="26px" font-style="normal" font-weight="normal" text-decoration="none" x="2773" y="2100.5">+GET user_root_folder</text></g></g><g transform="translate(-1198,-302) scale(1,1)"><g><path fill="none" stroke="none"/><text fill="#000000" stroke="none" font-family="Arial" font-size="26px" font-style="normal" font-weight="normal" text-decoration="none" x="2773" y="2128.5">+GET folder | {id}</text></g></g><g transform="translate(-1198,-302) scale(1,1)"><g><path fill="none" stroke="none"/><text fill="#000000" stroke="none" font-family="Arial" font-size="26px" font-style="normal" font-weight="normal" text-decoration="none" x="2773" y="2156.5">+DELETE folder | {id}</text></g></g><g transform="translate(-1198,-302) scale(1,1)"><g><path fill="none" stroke="none"/><text fill="#000000" stroke="none" font-family="Arial" font-size="26px" font-style="normal" font-weight="normal" text-decoration="none" x="2773" y="2184.5">+GET create_folder | {parent_id}</text></g></g><g transform="translate(-1198,-302) scale(1,1)"><g><path fill="none" stroke="none"/><text fill="#000000" stroke="none" font-family="Arial" font-size="26px" font-style="normal" font-weight="normal" text-decoration="none" x="2773" y="2212.5">+GET project | {id}</text></g></g><g transform="translate(-1198,-302) scale(1,1)"><g><path fill="none" stroke="none"/><text fill="#000000" stroke="none" font-family="Arial" font-size="26px" font-style="normal" font-weight="normal" text-decoration="none" x="2773" y="2240.5">+DELETE project | {id}</text></g></g><g transform="translate(-1198,-302) scale(1,1)"><g><path fill="none" stroke="none"/><text fill="#000000" stroke="none" font-family="Arial" font-size="26px" font-style="normal" font-weight="normal" text-decoration="none" x="2773" y="2268.5">+CREATE project | {id}</text></g></g><g transform="translate(-1198,-302) scale(1,1)"><g><path fill="none" stroke="none"/><text fill="#000000" stroke="none" font-family="Arial" font-size="26px" font-style="normal" font-weight="normal" text-decoration="none" x="2773" y="2296.5">+POST share</text></g></g><g transform="translate(-1198,-302) scale(1,1)"><rect fill="#C0C0C0" stroke="none" x="2943" y="2351" width="279.78515625" height="143" opacity="0.2"/></g><g transform="translate(-1198,-302) scale(1,1)"><rect fill="#ffffff" stroke="none" x="2936" y="2344" width="279.78515625" height="143"/></g><g transform="translate(-1198,-302) scale(1,1)"><path fill="none" stroke="#000000" d="M 2936 2344 L 3215.78515625 2344 L 3215.78515625 2487 L 2936 2487 L 2936 2344 Z Z" stroke-miterlimit="10"/></g><g transform="translate(-1198,-302) scale(1,1)"><rect fill="#ffffff" stroke="none" x="2936" y="2344" width="279.78515625" height="143"/></g><g transform="translate(-1198,-302) scale(1,1)"><path fill="none" stroke="#000000" d="M 2936 2344 L 3215.78515625 2344 L 3215.78515625 2487 L 2936 2487 L 2936 2344 Z Z" stroke-miterlimit="10"/></g><g transform="translate(-1198,-302) scale(1,1)"><g><path fill="none" stroke="none"/><text fill="#000000" stroke="none" font-family="Arial" font-size="26px" font-style="normal" font-weight="bold" text-decoration="none" x="2956.66455078125" y="2376.5">ManagementService</text><path fill="none" stroke="#000000" d="M 3201.6142578125 2376.5 L 2950.1708984375 2376.5" stroke-miterlimit="10"/></g></g><g transform="translate(-1198,-302) scale(1,1)"><rect fill="#C0C0C0" stroke="none" x="2798" y="2727" width="217.509765625" height="56" opacity="0.2"/></g><g transform="translate(-1198,-302) scale(1,1)"><rect fill="#ffffff" stroke="none" x="2791" y="2720" width="217.509765625" height="56"/></g><g transform="translate(-1198,-302) scale(1,1)"><path fill="none" stroke="#000000" d="M 2791 2720 L 3008.509765625 2720 L 3008.509765625 2776 L 2791 2776 L 2791 2720 Z Z" stroke-miterlimit="10"/></g><g transform="translate(-1198,-302) scale(1,1)"><rect fill="#ffffff" stroke="none" x="2791" y="2720" width="217.509765625" height="56"/></g><g transform="translate(-1198,-302) scale(1,1)"><path fill="none" stroke="#000000" d="M 2791 2720 L 3008.509765625 2720 L 3008.509765625 2776 L 2791 2776 L 2791 2720 Z Z" stroke-miterlimit="10"/></g><g transform="translate(-1198,-302) scale(1,1)"><g><path fill="none" stroke="none"/><text fill="#000000" stroke="none" font-family="Arial" font-size="26px" font-style="normal" font-weight="bold" text-decoration="none" x="2810.17041015625" y="2752.5">UserRepository</text><path fill="none" stroke="#000000" d="M 2996.56298828125 2752.5 L 2802.94677734375 2752.5" stroke-miterlimit="10"/></g></g><g transform="translate(-1198,-302) scale(1,1)"><rect fill="#C0C0C0" stroke="none" x="2798" y="2799" width="234.626953125" height="72" opacity="0.2"/></g><g transform="translate(-1198,-302) scale(1,1)"><rect fill="#ffffff" stroke="none" x="2791" y="2792" width="234.626953125" height="72"/></g><g transform="translate(-1198,-302) scale(1,1)"><path fill="none" stroke="#000000" d="M 2791 2792 L 3025.626953125 2792 L 3025.626953125 2864 L 2791 2864 L 2791 2792 Z Z" stroke-miterlimit="10"/></g><g transform="translate(-1198,-302) scale(1,1)"><rect fill="#ffffff" stroke="none" x="2791" y="2792" width="234.626953125" height="72"/></g><g transform="translate(-1198,-302) scale(1,1)"><path fill="none" stroke="#000000" d="M 2791 2792 L 3025.626953125 2792 L 3025.626953125 2864 L 2791 2864 L 2791 2792 Z Z" stroke-miterlimit="10"/></g><g transform="translate(-1198,-302) scale(1,1)"><g><path fill="none" stroke="none"/><text fill="#000000" stroke="none" font-family="Arial" font-size="26px" font-style="normal" font-weight="bold" text-decoration="none" x="2811.4990234375" y="2824.5">File_cRepository</text><path fill="none" stroke="#000000" d="M 3013.06884765625 2824.5 L 2803.55810546875 2824.5" stroke-miterlimit="10"/></g></g><g transform="translate(-1198,-302) scale(1,1)"><rect fill="#C0C0C0" stroke="none" x="2798" y="2887" width="267.2890625" height="87" opacity="0.2"/></g><g transform="translate(-1198,-302) scale(1,1)"><rect fill="#ffffff" stroke="none" x="2791" y="2880" width="267.2890625" height="87"/></g><g transform="translate(-1198,-302) scale(1,1)"><path fill="none" stroke="#000000" d="M 2791 2880 L 3058.2890625 2880 L 3058.2890625 2967 L 2791 2967 L 2791 2880 Z Z" stroke-miterlimit="10"/></g><g transform="translate(-1198,-302) scale(1,1)"><rect fill="#ffffff" stroke="none" x="2791" y="2880" width="267.2890625" height="87"/></g><g transform="translate(-1198,-302) scale(1,1)"><path fill="none" stroke="#000000" d="M 2791 2880 L 3058.2890625 2880 L 3058.2890625 2967 L 2791 2967 L 2791 2880 Z Z" stroke-miterlimit="10"/></g><g transform="translate(-1198,-302) scale(1,1)"><g><path fill="none" stroke="none"/><text fill="#000000" stroke="none" font-family="Arial" font-size="26px" font-style="normal" font-weight="bold" text-decoration="none" x="2813.3828125" y="2912.5">DiagramRepository</text><path fill="none" stroke="#000000" d="M 3044.564453125 2912.5 L 2804.724609375 2912.5" stroke-miterlimit="10"/></g></g><g transform="translate(-1198,-302) scale(1,1)"><rect fill="#C0C0C0" stroke="none" x="2807" y="3023" width="435.37109375" height="64" opacity="0.2"/></g><g transform="translate(-1198,-302) scale(1,1)"><rect fill="#ffffff" stroke="none" x="2800" y="3016" width="435.37109375" height="64"/></g><g transform="translate(-1198,-302) scale(1,1)"><path fill="none" stroke="#000000" d="M 2800 3016 L 3235.37109375 3016 L 3235.37109375 3080 L 2800 3080 L 2800 3016 Z Z" stroke-miterlimit="10"/></g><g transform="translate(-1198,-302) scale(1,1)"><rect fill="#ffffff" stroke="none" x="2800" y="3016" width="435.37109375" height="64"/></g><g transform="translate(-1198,-302) scale(1,1)"><path fill="none" stroke="#000000" d="M 2800 3016 L 3235.37109375 3016 L 3235.37109375 3080 L 2800 3080 L 2800 3016 Z Z" stroke-miterlimit="10"/></g><g transform="translate(-1198,-302) scale(1,1)"><g><path fill="none" stroke="none"/><text fill="#000000" stroke="none" font-family="Arial" font-size="26px" font-style="normal" font-weight="bold" text-decoration="none" x="2834.1748046875" y="3048.5">DynamicSerialObjectRepository</text><path fill="none" stroke="#000000" d="M 3215.6435546875 3048.5 L 2819.7275390625 3048.5" stroke-miterlimit="10"/></g></g><g transform="translate(-1198,-302) scale(1,1)"><path fill="none" stroke="#000000" d="M 3048 2320 L 3055 2343" stroke-miterlimit="10"/></g><g transform="translate(-1198,-302) scale(1,1)"><path fill="none" stroke="#000000" d="M 3048.013883481398 2334.5032843999275 L 3055 2343 L 3056.068154854162 2332.0519844169125" stroke-miterlimit="10"/></g><g transform="translate(-1198,-302) scale(1,1)"><path fill="none" stroke="#000000" d="M 2358 2769 L 2790 2752" stroke-miterlimit="10"/></g><g transform="translate(-1198,-302) scale(1,1)"><path fill="none" stroke="#000000" d="M 2780.0107090188226 2756.605872956712 L 2790 2752 L 2779.6796606069893 2748.193348608939" stroke-miterlimit="10"/></g><g transform="translate(-1198,-302) scale(1,1)"><path fill="none" stroke="#000000" d="M 3069 2488 L 3048 2752 L 3010 2751" stroke-miterlimit="10"/></g><g transform="translate(-1198,-302) scale(1,1)"><path fill="none" stroke="#000000" d="M 3020.269896197885 2747.0592853332587 L 3010 2751 L 3020.04841930718 2755.4754071800326" stroke-miterlimit="10"/></g><g transform="translate(-1198,-302) scale(1,1)"><path fill="none" stroke="#000000" d="M 3077 2488 L 3088 2832 L 3027 2831" stroke-miterlimit="10"/></g><g transform="translate(-1198,-302) scale(1,1)"><path fill="none" stroke="#000000" d="M 3037.2303087658092 2826.957626618407 L 3027 2831 L 3037.092310332148 2835.3755310717233" stroke-miterlimit="10"/></g><g transform="translate(-1198,-302) scale(1,1)"><rect fill="#C0C0C0" stroke="none" x="2583" y="2511" width="374.708984375" height="151" opacity="0.2"/></g><g transform="translate(-1198,-302) scale(1,1)"><rect fill="#ffffff" stroke="none" x="2576" y="2504" width="374.708984375" height="151"/></g><g transform="translate(-1198,-302) scale(1,1)"><path fill="none" stroke="#000000" d="M 2576 2504 L 2950.708984375 2504 L 2950.708984375 2655 L 2576 2655 L 2576 2504 Z Z" stroke-miterlimit="10"/></g><g transform="translate(-1198,-302) scale(1,1)"><rect fill="#ffffff" stroke="none" x="2576" y="2504" width="374.708984375" height="151"/></g><g transform="translate(-1198,-302) scale(1,1)"><path fill="none" stroke="#000000" d="M 2576 2504 L 2950.708984375 2504 L 2950.708984375 2655 L 2576 2655 L 2576 2504 Z Z" stroke-miterlimit="10"/></g><g transform="translate(-1198,-302) scale(1,1)"><g><path fill="none" stroke="none"/><text fill="#000000" stroke="none" font-family="Arial" font-size="26px" font-style="normal" font-weight="bold" text-decoration="none" x="2603.66650390625" y="2536.5">ProjectManagementService</text><path fill="none" stroke="#000000" d="M 2933.14794921875 2536.5 L 2593.56103515625 2536.5" stroke-miterlimit="10"/></g></g><g transform="translate(-1198,-302) scale(1,1)"><path fill="none" stroke="#000000" d="M 2936 2488 L 2908 2503" stroke-miterlimit="10" stroke-dasharray="3"/></g><g transform="translate(-1198,-302) scale(1,1)"><path fill="none" stroke="#000000" d="M 2914.970369908156 2494.4903617383893 L 2908 2503 L 2918.946018749665 2501.9115729092064" stroke-miterlimit="10"/></g><g transform="translate(-1198,-302) scale(1,1)"><path fill="none" stroke="#000000" d="M 2825 2656 L 2876 2719" stroke-miterlimit="10"/></g><g transform="translate(-1198,-302) scale(1,1)"><path fill="none" stroke="#000000" d="M 2808 2656 L 2886 2791" stroke-miterlimit="10"/></g><g transform="translate(-1198,-302) scale(1,1)"><path fill="none" stroke="#000000" d="M 2877.27096703411 2784.306422221233 L 2886 2791 L 2884.5607158343837 2780.0945673588526" stroke-miterlimit="10"/></g><g transform="translate(-1198,-302) scale(1,1)"><path fill="none" stroke="#000000" d="M 2799 2656 L 2903 2879" stroke-miterlimit="10"/></g><g transform="translate(-1198,-302) scale(1,1)"><path fill="none" stroke="#000000" d="M 2894.8895827276733 2871.568907774173 L 2903 2879 L 2902.5196446529903 2868.0104932439804" stroke-miterlimit="10"/></g><g transform="translate(-1198,-302) scale(1,1)"><rect fill="#C0C0C0" stroke="none" x="1303" y="2887" width="307.83984375" height="167" opacity="0.2"/></g><g transform="translate(-1198,-302) scale(1,1)"><rect fill="#ffffff" stroke="none" x="1296" y="2880" width="307.83984375" height="167"/></g><g transform="translate(-1198,-302) scale(1,1)"><path fill="none" stroke="#000000" d="M 1296 2880 L 1603.83984375 2880 L 1603.83984375 3047 L 1296 3047 L 1296 2880 Z Z" stroke-miterlimit="10"/></g><g transform="translate(-1198,-302) scale(1,1)"><rect fill="#ffffff" stroke="none" x="1296" y="2880" width="307.83984375" height="167"/></g><g transform="translate(-1198,-302) scale(1,1)"><path fill="none" stroke="#000000" d="M 1296 2880 L 1603.83984375 2880 L 1603.83984375 3047 L 1296 3047 L 1296 2880 Z Z" stroke-miterlimit="10"/></g><g transform="translate(-1198,-302) scale(1,1)"><g><path fill="none" stroke="none"/><text fill="#000000" stroke="none" font-family="Arial" font-size="26px" font-style="normal" font-weight="bold" text-decoration="none" x="1320.580078125" y="2912.5">SocketSessionService</text><path fill="none" stroke="#000000" d="M 1588.6669921875 2912.5 L 1311.1728515625 2912.5" stroke-miterlimit="10"/></g></g><g transform="translate(-1198,-302) scale(1,1)"><rect fill="#C0C0C0" stroke="none" x="1415" y="3215" width="215" height="159" opacity="0.2"/></g><g transform="translate(-1198,-302) scale(1,1)"><rect fill="#ffffff" stroke="none" x="1408" y="3208" width="215" height="159"/></g><g transform="translate(-1198,-302) scale(1,1)"><path fill="none" stroke="#000000" d="M 1408 3208 L 1623 3208 L 1623 3367 L 1408 3367 L 1408 3208 Z Z" stroke-miterlimit="10"/></g><g transform="translate(-1198,-302) scale(1,1)"><rect fill="#ffffff" stroke="none" x="1408" y="3208" width="215" height="159"/></g><g transform="translate(-1198,-302) scale(1,1)"><path fill="none" stroke="#000000" d="M 1408 3208 L 1623 3208 L 1623 3367 L 1408 3367 L 1408 3208 Z Z" stroke-miterlimit="10"/></g><g transform="translate(-1198,-302) scale(1,1)"><g><path fill="none" stroke="none"/><text fill="#000000" stroke="none" font-family="Arial" font-size="26px" font-style="normal" font-weight="bold" text-decoration="none" x="1435.291015625" y="3240.5">EditorSession</text><path fill="none" stroke="#000000" d="M 1602.9072265625 3240.5 L 1428.0927734375 3240.5" stroke-miterlimit="10"/></g></g><g transform="translate(-1198,-302) scale(1,1)"><path fill="none" stroke="#000000" d="M 1624 3286 L 2520 3280 L 2873 2968" stroke-miterlimit="10"/></g><g transform="translate(-1198,-302) scale(1,1)"><path fill="none" stroke="#000000" d="M 2868.1730767397494 2977.8843721014364 L 2873 2968 L 2862.597543289713 2971.5761563711067" stroke-miterlimit="10"/></g><g transform="translate(-1198,-302) scale(1,1)"><path fill="none" stroke="#000000" d="M 2717 2656 L 2472 3064 L 1992 3168 L 1605 3022" stroke-miterlimit="10"/></g><g transform="translate(-1198,-302) scale(1,1)"><path fill="none" stroke="#000000" d="M 1615.9943868875785 3021.6486355649126 L 1605 3022 L 1613.0226576979132 3029.525753348477" stroke-miterlimit="10"/></g><g transform="translate(-1198,-302) scale(1,1)"><path fill="none" stroke="#000000" d="M 1466 3048 L 1499 3207" stroke-miterlimit="10"/></g><g transform="translate(-1198,-302) scale(1,1)"><path fill="none" stroke="#000000" d="M 1492.8130959491584 3197.9048244510795 L 1499 3207 L 1501.056458497823 3196.193937884376" stroke-miterlimit="10"/></g><g transform="translate(-1198,-302) scale(1,1)"><rect fill="#C0C0C0" stroke="none" x="2119" y="2255" width="313.951171875" height="143" opacity="0.2"/></g><g transform="translate(-1198,-302) scale(1,1)"><rect fill="#ffffff" stroke="none" x="2112" y="2248" width="313.951171875" height="143"/></g><g transform="translate(-1198,-302) scale(1,1)"><path fill="none" stroke="#000000" d="M 2112 2248 L 2425.951171875 2248 L 2425.951171875 2391 L 2112 2391 L 2112 2248 Z Z" stroke-miterlimit="10"/></g><g transform="translate(-1198,-302) scale(1,1)"><rect fill="#ffffff" stroke="none" x="2112" y="2248" width="313.951171875" height="143"/></g><g transform="translate(-1198,-302) scale(1,1)"><path fill="none" stroke="#000000" d="M 2112 2248 L 2425.951171875 2248 L 2425.951171875 2391 L 2112 2391 L 2112 2248 Z Z" stroke-miterlimit="10"/></g><g transform="translate(-1198,-302) scale(1,1)"><g><path fill="none" stroke="none"/><text fill="#000000" stroke="none" font-family="Arial" font-size="26px" font-style="normal" font-weight="bold" text-decoration="none" x="2140.36572265625" y="2280.5">EditorActionProcessor</text><path fill="none" stroke="#000000" d="M 2410.56005859375 2280.5 L 2127.39111328125 2280.5" stroke-miterlimit="10"/></g></g><g transform="translate(-1198,-302) scale(1,1)"><rect fill="#C0C0C0" stroke="none" x="1655" y="2983" width="326.43359375" height="56" opacity="0.2"/></g><g transform="translate(-1198,-302) scale(1,1)"><rect fill="#ffffff" stroke="none" x="1648" y="2976" width="326.43359375" height="56"/></g><g transform="translate(-1198,-302) scale(1,1)"><path fill="none" stroke="#000000" d="M 1648 2976 L 1974.43359375 2976 L 1974.43359375 3032 L 1648 3032 L 1648 2976 Z Z" stroke-miterlimit="10"/></g><g transform="translate(-1198,-302) scale(1,1)"><rect fill="#ffffff" stroke="none" x="1648" y="2976" width="326.43359375" height="56"/></g><g transform="translate(-1198,-302) scale(1,1)"><path fill="none" stroke="#000000" d="M 1648 2976 L 1974.43359375 2976 L 1974.43359375 3032 L 1648 3032 L 1648 2976 Z Z" stroke-miterlimit="10"/></g><g transform="translate(-1198,-302) scale(1,1)"><g><path fill="none" stroke="none"/><text fill="#000000" stroke="none" font-family="Arial" font-size="26px" font-style="normal" font-weight="bold" text-decoration="none" x="1675.376953125" y="3008.5">NestedActionProcessor</text><path fill="none" stroke="#000000" d="M 1958.5966796875 3008.5 L 1663.8369140625 3008.5" stroke-miterlimit="10"/></g></g><g transform="translate(-1198,-302) scale(1,1)"><rect fill="#C0C0C0" stroke="none" x="2471" y="2271" width="455.6328125" height="103" opacity="0.2"/></g><g transform="translate(-1198,-302) scale(1,1)"><rect fill="#ffffff" stroke="none" x="2464" y="2264" width="455.6328125" height="103"/></g><g transform="translate(-1198,-302) scale(1,1)"><path fill="none" stroke="#000000" d="M 2464 2264 L 2919.6328125 2264 L 2919.6328125 2367 L 2464 2367 L 2464 2264 Z Z" stroke-miterlimit="10"/></g><g transform="translate(-1198,-302) scale(1,1)"><rect fill="#ffffff" stroke="none" x="2464" y="2264" width="455.6328125" height="103"/></g><g transform="translate(-1198,-302) scale(1,1)"><path fill="none" stroke="#000000" d="M 2464 2264 L 2919.6328125 2264 L 2919.6328125 2367 L 2464 2367 L 2464 2264 Z Z" stroke-miterlimit="10"/></g><g transform="translate(-1198,-302) scale(1,1)"><g><path fill="none" stroke="none"/><text fill="#000000" stroke="none" font-family="Arial" font-size="26px" font-style="normal" font-weight="bold" text-decoration="none" x="2498.15576171875" y="2296.5">SessionStateResponseProcessor</text><path fill="none" stroke="#000000" d="M 2899.181640625 2296.5 L 2484.451171875 2296.5" stroke-miterlimit="10"/></g></g><g transform="translate(-1198,-302) scale(1,1)"><rect fill="#C0C0C0" stroke="none" x="2415" y="2079" width="366.888671875" height="72" opacity="0.2"/></g><g transform="translate(-1198,-302) scale(1,1)"><rect fill="#ffffff" stroke="none" x="2408" y="2072" width="366.888671875" height="72"/></g><g transform="translate(-1198,-302) scale(1,1)"><path fill="none" stroke="#000000" d="M 2408 2072 L 2774.888671875 2072 L 2774.888671875 2144 L 2408 2144 L 2408 2072 Z Z" stroke-miterlimit="10"/></g><g transform="translate(-1198,-302) scale(1,1)"><rect fill="#ffffff" stroke="none" x="2408" y="2072" width="366.888671875" height="72"/></g><g transform="translate(-1198,-302) scale(1,1)"><path fill="none" stroke="#000000" d="M 2408 2072 L 2774.888671875 2072 L 2774.888671875 2144 L 2408 2144 L 2408 2072 Z Z" stroke-miterlimit="10"/></g><g transform="translate(-1198,-302) scale(1,1)"><g><path fill="none" stroke="none"/><text fill="#000000" stroke="none" font-family="Arial" font-size="26px" font-style="normal" font-weight="bold" text-decoration="none" x="2438.25634765625" y="2104.5">ActionResponseProcessor</text><path fill="none" stroke="#000000" d="M 2757.60693359375 2104.5 L 2425.28173828125 2104.5" stroke-miterlimit="10"/></g></g><g transform="translate(-1198,-302) scale(1,1)"><rect fill="#C0C0C0" stroke="none" x="1847" y="2087" width="281.234375" height="119" opacity="0.2"/></g><g transform="translate(-1198,-302) scale(1,1)"><rect fill="#ffffff" stroke="none" x="1840" y="2080" width="281.234375" height="119"/></g><g transform="translate(-1198,-302) scale(1,1)"><path fill="none" stroke="#000000" d="M 1840 2080 L 2121.234375 2080 L 2121.234375 2199 L 1840 2199 L 1840 2080 Z Z" stroke-miterlimit="10"/></g><g transform="translate(-1198,-302) scale(1,1)"><rect fill="#ffffff" stroke="none" x="1840" y="2080" width="281.234375" height="119"/></g><g transform="translate(-1198,-302) scale(1,1)"><path fill="none" stroke="#000000" d="M 1840 2080 L 2121.234375 2080 L 2121.234375 2199 L 1840 2199 L 1840 2080 Z Z" stroke-miterlimit="10"/></g><g transform="translate(-1198,-302) scale(1,1)"><g><path fill="none" stroke="none"/><text fill="#000000" stroke="none" font-family="Arial" font-size="26px" font-style="normal" font-weight="bold" text-decoration="none" x="1865.0009765625" y="2112.5">EditorActionHandler</text><path fill="none" stroke="#000000" d="M 2107.01171875 2112.5 L 1854.22265625 2112.5" stroke-miterlimit="10"/></g></g><g transform="translate(-1198,-302) scale(1,1)"><rect fill="#C0C0C0" stroke="none" x="2135" y="2079" width="289.095703125" height="111" opacity="0.2"/></g><g transform="translate(-1198,-302) scale(1,1)"><rect fill="#ffffff" stroke="none" x="2128" y="2072" width="289.095703125" height="111"/></g><g transform="translate(-1198,-302) scale(1,1)"><path fill="none" stroke="#000000" d="M 2128 2072 L 2417.095703125 2072 L 2417.095703125 2183 L 2128 2183 L 2128 2072 Z Z" stroke-miterlimit="10"/></g><g transform="translate(-1198,-302) scale(1,1)"><rect fill="#ffffff" stroke="none" x="2128" y="2072" width="289.095703125" height="111"/></g><g transform="translate(-1198,-302) scale(1,1)"><path fill="none" stroke="#000000" d="M 2128 2072 L 2417.095703125 2072 L 2417.095703125 2183 L 2128 2183 L 2128 2072 Z Z" stroke-miterlimit="10"/></g><g transform="translate(-1198,-302) scale(1,1)"><g><path fill="none" stroke="none"/><text fill="#000000" stroke="none" font-family="Arial" font-size="26px" font-style="normal" font-weight="bold" text-decoration="none" x="2150.4189453125" y="2104.5">SessionStateHandler</text><path fill="none" stroke="#000000" d="M 2402.59228515625 2104.5 L 2142.50341796875 2104.5" stroke-miterlimit="10"/></g></g><g transform="translate(-1198,-302) scale(1,1)"><rect fill="#C0C0C0" stroke="none" x="1551" y="935" width="304" height="168" opacity="0.2"/></g><g transform="translate(-1198,-302) scale(1,1)"><rect fill="#ffffff" stroke="none" x="1544" y="928" width="304" height="168"/></g><g transform="translate(-1198,-302) scale(1,1)"><path fill="none" stroke="#000000" d="M 1544 928 L 1848 928 L 1848 1096 L 1544 1096 L 1544 928 Z Z" stroke-miterlimit="10"/></g><g transform="translate(-1198,-302) scale(1,1)"><rect fill="#ffffff" stroke="none" x="1544" y="928" width="304" height="168"/></g><g transform="translate(-1198,-302) scale(1,1)"><path fill="none" stroke="#000000" d="M 1544 928 L 1848 928 L 1848 1096 L 1544 1096 L 1544 928 Z Z" stroke-miterlimit="10"/></g><g transform="translate(-1198,-302) scale(1,1)"><path fill="none" stroke="#000000" d="M 1544 966 L 1848 966" stroke-miterlimit="10"/></g><g transform="translate(-1198,-302) scale(1,1)"><g><path fill="none" stroke="none"/><text fill="#000000" stroke="none" font-family="Arial" font-size="26px" font-style="normal" font-weight="bold" text-decoration="none" x="1568.818359375" y="960.5">ActionSocketManager</text><path fill="none" stroke="#000000" d="M 1832.53173828125 960.5 L 1559.46826171875 960.5" stroke-miterlimit="10"/></g></g><g transform="translate(-1198,-302) scale(1,1)"><g><path fill="none" stroke="none"/><text fill="#000000" stroke="none" font-family="Arial" font-size="26px" font-style="normal" font-weight="normal" text-decoration="none" x="1549" y="996.5">+socket: WebSocket</text></g></g><g transform="translate(-1198,-302) scale(1,1)"><rect fill="#C0C0C0" stroke="none" x="1895" y="927" width="323.34375" height="176" opacity="0.2"/></g><g transform="translate(-1198,-302) scale(1,1)"><rect fill="#ffffff" stroke="none" x="1888" y="920" width="323.34375" height="176"/></g><g transform="translate(-1198,-302) scale(1,1)"><path fill="none" stroke="#000000" d="M 1888 920 L 2211.34375 920 L 2211.34375 1096 L 1888 1096 L 1888 920 Z Z" stroke-miterlimit="10"/></g><g transform="translate(-1198,-302) scale(1,1)"><rect fill="#ffffff" stroke="none" x="1888" y="920" width="323.34375" height="176"/></g><g transform="translate(-1198,-302) scale(1,1)"><path fill="none" stroke="#000000" d="M 1888 920 L 2211.34375 920 L 2211.34375 1096 L 1888 1096 L 1888 920 Z Z" stroke-miterlimit="10"/></g><g transform="translate(-1198,-302) scale(1,1)"><path fill="none" stroke="#000000" d="M 1888 958 L 2211.34375 958" stroke-miterlimit="10"/></g><g transform="translate(-1198,-302) scale(1,1)"><g><path fill="none" stroke="none"/><text fill="#000000" stroke="none" font-family="Arial" font-size="26px" font-style="normal" font-weight="bold" text-decoration="none" x="1912.3720703125" y="952.5">SessionSocketManager</text><path fill="none" stroke="#000000" d="M 2195.6171875 952.5 L 1903.7265625 952.5" stroke-miterlimit="10"/></g></g><g transform="translate(-1198,-302) scale(1,1)"><g><path fill="none" stroke="none"/><text fill="#000000" stroke="none" font-family="Arial" font-size="26px" font-style="normal" font-weight="normal" text-decoration="none" x="1893" y="988.5">+socket: WebSocket</text></g></g><g transform="translate(-1198,-302) scale(1,1)"><path fill="none" stroke="#000000" d="M 1717 1097 L 1965 2079" stroke-miterlimit="10"/></g><g transform="translate(-1198,-302) scale(1,1)"><path fill="none" stroke="#000000" d="M 1958.4302115825844 2070.1774221369037 L 1965 2079 L 1966.592962693626 2068.115953424543" stroke-miterlimit="10"/></g><g transform="translate(-1198,-302) scale(1,1)"><path fill="none" stroke="#000000" d="M 1965 2079 L 1717 1097" stroke-miterlimit="10"/></g><g transform="translate(-1198,-302) scale(1,1)"><path fill="none" stroke="#000000" d="M 1723.5697884174156 1105.822577863096 L 1717 1097 L 1715.407037306374 1107.884046575457" stroke-miterlimit="10"/></g><g transform="translate(-1198,-302) scale(1,1)"><path fill="none" stroke="#000000" d="M 2067 1097 L 2261 2071" stroke-miterlimit="10"/></g><g transform="translate(-1198,-302) scale(1,1)"><path fill="none" stroke="#000000" d="M 2254.8863850321304 2061.85539984337 L 2261 2071 L 2263.1432301806485 2060.210812616663" stroke-miterlimit="10"/></g><g transform="translate(-1198,-302) scale(1,1)"><path fill="none" stroke="#000000" d="M 2261 2071 L 2067 1097" stroke-miterlimit="10"/></g><g transform="translate(-1198,-302) scale(1,1)"><path fill="none" stroke="#000000" d="M 2073.1136149678696 1106.14460015663 L 2067 1097 L 2064.8567698193515 1107.7891873833369" stroke-miterlimit="10"/></g><g transform="translate(-1198,-302) scale(1,1)"><rect fill="#C0C0C0" stroke="none" x="1335" y="1511" width="263" height="111" opacity="0.2"/></g><g transform="translate(-1198,-302) scale(1,1)"><rect fill="#ffffff" stroke="none" x="1328" y="1504" width="263" height="111"/></g><g transform="translate(-1198,-302) scale(1,1)"><path fill="none" stroke="#000000" d="M 1328 1504 L 1591 1504 L 1591 1615 L 1328 1615 L 1328 1504 Z Z" stroke-miterlimit="10"/></g><g transform="translate(-1198,-302) scale(1,1)"><rect fill="#ffffff" stroke="none" x="1328" y="1504" width="263" height="111"/></g><g transform="translate(-1198,-302) scale(1,1)"><path fill="none" stroke="#000000" d="M 1328 1504 L 1591 1504 L 1591 1615 L 1328 1615 L 1328 1504 Z Z" stroke-miterlimit="10"/></g><g transform="translate(-1198,-302) scale(1,1)"><g><path fill="none" stroke="none"/><text fill="#000000" stroke="none" font-family="Arial" font-size="26px" font-style="normal" font-weight="bold" text-decoration="none" x="1360.48291015625" y="1536.5">LoginComponent</text><path fill="none" stroke="#000000" d="M 1567.08642578125 1536.5 L 1351.91357421875 1536.5" stroke-miterlimit="10"/></g></g><g transform="translate(-1198,-302) scale(1,1)"><rect fill="#C0C0C0" stroke="none" x="1351" y="1639" width="276.572265625" height="71" opacity="0.2"/></g><g transform="translate(-1198,-302) scale(1,1)"><rect fill="#ffffff" stroke="none" x="1344" y="1632" width="276.572265625" height="71"/></g><g transform="translate(-1198,-302) scale(1,1)"><path fill="none" stroke="#000000" d="M 1344 1632 L 1620.572265625 1632 L 1620.572265625 1703 L 1344 1703 L 1344 1632 Z Z" stroke-miterlimit="10"/></g><g transform="translate(-1198,-302) scale(1,1)"><rect fill="#ffffff" stroke="none" x="1344" y="1632" width="276.572265625" height="71"/></g><g transform="translate(-1198,-302) scale(1,1)"><path fill="none" stroke="#000000" d="M 1344 1632 L 1620.572265625 1632 L 1620.572265625 1703 L 1344 1703 L 1344 1632 Z Z" stroke-miterlimit="10"/></g><g transform="translate(-1198,-302) scale(1,1)"><g><path fill="none" stroke="none"/><text fill="#000000" stroke="none" font-family="Arial" font-size="26px" font-style="normal" font-weight="bold" text-decoration="none" x="1366.669921875" y="1664.5">RegisterComponent</text><path fill="none" stroke="#000000" d="M 1606.51611328125 1664.5 L 1358.05615234375 1664.5" stroke-miterlimit="10"/></g></g><g transform="translate(-1198,-302) scale(1,1)"><path fill="none" stroke="#000000" d="M 1482 1704 L 1483 2247" stroke-miterlimit="10"/></g><g transform="translate(-1198,-302) scale(1,1)"><path fill="none" stroke="#000000" d="M 1478.7717736224988 2236.8450946976054 L 1483 2247 L 1487.1907948577075 2236.8295900544467" stroke-miterlimit="10"/></g><g transform="translate(-1198,-302) scale(1,1)"><path fill="none" stroke="#000000" d="M 1444 1616 L 1304 2160 L 1401 2247" stroke-miterlimit="10"/></g><g transform="translate(-1198,-302) scale(1,1)"><path fill="none" stroke="#000000" d="M 1390.6238596359246 2243.3481907025416 L 1401 2247 L 1396.2451799038517 2237.080741668186" stroke-miterlimit="10"/></g><g transform="translate(-1198,-302) scale(1,1)"><rect fill="#C0C0C0" stroke="none" x="1751" y="2311" width="310.95703125" height="95" opacity="0.2"/></g><g transform="translate(-1198,-302) scale(1,1)"><rect fill="#ffffff" stroke="none" x="1744" y="2304" width="310.95703125" height="95"/></g><g transform="translate(-1198,-302) scale(1,1)"><path fill="none" stroke="#000000" d="M 1744 2304 L 2054.95703125 2304 L 2054.95703125 2399 L 1744 2399 L 1744 2304 Z Z" stroke-miterlimit="10"/></g><g transform="translate(-1198,-302) scale(1,1)"><rect fill="#ffffff" stroke="none" x="1744" y="2304" width="310.95703125" height="95"/></g><g transform="translate(-1198,-302) scale(1,1)"><path fill="none" stroke="#000000" d="M 1744 2304 L 2054.95703125 2304 L 2054.95703125 2399 L 1744 2399 L 1744 2304 Z Z" stroke-miterlimit="10"/></g><g transform="translate(-1198,-302) scale(1,1)"><g><path fill="none" stroke="none"/><text fill="#000000" stroke="none" font-family="Arial" font-size="26px" font-style="normal" font-weight="bold" text-decoration="none" x="1769.427734375" y="2336.5">SocketSecurityService</text><path fill="none" stroke="#000000" d="M 2039.6728515625 2336.5 L 1759.2841796875 2336.5" stroke-miterlimit="10"/></g></g><g transform="translate(-1198,-302) scale(1,1)"><path fill="none" stroke="#000000" d="M 1911 2400 L 2000 2776 L 2054 2776" stroke-miterlimit="10"/></g><g transform="translate(-1198,-302) scale(1,1)"><path fill="none" stroke="#000000" d="M 2043.837325142376 2780.209517756016 L 2054 2776 L 2043.837325142376 2771.790482243984" stroke-miterlimit="10"/></g><g transform="translate(-1198,-302) scale(1,1)"><path fill="none" stroke="#000000" d="M 1921 2400 L 2170 2943" stroke-miterlimit="10"/></g><g transform="translate(-1198,-302) scale(1,1)"><path fill="none" stroke="#000000" d="M 2161.9375255392915 2935.5169187114916 L 2170 2943 L 2169.590307158964 2932.007632112415" stroke-miterlimit="10"/></g><g transform="translate(-1198,-302) scale(1,1)"><path fill="none" stroke="#000000" d="M 1957 2200 L 1917 2303" stroke-miterlimit="10"/></g><g transform="translate(-1198,-302) scale(1,1)"><path fill="none" stroke="#000000" d="M 1916.7549799053356 2292.0027291952406 L 1917 2303 L 1924.602989390126 2295.0504998689457" stroke-miterlimit="10"/></g><g transform="translate(-1198,-302) scale(1,1)"><path fill="none" stroke="#000000" d="M 1917 2303 L 1957 2200" stroke-miterlimit="10"/></g><g transform="translate(-1198,-302) scale(1,1)"><path fill="none" stroke="#000000" d="M 1957.2450200946644 2210.9972708047594 L 1957 2200 L 1949.397010609874 2207.9495001310543" stroke-miterlimit="10"/></g><g transform="translate(-1198,-302) scale(1,1)"><path fill="none" stroke="#000000" d="M 1941 2200 L 1503 2879" stroke-miterlimit="10"/></g><g transform="translate(-1198,-302) scale(1,1)"><path fill="none" stroke="#000000" d="M 1504.971489371174 2868.1781133964846 L 1503 2879 L 1512.046282905972 2872.7418241008168" stroke-miterlimit="10"/></g><g transform="translate(-1198,-302) scale(1,1)"><path fill="none" stroke="#000000" d="M 2177 2184 L 1979 2303" stroke-miterlimit="10"/></g><g transform="translate(-1198,-302) scale(1,1)"><path fill="none" stroke="#000000" d="M 1985.54207951742 2294.1568560122682 L 1979 2303 L 1989.8789958705634 2301.372901709095" stroke-miterlimit="10"/></g><g transform="translate(-1198,-302) scale(1,1)"><path fill="none" stroke="#000000" d="M 1979 2303 L 2177 2184" stroke-miterlimit="10"/></g><g transform="translate(-1198,-302) scale(1,1)"><path fill="none" stroke="#000000" d="M 2170.45792048258 2192.8431439877318 L 2177 2184 L 2166.1210041294366 2185.627098290905" stroke-miterlimit="10"/></g><g transform="translate(-1198,-302) scale(1,1)"><path fill="none" stroke="#000000" d="M 2175 2392 L 1556 2879" stroke-miterlimit="10"/></g><g transform="translate(-1198,-302) scale(1,1)"><path fill="none" stroke="#000000" d="M 1561.384211630139 2869.407801861832 L 1556 2879 L 1566.5899209049985 2876.024504205031" stroke-miterlimit="10"/></g><g transform="translate(-1198,-302) scale(1,1)"><path fill="none" stroke="#000000" d="M 1556 2879 L 2175 2392" stroke-miterlimit="10"/></g><g transform="translate(-1198,-302) scale(1,1)"><path fill="none" stroke="#000000" d="M 2169.615788369861 2401.592198138168 L 2175 2392 L 2164.4100790950015 2394.975495794969" stroke-miterlimit="10"/></g><g transform="translate(-1198,-302) scale(1,1)"><path fill="none" stroke="#000000" d="M 2078 2200 L 2153 2247" stroke-miterlimit="10"/></g><g transform="translate(-1198,-302) scale(1,1)"><path fill="none" stroke="#000000" d="M 2142.153212287086 2245.170465548023 L 2153 2247 L 2146.623839071515 2238.0364866367" stroke-miterlimit="10"/></g><g transform="translate(-1198,-302) scale(1,1)"><path fill="none" stroke="#000000" d="M 2271 2184 L 2270 2247" stroke-miterlimit="10"/></g><g transform="translate(-1198,-302) scale(1,1)"><path fill="none" stroke="#000000" d="M 2265.9523044249754 2236.771795830551 L 2270 2247 L 2274.370279538299 2236.905414483144" stroke-miterlimit="10"/></g><g transform="translate(-1198,-302) scale(1,1)"><path fill="none" stroke="#000000" d="M 2378 2247 L 2534 2145" stroke-miterlimit="10"/></g><g transform="translate(-1198,-302) scale(1,1)"><path fill="none" stroke="#000000" d="M 2527.7978058579197 2154.0847557933025 L 2534 2145 L 2523.1904940370314 2147.0382788907677" stroke-miterlimit="10"/></g><g transform="translate(-1198,-302) scale(1,1)"><path fill="none" stroke="#000000" d="M 2427 2317 L 2463 2317" stroke-miterlimit="10"/></g><g transform="translate(-1198,-302) scale(1,1)"><path fill="none" stroke="#000000" d="M 2452.837325142376 2321.209517756016 L 2463 2317 L 2452.837325142376 2312.790482243984" stroke-miterlimit="10"/></g><g transform="translate(-1198,-302) scale(1,1)"><path fill="none" stroke="#000000" d="M 1599 3207 L 1781 3033" stroke-miterlimit="10"/></g><g transform="translate(-1198,-302) scale(1,1)"><path fill="none" stroke="#000000" d="M 1776.563227642303 3043.0655377921885 L 1781 3033 L 1770.7453181501455 3036.9801382084374" stroke-miterlimit="10"/></g><g transform="translate(-1198,-302) scale(1,1)"><rect fill="#C0C0C0" stroke="none" x="2591" y="1583" width="215" height="47" opacity="0.2"/></g><g transform="translate(-1198,-302) scale(1,1)"><rect fill="#ffffff" stroke="none" x="2584" y="1576" width="215" height="47"/></g><g transform="translate(-1198,-302) scale(1,1)"><path fill="none" stroke="#000000" d="M 2584 1576 L 2799 1576 L 2799 1623 L 2584 1623 L 2584 1576 Z Z" stroke-miterlimit="10"/></g><g transform="translate(-1198,-302) scale(1,1)"><rect fill="#ffffff" stroke="none" x="2584" y="1576" width="215" height="47"/></g><g transform="translate(-1198,-302) scale(1,1)"><path fill="none" stroke="#000000" d="M 2584 1576 L 2799 1576 L 2799 1623 L 2584 1623 L 2584 1576 Z Z" stroke-miterlimit="10"/></g><g transform="translate(-1198,-302) scale(1,1)"><g><path fill="none" stroke="none"/><text fill="#000000" stroke="none" font-family="Arial" font-size="26px" font-style="normal" font-weight="bold" text-decoration="none" x="2603.34375" y="1608.5">FileComponent</text><path fill="none" stroke="#000000" d="M 2786.10546875 1608.5 L 2596.89453125 1608.5" stroke-miterlimit="10"/></g></g><g transform="translate(-1198,-302) scale(1,1)"><rect fill="#C0C0C0" stroke="none" x="2615" y="1439" width="272.01953125" height="47" opacity="0.2"/></g><g transform="translate(-1198,-302) scale(1,1)"><rect fill="#ffffff" stroke="none" x="2608" y="1432" width="272.01953125" height="47"/></g><g transform="translate(-1198,-302) scale(1,1)"><path fill="none" stroke="#000000" d="M 2608 1432 L 2880.01953125 1432 L 2880.01953125 1479 L 2608 1479 L 2608 1432 Z Z" stroke-miterlimit="10"/></g><g transform="translate(-1198,-302) scale(1,1)"><rect fill="#ffffff" stroke="none" x="2608" y="1432" width="272.01953125" height="47"/></g><g transform="translate(-1198,-302) scale(1,1)"><path fill="none" stroke="#000000" d="M 2608 1432 L 2880.01953125 1432 L 2880.01953125 1479 L 2608 1479 L 2608 1432 Z Z" stroke-miterlimit="10"/></g><g transform="translate(-1198,-302) scale(1,1)"><g><path fill="none" stroke="none"/><text fill="#000000" stroke="none" font-family="Arial" font-size="26px" font-style="normal" font-weight="bold" text-decoration="none" x="2628.40625" y="1464.5">FileManagerService</text><path fill="none" stroke="#000000" d="M 2866.1259765625 1464.5 L 2621.8935546875 1464.5" stroke-miterlimit="10"/></g></g><g transform="translate(-1198,-302) scale(1,1)"><rect fill="#C0C0C0" stroke="none" x="2641" y="3223" width="502" height="256" opacity="0.2"/></g><g transform="translate(-1198,-302) scale(1,1)"><rect fill="#ffffff" stroke="none" x="2634" y="3216" width="502" height="256"/></g><g transform="translate(-1198,-302) scale(1,1)"><path fill="none" stroke="#000000" d="M 2634 3216 L 3136 3216 L 3136 3472 L 2634 3472 L 2634 3216 Z Z" stroke-miterlimit="10"/></g><g transform="translate(-1198,-302) scale(1,1)"><rect fill="#ffffff" stroke="none" x="2624" y="3223" width="20" height="10"/></g><g transform="translate(-1198,-302) scale(1,1)"><path fill="none" stroke="#000000" d="M 2624 3223 L 2644 3223 L 2644 3233 L 2624 3233 L 2624 3223 Z Z" stroke-miterlimit="10"/></g><g transform="translate(-1198,-302) scale(1,1)"><rect fill="#ffffff" stroke="none" x="2624" y="3243" width="20" height="10"/></g><g transform="translate(-1198,-302) scale(1,1)"><path fill="none" stroke="#000000" d="M 2624 3243 L 2644 3243 L 2644 3253 L 2624 3253 L 2624 3243 Z Z" stroke-miterlimit="10"/></g><g transform="translate(-1198,-302) scale(1,1)"><g><path fill="none" stroke="none"/><text fill="#000000" stroke="none" font-family="Arial" font-size="26px" font-style="normal" font-weight="bold" text-decoration="none" x="2759.923828125" y="3248.5">PostgreSQL Database</text><path fill="none" stroke="#000000" d="M 3026.54443359375 3248.5 L 2753.45556640625 3248.5" stroke-miterlimit="10"/></g></g><g transform="translate(-1198,-302) scale(1,1)"><path fill="none" stroke="#000000" d="M 2908 3113 L 2896 3215" stroke-miterlimit="10" stroke-dasharray="3"/></g><g transform="translate(-1198,-302) scale(1,1)"><path fill="none" stroke="#000000" d="M 2893.0067345056914 3204.415088017344 L 2896 3215 L 2901.368104712282 3205.3987786298835" stroke-miterlimit="10"/></g><g transform="translate(-1198,-302) scale(1,1)"><path fill="none" stroke="#000000" d="M 2896 3215 L 2908 3113" stroke-miterlimit="10" stroke-dasharray="3"/></g><g transform="translate(-1198,-302) scale(1,1)"><path fill="none" stroke="#000000" d="M 2910.9932654943086 3123.584911982656 L 2908 3113 L 2902.631895287718 3122.6012213701165" stroke-miterlimit="10"/></g><g transform="translate(-1198,-302) scale(1,1)"><path fill="none" stroke="#000000" d="M 2935 2435 L 2520 2496 L 2259 2727" stroke-miterlimit="10"/></g><g transform="translate(-1198,-302) scale(1,1)"><path fill="none" stroke="#000000" d="M 2263.820240478698 2717.1123672333806 L 2259 2727 L 2269.400036908596 2723.4168125502783" stroke-miterlimit="10"/></g><g transform="translate(-1198,-302) scale(1,1)"><path fill="#C0C0C0" stroke="none" d="M 2655 3289 L 2928.548828125 3289 L 2928.548828125 3357 L 2655 3357" opacity="0.2"/></g><g transform="translate(-1198,-302) scale(1,1)"><path fill="#C0C0C0" stroke="none" d="M 2655 3289 L 2665 3279 L 2938.548828125 3279 L 2928.548828125 3289" opacity="0.2"/></g><g transform="translate(-1198,-302) scale(1,1)"><path fill="#C0C0C0" stroke="none" d="M 2938.548828125 3279 L 2928.548828125 3289 L 2928.548828125 3357 L 2938.548828125 3347" opacity="0.2"/></g><g transform="translate(-1198,-302) scale(1,1)"><path fill="#ffffff" stroke="none" d="M 2648 3282 L 2921.548828125 3282 L 2921.548828125 3350 L 2648 3350"/></g><g transform="translate(-1198,-302) scale(1,1)"><path fill="#ffffff" stroke="none" d="M 2648 3282 L 2658 3272 L 2931.548828125 3272 L 2921.548828125 3282"/></g><g transform="translate(-1198,-302) scale(1,1)"><path fill="#ffffff" stroke="none" d="M 2931.548828125 3272 L 2921.548828125 3282 L 2921.548828125 3350 L 2931.548828125 3340"/></g><g transform="translate(-1198,-302) scale(1,1)"><path fill="none" stroke="#000000" d="M 2648 3282 L 2921.548828125 3282 L 2921.548828125 3350 L 2648 3350 L 2648 3282" stroke-miterlimit="10"/></g><g transform="translate(-1198,-302) scale(1,1)"><path fill="none" stroke="#000000" d="M 2648 3282 L 2658 3272 L 2931.548828125 3272 L 2921.548828125 3282 L 2648 3282" stroke-miterlimit="10"/></g><g transform="translate(-1198,-302) scale(1,1)"><path fill="none" stroke="#000000" d="M 2931.548828125 3272 L 2921.548828125 3282 L 2921.548828125 3350 L 2931.548828125 3340 L 2931.548828125 3272" stroke-miterlimit="10"/></g><g transform="translate(-1198,-302) scale(1,1)"><g><path fill="none" stroke="none"/><text fill="#000000" stroke="none" font-family="Arial" font-size="26px" font-style="normal" font-weight="bold" text-decoration="none" x="2668.20458984375" y="3314.5">Management Tables</text><path fill="none" stroke="#000000" d="M 2908.56494140625 3314.5 L 2661.98388671875 3314.5" stroke-miterlimit="10"/></g></g><g transform="translate(-1198,-302) scale(1,1)"><path fill="#C0C0C0" stroke="none" d="M 2943 3289 L 3107.666015625 3289 L 3107.666015625 3365 L 2943 3365" opacity="0.2"/></g><g transform="translate(-1198,-302) scale(1,1)"><path fill="#C0C0C0" stroke="none" d="M 2943 3289 L 2953 3279 L 3117.666015625 3279 L 3107.666015625 3289" opacity="0.2"/></g><g transform="translate(-1198,-302) scale(1,1)"><path fill="#C0C0C0" stroke="none" d="M 3117.666015625 3279 L 3107.666015625 3289 L 3107.666015625 3365 L 3117.666015625 3355" opacity="0.2"/></g><g transform="translate(-1198,-302) scale(1,1)"><path fill="#ffffff" stroke="none" d="M 2936 3282 L 3100.666015625 3282 L 3100.666015625 3358 L 2936 3358"/></g><g transform="translate(-1198,-302) scale(1,1)"><path fill="#ffffff" stroke="none" d="M 2936 3282 L 2946 3272 L 3110.666015625 3272 L 3100.666015625 3282"/></g><g transform="translate(-1198,-302) scale(1,1)"><path fill="#ffffff" stroke="none" d="M 3110.666015625 3272 L 3100.666015625 3282 L 3100.666015625 3358 L 3110.666015625 3348"/></g><g transform="translate(-1198,-302) scale(1,1)"><path fill="none" stroke="#000000" d="M 2936 3282 L 3100.666015625 3282 L 3100.666015625 3358 L 2936 3358 L 2936 3282" stroke-miterlimit="10"/></g><g transform="translate(-1198,-302) scale(1,1)"><path fill="none" stroke="#000000" d="M 2936 3282 L 2946 3272 L 3110.666015625 3272 L 3100.666015625 3282 L 2936 3282" stroke-miterlimit="10"/></g><g transform="translate(-1198,-302) scale(1,1)"><path fill="none" stroke="#000000" d="M 3110.666015625 3272 L 3100.666015625 3282 L 3100.666015625 3358 L 3110.666015625 3348 L 3110.666015625 3272" stroke-miterlimit="10"/></g><g transform="translate(-1198,-302) scale(1,1)"><g><path fill="none" stroke="none"/><text fill="#000000" stroke="none" font-family="Arial" font-size="26px" font-style="normal" font-weight="bold" text-decoration="none" x="2950.19580078125" y="3314.5">User Tables</text><path fill="none" stroke="#000000" d="M 3091.57080078125 3314.5 L 2946.09521484375 3314.5" stroke-miterlimit="10"/></g></g><g transform="translate(-1198,-302) scale(1,1)"><path fill="#C0C0C0" stroke="none" d="M 2759 3393 L 3082.369140625 3393 L 3082.369140625 3461 L 2759 3461" opacity="0.2"/></g><g transform="translate(-1198,-302) scale(1,1)"><path fill="#C0C0C0" stroke="none" d="M 2759 3393 L 2769 3383 L 3092.369140625 3383 L 3082.369140625 3393" opacity="0.2"/></g><g transform="translate(-1198,-302) scale(1,1)"><path fill="#C0C0C0" stroke="none" d="M 3092.369140625 3383 L 3082.369140625 3393 L 3082.369140625 3461 L 3092.369140625 3451" opacity="0.2"/></g><g transform="translate(-1198,-302) scale(1,1)"><path fill="#ffffff" stroke="none" d="M 2752 3386 L 3075.369140625 3386 L 3075.369140625 3454 L 2752 3454"/></g><g transform="translate(-1198,-302) scale(1,1)"><path fill="#ffffff" stroke="none" d="M 2752 3386 L 2762 3376 L 3085.369140625 3376 L 3075.369140625 3386"/></g><g transform="translate(-1198,-302) scale(1,1)"><path fill="#ffffff" stroke="none" d="M 3085.369140625 3376 L 3075.369140625 3386 L 3075.369140625 3454 L 3085.369140625 3444"/></g><g transform="translate(-1198,-302) scale(1,1)"><path fill="none" stroke="#000000" d="M 2752 3386 L 3075.369140625 3386 L 3075.369140625 3454 L 2752 3454 L 2752 3386" stroke-miterlimit="10"/></g><g transform="translate(-1198,-302) scale(1,1)"><path fill="none" stroke="#000000" d="M 2752 3386 L 2762 3376 L 3085.369140625 3376 L 3075.369140625 3386 L 2752 3386" stroke-miterlimit="10"/></g><g transform="translate(-1198,-302) scale(1,1)"><path fill="none" stroke="#000000" d="M 3085.369140625 3376 L 3075.369140625 3386 L 3075.369140625 3454 L 3085.369140625 3444 L 3085.369140625 3376" stroke-miterlimit="10"/></g><g transform="translate(-1198,-302) scale(1,1)"><g><path fill="none" stroke="none"/><text fill="#000000" stroke="none" font-family="Arial" font-size="26px" font-style="normal" font-weight="bold" text-decoration="none" x="2775.4501953125" y="3418.5">Diagram Related Tables</text><path fill="none" stroke="#000000" d="M 3060.60595703125 3418.5 L 2767.76318359375 3418.5" stroke-miterlimit="10"/></g></g><g transform="translate(-1198,-302) scale(1,1)"><rect fill="#C0C0C0" stroke="none" x="1769" y="663" width="213" height="95" opacity="0.2"/></g><g transform="translate(-1198,-302) scale(1,1)"><rect fill="#ffffff" stroke="none" x="1762" y="656" width="213" height="95"/></g><g transform="translate(-1198,-302) scale(1,1)"><path fill="none" stroke="#000000" d="M 1762 656 L 1975 656 L 1975 751 L 1762 751 L 1762 656 Z Z" stroke-miterlimit="10"/></g><g transform="translate(-1198,-302) scale(1,1)"><rect fill="#ffffff" stroke="none" x="1752" y="663" width="20" height="10"/></g><g transform="translate(-1198,-302) scale(1,1)"><path fill="none" stroke="#000000" d="M 1752 663 L 1772 663 L 1772 673 L 1752 673 L 1752 663 Z Z" stroke-miterlimit="10"/></g><g transform="translate(-1198,-302) scale(1,1)"><rect fill="#ffffff" stroke="none" x="1752" y="683" width="20" height="10"/></g><g transform="translate(-1198,-302) scale(1,1)"><path fill="none" stroke="#000000" d="M 1752 683 L 1772 683 L 1772 693 L 1752 693 L 1752 683 Z Z" stroke-miterlimit="10"/></g><g transform="translate(-1198,-302) scale(1,1)"><path fill="none" stroke="#000000" d="M 1772 694 L 1975 694" stroke-miterlimit="10"/></g><g transform="translate(-1198,-302) scale(1,1)"><g><path fill="none" stroke="none"/><text fill="#000000" stroke="none" font-family="Arial" font-size="26px" font-style="normal" font-weight="bold" text-decoration="none" x="1791.8564453125" y="688.5">SocialWindow</text></g></g><g transform="translate(-1198,-302) scale(1,1)"><path fill="none" stroke="#000000" d="M 1647 2985 L 1605 2981" stroke-miterlimit="10"/></g><g transform="translate(-1198,-302) scale(1,1)"><path fill="none" stroke="#000000" d="M 1615.5159973690586 2977.772958114007 L 1605 2981 L 1614.71779625136 2986.1540698498425" stroke-miterlimit="10"/></g><g transform="translate(-1198,-302) scale(1,1)"><rect fill="#C0C0C0" stroke="none" x="2591" y="1647" width="307.689453125" height="39" opacity="0.2"/></g><g transform="translate(-1198,-302) scale(1,1)"><rect fill="#ffffff" stroke="none" x="2584" y="1640" width="307.689453125" height="39"/></g><g transform="translate(-1198,-302) scale(1,1)"><path fill="none" stroke="#000000" d="M 2584 1640 L 2891.689453125 1640 L 2891.689453125 1679 L 2584 1679 L 2584 1640 Z Z" stroke-miterlimit="10"/></g><g transform="translate(-1198,-302) scale(1,1)"><rect fill="#ffffff" stroke="none" x="2584" y="1640" width="307.689453125" height="39"/></g><g transform="translate(-1198,-302) scale(1,1)"><path fill="none" stroke="#000000" d="M 2584 1640 L 2891.689453125 1640 L 2891.689453125 1679 L 2584 1679 L 2584 1640 Z Z" stroke-miterlimit="10"/></g><g transform="translate(-1198,-302) scale(1,1)"><g><path fill="none" stroke="none"/><text fill="#000000" stroke="none" font-family="Arial" font-size="26px" font-style="normal" font-weight="bold" text-decoration="none" x="2608.4794921875" y="1672.5">SaredialogComponent</text><path fill="none" stroke="#000000" d="M 2876.52197265625 1672.5 L 2599.16748046875 1672.5" stroke-miterlimit="10"/></g></g><g transform="translate(-1198,-302) scale(1,1)"><path fill="none" stroke="#000000" d="M 2705 1624 L 2928 2031" stroke-miterlimit="10"/></g><g transform="translate(-1198,-302) scale(1,1)"><path fill="none" stroke="#000000" d="M 2919.425015972518 2024.1101778739633 L 2928 2031 L 2926.8084105920907 2020.0647306991114" stroke-miterlimit="10"/></g><g transform="translate(-1198,-302) scale(1,1)"><path fill="none" stroke="#000000" d="M 2753 1480 L 2954 2031" stroke-miterlimit="10"/></g><g transform="translate(-1198,-302) scale(1,1)"><path fill="none" stroke="#000000" d="M 2946.562631359749 2022.895337902848 L 2954 2031 L 2954.4718477284164 2020.0101246721727" stroke-miterlimit="10"/></g><g transform="translate(-1198,-302) scale(1,1)"><path fill="none" stroke="#000000" d="M 1624 3291 L 2520 3328 L 2958 3081" stroke-miterlimit="10"/></g><g transform="translate(-1198,-302) scale(1,1)"><path fill="none" stroke="#000000" d="M 2951.215600560416 3089.658632931599 L 2958 3081 L 2947.080127088253 3082.325283211731" stroke-miterlimit="10"/></g></g></svg>