<svg version="1.1" xmlns="http://www.w3.org/2000/svg" xmlns:xlink="http://www.w3.org/1999/xlink" width="2124" height="3188"><defs/><g><g transform="translate(-1078,-294) scale(1,1)"><rect fill="#C0C0C0" stroke="none" x="1233" y="311" width="1782" height="1504" opacity="0.2"/></g><g transform="translate(-1078,-294) scale(1,1)"><rect fill="#ffffff" stroke="none" x="1226" y="304" width="1782" height="1504"/></g><g transform="translate(-1078,-294) scale(1,1)"><path fill="none" stroke="#000000" d="M 1226 304 L 3008 304 L 3008 1808 L 1226 1808 L 1226 304 Z Z" stroke-miterlimit="10"/></g><g transform="translate(-1078,-294) scale(1,1)"><rect fill="#ffffff" stroke="none" x="1216" y="311" width="20" height="10"/></g><g transform="translate(-1078,-294) scale(1,1)"><path fill="none" stroke="#000000" d="M 1216 311 L 1236 311 L 1236 321 L 1216 321 L 1216 311 Z Z" stroke-miterlimit="10"/></g><g transform="translate(-1078,-294) scale(1,1)"><rect fill="#ffffff" stroke="none" x="1216" y="331" width="20" height="10"/></g><g transform="translate(-1078,-294) scale(1,1)"><path fill="none" stroke="#000000" d="M 1216 331 L 1236 331 L 1236 341 L 1216 341 L 1216 331 Z Z" stroke-miterlimit="10"/></g><g transform="translate(-1078,-294) scale(1,1)"><g><path fill="none" stroke="none"/><text fill="#000000" stroke="none" font-family="Arial" font-size="28px" font-style="normal" font-weight="bold" text-decoration="none" x="2055.8623046875" y="338.5">Client-side</text></g></g><g transform="translate(-1078,-294) scale(1,1)"><rect fill="#C0C0C0" stroke="none" x="1281" y="375" width="1686" height="904" opacity="0.2"/></g><g transform="translate(-1078,-294) scale(1,1)"><rect fill="#ffffff" stroke="none" x="1274" y="368" width="1686" height="904"/></g><g transform="translate(-1078,-294) scale(1,1)"><path fill="none" stroke="#000000" d="M 1274 368 L 2960 368 L 2960 1272 L 1274 1272 L 1274 368 Z Z" stroke-miterlimit="10"/></g><g transform="translate(-1078,-294) scale(1,1)"><rect fill="#ffffff" stroke="none" x="1264" y="375" width="20" height="10"/></g><g transform="translate(-1078,-294) scale(1,1)"><path fill="none" stroke="#000000" d="M 1264 375 L 1284 375 L 1284 385 L 1264 385 L 1264 375 Z Z" stroke-miterlimit="10"/></g><g transform="translate(-1078,-294) scale(1,1)"><rect fill="#ffffff" stroke="none" x="1264" y="395" width="20" height="10"/></g><g transform="translate(-1078,-294) scale(1,1)"><path fill="none" stroke="#000000" d="M 1264 395 L 1284 395 L 1284 405 L 1264 405 L 1264 395 Z Z" stroke-miterlimit="10"/></g><g transform="translate(-1078,-294) scale(1,1)"><path fill="none" stroke="#000000" d="M 1284 408 L 2960 408" stroke-miterlimit="10"/></g><g transform="translate(-1078,-294) scale(1,1)"><g><path fill="none" stroke="none"/><text fill="#000000" stroke="none" font-family="Arial" font-size="28px" font-style="normal" font-weight="bold" text-decoration="none" x="2013.048828125" y="402.5">EditorComponent</text></g></g><g transform="translate(-1078,-294) scale(1,1)"><rect fill="#C0C0C0" stroke="none" x="1417" y="535" width="590" height="312" opacity="0.2"/></g><g transform="translate(-1078,-294) scale(1,1)"><rect fill="#ffffff" stroke="none" x="1410" y="528" width="590" height="312"/></g><g transform="translate(-1078,-294) scale(1,1)"><path fill="none" stroke="#000000" d="M 1410 528 L 2000 528 L 2000 840 L 1410 840 L 1410 528 Z Z" stroke-miterlimit="10"/></g><g transform="translate(-1078,-294) scale(1,1)"><rect fill="#ffffff" stroke="none" x="1400" y="535" width="20" height="10"/></g><g transform="translate(-1078,-294) scale(1,1)"><path fill="none" stroke="#000000" d="M 1400 535 L 1420 535 L 1420 545 L 1400 545 L 1400 535 Z Z" stroke-miterlimit="10"/></g><g transform="translate(-1078,-294) scale(1,1)"><rect fill="#ffffff" stroke="none" x="1400" y="555" width="20" height="10"/></g><g transform="translate(-1078,-294) scale(1,1)"><path fill="none" stroke="#000000" d="M 1400 555 L 1420 555 L 1420 565 L 1400 565 L 1400 555 Z Z" stroke-miterlimit="10"/></g><g transform="translate(-1078,-294) scale(1,1)"><g><path fill="none" stroke="none"/><text fill="#000000" stroke="none" font-family="Arial" font-size="28px" font-style="normal" font-weight="bold" text-decoration="none" x="1568.3798828125" y="562.5">EditorWindowManager</text></g></g><g transform="translate(-1078,-294) scale(1,1)"><rect fill="#C0C0C0" stroke="none" x="2377" y="807" width="550" height="312" opacity="0.2"/></g><g transform="translate(-1078,-294) scale(1,1)"><rect fill="#ffffff" stroke="none" x="2370" y="800" width="550" height="312"/></g><g transform="translate(-1078,-294) scale(1,1)"><path fill="none" stroke="#000000" d="M 2370 800 L 2920 800 L 2920 1112 L 2370 1112 L 2370 800 Z Z" stroke-miterlimit="10"/></g><g transform="translate(-1078,-294) scale(1,1)"><rect fill="#ffffff" stroke="none" x="2360" y="807" width="20" height="10"/></g><g transform="translate(-1078,-294) scale(1,1)"><path fill="none" stroke="#000000" d="M 2360 807 L 2380 807 L 2380 817 L 2360 817 L 2360 807 Z Z" stroke-miterlimit="10"/></g><g transform="translate(-1078,-294) scale(1,1)"><rect fill="#ffffff" stroke="none" x="2360" y="827" width="20" height="10"/></g><g transform="translate(-1078,-294) scale(1,1)"><path fill="none" stroke="#000000" d="M 2360 827 L 2380 827 L 2380 837 L 2360 837 L 2360 827 Z Z" stroke-miterlimit="10"/></g><g transform="translate(-1078,-294) scale(1,1)"><path fill="none" stroke="#000000" d="M 2380 840 L 2920 840" stroke-miterlimit="10"/></g><g transform="translate(-1078,-294) scale(1,1)"><g><path fill="none" stroke="none"/><text fill="#000000" stroke="none" font-family="Arial" font-size="28px" font-style="normal" font-weight="bold" text-decoration="none" x="2506.0283203125" y="834.5">CanvasBoxComponent</text></g></g><g transform="translate(-1078,-294) scale(1,1)"><rect fill="#C0C0C0" stroke="none" x="2433" y="871" width="469.9375" height="200" opacity="0.2"/></g><g transform="translate(-1078,-294) scale(1,1)"><rect fill="#ffffff" stroke="none" x="2426" y="864" width="469.9375" height="200"/></g><g transform="translate(-1078,-294) scale(1,1)"><path fill="none" stroke="#000000" d="M 2426 864 L 2895.9375 864 L 2895.9375 1064 L 2426 1064 L 2426 864 Z Z" stroke-miterlimit="10"/></g><g transform="translate(-1078,-294) scale(1,1)"><rect fill="#ffffff" stroke="none" x="2416" y="871" width="20" height="10"/></g><g transform="translate(-1078,-294) scale(1,1)"><path fill="none" stroke="#000000" d="M 2416 871 L 2436 871 L 2436 881 L 2416 881 L 2416 871 Z Z" stroke-miterlimit="10"/></g><g transform="translate(-1078,-294) scale(1,1)"><rect fill="#ffffff" stroke="none" x="2416" y="891" width="20" height="10"/></g><g transform="translate(-1078,-294) scale(1,1)"><path fill="none" stroke="#000000" d="M 2416 891 L 2436 891 L 2436 901 L 2416 901 L 2416 891 Z Z" stroke-miterlimit="10"/></g><g transform="translate(-1078,-294) scale(1,1)"><path fill="none" stroke="#000000" d="M 2436 904 L 2895.9375 904" stroke-miterlimit="10"/></g><g transform="translate(-1078,-294) scale(1,1)"><g><path fill="none" stroke="none"/><text fill="#000000" stroke="none" font-family="Arial" font-size="28px" font-style="normal" font-weight="bold" text-decoration="none" x="2519.65234375" y="898.5">LineCanvasComponent</text></g></g><g transform="translate(-1078,-294) scale(1,1)"><g><path fill="none" stroke="none"/><text fill="#000000" stroke="none" font-family="Arial" font-size="28px" font-style="normal" font-weight="normal" text-decoration="none" x="2441" y="936.5">+lineCanvasModel: LineCanvas</text></g></g><g transform="translate(-1078,-294) scale(1,1)"><rect fill="#C0C0C0" stroke="none" x="1561" y="575" width="286" height="87" opacity="0.2"/></g><g transform="translate(-1078,-294) scale(1,1)"><rect fill="#ffffff" stroke="none" x="1554" y="568" width="286" height="87"/></g><g transform="translate(-1078,-294) scale(1,1)"><path fill="none" stroke="#000000" d="M 1554 568 L 1840 568 L 1840 655 L 1554 655 L 1554 568 Z Z" stroke-miterlimit="10"/></g><g transform="translate(-1078,-294) scale(1,1)"><rect fill="#ffffff" stroke="none" x="1544" y="575" width="20" height="10"/></g><g transform="translate(-1078,-294) scale(1,1)"><path fill="none" stroke="#000000" d="M 1544 575 L 1564 575 L 1564 585 L 1544 585 L 1544 575 Z Z" stroke-miterlimit="10"/></g><g transform="translate(-1078,-294) scale(1,1)"><rect fill="#ffffff" stroke="none" x="1544" y="595" width="20" height="10"/></g><g transform="translate(-1078,-294) scale(1,1)"><path fill="none" stroke="#000000" d="M 1544 595 L 1564 595 L 1564 605 L 1544 605 L 1544 595 Z Z" stroke-miterlimit="10"/></g><g transform="translate(-1078,-294) scale(1,1)"><path fill="none" stroke="#000000" d="M 1564 608 L 1840 608" stroke-miterlimit="10"/></g><g transform="translate(-1078,-294) scale(1,1)"><g><path fill="none" stroke="none"/><text fill="#000000" stroke="none" font-family="Arial" font-size="28px" font-style="normal" font-weight="bold" text-decoration="none" x="1619.5244140625" y="602.5">ToolsWindow</text></g></g><g transform="translate(-1078,-294) scale(1,1)"><rect fill="#C0C0C0" stroke="none" x="1577" y="703" width="286" height="88" opacity="0.2"/></g><g transform="translate(-1078,-294) scale(1,1)"><rect fill="#ffffff" stroke="none" x="1570" y="696" width="286" height="88"/></g><g transform="translate(-1078,-294) scale(1,1)"><path fill="none" stroke="#000000" d="M 1570 696 L 1856 696 L 1856 784 L 1570 784 L 1570 696 Z Z" stroke-miterlimit="10"/></g><g transform="translate(-1078,-294) scale(1,1)"><rect fill="#ffffff" stroke="none" x="1560" y="703" width="20" height="10"/></g><g transform="translate(-1078,-294) scale(1,1)"><path fill="none" stroke="#000000" d="M 1560 703 L 1580 703 L 1580 713 L 1560 713 L 1560 703 Z Z" stroke-miterlimit="10"/></g><g transform="translate(-1078,-294) scale(1,1)"><rect fill="#ffffff" stroke="none" x="1560" y="723" width="20" height="10"/></g><g transform="translate(-1078,-294) scale(1,1)"><path fill="none" stroke="#000000" d="M 1560 723 L 1580 723 L 1580 733 L 1560 733 L 1560 723 Z Z" stroke-miterlimit="10"/></g><g transform="translate(-1078,-294) scale(1,1)"><path fill="none" stroke="#000000" d="M 1580 736 L 1856 736" stroke-miterlimit="10"/></g><g transform="translate(-1078,-294) scale(1,1)"><g><path fill="none" stroke="none"/><text fill="#000000" stroke="none" font-family="Arial" font-size="28px" font-style="normal" font-weight="bold" text-decoration="none" x="1644.8486328125" y="730.5">LogWindow</text></g></g><g transform="translate(-1078,-294) scale(1,1)"><rect fill="#C0C0C0" stroke="none" x="2145" y="439" width="286.640625" height="248" opacity="0.2"/></g><g transform="translate(-1078,-294) scale(1,1)"><rect fill="#ffffff" stroke="none" x="2138" y="432" width="286.640625" height="248"/></g><g transform="translate(-1078,-294) scale(1,1)"><path fill="none" stroke="#000000" d="M 2138 432 L 2424.640625 432 L 2424.640625 680 L 2138 680 L 2138 432 Z Z" stroke-miterlimit="10"/></g><g transform="translate(-1078,-294) scale(1,1)"><rect fill="#ffffff" stroke="none" x="2128" y="439" width="20" height="10"/></g><g transform="translate(-1078,-294) scale(1,1)"><path fill="none" stroke="#000000" d="M 2128 439 L 2148 439 L 2148 449 L 2128 449 L 2128 439 Z Z" stroke-miterlimit="10"/></g><g transform="translate(-1078,-294) scale(1,1)"><rect fill="#ffffff" stroke="none" x="2128" y="459" width="20" height="10"/></g><g transform="translate(-1078,-294) scale(1,1)"><path fill="none" stroke="#000000" d="M 2128 459 L 2148 459 L 2148 469 L 2128 469 L 2128 459 Z Z" stroke-miterlimit="10"/></g><g transform="translate(-1078,-294) scale(1,1)"><path fill="none" stroke="#000000" d="M 2148 472 L 2424.640625 472" stroke-miterlimit="10"/></g><g transform="translate(-1078,-294) scale(1,1)"><g><path fill="none" stroke="none"/><text fill="#000000" stroke="none" font-family="Arial" font-size="28px" font-style="normal" font-weight="bold" text-decoration="none" x="2162.5966796875" y="466.5">GlobalEditorService</text></g></g><g transform="translate(-1078,-294) scale(1,1)"><g><path fill="none" stroke="none"/><text fill="#000000" stroke="none" font-family="Arial" font-size="28px" font-style="normal" font-weight="normal" text-decoration="none" x="2153" y="504.5">+model: EditorModel</text></g></g><g transform="translate(-1078,-294) scale(1,1)"><path fill="none" stroke="#000000" d="M 2497 799 L 2390 681" stroke-miterlimit="10" stroke-dasharray="3"/></g><g transform="translate(-1078,-294) scale(1,1)"><path fill="none" stroke="#000000" d="M 2399.944998417889 685.7007453098616 L 2390 681 L 2393.708246934945 691.3561047054128" stroke-miterlimit="10"/></g><g transform="translate(-1078,-294) scale(1,1)"><path fill="none" stroke="#000000" d="M 2001 617 L 2127 589" stroke-miterlimit="10" stroke-dasharray="3"/></g><g transform="translate(-1078,-294) scale(1,1)"><path fill="none" stroke="#000000" d="M 2117.992500921139 595.313870472564 L 2127 589 L 2116.166155693122 587.0953169464891" stroke-miterlimit="10"/></g><g transform="translate(-1078,-294) scale(1,1)"><rect fill="#C0C0C0" stroke="none" x="1473" y="887" width="854" height="343" opacity="0.2"/></g><g transform="translate(-1078,-294) scale(1,1)"><rect fill="#ffffff" stroke="none" x="1466" y="880" width="854" height="343"/></g><g transform="translate(-1078,-294) scale(1,1)"><path fill="none" stroke="#000000" d="M 1466 880 L 2320 880 L 2320 1223 L 1466 1223 L 1466 880 Z Z" stroke-miterlimit="10"/></g><g transform="translate(-1078,-294) scale(1,1)"><rect fill="#ffffff" stroke="none" x="1456" y="887" width="20" height="10"/></g><g transform="translate(-1078,-294) scale(1,1)"><path fill="none" stroke="#000000" d="M 1456 887 L 1476 887 L 1476 897 L 1456 897 L 1456 887 Z Z" stroke-miterlimit="10"/></g><g transform="translate(-1078,-294) scale(1,1)"><rect fill="#ffffff" stroke="none" x="1456" y="907" width="20" height="10"/></g><g transform="translate(-1078,-294) scale(1,1)"><path fill="none" stroke="#000000" d="M 1456 907 L 1476 907 L 1476 917 L 1456 917 L 1456 907 Z Z" stroke-miterlimit="10"/></g><g transform="translate(-1078,-294) scale(1,1)"><g><path fill="none" stroke="none"/><text fill="#000000" stroke="none" font-family="Arial" font-size="28px" font-style="normal" font-weight="bold" text-decoration="none" x="1758.7109375" y="914.5">SocketSessionService</text></g></g><g transform="translate(-1078,-294) scale(1,1)"><rect fill="#C0C0C0" stroke="none" x="1249" y="2023" width="1950" height="1448" opacity="0.2"/></g><g transform="translate(-1078,-294) scale(1,1)"><rect fill="#ffffff" stroke="none" x="1242" y="2016" width="1950" height="1448"/></g><g transform="translate(-1078,-294) scale(1,1)"><path fill="none" stroke="#000000" d="M 1242 2016 L 3192 2016 L 3192 3464 L 1242 3464 L 1242 2016 Z Z" stroke-miterlimit="10"/></g><g transform="translate(-1078,-294) scale(1,1)"><rect fill="#ffffff" stroke="none" x="1232" y="2023" width="20" height="10"/></g><g transform="translate(-1078,-294) scale(1,1)"><path fill="none" stroke="#000000" d="M 1232 2023 L 1252 2023 L 1252 2033 L 1232 2033 L 1232 2023 Z Z" stroke-miterlimit="10"/></g><g transform="translate(-1078,-294) scale(1,1)"><rect fill="#ffffff" stroke="none" x="1232" y="2043" width="20" height="10"/></g><g transform="translate(-1078,-294) scale(1,1)"><path fill="none" stroke="#000000" d="M 1232 2043 L 1252 2043 L 1252 2053 L 1232 2053 L 1232 2043 Z Z" stroke-miterlimit="10"/></g><g transform="translate(-1078,-294) scale(1,1)"><g><path fill="none" stroke="none"/><text fill="#000000" stroke="none" font-family="Arial" font-size="22px" font-style="normal" font-weight="bold" text-decoration="none" x="2165.75927734375" y="2044.5">Server-side</text></g></g><g transform="translate(-1078,-294) scale(1,1)"><rect fill="#C0C0C0" stroke="none" x="2752" y="2687" width="390" height="432" opacity="0.2"/></g><g transform="translate(-1078,-294) scale(1,1)"><rect fill="#ffffff" stroke="none" x="2745" y="2680" width="390" height="432"/></g><g transform="translate(-1078,-294) scale(1,1)"><path fill="none" stroke="#000000" d="M 2745 2680 L 3135 2680 L 3135 3112 L 2745 3112 L 2745 2680 Z Z" stroke-miterlimit="10"/></g><g transform="translate(-1078,-294) scale(1,1)"><rect fill="#ffffff" stroke="none" x="2735" y="2687" width="20" height="10"/></g><g transform="translate(-1078,-294) scale(1,1)"><path fill="none" stroke="#000000" d="M 2735 2687 L 2755 2687 L 2755 2697 L 2735 2697 L 2735 2687 Z Z" stroke-miterlimit="10"/></g><g transform="translate(-1078,-294) scale(1,1)"><rect fill="#ffffff" stroke="none" x="2735" y="2707" width="20" height="10"/></g><g transform="translate(-1078,-294) scale(1,1)"><path fill="none" stroke="#000000" d="M 2735 2707 L 2755 2707 L 2755 2717 L 2735 2717 L 2735 2707 Z Z" stroke-miterlimit="10"/></g><g transform="translate(-1078,-294) scale(1,1)"><g><path fill="none" stroke="none"/><text fill="#000000" stroke="none" font-family="Arial" font-size="22px" font-style="normal" font-weight="bold" text-decoration="none" x="2861.447265625" y="2708.5">JPA Repositories</text></g></g><g transform="translate(-1078,-294) scale(1,1)"><path fill="none" stroke="#000000" d="M 2157 1809 L 2169 2015" stroke-miterlimit="10" stroke-dasharray="3"/></g><g transform="translate(-1078,-294) scale(1,1)"><path fill="none" stroke="#000000" d="M 2164.2066076967144 2005.0993237490159 L 2169 2015 L 2172.6113951128627 2004.6097244820558" stroke-miterlimit="10"/></g><g transform="translate(-1078,-294) scale(1,1)"><path fill="none" stroke="#000000" d="M 2023 879 L 2178 681" stroke-miterlimit="10" stroke-dasharray="3"/></g><g transform="translate(-1078,-294) scale(1,1)"><path fill="none" stroke="#000000" d="M 2175.050232819604 691.5971162861157 L 2178 681 L 2168.4209068368855 686.4074924107554" stroke-miterlimit="10"/></g><g transform="translate(-1078,-294) scale(1,1)"><rect fill="#C0C0C0" stroke="none" x="1265" y="1359" width="397" height="392" opacity="0.2"/></g><g transform="translate(-1078,-294) scale(1,1)"><rect fill="#ffffff" stroke="none" x="1258" y="1352" width="397" height="392"/></g><g transform="translate(-1078,-294) scale(1,1)"><path fill="none" stroke="#000000" d="M 1258 1352 L 1655 1352 L 1655 1744 L 1258 1744 L 1258 1352 Z Z" stroke-miterlimit="10"/></g><g transform="translate(-1078,-294) scale(1,1)"><rect fill="#ffffff" stroke="none" x="1248" y="1359" width="20" height="10"/></g><g transform="translate(-1078,-294) scale(1,1)"><path fill="none" stroke="#000000" d="M 1248 1359 L 1268 1359 L 1268 1369 L 1248 1369 L 1248 1359 Z Z" stroke-miterlimit="10"/></g><g transform="translate(-1078,-294) scale(1,1)"><rect fill="#ffffff" stroke="none" x="1248" y="1379" width="20" height="10"/></g><g transform="translate(-1078,-294) scale(1,1)"><path fill="none" stroke="#000000" d="M 1248 1379 L 1268 1379 L 1268 1389 L 1248 1389 L 1248 1379 Z Z" stroke-miterlimit="10"/></g><g transform="translate(-1078,-294) scale(1,1)"><g><path fill="none" stroke="none"/><text fill="#000000" stroke="none" font-family="Arial" font-size="28px" font-style="normal" font-weight="bold" text-decoration="none" x="1384.4453125" y="1386.5">auth Module</text></g></g><g transform="translate(-1078,-294) scale(1,1)"><rect fill="#C0C0C0" stroke="none" x="2024" y="2575" width="374" height="488" opacity="0.2"/></g><g transform="translate(-1078,-294) scale(1,1)"><rect fill="#ffffff" stroke="none" x="2017" y="2568" width="374" height="488"/></g><g transform="translate(-1078,-294) scale(1,1)"><path fill="none" stroke="#000000" d="M 2017 2568 L 2391 2568 L 2391 3056 L 2017 3056 L 2017 2568 Z Z" stroke-miterlimit="10"/></g><g transform="translate(-1078,-294) scale(1,1)"><rect fill="#ffffff" stroke="none" x="2007" y="2575" width="20" height="10"/></g><g transform="translate(-1078,-294) scale(1,1)"><path fill="none" stroke="#000000" d="M 2007 2575 L 2027 2575 L 2027 2585 L 2007 2585 L 2007 2575 Z Z" stroke-miterlimit="10"/></g><g transform="translate(-1078,-294) scale(1,1)"><rect fill="#ffffff" stroke="none" x="2007" y="2595" width="20" height="10"/></g><g transform="translate(-1078,-294) scale(1,1)"><path fill="none" stroke="#000000" d="M 2007 2595 L 2027 2595 L 2027 2605 L 2007 2605 L 2007 2595 Z Z" stroke-miterlimit="10"/></g><g transform="translate(-1078,-294) scale(1,1)"><g><path fill="none" stroke="none"/><text fill="#000000" stroke="none" font-family="Arial" font-size="22px" font-style="normal" font-weight="bold" text-decoration="none" x="2134.41162109375" y="2596.5">Spring Security</text></g></g><g transform="translate(-1078,-294) scale(1,1)"><rect fill="#C0C0C0" stroke="none" x="2054" y="2623" width="337.4208984375" height="71" opacity="0.2"/></g><g transform="translate(-1078,-294) scale(1,1)"><rect fill="#ffffff" stroke="none" x="2047" y="2616" width="337.4208984375" height="71"/></g><g transform="translate(-1078,-294) scale(1,1)"><path fill="none" stroke="#000000" d="M 2047 2616 L 2384.4208984375 2616 L 2384.4208984375 2687 L 2047 2687 L 2047 2616 Z Z" stroke-miterlimit="10"/></g><g transform="translate(-1078,-294) scale(1,1)"><rect fill="#ffffff" stroke="none" x="2047" y="2616" width="337.4208984375" height="71"/></g><g transform="translate(-1078,-294) scale(1,1)"><path fill="none" stroke="#000000" d="M 2047 2616 L 2384.4208984375 2616 L 2384.4208984375 2687 L 2047 2687 L 2047 2616 Z Z" stroke-miterlimit="10"/></g><g transform="translate(-1078,-294) scale(1,1)"><g><path fill="none" stroke="none"/><text fill="#000000" stroke="none" font-family="Arial" font-size="22px" font-style="normal" font-weight="bold" text-decoration="none" x="2063.6708984375" y="2644.5">WebSecurityConfigurerAdapter</text><path fill="none" stroke="#000000" d="M 2379.9208984375 2644.5 L 2051.5 2644.5" stroke-miterlimit="10"/></g></g><g transform="translate(-1078,-294) scale(1,1)"><rect fill="#C0C0C0" stroke="none" x="2529" y="1375" width="421" height="352" opacity="0.2"/></g><g transform="translate(-1078,-294) scale(1,1)"><rect fill="#ffffff" stroke="none" x="2522" y="1368" width="421" height="352"/></g><g transform="translate(-1078,-294) scale(1,1)"><path fill="none" stroke="#000000" d="M 2522 1368 L 2943 1368 L 2943 1720 L 2522 1720 L 2522 1368 Z Z" stroke-miterlimit="10"/></g><g transform="translate(-1078,-294) scale(1,1)"><rect fill="#ffffff" stroke="none" x="2512" y="1375" width="20" height="10"/></g><g transform="translate(-1078,-294) scale(1,1)"><path fill="none" stroke="#000000" d="M 2512 1375 L 2532 1375 L 2532 1385 L 2512 1385 L 2512 1375 Z Z" stroke-miterlimit="10"/></g><g transform="translate(-1078,-294) scale(1,1)"><rect fill="#ffffff" stroke="none" x="2512" y="1395" width="20" height="10"/></g><g transform="translate(-1078,-294) scale(1,1)"><path fill="none" stroke="#000000" d="M 2512 1395 L 2532 1395 L 2532 1405 L 2512 1405 L 2512 1395 Z Z" stroke-miterlimit="10"/></g><g transform="translate(-1078,-294) scale(1,1)"><g><path fill="none" stroke="none"/><text fill="#000000" stroke="none" font-family="Arial" font-size="28px" font-style="normal" font-weight="bold" text-decoration="none" x="2598.1904296875" y="1402.5">Left-panel-Component</text></g></g><g transform="translate(-1078,-294) scale(1,1)"><rect fill="#C0C0C0" stroke="none" x="2569" y="1543" width="349" height="159" opacity="0.2"/></g><g transform="translate(-1078,-294) scale(1,1)"><rect fill="#ffffff" stroke="none" x="2562" y="1536" width="349" height="159"/></g><g transform="translate(-1078,-294) scale(1,1)"><path fill="none" stroke="#000000" d="M 2562 1536 L 2911 1536 L 2911 1695 L 2562 1695 L 2562 1536 Z Z" stroke-miterlimit="10"/></g><g transform="translate(-1078,-294) scale(1,1)"><rect fill="#ffffff" stroke="none" x="2552" y="1543" width="20" height="10"/></g><g transform="translate(-1078,-294) scale(1,1)"><path fill="none" stroke="#000000" d="M 2552 1543 L 2572 1543 L 2572 1553 L 2552 1553 L 2552 1543 Z Z" stroke-miterlimit="10"/></g><g transform="translate(-1078,-294) scale(1,1)"><rect fill="#ffffff" stroke="none" x="2552" y="1563" width="20" height="10"/></g><g transform="translate(-1078,-294) scale(1,1)"><path fill="none" stroke="#000000" d="M 2552 1563 L 2572 1563 L 2572 1573 L 2552 1573 L 2552 1563 Z Z" stroke-miterlimit="10"/></g><g transform="translate(-1078,-294) scale(1,1)"><g><path fill="none" stroke="none"/><text fill="#000000" stroke="none" font-family="Arial" font-size="28px" font-style="normal" font-weight="bold" text-decoration="none" x="2595.2177734375" y="1570.5">FileBrowserComponent</text></g></g><g transform="translate(-1078,-294) scale(1,1)"><rect fill="#C0C0C0" stroke="none" x="1321" y="1415" width="285" height="44" opacity="0.2"/></g><g transform="translate(-1078,-294) scale(1,1)"><rect fill="#ffffff" stroke="none" x="1314" y="1408" width="285" height="44"/></g><g transform="translate(-1078,-294) scale(1,1)"><path fill="none" stroke="#000000" d="M 1314 1408 L 1599 1408 L 1599 1452 L 1314 1452 L 1314 1408 Z Z" stroke-miterlimit="10"/></g><g transform="translate(-1078,-294) scale(1,1)"><rect fill="#ffffff" stroke="none" x="1304" y="1415" width="20" height="10"/></g><g transform="translate(-1078,-294) scale(1,1)"><path fill="none" stroke="#000000" d="M 1304 1415 L 1324 1415 L 1324 1425 L 1304 1425 L 1304 1415 Z Z" stroke-miterlimit="10"/></g><g transform="translate(-1078,-294) scale(1,1)"><rect fill="#ffffff" stroke="none" x="1304" y="1435" width="20" height="10"/></g><g transform="translate(-1078,-294) scale(1,1)"><path fill="none" stroke="#000000" d="M 1304 1435 L 1324 1435 L 1324 1445 L 1304 1445 L 1304 1435 Z Z" stroke-miterlimit="10"/></g><g transform="translate(-1078,-294) scale(1,1)"><g><path fill="none" stroke="none"/><text fill="#000000" stroke="none" font-family="Arial" font-size="28px" font-style="normal" font-weight="bold" text-decoration="none" x="1386.017578125" y="1442.5">AuthService</text></g></g><g transform="translate(-1078,-294) scale(1,1)"><path fill="none" stroke="#000000" d="M 2646 1367 L 2333 681" stroke-miterlimit="10" stroke-dasharray="3"/></g><g transform="translate(-1078,-294) scale(1,1)"><path fill="none" stroke="#000000" d="M 2341.0482558378694 688.4983716877864 L 2333 681 L 2333.388826811391 691.9931257479728" stroke-miterlimit="10"/></g><g transform="translate(-1078,-294) scale(1,1)"><rect fill="#C0C0C0" stroke="none" x="2078" y="2847" width="256" height="72" opacity="0.2"/></g><g transform="translate(-1078,-294) scale(1,1)"><rect fill="#ffffff" stroke="none" x="2071" y="2840" width="256" height="72"/></g><g transform="translate(-1078,-294) scale(1,1)"><path fill="none" stroke="#000000" d="M 2071 2840 L 2327 2840 L 2327 2912 L 2071 2912 L 2071 2840 Z Z" stroke-miterlimit="10"/></g><g transform="translate(-1078,-294) scale(1,1)"><rect fill="#ffffff" stroke="none" x="2071" y="2840" width="256" height="72"/></g><g transform="translate(-1078,-294) scale(1,1)"><path fill="none" stroke="#000000" d="M 2071 2840 L 2327 2840 L 2327 2912 L 2071 2912 L 2071 2840 Z Z" stroke-miterlimit="10"/></g><g transform="translate(-1078,-294) scale(1,1)"><g><path fill="none" stroke="none"/><text fill="#000000" stroke="none" font-family="Arial" font-size="22px" font-style="normal" font-weight="bold" text-decoration="none" x="2132.95703125" y="2868.5">AuthManager</text><path fill="none" stroke="#000000" d="M 2269.28076171875 2868.5 L 2128.71923828125 2868.5" stroke-miterlimit="10"/></g></g><g transform="translate(-1078,-294) scale(1,1)"><rect fill="#C0C0C0" stroke="none" x="2062" y="2751" width="238.9150390625" height="79" opacity="0.2"/></g><g transform="translate(-1078,-294) scale(1,1)"><rect fill="#ffffff" stroke="none" x="2055" y="2744" width="238.9150390625" height="79"/></g><g transform="translate(-1078,-294) scale(1,1)"><path fill="none" stroke="#000000" d="M 2055 2744 L 2293.9150390625 2744 L 2293.9150390625 2823 L 2055 2823 L 2055 2744 Z Z" stroke-miterlimit="10"/></g><g transform="translate(-1078,-294) scale(1,1)"><rect fill="#ffffff" stroke="none" x="2055" y="2744" width="238.9150390625" height="79"/></g><g transform="translate(-1078,-294) scale(1,1)"><path fill="none" stroke="#000000" d="M 2055 2744 L 2293.9150390625 2744 L 2293.9150390625 2823 L 2055 2823 L 2055 2744 Z Z" stroke-miterlimit="10"/></g><g transform="translate(-1078,-294) scale(1,1)"><g><path fill="none" stroke="none"/><text fill="#000000" stroke="none" font-family="Arial" font-size="22px" font-style="normal" font-weight="bold" text-decoration="none" x="2066.267578125" y="2772.5">MyUserDetailsService</text><path fill="none" stroke="#000000" d="M 2289.4150390625 2772.5 L 2059.5 2772.5" stroke-miterlimit="10"/></g></g><g transform="translate(-1078,-294) scale(1,1)"><rect fill="#C0C0C0" stroke="none" x="2094" y="2783" width="160.6259765625" height="33" opacity="0.2"/></g><g transform="translate(-1078,-294) scale(1,1)"><rect fill="#ffffff" stroke="none" x="2087" y="2776" width="160.6259765625" height="33"/></g><g transform="translate(-1078,-294) scale(1,1)"><path fill="none" stroke="#000000" d="M 2087 2776 L 2247.6259765625 2776 L 2247.6259765625 2809 L 2087 2809 L 2087 2776 Z Z" stroke-miterlimit="10"/></g><g transform="translate(-1078,-294) scale(1,1)"><rect fill="#ffffff" stroke="none" x="2087" y="2776" width="160.6259765625" height="33"/></g><g transform="translate(-1078,-294) scale(1,1)"><path fill="none" stroke="#000000" d="M 2087 2776 L 2247.6259765625 2776 L 2247.6259765625 2809 L 2087 2809 L 2087 2776 Z Z" stroke-miterlimit="10"/></g><g transform="translate(-1078,-294) scale(1,1)"><g><path fill="none" stroke="none"/><text fill="#000000" stroke="none" font-family="Arial" font-size="22px" font-style="normal" font-weight="bold" text-decoration="none" x="2095.80224609375" y="2804.5">MyUserDetails</text><path fill="none" stroke="#000000" d="M 2243.1259765625 2804.5 L 2091.5 2804.5" stroke-miterlimit="10"/></g></g><g transform="translate(-1078,-294) scale(1,1)"><rect fill="#C0C0C0" stroke="none" x="2078" y="2943" width="171.63671875" height="72" opacity="0.2"/></g><g transform="translate(-1078,-294) scale(1,1)"><rect fill="#ffffff" stroke="none" x="2071" y="2936" width="171.63671875" height="72"/></g><g transform="translate(-1078,-294) scale(1,1)"><path fill="none" stroke="#000000" d="M 2071 2936 L 2242.63671875 2936 L 2242.63671875 3008 L 2071 3008 L 2071 2936 Z Z" stroke-miterlimit="10"/></g><g transform="translate(-1078,-294) scale(1,1)"><rect fill="#ffffff" stroke="none" x="2071" y="2936" width="171.63671875" height="72"/></g><g transform="translate(-1078,-294) scale(1,1)"><path fill="none" stroke="#000000" d="M 2071 2936 L 2242.63671875 2936 L 2242.63671875 3008 L 2071 3008 L 2071 2936 Z Z" stroke-miterlimit="10"/></g><g transform="translate(-1078,-294) scale(1,1)"><g><path fill="none" stroke="none"/><text fill="#000000" stroke="none" font-family="Arial" font-size="22px" font-style="normal" font-weight="bold" text-decoration="none" x="2082.25146484375" y="2964.5">JwtUtilsService</text><path fill="none" stroke="#000000" d="M 2238.13671875 2964.5 L 2075.5 2964.5" stroke-miterlimit="10"/></g></g><g transform="translate(-1078,-294) scale(1,1)"><rect fill="#C0C0C0" stroke="none" x="1279" y="2255" width="423" height="144" opacity="0.2"/></g><g transform="translate(-1078,-294) scale(1,1)"><rect fill="#ffffff" stroke="none" x="1272" y="2248" width="423" height="144"/></g><g transform="translate(-1078,-294) scale(1,1)"><path fill="none" stroke="#000000" d="M 1272 2248 L 1695 2248 L 1695 2392 L 1272 2392 L 1272 2248 Z Z" stroke-miterlimit="10"/></g><g transform="translate(-1078,-294) scale(1,1)"><rect fill="#ffffff" stroke="none" x="1272" y="2248" width="423" height="144"/></g><g transform="translate(-1078,-294) scale(1,1)"><path fill="none" stroke="#000000" d="M 1272 2248 L 1695 2248 L 1695 2392 L 1272 2392 L 1272 2248 Z Z" stroke-miterlimit="10"/></g><g transform="translate(-1078,-294) scale(1,1)"><path fill="none" stroke="#000000" d="M 1272 2282 L 1695 2282" stroke-miterlimit="10"/></g><g transform="translate(-1078,-294) scale(1,1)"><g><path fill="none" stroke="none"/><text fill="#000000" stroke="none" font-family="Arial" font-size="22px" font-style="normal" font-weight="bold" text-decoration="none" x="1413.18701171875" y="2276.5">AuthController</text><path fill="none" stroke="#000000" d="M 1561.1015625 2276.5 L 1405.8984375 2276.5" stroke-miterlimit="10"/></g></g><g transform="translate(-1078,-294) scale(1,1)"><g><path fill="none" stroke="none"/><text fill="#000000" stroke="none" font-family="Arial" font-size="22px" font-style="normal" font-weight="normal" text-decoration="none" x="1277" y="2308.5">register</text></g></g><g transform="translate(-1078,-294) scale(1,1)"><g><path fill="none" stroke="none"/><text fill="#000000" stroke="none" font-family="Arial" font-size="22px" font-style="normal" font-weight="normal" text-decoration="none" x="1277" y="2332.5">login</text></g></g><g transform="translate(-1078,-294) scale(1,1)"><g><path fill="none" stroke="none"/><text fill="#000000" stroke="none" font-family="Arial" font-size="22px" font-style="normal" font-weight="normal" text-decoration="none" x="1277" y="2356.5">log_me _out</text></g></g><g transform="translate(-1078,-294) scale(1,1)"><rect fill="#C0C0C0" stroke="none" x="1526" y="2111" width="342.759765625" height="88" opacity="0.2"/></g><g transform="translate(-1078,-294) scale(1,1)"><rect fill="#ffffff" stroke="none" x="1519" y="2104" width="342.759765625" height="88"/></g><g transform="translate(-1078,-294) scale(1,1)"><path fill="none" stroke="#000000" d="M 1519 2104 L 1861.759765625 2104 L 1861.759765625 2192 L 1519 2192 L 1519 2104 Z Z" stroke-miterlimit="10"/></g><g transform="translate(-1078,-294) scale(1,1)"><rect fill="#ffffff" stroke="none" x="1519" y="2104" width="342.759765625" height="88"/></g><g transform="translate(-1078,-294) scale(1,1)"><path fill="none" stroke="#000000" d="M 1519 2104 L 1861.759765625 2104 L 1861.759765625 2192 L 1519 2192 L 1519 2104 Z Z" stroke-miterlimit="10"/></g><g transform="translate(-1078,-294) scale(1,1)"><g><path fill="none" stroke="none"/><text fill="#000000" stroke="none" font-family="Arial" font-size="22px" font-style="normal" font-weight="bold" text-decoration="none" x="1535.080078125" y="2132.5">JwtAuthRequestHandlerService</text><path fill="none" stroke="#000000" d="M 1857.259765625 2132.5 L 1523.5 2132.5" stroke-miterlimit="10"/></g></g><g transform="translate(-1078,-294) scale(1,1)"><path fill="none" stroke="#000000" d="M 1571 2247 L 1636 2193" stroke-miterlimit="10"/></g><g transform="translate(-1078,-294) scale(1,1)"><path fill="none" stroke="#000000" d="M 1630.8729330856493 2202.732069916301 L 1636 2193 L 1625.4930035844675 2196.2562288500635" stroke-miterlimit="10"/></g><g transform="translate(-1078,-294) scale(1,1)"><path fill="none" stroke="#000000" d="M 1704 2193 L 1896 2808 L 2070 2847" stroke-miterlimit="10"/></g><g transform="translate(-1078,-294) scale(1,1)"><path fill="none" stroke="#000000" d="M 2059.1626980379897 2848.8849101262954 L 2070 2847 L 2061.0040375606654 2840.669703025127" stroke-miterlimit="10"/></g><g transform="translate(-1078,-294) scale(1,1)"><path fill="none" stroke="#000000" d="M 1709 2193 L 1960 2800 L 2054 2793" stroke-miterlimit="10"/></g><g transform="translate(-1078,-294) scale(1,1)"><path fill="none" stroke="#000000" d="M 2044.1779961568268 2797.9525993684824 L 2054 2793 L 2043.5527778796977 2789.556811075606" stroke-miterlimit="10"/></g><g transform="translate(-1078,-294) scale(1,1)"><path fill="none" stroke="#000000" d="M 1700 2193 L 1856 2888 L 2070 2948" stroke-miterlimit="10"/></g><g transform="translate(-1078,-294) scale(1,1)"><path fill="none" stroke="#000000" d="M 2059.0782431954985 2949.309667249084 L 2070 2948 L 2061.351077108141 2941.203226293992" stroke-miterlimit="10"/></g><g transform="translate(-1078,-294) scale(1,1)"><path fill="none" stroke="#000000" d="M 2199 2876 L 2195 2888" stroke-miterlimit="10" stroke-dasharray="3"/></g><g transform="translate(-1078,-294) scale(1,1)"><rect fill="#C0C0C0" stroke="none" x="2102" y="2879" width="200.9521484375" height="33" opacity="0.2"/></g><g transform="translate(-1078,-294) scale(1,1)"><rect fill="#ffffff" stroke="none" x="2095" y="2872" width="200.9521484375" height="33"/></g><g transform="translate(-1078,-294) scale(1,1)"><path fill="none" stroke="#000000" d="M 2095 2872 L 2295.9521484375 2872 L 2295.9521484375 2905 L 2095 2905 L 2095 2872 Z Z" stroke-miterlimit="10"/></g><g transform="translate(-1078,-294) scale(1,1)"><rect fill="#ffffff" stroke="none" x="2095" y="2872" width="200.9521484375" height="33"/></g><g transform="translate(-1078,-294) scale(1,1)"><path fill="none" stroke="#000000" d="M 2095 2872 L 2295.9521484375 2872 L 2295.9521484375 2905 L 2095 2905 L 2095 2872 Z Z" stroke-miterlimit="10"/></g><g transform="translate(-1078,-294) scale(1,1)"><g><path fill="none" stroke="none"/><text fill="#000000" stroke="none" font-family="Arial" font-size="22px" font-style="normal" font-weight="bold" text-decoration="none" x="2106.20849609375" y="2900.5">PasswordEncoder</text><path fill="none" stroke="#000000" d="M 2291.4521484375 2900.5 L 2099.5 2900.5" stroke-miterlimit="10"/></g></g><g transform="translate(-1078,-294) scale(1,1)"><rect fill="#C0C0C0" stroke="none" x="1239" y="2111" width="236.34765625" height="96" opacity="0.2"/></g><g transform="translate(-1078,-294) scale(1,1)"><rect fill="#ffffff" stroke="none" x="1232" y="2104" width="236.34765625" height="96"/></g><g transform="translate(-1078,-294) scale(1,1)"><path fill="none" stroke="#000000" d="M 1232 2104 L 1468.34765625 2104 L 1468.34765625 2200 L 1232 2200 L 1232 2104 Z Z" stroke-miterlimit="10"/></g><g transform="translate(-1078,-294) scale(1,1)"><rect fill="#ffffff" stroke="none" x="1232" y="2104" width="236.34765625" height="96"/></g><g transform="translate(-1078,-294) scale(1,1)"><path fill="none" stroke="#000000" d="M 1232 2104 L 1468.34765625 2104 L 1468.34765625 2200 L 1232 2200 L 1232 2104 Z Z" stroke-miterlimit="10"/></g><g transform="translate(-1078,-294) scale(1,1)"><g><path fill="none" stroke="none"/><text fill="#000000" stroke="none" font-family="Arial" font-size="22px" font-style="normal" font-weight="bold" text-decoration="none" x="1245.630859375" y="2132.5">JwtAuthRequestFilter</text><path fill="none" stroke="#000000" d="M 1463.84765625 2132.5 L 1236.5 2132.5" stroke-miterlimit="10"/></g></g><g transform="translate(-1078,-294) scale(1,1)"><path fill="#ffffff" stroke="none" d="M 1088 1952 L 1316 1952 L 1326 1962 L 1326 2086 L 1088 2086 L 1088 1952"/></g><g transform="translate(-1078,-294) scale(1,1)"><path fill="none" stroke="#000000" d="M 1088 1952 L 1316 1952 L 1326 1962 L 1326 2086 L 1088 2086 L 1088 1952 L 1088 1952" stroke-miterlimit="10"/></g><g transform="translate(-1078,-294) scale(1,1)"><path fill="none" stroke="#000000" d="M 1316 1952 L 1316 1962 L 1326 1962 L 1316 1952" stroke-miterlimit="10"/></g><g transform="translate(-1078,-294) scale(1,1)"><g><path fill="none" stroke="none"/><text fill="#000000" stroke="none" font-family="Arial" font-size="22px" font-style="normal" font-weight="normal" text-decoration="none" x="1093" y="1979">Minden Rest kérés</text><text fill="#000000" stroke="none" font-family="Arial" font-size="22px" font-style="normal" font-weight="normal" text-decoration="none" x="1093" y="2001">előtt ezen a filteren</text><text fill="#000000" stroke="none" font-family="Arial" font-size="22px" font-style="normal" font-weight="normal" text-decoration="none" x="1093" y="2023">átfut az üzenet.</text></g></g><g transform="translate(-1078,-294) scale(1,1)"><path fill="none" stroke="#000000" d="M 1281 2088 L 1297 2103" stroke-miterlimit="10" stroke-dasharray="3"/></g><g transform="translate(-1078,-294) scale(1,1)"><rect fill="#C0C0C0" stroke="none" x="2775" y="2039" width="407" height="233" opacity="0.2"/></g><g transform="translate(-1078,-294) scale(1,1)"><rect fill="#ffffff" stroke="none" x="2768" y="2032" width="407" height="233"/></g><g transform="translate(-1078,-294) scale(1,1)"><path fill="none" stroke="#000000" d="M 2768 2032 L 3175 2032 L 3175 2265 L 2768 2265 L 2768 2032 Z Z" stroke-miterlimit="10"/></g><g transform="translate(-1078,-294) scale(1,1)"><rect fill="#ffffff" stroke="none" x="2768" y="2032" width="407" height="233"/></g><g transform="translate(-1078,-294) scale(1,1)"><path fill="none" stroke="#000000" d="M 2768 2032 L 3175 2032 L 3175 2265 L 2768 2265 L 2768 2032 Z Z" stroke-miterlimit="10"/></g><g transform="translate(-1078,-294) scale(1,1)"><path fill="none" stroke="#000000" d="M 2768 2066 L 3175 2066" stroke-miterlimit="10"/></g><g transform="translate(-1078,-294) scale(1,1)"><g><path fill="none" stroke="none"/><text fill="#000000" stroke="none" font-family="Arial" font-size="22px" font-style="normal" font-weight="bold" text-decoration="none" x="2859.609375" y="2060.5">ManagementController</text><path fill="none" stroke="#000000" d="M 3091.29150390625 2060.5 L 2851.70849609375 2060.5" stroke-miterlimit="10"/></g></g><g transform="translate(-1078,-294) scale(1,1)"><g><path fill="none" stroke="none"/><text fill="#000000" stroke="none" font-family="Arial" font-size="22px" font-style="normal" font-weight="normal" text-decoration="none" x="2773" y="2092.5">+user_root_folder</text></g></g><g transform="translate(-1078,-294) scale(1,1)"><g><path fill="none" stroke="none"/><text fill="#000000" stroke="none" font-family="Arial" font-size="22px" font-style="normal" font-weight="normal" text-decoration="none" x="2773" y="2116.5">+GET folder | {id}</text></g></g><g transform="translate(-1078,-294) scale(1,1)"><g><path fill="none" stroke="none"/><text fill="#000000" stroke="none" font-family="Arial" font-size="22px" font-style="normal" font-weight="normal" text-decoration="none" x="2773" y="2140.5">+DELETE folder | {id}</text></g></g><g transform="translate(-1078,-294) scale(1,1)"><g><path fill="none" stroke="none"/><text fill="#000000" stroke="none" font-family="Arial" font-size="22px" font-style="normal" font-weight="normal" text-decoration="none" x="2773" y="2164.5">+GET create_folder | {parent_id}</text></g></g><g transform="translate(-1078,-294) scale(1,1)"><g><path fill="none" stroke="none"/><text fill="#000000" stroke="none" font-family="Arial" font-size="22px" font-style="normal" font-weight="normal" text-decoration="none" x="2773" y="2188.5">+GET project | {id}</text></g></g><g transform="translate(-1078,-294) scale(1,1)"><g><path fill="none" stroke="none"/><text fill="#000000" stroke="none" font-family="Arial" font-size="22px" font-style="normal" font-weight="normal" text-decoration="none" x="2773" y="2212.5">+DELETE project | {id}</text></g></g><g transform="translate(-1078,-294) scale(1,1)"><g><path fill="none" stroke="none"/><text fill="#000000" stroke="none" font-family="Arial" font-size="22px" font-style="normal" font-weight="normal" text-decoration="none" x="2773" y="2236.5">+CREATE project | {id}</text></g></g><g transform="translate(-1078,-294) scale(1,1)"><g><path fill="none" stroke="none"/><text fill="#000000" stroke="none" font-family="Arial" font-size="22px" font-style="normal" font-weight="normal" text-decoration="none" x="2773" y="2260.5">+POST share</text></g></g><g transform="translate(-1078,-294) scale(1,1)"><rect fill="#C0C0C0" stroke="none" x="2951" y="2319" width="221.759765625" height="143" opacity="0.2"/></g><g transform="translate(-1078,-294) scale(1,1)"><rect fill="#ffffff" stroke="none" x="2944" y="2312" width="221.759765625" height="143"/></g><g transform="translate(-1078,-294) scale(1,1)"><path fill="none" stroke="#000000" d="M 2944 2312 L 3165.759765625 2312 L 3165.759765625 2455 L 2944 2455 L 2944 2312 Z Z" stroke-miterlimit="10"/></g><g transform="translate(-1078,-294) scale(1,1)"><rect fill="#ffffff" stroke="none" x="2944" y="2312" width="221.759765625" height="143"/></g><g transform="translate(-1078,-294) scale(1,1)"><path fill="none" stroke="#000000" d="M 2944 2312 L 3165.759765625 2312 L 3165.759765625 2455 L 2944 2455 L 2944 2312 Z Z" stroke-miterlimit="10"/></g><g transform="translate(-1078,-294) scale(1,1)"><g><path fill="none" stroke="none"/><text fill="#000000" stroke="none" font-family="Arial" font-size="22px" font-style="normal" font-weight="bold" text-decoration="none" x="2953.99462890625" y="2340.5">ManagementService</text><path fill="none" stroke="#000000" d="M 3161.259765625 2340.5 L 2948.5 2340.5" stroke-miterlimit="10"/></g></g><g transform="translate(-1078,-294) scale(1,1)"><rect fill="#C0C0C0" stroke="none" x="2798" y="2727" width="184" height="56" opacity="0.2"/></g><g transform="translate(-1078,-294) scale(1,1)"><rect fill="#ffffff" stroke="none" x="2791" y="2720" width="184" height="56"/></g><g transform="translate(-1078,-294) scale(1,1)"><path fill="none" stroke="#000000" d="M 2791 2720 L 2975 2720 L 2975 2776 L 2791 2776 L 2791 2720 Z Z" stroke-miterlimit="10"/></g><g transform="translate(-1078,-294) scale(1,1)"><rect fill="#ffffff" stroke="none" x="2791" y="2720" width="184" height="56"/></g><g transform="translate(-1078,-294) scale(1,1)"><path fill="none" stroke="#000000" d="M 2791 2720 L 2975 2720 L 2975 2776 L 2791 2776 L 2791 2720 Z Z" stroke-miterlimit="10"/></g><g transform="translate(-1078,-294) scale(1,1)"><g><path fill="none" stroke="none"/><text fill="#000000" stroke="none" font-family="Arial" font-size="22px" font-style="normal" font-weight="bold" text-decoration="none" x="2807.19775390625" y="2748.5">UserRepository</text><path fill="none" stroke="#000000" d="M 2964.91455078125 2748.5 L 2801.08544921875 2748.5" stroke-miterlimit="10"/></g></g><g transform="translate(-1078,-294) scale(1,1)"><rect fill="#C0C0C0" stroke="none" x="2798" y="2799" width="186.2783203125" height="72" opacity="0.2"/></g><g transform="translate(-1078,-294) scale(1,1)"><rect fill="#ffffff" stroke="none" x="2791" y="2792" width="186.2783203125" height="72"/></g><g transform="translate(-1078,-294) scale(1,1)"><path fill="none" stroke="#000000" d="M 2791 2792 L 2977.2783203125 2792 L 2977.2783203125 2864 L 2791 2864 L 2791 2792 Z Z" stroke-miterlimit="10"/></g><g transform="translate(-1078,-294) scale(1,1)"><rect fill="#ffffff" stroke="none" x="2791" y="2792" width="186.2783203125" height="72"/></g><g transform="translate(-1078,-294) scale(1,1)"><path fill="none" stroke="#000000" d="M 2791 2792 L 2977.2783203125 2792 L 2977.2783203125 2864 L 2791 2864 L 2791 2792 Z Z" stroke-miterlimit="10"/></g><g transform="translate(-1078,-294) scale(1,1)"><g><path fill="none" stroke="none"/><text fill="#000000" stroke="none" font-family="Arial" font-size="22px" font-style="normal" font-weight="bold" text-decoration="none" x="2802.21923828125" y="2820.5">File_cRepository</text><path fill="none" stroke="#000000" d="M 2972.7783203125 2820.5 L 2795.5 2820.5" stroke-miterlimit="10"/></g></g><g transform="translate(-1078,-294) scale(1,1)"><rect fill="#C0C0C0" stroke="none" x="2798" y="2887" width="211.94140625" height="87" opacity="0.2"/></g><g transform="translate(-1078,-294) scale(1,1)"><rect fill="#ffffff" stroke="none" x="2791" y="2880" width="211.94140625" height="87"/></g><g transform="translate(-1078,-294) scale(1,1)"><path fill="none" stroke="#000000" d="M 2791 2880 L 3002.94140625 2880 L 3002.94140625 2967 L 2791 2967 L 2791 2880 Z Z" stroke-miterlimit="10"/></g><g transform="translate(-1078,-294) scale(1,1)"><rect fill="#ffffff" stroke="none" x="2791" y="2880" width="211.94140625" height="87"/></g><g transform="translate(-1078,-294) scale(1,1)"><path fill="none" stroke="#000000" d="M 2791 2880 L 3002.94140625 2880 L 3002.94140625 2967 L 2791 2967 L 2791 2880 Z Z" stroke-miterlimit="10"/></g><g transform="translate(-1078,-294) scale(1,1)"><g><path fill="none" stroke="none"/><text fill="#000000" stroke="none" font-family="Arial" font-size="22px" font-style="normal" font-weight="bold" text-decoration="none" x="2802.826171875" y="2908.5">DiagramRepository</text><path fill="none" stroke="#000000" d="M 2998.44140625 2908.5 L 2795.5 2908.5" stroke-miterlimit="10"/></g></g><g transform="translate(-1078,-294) scale(1,1)"><rect fill="#C0C0C0" stroke="none" x="2806" y="3023" width="344.005859375" height="64" opacity="0.2"/></g><g transform="translate(-1078,-294) scale(1,1)"><rect fill="#ffffff" stroke="none" x="2799" y="3016" width="344.005859375" height="64"/></g><g transform="translate(-1078,-294) scale(1,1)"><path fill="none" stroke="#000000" d="M 2799 3016 L 3143.005859375 3016 L 3143.005859375 3080 L 2799 3080 L 2799 3016 Z Z" stroke-miterlimit="10"/></g><g transform="translate(-1078,-294) scale(1,1)"><rect fill="#ffffff" stroke="none" x="2799" y="3016" width="344.005859375" height="64"/></g><g transform="translate(-1078,-294) scale(1,1)"><path fill="none" stroke="#000000" d="M 2799 3016 L 3143.005859375 3016 L 3143.005859375 3080 L 2799 3080 L 2799 3016 Z Z" stroke-miterlimit="10"/></g><g transform="translate(-1078,-294) scale(1,1)"><g><path fill="none" stroke="none"/><text fill="#000000" stroke="none" font-family="Arial" font-size="22px" font-style="normal" font-weight="bold" text-decoration="none" x="2815.724609375" y="3044.5">DynamicSerialObjectRepository</text><path fill="none" stroke="#000000" d="M 3138.505859375 3044.5 L 2803.5 3044.5" stroke-miterlimit="10"/></g></g><g transform="translate(-1078,-294) scale(1,1)"><path fill="none" stroke="#000000" d="M 3013 2266 L 3029 2311" stroke-miterlimit="10"/></g><g transform="translate(-1078,-294) scale(1,1)"><path fill="none" stroke="#000000" d="M 3021.6291362047546 2302.834807601046 L 3029 2311 L 3029.5616751421726 2300.014349312186" stroke-miterlimit="10"/></g><g transform="translate(-1078,-294) scale(1,1)"><path fill="none" stroke="#000000" d="M 2295 2777 L 2790 2753" stroke-miterlimit="10"/></g><g transform="translate(-1078,-294) scale(1,1)"><path fill="none" stroke="#000000" d="M 2780.0531075905265 2757.69673624918 L 2790 2753 L 2779.6453908742888 2749.287578976768" stroke-miterlimit="10"/></g><g transform="translate(-1078,-294) scale(1,1)"><path fill="none" stroke="#000000" d="M 3020 2456 L 2897 2719" stroke-miterlimit="10"/></g><g transform="translate(-1078,-294) scale(1,1)"><path fill="none" stroke="#000000" d="M 2897.4921996884386 2708.0110173597964 L 2897 2719 L 2905.118421880622 2711.5776535941636" stroke-miterlimit="10"/></g><g transform="translate(-1078,-294) scale(1,1)"><path fill="none" stroke="#000000" d="M 3026 2456 L 2898 2791" stroke-miterlimit="10"/></g><g transform="translate(-1078,-294) scale(1,1)"><path fill="none" stroke="#000000" d="M 2897.6950371682333 2780.0042281911983 L 2898 2791 L 2905.5595435240316 2783.0091739032646" stroke-miterlimit="10"/></g><g transform="translate(-1078,-294) scale(1,1)"><rect fill="#C0C0C0" stroke="none" x="2631" y="2511" width="296.3427734375" height="151" opacity="0.2"/></g><g transform="translate(-1078,-294) scale(1,1)"><rect fill="#ffffff" stroke="none" x="2624" y="2504" width="296.3427734375" height="151"/></g><g transform="translate(-1078,-294) scale(1,1)"><path fill="none" stroke="#000000" d="M 2624 2504 L 2920.3427734375 2504 L 2920.3427734375 2655 L 2624 2655 L 2624 2504 Z Z" stroke-miterlimit="10"/></g><g transform="translate(-1078,-294) scale(1,1)"><rect fill="#ffffff" stroke="none" x="2624" y="2504" width="296.3427734375" height="151"/></g><g transform="translate(-1078,-294) scale(1,1)"><path fill="none" stroke="#000000" d="M 2624 2504 L 2920.3427734375 2504 L 2920.3427734375 2655 L 2624 2655 L 2624 2504 Z Z" stroke-miterlimit="10"/></g><g transform="translate(-1078,-294) scale(1,1)"><g><path fill="none" stroke="none"/><text fill="#000000" stroke="none" font-family="Arial" font-size="22px" font-style="normal" font-weight="bold" text-decoration="none" x="2637.05078125" y="2532.5">ProjectManagementService</text><path fill="none" stroke="#000000" d="M 2915.8427734375 2532.5 L 2628.5 2532.5" stroke-miterlimit="10"/></g></g><g transform="translate(-1078,-294) scale(1,1)"><path fill="none" stroke="#000000" d="M 2949 2456 L 2881 2503" stroke-miterlimit="10" stroke-dasharray="3"/></g><g transform="translate(-1078,-294) scale(1,1)"><path fill="none" stroke="#000000" d="M 2886.9666446630317 2493.7588338687633 L 2881 2503 L 2891.753546139629 2500.6845636646913" stroke-miterlimit="10"/></g><g transform="translate(-1078,-294) scale(1,1)"><path fill="none" stroke="#000000" d="M 2823 2656 L 2864 2719" stroke-miterlimit="10"/></g><g transform="translate(-1078,-294) scale(1,1)"><path fill="none" stroke="#000000" d="M 2807 2656 L 2867 2791" stroke-miterlimit="10"/></g><g transform="translate(-1078,-294) scale(1,1)"><path fill="none" stroke="#000000" d="M 2859.0258408827553 2783.4228774344833 L 2867 2791 L 2866.719252761894 2780.0035832659773" stroke-miterlimit="10"/></g><g transform="translate(-1078,-294) scale(1,1)"><path fill="none" stroke="#000000" d="M 2800 2656 L 2880 2879" stroke-miterlimit="10"/></g><g transform="translate(-1078,-294) scale(1,1)"><path fill="none" stroke="#000000" d="M 2872.6060737580265 2870.855685742295 L 2880 2879 L 2880.530604454445 2868.01280477497" stroke-miterlimit="10"/></g><g transform="translate(-1078,-294) scale(1,1)"><rect fill="#C0C0C0" stroke="none" x="1303" y="2887" width="243.802734375" height="167" opacity="0.2"/></g><g transform="translate(-1078,-294) scale(1,1)"><rect fill="#ffffff" stroke="none" x="1296" y="2880" width="243.802734375" height="167"/></g><g transform="translate(-1078,-294) scale(1,1)"><path fill="none" stroke="#000000" d="M 1296 2880 L 1539.802734375 2880 L 1539.802734375 3047 L 1296 3047 L 1296 2880 Z Z" stroke-miterlimit="10"/></g><g transform="translate(-1078,-294) scale(1,1)"><rect fill="#ffffff" stroke="none" x="1296" y="2880" width="243.802734375" height="167"/></g><g transform="translate(-1078,-294) scale(1,1)"><path fill="none" stroke="#000000" d="M 1296 2880 L 1539.802734375 2880 L 1539.802734375 3047 L 1296 3047 L 1296 2880 Z Z" stroke-miterlimit="10"/></g><g transform="translate(-1078,-294) scale(1,1)"><g><path fill="none" stroke="none"/><text fill="#000000" stroke="none" font-family="Arial" font-size="22px" font-style="normal" font-weight="bold" text-decoration="none" x="1308.4599609375" y="2908.5">SocketSessionService</text><path fill="none" stroke="#000000" d="M 1535.302734375 2908.5 L 1300.5 2908.5" stroke-miterlimit="10"/></g></g><g transform="translate(-1078,-294) scale(1,1)"><rect fill="#C0C0C0" stroke="none" x="1415" y="3215" width="215" height="159" opacity="0.2"/></g><g transform="translate(-1078,-294) scale(1,1)"><rect fill="#ffffff" stroke="none" x="1408" y="3208" width="215" height="159"/></g><g transform="translate(-1078,-294) scale(1,1)"><path fill="none" stroke="#000000" d="M 1408 3208 L 1623 3208 L 1623 3367 L 1408 3367 L 1408 3208 Z Z" stroke-miterlimit="10"/></g><g transform="translate(-1078,-294) scale(1,1)"><rect fill="#ffffff" stroke="none" x="1408" y="3208" width="215" height="159"/></g><g transform="translate(-1078,-294) scale(1,1)"><path fill="none" stroke="#000000" d="M 1408 3208 L 1623 3208 L 1623 3367 L 1408 3367 L 1408 3208 Z Z" stroke-miterlimit="10"/></g><g transform="translate(-1078,-294) scale(1,1)"><g><path fill="none" stroke="none"/><text fill="#000000" stroke="none" font-family="Arial" font-size="22px" font-style="normal" font-weight="bold" text-decoration="none" x="1447.630859375" y="3236.5">EditorSession</text><path fill="none" stroke="#000000" d="M 1589.4599609375 3236.5 L 1441.5400390625 3236.5" stroke-miterlimit="10"/></g></g><g transform="translate(-1078,-294) scale(1,1)"><path fill="none" stroke="#000000" d="M 1624 3291 L 2520 3328 L 2918 3081" stroke-miterlimit="10"/></g><g transform="translate(-1078,-294) scale(1,1)"><path fill="none" stroke="#000000" d="M 2911.5847676692874 3089.9355914265916 L 2918 3081 L 2907.1453284244108 3082.7821630077215" stroke-miterlimit="10"/></g><g transform="translate(-1078,-294) scale(1,1)"><path fill="none" stroke="#000000" d="M 1624 3286 L 2520 3280 L 2849 2968" stroke-miterlimit="10"/></g><g transform="translate(-1078,-294) scale(1,1)"><path fill="none" stroke="#000000" d="M 2844.5225316999513 2978.047501063551 L 2849 2968 L 2838.729295666472 2971.9386079385035" stroke-miterlimit="10"/></g><g transform="translate(-1078,-294) scale(1,1)"><path fill="none" stroke="#000000" d="M 2724 2656 L 2472 3064 L 1992 3168 L 1541 3007" stroke-miterlimit="10"/></g><g transform="translate(-1078,-294) scale(1,1)"><path fill="none" stroke="#000000" d="M 1551.9863540495855 3006.4522548976433 L 1541 3007 L 1549.1558397252163 3014.38121117274" stroke-miterlimit="10"/></g><g transform="translate(-1078,-294) scale(1,1)"><path fill="none" stroke="#000000" d="M 1443 3048 L 1491 3207" stroke-miterlimit="10"/></g><g transform="translate(-1078,-294) scale(1,1)"><path fill="none" stroke="#000000" d="M 1484.0330523029152 3198.4875597044042 L 1491 3207 L 1492.0928282966809 3196.054419781758" stroke-miterlimit="10"/></g><g transform="translate(-1078,-294) scale(1,1)"><rect fill="#C0C0C0" stroke="none" x="2119" y="2255" width="263" height="143" opacity="0.2"/></g><g transform="translate(-1078,-294) scale(1,1)"><rect fill="#ffffff" stroke="none" x="2112" y="2248" width="263" height="143"/></g><g transform="translate(-1078,-294) scale(1,1)"><path fill="none" stroke="#000000" d="M 2112 2248 L 2375 2248 L 2375 2391 L 2112 2391 L 2112 2248 Z Z" stroke-miterlimit="10"/></g><g transform="translate(-1078,-294) scale(1,1)"><rect fill="#ffffff" stroke="none" x="2112" y="2248" width="263" height="143"/></g><g transform="translate(-1078,-294) scale(1,1)"><path fill="none" stroke="#000000" d="M 2112 2248 L 2375 2248 L 2375 2391 L 2112 2391 L 2112 2248 Z Z" stroke-miterlimit="10"/></g><g transform="translate(-1078,-294) scale(1,1)"><g><path fill="none" stroke="none"/><text fill="#000000" stroke="none" font-family="Arial" font-size="22px" font-style="normal" font-weight="bold" text-decoration="none" x="2134.67626953125" y="2276.5">EditorActionProcessor</text><path fill="none" stroke="#000000" d="M 2363.30224609375 2276.5 L 2123.69775390625 2276.5" stroke-miterlimit="10"/></g></g><g transform="translate(-1078,-294) scale(1,1)"><rect fill="#C0C0C0" stroke="none" x="1775" y="3031" width="321.962890625" height="56" opacity="0.2"/></g><g transform="translate(-1078,-294) scale(1,1)"><rect fill="#ffffff" stroke="none" x="1768" y="3024" width="321.962890625" height="56"/></g><g transform="translate(-1078,-294) scale(1,1)"><path fill="none" stroke="#000000" d="M 1768 3024 L 2089.962890625 3024 L 2089.962890625 3080 L 1768 3080 L 1768 3024 Z Z" stroke-miterlimit="10"/></g><g transform="translate(-1078,-294) scale(1,1)"><rect fill="#ffffff" stroke="none" x="1768" y="3024" width="321.962890625" height="56"/></g><g transform="translate(-1078,-294) scale(1,1)"><path fill="none" stroke="#000000" d="M 1768 3024 L 2089.962890625 3024 L 2089.962890625 3080 L 1768 3080 L 1768 3024 Z Z" stroke-miterlimit="10"/></g><g transform="translate(-1078,-294) scale(1,1)"><g><path fill="none" stroke="none"/><text fill="#000000" stroke="none" font-family="Arial" font-size="22px" font-style="normal" font-weight="bold" text-decoration="none" x="1785.3046875" y="3052.5">NestedEditorActionProcessor</text><path fill="none" stroke="#000000" d="M 2085.462890625 3052.5 L 1772.5 3052.5" stroke-miterlimit="10"/></g></g><g transform="translate(-1078,-294) scale(1,1)"><rect fill="#C0C0C0" stroke="none" x="2471" y="2271" width="359.92578125" height="103" opacity="0.2"/></g><g transform="translate(-1078,-294) scale(1,1)"><rect fill="#ffffff" stroke="none" x="2464" y="2264" width="359.92578125" height="103"/></g><g transform="translate(-1078,-294) scale(1,1)"><path fill="none" stroke="#000000" d="M 2464 2264 L 2823.92578125 2264 L 2823.92578125 2367 L 2464 2367 L 2464 2264 Z Z" stroke-miterlimit="10"/></g><g transform="translate(-1078,-294) scale(1,1)"><rect fill="#ffffff" stroke="none" x="2464" y="2264" width="359.92578125" height="103"/></g><g transform="translate(-1078,-294) scale(1,1)"><path fill="none" stroke="#000000" d="M 2464 2264 L 2823.92578125 2264 L 2823.92578125 2367 L 2464 2367 L 2464 2264 Z Z" stroke-miterlimit="10"/></g><g transform="translate(-1078,-294) scale(1,1)"><g><path fill="none" stroke="none"/><text fill="#000000" stroke="none" font-family="Arial" font-size="22px" font-style="normal" font-weight="bold" text-decoration="none" x="2480.09619140625" y="2292.5">SessionStateResponseProcessor</text><path fill="none" stroke="#000000" d="M 2819.42578125 2292.5 L 2468.5 2292.5" stroke-miterlimit="10"/></g></g><g transform="translate(-1078,-294) scale(1,1)"><rect fill="#C0C0C0" stroke="none" x="2407" y="2079" width="290.1982421875" height="72" opacity="0.2"/></g><g transform="translate(-1078,-294) scale(1,1)"><rect fill="#ffffff" stroke="none" x="2400" y="2072" width="290.1982421875" height="72"/></g><g transform="translate(-1078,-294) scale(1,1)"><path fill="none" stroke="#000000" d="M 2400 2072 L 2690.1982421875 2072 L 2690.1982421875 2144 L 2400 2144 L 2400 2072 Z Z" stroke-miterlimit="10"/></g><g transform="translate(-1078,-294) scale(1,1)"><rect fill="#ffffff" stroke="none" x="2400" y="2072" width="290.1982421875" height="72"/></g><g transform="translate(-1078,-294) scale(1,1)"><path fill="none" stroke="#000000" d="M 2400 2072 L 2690.1982421875 2072 L 2690.1982421875 2144 L 2400 2144 L 2400 2072 Z Z" stroke-miterlimit="10"/></g><g transform="translate(-1078,-294) scale(1,1)"><g><path fill="none" stroke="none"/><text fill="#000000" stroke="none" font-family="Arial" font-size="22px" font-style="normal" font-weight="bold" text-decoration="none" x="2415.478515625" y="2100.5">ActionResponseProcessor</text><path fill="none" stroke="#000000" d="M 2685.6982421875 2100.5 L 2404.5 2100.5" stroke-miterlimit="10"/></g></g><g transform="translate(-1078,-294) scale(1,1)"><rect fill="#C0C0C0" stroke="none" x="1847" y="2087" width="239" height="119" opacity="0.2"/></g><g transform="translate(-1078,-294) scale(1,1)"><rect fill="#ffffff" stroke="none" x="1840" y="2080" width="239" height="119"/></g><g transform="translate(-1078,-294) scale(1,1)"><path fill="none" stroke="#000000" d="M 1840 2080 L 2079 2080 L 2079 2199 L 1840 2199 L 1840 2080 Z Z" stroke-miterlimit="10"/></g><g transform="translate(-1078,-294) scale(1,1)"><rect fill="#ffffff" stroke="none" x="1840" y="2080" width="239" height="119"/></g><g transform="translate(-1078,-294) scale(1,1)"><path fill="none" stroke="#000000" d="M 1840 2080 L 2079 2080 L 2079 2199 L 1840 2199 L 1840 2080 Z Z" stroke-miterlimit="10"/></g><g transform="translate(-1078,-294) scale(1,1)"><g><path fill="none" stroke="none"/><text fill="#000000" stroke="none" font-family="Arial" font-size="22px" font-style="normal" font-weight="bold" text-decoration="none" x="1861.6708984375" y="2108.5">EditorActionHandler</text><path fill="none" stroke="#000000" d="M 2066.44921875 2108.5 L 1852.55078125 2108.5" stroke-miterlimit="10"/></g></g><g transform="translate(-1078,-294) scale(1,1)"><rect fill="#C0C0C0" stroke="none" x="2135" y="2079" width="229.0751953125" height="111" opacity="0.2"/></g><g transform="translate(-1078,-294) scale(1,1)"><rect fill="#ffffff" stroke="none" x="2128" y="2072" width="229.0751953125" height="111"/></g><g transform="translate(-1078,-294) scale(1,1)"><path fill="none" stroke="#000000" d="M 2128 2072 L 2357.0751953125 2072 L 2357.0751953125 2183 L 2128 2183 L 2128 2072 Z Z" stroke-miterlimit="10"/></g><g transform="translate(-1078,-294) scale(1,1)"><rect fill="#ffffff" stroke="none" x="2128" y="2072" width="229.0751953125" height="111"/></g><g transform="translate(-1078,-294) scale(1,1)"><path fill="none" stroke="#000000" d="M 2128 2072 L 2357.0751953125 2072 L 2357.0751953125 2183 L 2128 2183 L 2128 2072 Z Z" stroke-miterlimit="10"/></g><g transform="translate(-1078,-294) scale(1,1)"><g><path fill="none" stroke="none"/><text fill="#000000" stroke="none" font-family="Arial" font-size="22px" font-style="normal" font-weight="bold" text-decoration="none" x="2139.19775390625" y="2100.5">SessionStateHandler</text><path fill="none" stroke="#000000" d="M 2352.5751953125 2100.5 L 2132.5 2100.5" stroke-miterlimit="10"/></g></g><g transform="translate(-1078,-294) scale(1,1)"><rect fill="#C0C0C0" stroke="none" x="1551" y="935" width="304" height="168" opacity="0.2"/></g><g transform="translate(-1078,-294) scale(1,1)"><rect fill="#ffffff" stroke="none" x="1544" y="928" width="304" height="168"/></g><g transform="translate(-1078,-294) scale(1,1)"><path fill="none" stroke="#000000" d="M 1544 928 L 1848 928 L 1848 1096 L 1544 1096 L 1544 928 Z Z" stroke-miterlimit="10"/></g><g transform="translate(-1078,-294) scale(1,1)"><rect fill="#ffffff" stroke="none" x="1544" y="928" width="304" height="168"/></g><g transform="translate(-1078,-294) scale(1,1)"><path fill="none" stroke="#000000" d="M 1544 928 L 1848 928 L 1848 1096 L 1544 1096 L 1544 928 Z Z" stroke-miterlimit="10"/></g><g transform="translate(-1078,-294) scale(1,1)"><path fill="none" stroke="#000000" d="M 1544 968 L 1848 968" stroke-miterlimit="10"/></g><g transform="translate(-1078,-294) scale(1,1)"><g><path fill="none" stroke="none"/><text fill="#000000" stroke="none" font-family="Arial" font-size="28px" font-style="normal" font-weight="bold" text-decoration="none" x="1559.03515625" y="962.5">ActionSocketManager</text><path fill="none" stroke="#000000" d="M 1843.0341796875 962.5 L 1548.9658203125 962.5" stroke-miterlimit="10"/></g></g><g transform="translate(-1078,-294) scale(1,1)"><g><path fill="none" stroke="none"/><text fill="#000000" stroke="none" font-family="Arial" font-size="28px" font-style="normal" font-weight="normal" text-decoration="none" x="1549" y="1000.5">+socket: WebSocket</text></g></g><g transform="translate(-1078,-294) scale(1,1)"><rect fill="#C0C0C0" stroke="none" x="1895" y="927" width="323.34375" height="176" opacity="0.2"/></g><g transform="translate(-1078,-294) scale(1,1)"><rect fill="#ffffff" stroke="none" x="1888" y="920" width="323.34375" height="176"/></g><g transform="translate(-1078,-294) scale(1,1)"><path fill="none" stroke="#000000" d="M 1888 920 L 2211.34375 920 L 2211.34375 1096 L 1888 1096 L 1888 920 Z Z" stroke-miterlimit="10"/></g><g transform="translate(-1078,-294) scale(1,1)"><rect fill="#ffffff" stroke="none" x="1888" y="920" width="323.34375" height="176"/></g><g transform="translate(-1078,-294) scale(1,1)"><path fill="none" stroke="#000000" d="M 1888 920 L 2211.34375 920 L 2211.34375 1096 L 1888 1096 L 1888 920 Z Z" stroke-miterlimit="10"/></g><g transform="translate(-1078,-294) scale(1,1)"><path fill="none" stroke="#000000" d="M 1888 960 L 2211.34375 960" stroke-miterlimit="10"/></g><g transform="translate(-1078,-294) scale(1,1)"><g><path fill="none" stroke="none"/><text fill="#000000" stroke="none" font-family="Arial" font-size="28px" font-style="normal" font-weight="bold" text-decoration="none" x="1901.810546875" y="954.5">SessionSocketManager</text><path fill="none" stroke="#000000" d="M 2206.84375 954.5 L 1892.5 954.5" stroke-miterlimit="10"/></g></g><g transform="translate(-1078,-294) scale(1,1)"><g><path fill="none" stroke="none"/><text fill="#000000" stroke="none" font-family="Arial" font-size="28px" font-style="normal" font-weight="normal" text-decoration="none" x="1893" y="992.5">+socket: WebSocket</text></g></g><g transform="translate(-1078,-294) scale(1,1)"><path fill="none" stroke="#000000" d="M 1716 1097 L 1945 2079" stroke-miterlimit="10"/></g><g transform="translate(-1078,-294) scale(1,1)"><path fill="none" stroke="#000000" d="M 1938.5924887357862 2070.0588703510703 L 1945 2079 L 1946.7915387407718 2068.146871928319" stroke-miterlimit="10"/></g><g transform="translate(-1078,-294) scale(1,1)"><path fill="none" stroke="#000000" d="M 1945 2079 L 1716 1097" stroke-miterlimit="10"/></g><g transform="translate(-1078,-294) scale(1,1)"><path fill="none" stroke="#000000" d="M 1722.4075112642138 1105.94112964893 L 1716 1097 L 1714.2084612592282 1107.853128071681" stroke-miterlimit="10"/></g><g transform="translate(-1078,-294) scale(1,1)"><path fill="none" stroke="#000000" d="M 2064 1097 L 2232 2071" stroke-miterlimit="10"/></g><g transform="translate(-1078,-294) scale(1,1)"><path fill="none" stroke="#000000" d="M 2226.1243399490677 2061.700719438264 L 2232 2071 L 2234.4208652793986 2060.2696965886794" stroke-miterlimit="10"/></g><g transform="translate(-1078,-294) scale(1,1)"><path fill="none" stroke="#000000" d="M 2232 2071 L 2064 1097" stroke-miterlimit="10"/></g><g transform="translate(-1078,-294) scale(1,1)"><path fill="none" stroke="#000000" d="M 2069.8756600509323 1106.299280561736 L 2064 1097 L 2061.5791347206014 1107.7303034113208" stroke-miterlimit="10"/></g><g transform="translate(-1078,-294) scale(1,1)"><rect fill="#C0C0C0" stroke="none" x="1335" y="1511" width="263" height="111" opacity="0.2"/></g><g transform="translate(-1078,-294) scale(1,1)"><rect fill="#ffffff" stroke="none" x="1328" y="1504" width="263" height="111"/></g><g transform="translate(-1078,-294) scale(1,1)"><path fill="none" stroke="#000000" d="M 1328 1504 L 1591 1504 L 1591 1615 L 1328 1615 L 1328 1504 Z Z" stroke-miterlimit="10"/></g><g transform="translate(-1078,-294) scale(1,1)"><rect fill="#ffffff" stroke="none" x="1328" y="1504" width="263" height="111"/></g><g transform="translate(-1078,-294) scale(1,1)"><path fill="none" stroke="#000000" d="M 1328 1504 L 1591 1504 L 1591 1615 L 1328 1615 L 1328 1504 Z Z" stroke-miterlimit="10"/></g><g transform="translate(-1078,-294) scale(1,1)"><g><path fill="none" stroke="none"/><text fill="#000000" stroke="none" font-family="Arial" font-size="28px" font-style="normal" font-weight="bold" text-decoration="none" x="1352.8662109375" y="1538.5">LoginComponent</text><path fill="none" stroke="#000000" d="M 1575.3623046875 1538.5 L 1343.6376953125 1538.5" stroke-miterlimit="10"/></g></g><g transform="translate(-1078,-294) scale(1,1)"><rect fill="#C0C0C0" stroke="none" x="1351" y="1639" width="276.572265625" height="71" opacity="0.2"/></g><g transform="translate(-1078,-294) scale(1,1)"><rect fill="#ffffff" stroke="none" x="1344" y="1632" width="276.572265625" height="71"/></g><g transform="translate(-1078,-294) scale(1,1)"><path fill="none" stroke="#000000" d="M 1344 1632 L 1620.572265625 1632 L 1620.572265625 1703 L 1344 1703 L 1344 1632 Z Z" stroke-miterlimit="10"/></g><g transform="translate(-1078,-294) scale(1,1)"><rect fill="#ffffff" stroke="none" x="1344" y="1632" width="276.572265625" height="71"/></g><g transform="translate(-1078,-294) scale(1,1)"><path fill="none" stroke="#000000" d="M 1344 1632 L 1620.572265625 1632 L 1620.572265625 1703 L 1344 1703 L 1344 1632 Z Z" stroke-miterlimit="10"/></g><g transform="translate(-1078,-294) scale(1,1)"><g><path fill="none" stroke="none"/><text fill="#000000" stroke="none" font-family="Arial" font-size="28px" font-style="normal" font-weight="bold" text-decoration="none" x="1357.7763671875" y="1666.5">RegisterComponent</text><path fill="none" stroke="#000000" d="M 1616.072265625 1666.5 L 1348.5 1666.5" stroke-miterlimit="10"/></g></g><g transform="translate(-1078,-294) scale(1,1)"><path fill="none" stroke="#000000" d="M 1482 1704 L 1483 2247" stroke-miterlimit="10"/></g><g transform="translate(-1078,-294) scale(1,1)"><path fill="none" stroke="#000000" d="M 1478.7717736224988 2236.8450946976054 L 1483 2247 L 1487.1907948577075 2236.8295900544467" stroke-miterlimit="10"/></g><g transform="translate(-1078,-294) scale(1,1)"><path fill="none" stroke="#000000" d="M 1444 1616 L 1304 2160 L 1401 2247" stroke-miterlimit="10"/></g><g transform="translate(-1078,-294) scale(1,1)"><path fill="none" stroke="#000000" d="M 1390.6238596359246 2243.3481907025416 L 1401 2247 L 1396.2451799038517 2237.080741668186" stroke-miterlimit="10"/></g><g transform="translate(-1078,-294) scale(1,1)"><rect fill="#C0C0C0" stroke="none" x="1751" y="2311" width="246.251953125" height="95" opacity="0.2"/></g><g transform="translate(-1078,-294) scale(1,1)"><rect fill="#ffffff" stroke="none" x="1744" y="2304" width="246.251953125" height="95"/></g><g transform="translate(-1078,-294) scale(1,1)"><path fill="none" stroke="#000000" d="M 1744 2304 L 1990.251953125 2304 L 1990.251953125 2399 L 1744 2399 L 1744 2304 Z Z" stroke-miterlimit="10"/></g><g transform="translate(-1078,-294) scale(1,1)"><rect fill="#ffffff" stroke="none" x="1744" y="2304" width="246.251953125" height="95"/></g><g transform="translate(-1078,-294) scale(1,1)"><path fill="none" stroke="#000000" d="M 1744 2304 L 1990.251953125 2304 L 1990.251953125 2399 L 1744 2399 L 1744 2304 Z Z" stroke-miterlimit="10"/></g><g transform="translate(-1078,-294) scale(1,1)"><g><path fill="none" stroke="none"/><text fill="#000000" stroke="none" font-family="Arial" font-size="22px" font-style="normal" font-weight="bold" text-decoration="none" x="1757.0830078125" y="2332.5">SocketSecurityService</text><path fill="none" stroke="#000000" d="M 1985.751953125 2332.5 L 1748.5 2332.5" stroke-miterlimit="10"/></g></g><g transform="translate(-1078,-294) scale(1,1)"><path fill="none" stroke="#000000" d="M 1882 2400 L 2000 2776 L 2054 2778" stroke-miterlimit="10"/></g><g transform="translate(-1078,-294) scale(1,1)"><path fill="none" stroke="#000000" d="M 2043.6884870219317 2781.830496064889 L 2054 2778 L 2044.0000895061237 2773.417228991706" stroke-miterlimit="10"/></g><g transform="translate(-1078,-294) scale(1,1)"><path fill="none" stroke="#000000" d="M 1890 2400 L 2139 2935" stroke-miterlimit="10"/></g><g transform="translate(-1078,-294) scale(1,1)"><path fill="none" stroke="#000000" d="M 2130.8953682923925 2927.562598243738 L 2139 2935 L 2138.5281971767927 2924.01012274427" stroke-miterlimit="10"/></g><g transform="translate(-1078,-294) scale(1,1)"><path fill="none" stroke="#000000" d="M 1933 2200 L 1888 2303" stroke-miterlimit="10"/></g><g transform="translate(-1078,-294) scale(1,1)"><path fill="none" stroke="#000000" d="M 1888.211208311701 2292.002027866508 L 1888 2303 L 1895.9260875043399 2295.372606154554" stroke-miterlimit="10"/></g><g transform="translate(-1078,-294) scale(1,1)"><path fill="none" stroke="#000000" d="M 1888 2303 L 1933 2200" stroke-miterlimit="10"/></g><g transform="translate(-1078,-294) scale(1,1)"><path fill="none" stroke="#000000" d="M 1932.788791688299 2210.997972133492 L 1933 2200 L 1925.0739124956601 2207.627393845446" stroke-miterlimit="10"/></g><g transform="translate(-1078,-294) scale(1,1)"><path fill="none" stroke="#000000" d="M 1919 2200 L 1472 2879" stroke-miterlimit="10"/></g><g transform="translate(-1078,-294) scale(1,1)"><path fill="none" stroke="#000000" d="M 1474.0720845742624 2868.1969233309624 L 1472 2879 L 1481.1041138240078 2872.8262562832983" stroke-miterlimit="10"/></g><g transform="translate(-1078,-294) scale(1,1)"><path fill="none" stroke="#000000" d="M 2147 2184 L 1947 2303" stroke-miterlimit="10"/></g><g transform="translate(-1078,-294) scale(1,1)"><path fill="none" stroke="#000000" d="M 1953.5811636349538 2294.185904175132 L 1947 2303 L 1957.8860923621667 2301.4210785065816" stroke-miterlimit="10"/></g><g transform="translate(-1078,-294) scale(1,1)"><path fill="none" stroke="#000000" d="M 1947 2303 L 2147 2184" stroke-miterlimit="10"/></g><g transform="translate(-1078,-294) scale(1,1)"><path fill="none" stroke="#000000" d="M 2140.418836365046 2192.814095824868 L 2147 2184 L 2136.1139076378336 2185.5789214934184" stroke-miterlimit="10"/></g><g transform="translate(-1078,-294) scale(1,1)"><path fill="none" stroke="#000000" d="M 2149 2392 L 1525 2879" stroke-miterlimit="10"/></g><g transform="translate(-1078,-294) scale(1,1)"><path fill="none" stroke="#000000" d="M 1530.4216358924243 2869.4289047518073 L 1525 2879 L 1535.601461858037 2876.065889151278" stroke-miterlimit="10"/></g><g transform="translate(-1078,-294) scale(1,1)"><path fill="none" stroke="#000000" d="M 1525 2879 L 2149 2392" stroke-miterlimit="10"/></g><g transform="translate(-1078,-294) scale(1,1)"><path fill="none" stroke="#000000" d="M 2143.578364107576 2401.5710952481927 L 2149 2392 L 2138.398538141963 2394.934110848722" stroke-miterlimit="10"/></g><g transform="translate(-1078,-294) scale(1,1)"><path fill="none" stroke="#000000" d="M 2055 2200 L 2129 2247" stroke-miterlimit="10"/></g><g transform="translate(-1078,-294) scale(1,1)"><path fill="none" stroke="#000000" d="M 2118.164493450679 2245.1047961007803 L 2129 2247 L 2122.6782513702533 2237.998028312514" stroke-miterlimit="10"/></g><g transform="translate(-1078,-294) scale(1,1)"><path fill="none" stroke="#000000" d="M 2242 2184 L 2243 2247" stroke-miterlimit="10"/></g><g transform="translate(-1078,-294) scale(1,1)"><path fill="none" stroke="#000000" d="M 2238.629720461701 2236.905414483144 L 2243 2247 L 2247.0476955750246 2236.771795830551" stroke-miterlimit="10"/></g><g transform="translate(-1078,-294) scale(1,1)"><path fill="none" stroke="#000000" d="M 2346 2247 L 2492 2145" stroke-miterlimit="10"/></g><g transform="translate(-1078,-294) scale(1,1)"><path fill="none" stroke="#000000" d="M 2486.079880762285 2154.271040298221 L 2492 2145 L 2481.258228078053 2147.3694590051045" stroke-miterlimit="10"/></g><g transform="translate(-1078,-294) scale(1,1)"><path fill="none" stroke="#000000" d="M 2376 2313 L 2408 2312 L 2463 2313" stroke-miterlimit="10"/></g><g transform="translate(-1078,-294) scale(1,1)"><path fill="none" stroke="#000000" d="M 2452.762480468067 2317.0240767678188 L 2463 2313 L 2452.915528545901 2308.606432486981" stroke-miterlimit="10"/></g><g transform="translate(-1078,-294) scale(1,1)"><path fill="none" stroke="#000000" d="M 1624 3225 L 1877 3081" stroke-miterlimit="10"/></g><g transform="translate(-1078,-294) scale(1,1)"><path fill="none" stroke="#000000" d="M 1870.2500204243597 3089.6854922559655 L 1877 3081 L 1866.0854731970576 3082.3686141413305" stroke-miterlimit="10"/></g><g transform="translate(-1078,-294) scale(1,1)"><path fill="none" stroke="#000000" d="M 1940 3023 L 2212 2392" stroke-miterlimit="10"/></g><g transform="translate(-1078,-294) scale(1,1)"><path fill="none" stroke="#000000" d="M 2211.8427631468126 2402.9988761504073 L 2212 2392 L 2204.1114368434746 2399.6661966662427" stroke-miterlimit="10"/></g><g transform="translate(-1078,-294) scale(1,1)"><rect fill="#C0C0C0" stroke="none" x="2615" y="1599" width="215" height="47" opacity="0.2"/></g><g transform="translate(-1078,-294) scale(1,1)"><rect fill="#ffffff" stroke="none" x="2608" y="1592" width="215" height="47"/></g><g transform="translate(-1078,-294) scale(1,1)"><path fill="none" stroke="#000000" d="M 2608 1592 L 2823 1592 L 2823 1639 L 2608 1639 L 2608 1592 Z Z" stroke-miterlimit="10"/></g><g transform="translate(-1078,-294) scale(1,1)"><rect fill="#ffffff" stroke="none" x="2608" y="1592" width="215" height="47"/></g><g transform="translate(-1078,-294) scale(1,1)"><path fill="none" stroke="#000000" d="M 2608 1592 L 2823 1592 L 2823 1639 L 2608 1639 L 2608 1592 Z Z" stroke-miterlimit="10"/></g><g transform="translate(-1078,-294) scale(1,1)"><g><path fill="none" stroke="none"/><text fill="#000000" stroke="none" font-family="Arial" font-size="28px" font-style="normal" font-weight="bold" text-decoration="none" x="2620.5625" y="1626.5">FileComponent</text><path fill="none" stroke="#000000" d="M 2817.3828125 1626.5 L 2613.6171875 1626.5" stroke-miterlimit="10"/></g></g><g transform="translate(-1078,-294) scale(1,1)"><rect fill="#C0C0C0" stroke="none" x="2615" y="1439" width="272.01953125" height="47" opacity="0.2"/></g><g transform="translate(-1078,-294) scale(1,1)"><rect fill="#ffffff" stroke="none" x="2608" y="1432" width="272.01953125" height="47"/></g><g transform="translate(-1078,-294) scale(1,1)"><path fill="none" stroke="#000000" d="M 2608 1432 L 2880.01953125 1432 L 2880.01953125 1479 L 2608 1479 L 2608 1432 Z Z" stroke-miterlimit="10"/></g><g transform="translate(-1078,-294) scale(1,1)"><rect fill="#ffffff" stroke="none" x="2608" y="1432" width="272.01953125" height="47"/></g><g transform="translate(-1078,-294) scale(1,1)"><path fill="none" stroke="#000000" d="M 2608 1432 L 2880.01953125 1432 L 2880.01953125 1479 L 2608 1479 L 2608 1432 Z Z" stroke-miterlimit="10"/></g><g transform="translate(-1078,-294) scale(1,1)"><g><path fill="none" stroke="none"/><text fill="#000000" stroke="none" font-family="Arial" font-size="28px" font-style="normal" font-weight="bold" text-decoration="none" x="2619.513671875" y="1466.5">FileManagerService</text><path fill="none" stroke="#000000" d="M 2875.51953125 1466.5 L 2612.5 1466.5" stroke-miterlimit="10"/></g></g><g transform="translate(-1078,-294) scale(1,1)"><path fill="none" stroke="#000000" d="M 2727 1640 L 2915 2031" stroke-miterlimit="10"/></g><g transform="translate(-1078,-294) scale(1,1)"><path fill="none" stroke="#000000" d="M 2906.802438431761 2023.6651527394954 L 2915 2031 L 2914.3899688627744 2020.0169283890336" stroke-miterlimit="10"/></g><g transform="translate(-1078,-294) scale(1,1)"><path fill="none" stroke="#000000" d="M 2752 1480 L 2933 2031" stroke-miterlimit="10"/></g><g transform="translate(-1078,-294) scale(1,1)"><path fill="none" stroke="#000000" d="M 2925.829097675348 2022.6586476006407 L 2933 2031 L 2933.8276331848656 2020.0311794931583" stroke-miterlimit="10"/></g><g transform="translate(-1078,-294) scale(1,1)"><rect fill="#C0C0C0" stroke="none" x="2745" y="3223" width="382" height="256" opacity="0.2"/></g><g transform="translate(-1078,-294) scale(1,1)"><rect fill="#ffffff" stroke="none" x="2738" y="3216" width="382" height="256"/></g><g transform="translate(-1078,-294) scale(1,1)"><path fill="none" stroke="#000000" d="M 2738 3216 L 3120 3216 L 3120 3472 L 2738 3472 L 2738 3216 Z Z" stroke-miterlimit="10"/></g><g transform="translate(-1078,-294) scale(1,1)"><rect fill="#ffffff" stroke="none" x="2728" y="3223" width="20" height="10"/></g><g transform="translate(-1078,-294) scale(1,1)"><path fill="none" stroke="#000000" d="M 2728 3223 L 2748 3223 L 2748 3233 L 2728 3233 L 2728 3223 Z Z" stroke-miterlimit="10"/></g><g transform="translate(-1078,-294) scale(1,1)"><rect fill="#ffffff" stroke="none" x="2728" y="3243" width="20" height="10"/></g><g transform="translate(-1078,-294) scale(1,1)"><path fill="none" stroke="#000000" d="M 2728 3243 L 2748 3243 L 2748 3253 L 2728 3253 L 2728 3243 Z Z" stroke-miterlimit="10"/></g><g transform="translate(-1078,-294) scale(1,1)"><g><path fill="none" stroke="none"/><text fill="#000000" stroke="none" font-family="Arial" font-size="22px" font-style="normal" font-weight="bold" text-decoration="none" x="2823.935546875" y="3244.5">PostgreSQL Database</text><path fill="none" stroke="#000000" d="M 3049.53759765625 3244.5 L 2818.46240234375 3244.5" stroke-miterlimit="10"/></g></g><g transform="translate(-1078,-294) scale(1,1)"><path fill="none" stroke="#000000" d="M 2930 3113 L 2927 3215" stroke-miterlimit="10" stroke-dasharray="3"/></g><g transform="translate(-1078,-294) scale(1,1)"><path fill="none" stroke="#000000" d="M 2923.0910747917937 3204.717962083485 L 2927 3215 L 2931.506471213311 3204.9654737429414" stroke-miterlimit="10"/></g><g transform="translate(-1078,-294) scale(1,1)"><path fill="none" stroke="#000000" d="M 2927 3215 L 2930 3113" stroke-miterlimit="10" stroke-dasharray="3"/></g><g transform="translate(-1078,-294) scale(1,1)"><path fill="none" stroke="#000000" d="M 2933.9089252082063 3123.282037916515 L 2930 3113 L 2925.493528786689 3123.0345262570586" stroke-miterlimit="10"/></g><g transform="translate(-1078,-294) scale(1,1)"><path fill="none" stroke="#000000" d="M 2943 2406 L 2520 2496 L 2222 2743" stroke-miterlimit="10"/></g><g transform="translate(-1078,-294) scale(1,1)"><path fill="none" stroke="#000000" d="M 2227.1380727557166 2733.2737361563154 L 2222 2743 L 2232.510673207276 2739.755658968318" stroke-miterlimit="10"/></g><g transform="translate(-1078,-294) scale(1,1)"><path fill="#C0C0C0" stroke="none" d="M 2759 3281 L 2937.7099609375 3281 L 2937.7099609375 3349 L 2759 3349" opacity="0.2"/></g><g transform="translate(-1078,-294) scale(1,1)"><path fill="#C0C0C0" stroke="none" d="M 2759 3281 L 2769 3271 L 2947.7099609375 3271 L 2937.7099609375 3281" opacity="0.2"/></g><g transform="translate(-1078,-294) scale(1,1)"><path fill="#C0C0C0" stroke="none" d="M 2947.7099609375 3271 L 2937.7099609375 3281 L 2937.7099609375 3349 L 2947.7099609375 3339" opacity="0.2"/></g><g transform="translate(-1078,-294) scale(1,1)"><path fill="#ffffff" stroke="none" d="M 2752 3274 L 2930.7099609375 3274 L 2930.7099609375 3342 L 2752 3342"/></g><g transform="translate(-1078,-294) scale(1,1)"><path fill="#ffffff" stroke="none" d="M 2752 3274 L 2762 3264 L 2940.7099609375 3264 L 2930.7099609375 3274"/></g><g transform="translate(-1078,-294) scale(1,1)"><path fill="#ffffff" stroke="none" d="M 2940.7099609375 3264 L 2930.7099609375 3274 L 2930.7099609375 3342 L 2940.7099609375 3332"/></g><g transform="translate(-1078,-294) scale(1,1)"><path fill="none" stroke="#000000" d="M 2752 3274 L 2930.7099609375 3274 L 2930.7099609375 3342 L 2752 3342 L 2752 3274" stroke-miterlimit="10"/></g><g transform="translate(-1078,-294) scale(1,1)"><path fill="none" stroke="#000000" d="M 2752 3274 L 2762 3264 L 2940.7099609375 3264 L 2930.7099609375 3274 L 2752 3274" stroke-miterlimit="10"/></g><g transform="translate(-1078,-294) scale(1,1)"><path fill="none" stroke="#000000" d="M 2940.7099609375 3264 L 2930.7099609375 3274 L 2930.7099609375 3342 L 2940.7099609375 3332 L 2940.7099609375 3264" stroke-miterlimit="10"/></g><g transform="translate(-1078,-294) scale(1,1)"><g><path fill="none" stroke="none"/><text fill="#000000" stroke="none" font-family="Arial" font-size="18px" font-style="normal" font-weight="bold" text-decoration="none" x="2760.806640625" y="3298.5">Management Tables</text><path fill="none" stroke="#000000" d="M 2927.2099609375 3298.5 L 2756.5 3298.5" stroke-miterlimit="10"/></g></g><g transform="translate(-1078,-294) scale(1,1)"><path fill="#C0C0C0" stroke="none" d="M 2959 3273 L 3099 3273 L 3099 3349 L 2959 3349" opacity="0.2"/></g><g transform="translate(-1078,-294) scale(1,1)"><path fill="#C0C0C0" stroke="none" d="M 2959 3273 L 2969 3263 L 3109 3263 L 3099 3273" opacity="0.2"/></g><g transform="translate(-1078,-294) scale(1,1)"><path fill="#C0C0C0" stroke="none" d="M 3109 3263 L 3099 3273 L 3099 3349 L 3109 3339" opacity="0.2"/></g><g transform="translate(-1078,-294) scale(1,1)"><path fill="#ffffff" stroke="none" d="M 2952 3266 L 3092 3266 L 3092 3342 L 2952 3342"/></g><g transform="translate(-1078,-294) scale(1,1)"><path fill="#ffffff" stroke="none" d="M 2952 3266 L 2962 3256 L 3102 3256 L 3092 3266"/></g><g transform="translate(-1078,-294) scale(1,1)"><path fill="#ffffff" stroke="none" d="M 3102 3256 L 3092 3266 L 3092 3342 L 3102 3332"/></g><g transform="translate(-1078,-294) scale(1,1)"><path fill="none" stroke="#000000" d="M 2952 3266 L 3092 3266 L 3092 3342 L 2952 3342 L 2952 3266" stroke-miterlimit="10"/></g><g transform="translate(-1078,-294) scale(1,1)"><path fill="none" stroke="#000000" d="M 2952 3266 L 2962 3256 L 3102 3256 L 3092 3266 L 2952 3266" stroke-miterlimit="10"/></g><g transform="translate(-1078,-294) scale(1,1)"><path fill="none" stroke="#000000" d="M 3102 3256 L 3092 3266 L 3092 3342 L 3102 3332 L 3102 3256" stroke-miterlimit="10"/></g><g transform="translate(-1078,-294) scale(1,1)"><g><path fill="none" stroke="none"/><text fill="#000000" stroke="none" font-family="Arial" font-size="18px" font-style="normal" font-weight="bold" text-decoration="none" x="2974.98193359375" y="3290.5">User Tables</text><path fill="none" stroke="#000000" d="M 3072.85693359375 3290.5 L 2972.14306640625 3290.5" stroke-miterlimit="10"/></g></g><g transform="translate(-1078,-294) scale(1,1)"><path fill="#C0C0C0" stroke="none" d="M 2759 3393 L 2969.7373046875 3393 L 2969.7373046875 3461 L 2759 3461" opacity="0.2"/></g><g transform="translate(-1078,-294) scale(1,1)"><path fill="#C0C0C0" stroke="none" d="M 2759 3393 L 2769 3383 L 2979.7373046875 3383 L 2969.7373046875 3393" opacity="0.2"/></g><g transform="translate(-1078,-294) scale(1,1)"><path fill="#C0C0C0" stroke="none" d="M 2979.7373046875 3383 L 2969.7373046875 3393 L 2969.7373046875 3461 L 2979.7373046875 3451" opacity="0.2"/></g><g transform="translate(-1078,-294) scale(1,1)"><path fill="#ffffff" stroke="none" d="M 2752 3386 L 2962.7373046875 3386 L 2962.7373046875 3454 L 2752 3454"/></g><g transform="translate(-1078,-294) scale(1,1)"><path fill="#ffffff" stroke="none" d="M 2752 3386 L 2762 3376 L 2972.7373046875 3376 L 2962.7373046875 3386"/></g><g transform="translate(-1078,-294) scale(1,1)"><path fill="#ffffff" stroke="none" d="M 2972.7373046875 3376 L 2962.7373046875 3386 L 2962.7373046875 3454 L 2972.7373046875 3444"/></g><g transform="translate(-1078,-294) scale(1,1)"><path fill="none" stroke="#000000" d="M 2752 3386 L 2962.7373046875 3386 L 2962.7373046875 3454 L 2752 3454 L 2752 3386" stroke-miterlimit="10"/></g><g transform="translate(-1078,-294) scale(1,1)"><path fill="none" stroke="#000000" d="M 2752 3386 L 2762 3376 L 2972.7373046875 3376 L 2962.7373046875 3386 L 2752 3386" stroke-miterlimit="10"/></g><g transform="translate(-1078,-294) scale(1,1)"><path fill="none" stroke="#000000" d="M 2972.7373046875 3376 L 2962.7373046875 3386 L 2962.7373046875 3454 L 2972.7373046875 3444 L 2972.7373046875 3376" stroke-miterlimit="10"/></g><g transform="translate(-1078,-294) scale(1,1)"><g><path fill="none" stroke="none"/><text fill="#000000" stroke="none" font-family="Arial" font-size="18px" font-style="normal" font-weight="bold" text-decoration="none" x="2761.82177734375" y="3410.5">Diagram Related Tables</text><path fill="none" stroke="#000000" d="M 2959.2373046875 3410.5 L 2756.5 3410.5" stroke-miterlimit="10"/></g></g></g></svg>