<svg version="1.1" xmlns="http://www.w3.org/2000/svg" xmlns:xlink="http://www.w3.org/1999/xlink" width="1125" height="1043"><defs/><g><g transform="translate(10,-838) scale(1,1)"><rect fill="#C0C0C0" stroke="none" x="111" y="855" width="264" height="144" opacity="0.2"/></g><g transform="translate(10,-838) scale(1,1)"><rect fill="#ffffff" stroke="none" x="104" y="848" width="264" height="144"/></g><g transform="translate(10,-838) scale(1,1)"><path fill="none" stroke="#000000" d="M 104 848 L 368 848 L 368 992 L 104 992 L 104 848 Z Z" stroke-miterlimit="10"/></g><g transform="translate(10,-838) scale(1,1)"><path fill="none" stroke="#000000" d="M 104 878 L 368 878" stroke-miterlimit="10"/></g><g transform="translate(10,-838) scale(1,1)"><path fill="none" stroke="#000000" d="M 104 946 L 368 946" stroke-miterlimit="10"/></g><g transform="translate(10,-838) scale(1,1)"><g><path fill="none" stroke="none"/><text fill="#000000" stroke="none" font-family="Arial" font-size="18px" font-style="normal" font-weight="bold" text-decoration="none" x="180.9716796875" y="872.5">FileResponse</text></g></g><g transform="translate(10,-838) scale(1,1)"><g><path fill="none" stroke="none"/><text fill="#000000" stroke="none" font-family="Arial" font-size="18px" font-style="normal" font-weight="normal" text-decoration="none" x="109" y="900.5">+pathFiles: List&lt;PathFile&gt;</text></g></g><g transform="translate(10,-838) scale(1,1)"><g><path fill="none" stroke="none"/><text fill="#000000" stroke="none" font-family="Arial" font-size="18px" font-style="normal" font-weight="normal" text-decoration="none" x="109" y="920.5">+file: File_cDto</text></g></g><g transform="translate(10,-838) scale(1,1)"><g><path fill="none" stroke="none"/><text fill="#000000" stroke="none" font-family="Arial" font-size="18px" font-style="normal" font-weight="normal" text-decoration="none" x="109" y="940.5">+errorMsg: string</text></g></g><g transform="translate(10,-838) scale(1,1)"><rect fill="#C0C0C0" stroke="none" x="463" y="879" width="256" height="87" opacity="0.2"/></g><g transform="translate(10,-838) scale(1,1)"><rect fill="#ffffff" stroke="none" x="456" y="872" width="256" height="87"/></g><g transform="translate(10,-838) scale(1,1)"><path fill="none" stroke="#000000" d="M 456 872 L 712 872 L 712 959 L 456 959 L 456 872 Z Z" stroke-miterlimit="10"/></g><g transform="translate(10,-838) scale(1,1)"><path fill="none" stroke="#000000" d="M 456 902 L 712 902" stroke-miterlimit="10"/></g><g transform="translate(10,-838) scale(1,1)"><path fill="none" stroke="#000000" d="M 456 950 L 712 950" stroke-miterlimit="10"/></g><g transform="translate(10,-838) scale(1,1)"><g><path fill="none" stroke="none"/><text fill="#000000" stroke="none" font-family="Arial" font-size="18px" font-style="normal" font-weight="bold" text-decoration="none" x="550.98388671875" y="896.5">PathFile</text></g></g><g transform="translate(10,-838) scale(1,1)"><g><path fill="none" stroke="none"/><text fill="#000000" stroke="none" font-family="Arial" font-size="18px" font-style="normal" font-weight="normal" text-decoration="none" x="461" y="924.5">+index: int</text></g></g><g transform="translate(10,-838) scale(1,1)"><g><path fill="none" stroke="none"/><text fill="#000000" stroke="none" font-family="Arial" font-size="18px" font-style="normal" font-weight="normal" text-decoration="none" x="461" y="944.5">+file: FileHeader_I</text></g></g><g transform="translate(10,-838) scale(1,1)"><rect fill="#C0C0C0" stroke="none" x="527" y="1047" width="343" height="175" opacity="0.2"/></g><g transform="translate(10,-838) scale(1,1)"><rect fill="#ffffff" stroke="none" x="520" y="1040" width="343" height="175"/></g><g transform="translate(10,-838) scale(1,1)"><path fill="none" stroke="#000000" d="M 520 1040 L 863 1040 L 863 1215 L 520 1215 L 520 1040 Z Z" stroke-miterlimit="10"/></g><g transform="translate(10,-838) scale(1,1)"><path fill="none" stroke="#000000" d="M 520 1070 L 863 1070" stroke-miterlimit="10"/></g><g transform="translate(10,-838) scale(1,1)"><path fill="none" stroke="#000000" d="M 520 1178 L 863 1178" stroke-miterlimit="10"/></g><g transform="translate(10,-838) scale(1,1)"><g><path fill="none" stroke="none"/><text fill="#000000" stroke="none" font-family="Arial" font-size="18px" font-style="normal" font-weight="bold" text-decoration="none" x="653.4873046875" y="1064.5">File_cDto</text></g></g><g transform="translate(10,-838) scale(1,1)"><g><path fill="none" stroke="none"/><text fill="#000000" stroke="none" font-family="Arial" font-size="18px" font-style="normal" font-weight="normal" text-decoration="none" x="525" y="1092.5">+id: int</text></g></g><g transform="translate(10,-838) scale(1,1)"><g><path fill="none" stroke="none"/><text fill="#000000" stroke="none" font-family="Arial" font-size="18px" font-style="normal" font-weight="normal" text-decoration="none" x="525" y="1112.5">+name: string</text></g></g><g transform="translate(10,-838) scale(1,1)"><g><path fill="none" stroke="none"/><text fill="#000000" stroke="none" font-family="Arial" font-size="18px" font-style="normal" font-weight="normal" text-decoration="none" x="525" y="1132.5">+parentFolder_id: int</text></g></g><g transform="translate(10,-838) scale(1,1)"><g><path fill="none" stroke="none"/><text fill="#000000" stroke="none" font-family="Arial" font-size="18px" font-style="normal" font-weight="normal" text-decoration="none" x="525" y="1152.5">+owner: User_PublicDto</text></g></g><g transform="translate(10,-838) scale(1,1)"><g><path fill="none" stroke="none"/><text fill="#000000" stroke="none" font-family="Arial" font-size="18px" font-style="normal" font-weight="normal" text-decoration="none" x="525" y="1172.5">+icon: ICON</text></g></g><g transform="translate(10,-838) scale(1,1)"><rect fill="#C0C0C0" stroke="none" x="543" y="1279" width="533.0126953125" height="135" opacity="0.2"/></g><g transform="translate(10,-838) scale(1,1)"><rect fill="#ffffff" stroke="none" x="536" y="1272" width="533.0126953125" height="135"/></g><g transform="translate(10,-838) scale(1,1)"><path fill="none" stroke="#000000" d="M 536 1272 L 1069.0126953125 1272 L 1069.0126953125 1407 L 536 1407 L 536 1272 Z Z" stroke-miterlimit="10"/></g><g transform="translate(10,-838) scale(1,1)"><path fill="none" stroke="#000000" d="M 536 1302 L 1069.0126953125 1302" stroke-miterlimit="10"/></g><g transform="translate(10,-838) scale(1,1)"><path fill="none" stroke="#000000" d="M 536 1350 L 1069.0126953125 1350" stroke-miterlimit="10"/></g><g transform="translate(10,-838) scale(1,1)"><g><path fill="none" stroke="none"/><text fill="#000000" stroke="none" font-family="Arial" font-size="18px" font-style="normal" font-weight="bold" text-decoration="none" x="762.99072265625" y="1296.5">FolderDto</text></g></g><g transform="translate(10,-838) scale(1,1)"><g><path fill="none" stroke="none"/><text fill="#000000" stroke="none" font-family="Arial" font-size="18px" font-style="normal" font-weight="normal" text-decoration="none" x="541" y="1324.5">+files: List&lt;FileHeaderDto&gt;</text></g></g><g transform="translate(10,-838) scale(1,1)"><g><path fill="none" stroke="none"/><text fill="#000000" stroke="none" font-family="Arial" font-size="18px" font-style="normal" font-weight="normal" text-decoration="none" x="541" y="1344.5">+is_root: boolean</text></g></g><g transform="translate(10,-838) scale(1,1)"><g><path fill="none" stroke="none"/><text fill="#000000" stroke="none" font-family="Arial" font-size="18px" font-style="normal" font-weight="normal" text-decoration="none" x="541" y="1372.5">+makeTreeFromSharedFiles(List[File_cEntity]): List&lt;File_cEntity&gt;</text></g></g><g transform="translate(10,-838) scale(1,1)"><g><path fill="none" stroke="none"/><text fill="#000000" stroke="none" font-family="Arial" font-size="18px" font-style="normal" font-weight="normal" text-decoration="none" x="541" y="1392.5">+addAllFromSource(List[File_cEntity] ): void</text></g></g><g transform="translate(10,-838) scale(1,1)"><path fill="none" stroke="#000000" d="M 766 1271 L 738 1216" stroke-miterlimit="10"/></g><g transform="translate(10,-838) scale(1,1)"><path fill="#FFFFFF" stroke="none" d="M 754.724000378754 1230.2936283473246 L 738 1216 L 739.7185325442299 1237.9327756085368"/></g><g transform="translate(10,-838) scale(1,1)"><path fill="none" stroke="#000000" d="M 754.724000378754 1230.2936283473246 L 738 1216 L 739.7185325442299 1237.9327756085368 L 754.724000378754 1230.2936283473246" stroke-miterlimit="10"/></g><g transform="translate(10,-838) scale(1,1)"><rect fill="#C0C0C0" stroke="none" x="351" y="1271" width="144" height="64" opacity="0.2"/></g><g transform="translate(10,-838) scale(1,1)"><rect fill="#ffffff" stroke="none" x="344" y="1264" width="144" height="64"/></g><g transform="translate(10,-838) scale(1,1)"><path fill="none" stroke="#000000" d="M 344 1264 L 488 1264 L 488 1328 L 344 1328 L 344 1264 Z Z" stroke-miterlimit="10"/></g><g transform="translate(10,-838) scale(1,1)"><path fill="none" stroke="#000000" d="M 344 1294 L 488 1294" stroke-miterlimit="10"/></g><g transform="translate(10,-838) scale(1,1)"><path fill="none" stroke="#000000" d="M 344 1304 L 488 1304" stroke-miterlimit="10"/></g><g transform="translate(10,-838) scale(1,1)"><g><path fill="none" stroke="none"/><text fill="#000000" stroke="none" font-family="Arial" font-size="18px" font-style="normal" font-weight="bold" text-decoration="none" x="357.974609375" y="1288.5">FileHeaderDto</text></g></g><g transform="translate(10,-838) scale(1,1)"><rect fill="#C0C0C0" stroke="none" x="79" y="1471" width="168" height="88" opacity="0.2"/></g><g transform="translate(10,-838) scale(1,1)"><rect fill="#ffffff" stroke="none" x="72" y="1464" width="168" height="88"/></g><g transform="translate(10,-838) scale(1,1)"><path fill="none" stroke="#000000" d="M 72 1464 L 240 1464 L 240 1552 L 72 1552 L 72 1464 Z Z" stroke-miterlimit="10"/></g><g transform="translate(10,-838) scale(1,1)"><path fill="none" stroke="#000000" d="M 72 1494 L 240 1494" stroke-miterlimit="10"/></g><g transform="translate(10,-838) scale(1,1)"><path fill="none" stroke="#000000" d="M 72 1504 L 240 1504" stroke-miterlimit="10"/></g><g transform="translate(10,-838) scale(1,1)"><g><path fill="none" stroke="none"/><text fill="#000000" stroke="none" font-family="Arial" font-size="18px" font-style="normal" font-weight="bold" text-decoration="none" x="86.96630859375" y="1488.5">FolderHeaderDto</text></g></g><g transform="translate(10,-838) scale(1,1)"><path fill="#C0C0C0" stroke="none" d="M 176.306640625 1081 C 176.306640625 1066.6405952 187.947235825 1055 202.306640625 1055 C 216.666045425 1055 228.306640625 1066.6405952 228.306640625 1081 C 228.306640625 1095.3594048 216.666045425 1107 202.306640625 1107 C 187.947235825 1107 176.306640625 1095.3594048 176.306640625 1081 Z" opacity="0.2"/></g><g transform="translate(10,-838) scale(1,1)"><path fill="#ffffff" stroke="none" d="M 169.306640625 1074 C 169.306640625 1059.6405952 180.947235825 1048 195.306640625 1048 C 209.666045425 1048 221.306640625 1059.6405952 221.306640625 1074 C 221.306640625 1088.3594048 209.666045425 1100 195.306640625 1100 C 180.947235825 1100 169.306640625 1088.3594048 169.306640625 1074 Z"/></g><g transform="translate(10,-838) scale(1,1)"><path fill="none" stroke="#000000" d="M 169.306640625 1074 C 169.306640625 1059.6405952 180.947235825 1048 195.306640625 1048 C 209.666045425 1048 221.306640625 1059.6405952 221.306640625 1074 C 221.306640625 1088.3594048 209.666045425 1100 195.306640625 1100 C 180.947235825 1100 169.306640625 1088.3594048 169.306640625 1074 Z" stroke-miterlimit="10"/></g><g transform="translate(10,-838) scale(1,1)"><path fill="none" stroke="#000000" d="M 56 1130 L 334.61328125 1130" stroke-miterlimit="10"/></g><g transform="translate(10,-838) scale(1,1)"><path fill="none" stroke="#000000" d="M 56 1140 L 334.61328125 1140" stroke-miterlimit="10"/></g><g transform="translate(10,-838) scale(1,1)"><g><path fill="none" stroke="none"/><text fill="#000000" stroke="none" font-family="Arial" font-size="18px" font-style="normal" font-weight="bold" text-decoration="none" x="143.78076171875" y="1124.5">FileHeader_I</text></g></g><g transform="translate(10,-838) scale(1,1)"><g><path fill="none" stroke="none"/><text fill="#000000" stroke="none" font-family="Arial" font-size="18px" font-style="normal" font-weight="normal" text-decoration="none" x="61" y="1162.5">+get_setId(): int</text></g></g><g transform="translate(10,-838) scale(1,1)"><g><path fill="none" stroke="none"/><text fill="#000000" stroke="none" font-family="Arial" font-size="18px" font-style="normal" font-weight="normal" text-decoration="none" x="61" y="1182.5">+get_setName(): string</text></g></g><g transform="translate(10,-838) scale(1,1)"><g><path fill="none" stroke="none"/><text fill="#000000" stroke="none" font-family="Arial" font-size="18px" font-style="normal" font-weight="normal" text-decoration="none" x="61" y="1202.5">+get_setParentFolderId(): int</text></g></g><g transform="translate(10,-838) scale(1,1)"><g><path fill="none" stroke="none"/><text fill="#000000" stroke="none" font-family="Arial" font-size="18px" font-style="normal" font-weight="normal" text-decoration="none" x="61" y="1222.5">+get_setOwner(): User_PublicDto</text></g></g><g transform="translate(10,-838) scale(1,1)"><g><path fill="none" stroke="none"/><text fill="#000000" stroke="none" font-family="Arial" font-size="18px" font-style="normal" font-weight="normal" text-decoration="none" x="61" y="1242.5">+get_setIcon(): ICON</text></g></g><g transform="translate(10,-838) scale(1,1)"><path fill="none" stroke="#000000" d="M 401 1263 L 336 1120 L 221.306640625 1082.5823082890072" stroke-miterlimit="10"/></g><g transform="translate(10,-838) scale(1,1)"><path fill="none" stroke="#000000" d="M 211 1463 L 376 1329" stroke-miterlimit="10"/></g><g transform="translate(10,-838) scale(1,1)"><path fill="#FFFFFF" stroke="none" d="M 365.5297774520475 1348.348758094419 L 376 1329 L 354.91479657970865 1335.2780726919123"/></g><g transform="translate(10,-838) scale(1,1)"><path fill="none" stroke="#000000" d="M 365.5297774520475 1348.348758094419 L 376 1329 L 354.91479657970865 1335.2780726919123 L 365.5297774520475 1348.348758094419" stroke-miterlimit="10"/></g><g transform="translate(10,-838) scale(1,1)"><path fill="none" stroke="#000000" d="M 470 1263 L 546 1216" stroke-miterlimit="10"/></g><g transform="translate(10,-838) scale(1,1)"><path fill="#FFFFFF" stroke="none" d="M 533.1413720927873 1233.8509296212787 L 546 1216 L 524.2850636243652 1219.5300903957454"/></g><g transform="translate(10,-838) scale(1,1)"><path fill="none" stroke="#000000" d="M 533.1413720927873 1233.8509296212787 L 546 1216 L 524.2850636243652 1219.5300903957454 L 533.1413720927873 1233.8509296212787" stroke-miterlimit="10"/></g><g transform="translate(10,-838) scale(1,1)"><rect fill="#C0C0C0" stroke="none" x="7" y="1279" width="274.6142578125" height="111" opacity="0.2"/></g><g transform="translate(10,-838) scale(1,1)"><rect fill="#ffffff" stroke="none" x="0" y="1272" width="274.6142578125" height="111"/></g><g transform="translate(10,-838) scale(1,1)"><path fill="none" stroke="#000000" d="M 0 1272 L 274.6142578125 1272 L 274.6142578125 1383 L 0 1383 L 0 1272 Z Z" stroke-miterlimit="10"/></g><g transform="translate(10,-838) scale(1,1)"><path fill="none" stroke="#000000" d="M 0 1302 L 274.6142578125 1302" stroke-miterlimit="10"/></g><g transform="translate(10,-838) scale(1,1)"><path fill="none" stroke="#000000" d="M 0 1330 L 274.6142578125 1330" stroke-miterlimit="10"/></g><g transform="translate(10,-838) scale(1,1)"><g><path fill="none" stroke="none"/><text fill="#000000" stroke="none" font-family="Arial" font-size="18px" font-style="normal" font-weight="bold" text-decoration="none" x="95.291015625" y="1296.5">ProjectDto</text></g></g><g transform="translate(10,-838) scale(1,1)"><g><path fill="none" stroke="none"/><text fill="#000000" stroke="none" font-family="Arial" font-size="18px" font-style="normal" font-weight="normal" text-decoration="none" x="5" y="1324.5">+rootFolderDto: ProjectFolderDto</text></g></g><g transform="translate(10,-838) scale(1,1)"><path fill="none" stroke="#000000" d="M 276 1312 L 343 1304" stroke-miterlimit="10"/></g><g transform="translate(10,-838) scale(1,1)"><path fill="#FFFFFF" stroke="none" d="M 323.81617685939125 1314.769444261885 L 343 1304 L 321.8198415010028 1298.0501356353816"/></g><g transform="translate(10,-838) scale(1,1)"><path fill="none" stroke="#000000" d="M 323.81617685939125 1314.769444261885 L 343 1304 L 321.8198415010028 1298.0501356353816 L 323.81617685939125 1314.769444261885" stroke-miterlimit="10"/></g><g transform="translate(10,-838) scale(1,1)"><rect fill="#C0C0C0" stroke="none" x="383" y="1455" width="287" height="119" opacity="0.2"/></g><g transform="translate(10,-838) scale(1,1)"><rect fill="#ffffff" stroke="none" x="376" y="1448" width="287" height="119"/></g><g transform="translate(10,-838) scale(1,1)"><path fill="none" stroke="#000000" d="M 376 1448 L 663 1448 L 663 1567 L 376 1567 L 376 1448 Z Z" stroke-miterlimit="10"/></g><g transform="translate(10,-838) scale(1,1)"><path fill="none" stroke="#000000" d="M 376 1478 L 663 1478" stroke-miterlimit="10"/></g><g transform="translate(10,-838) scale(1,1)"><path fill="none" stroke="#000000" d="M 376 1506 L 663 1506" stroke-miterlimit="10"/></g><g transform="translate(10,-838) scale(1,1)"><g><path fill="none" stroke="none"/><text fill="#000000" stroke="none" font-family="Arial" font-size="18px" font-style="normal" font-weight="bold" text-decoration="none" x="462.98193359375" y="1472.5">ProjectFileDto</text></g></g><g transform="translate(10,-838) scale(1,1)"><g><path fill="none" stroke="none"/><text fill="#000000" stroke="none" font-family="Arial" font-size="18px" font-style="normal" font-weight="normal" text-decoration="none" x="381" y="1500.5">+project_id: int</text></g></g><g transform="translate(10,-838) scale(1,1)"><path fill="none" stroke="#000000" d="M 664 1484 L 1088 1416 L 1080 1248 L 864 1181" stroke-miterlimit="10"/></g><g transform="translate(10,-838) scale(1,1)"><path fill="#FFFFFF" stroke="none" d="M 885.9071142428031 1178.9805085905675 L 864 1181 L 880.9186651074722 1195.0626729671567"/></g><g transform="translate(10,-838) scale(1,1)"><path fill="none" stroke="#000000" d="M 885.9071142428031 1178.9805085905675 L 864 1181 L 880.9186651074722 1195.0626729671567 L 885.9071142428031 1178.9805085905675" stroke-miterlimit="10"/></g><g transform="translate(10,-838) scale(1,1)"><rect fill="#C0C0C0" stroke="none" x="455" y="1631" width="247" height="71" opacity="0.2"/></g><g transform="translate(10,-838) scale(1,1)"><rect fill="#ffffff" stroke="none" x="448" y="1624" width="247" height="71"/></g><g transform="translate(10,-838) scale(1,1)"><path fill="none" stroke="#000000" d="M 448 1624 L 695 1624 L 695 1695 L 448 1695 L 448 1624 Z Z" stroke-miterlimit="10"/></g><g transform="translate(10,-838) scale(1,1)"><path fill="none" stroke="#000000" d="M 448 1654 L 695 1654" stroke-miterlimit="10"/></g><g transform="translate(10,-838) scale(1,1)"><path fill="none" stroke="#000000" d="M 448 1664 L 695 1664" stroke-miterlimit="10"/></g><g transform="translate(10,-838) scale(1,1)"><g><path fill="none" stroke="none"/><text fill="#000000" stroke="none" font-family="Arial" font-size="18px" font-style="normal" font-weight="bold" text-decoration="none" x="485.4638671875" y="1648.5">ProjectFileHeaderDto</text></g></g><g transform="translate(10,-838) scale(1,1)"><path fill="none" stroke="#000000" d="M 559 1623 L 540 1568" stroke-miterlimit="10"/></g><g transform="translate(10,-838) scale(1,1)"><path fill="#FFFFFF" stroke="none" d="M 554.5942282326918 1584.4623358698607 L 540 1568 L 538.6790484217714 1589.9603070772696"/></g><g transform="translate(10,-838) scale(1,1)"><path fill="none" stroke="#000000" d="M 554.5942282326918 1584.4623358698607 L 540 1568 L 538.6790484217714 1589.9603070772696 L 554.5942282326918 1584.4623358698607" stroke-miterlimit="10"/></g><g transform="translate(10,-838) scale(1,1)"><rect fill="#C0C0C0" stroke="none" x="79" y="1615" width="282.6298828125" height="107" opacity="0.2"/></g><g transform="translate(10,-838) scale(1,1)"><rect fill="#ffffff" stroke="none" x="72" y="1608" width="282.6298828125" height="107"/></g><g transform="translate(10,-838) scale(1,1)"><path fill="none" stroke="#000000" d="M 72 1608 L 354.6298828125 1608 L 354.6298828125 1715 L 72 1715 L 72 1608 Z Z" stroke-miterlimit="10"/></g><g transform="translate(10,-838) scale(1,1)"><path fill="none" stroke="#000000" d="M 72 1638 L 354.6298828125 1638" stroke-miterlimit="10"/></g><g transform="translate(10,-838) scale(1,1)"><path fill="none" stroke="#000000" d="M 72 1706 L 354.6298828125 1706" stroke-miterlimit="10"/></g><g transform="translate(10,-838) scale(1,1)"><g><path fill="none" stroke="none"/><text fill="#000000" stroke="none" font-family="Arial" font-size="18px" font-style="normal" font-weight="bold" text-decoration="none" x="145.78857421875" y="1632.5">ProjectFolderDto</text></g></g><g transform="translate(10,-838) scale(1,1)"><g><path fill="none" stroke="none"/><text fill="#000000" stroke="none" font-family="Arial" font-size="18px" font-style="normal" font-weight="normal" text-decoration="none" x="77" y="1660.5">+relatedDiagramId: int</text></g></g><g transform="translate(10,-838) scale(1,1)"><g><path fill="none" stroke="none"/><text fill="#000000" stroke="none" font-family="Arial" font-size="18px" font-style="normal" font-weight="normal" text-decoration="none" x="77" y="1680.5">+files: List&lt;ProjectFileHeaderDto&gt;</text></g></g><g transform="translate(10,-838) scale(1,1)"><g><path fill="none" stroke="none"/><text fill="#000000" stroke="none" font-family="Arial" font-size="18px" font-style="normal" font-weight="normal" text-decoration="none" x="77" y="1700.5">+is_projectRoot: boolean</text></g></g><g transform="translate(10,-838) scale(1,1)"><path fill="none" stroke="#000000" d="M 306 1607 L 360 1576 L 378 1568" stroke-miterlimit="10"/></g><g transform="translate(10,-838) scale(1,1)"><path fill="#FFFFFF" stroke="none" d="M 362.8457548689668 1583.9483182344898 L 378 1568 L 356.00716653195445 1568.561494476212"/></g><g transform="translate(10,-838) scale(1,1)"><path fill="none" stroke="#000000" d="M 362.8457548689668 1583.9483182344898 L 378 1568 L 356.00716653195445 1568.561494476212 L 362.8457548689668 1583.9483182344898" stroke-miterlimit="10"/></g><g transform="translate(10,-838) scale(1,1)"><rect fill="#C0C0C0" stroke="none" x="175" y="1791" width="216.0439453125" height="87" opacity="0.2"/></g><g transform="translate(10,-838) scale(1,1)"><rect fill="#ffffff" stroke="none" x="168" y="1784" width="216.0439453125" height="87"/></g><g transform="translate(10,-838) scale(1,1)"><path fill="none" stroke="#000000" d="M 168 1784 L 384.0439453125 1784 L 384.0439453125 1871 L 168 1871 L 168 1784 Z Z" stroke-miterlimit="10"/></g><g transform="translate(10,-838) scale(1,1)"><path fill="none" stroke="#000000" d="M 168 1814 L 384.0439453125 1814" stroke-miterlimit="10"/></g><g transform="translate(10,-838) scale(1,1)"><path fill="none" stroke="#000000" d="M 168 1862 L 384.0439453125 1862" stroke-miterlimit="10"/></g><g transform="translate(10,-838) scale(1,1)"><g><path fill="none" stroke="none"/><text fill="#000000" stroke="none" font-family="Arial" font-size="18px" font-style="normal" font-weight="bold" text-decoration="none" x="178.9775390625" y="1808.5">ProjectFolderHeaderDto</text></g></g><g transform="translate(10,-838) scale(1,1)"><g><path fill="none" stroke="none"/><text fill="#000000" stroke="none" font-family="Arial" font-size="18px" font-style="normal" font-weight="normal" text-decoration="none" x="173" y="1836.5">+is_projectRoot: boolean</text></g></g><g transform="translate(10,-838) scale(1,1)"><g><path fill="none" stroke="none"/><text fill="#000000" stroke="none" font-family="Arial" font-size="18px" font-style="normal" font-weight="normal" text-decoration="none" x="173" y="1856.5">+relatedDiagramId: int</text></g></g><g transform="translate(10,-838) scale(1,1)"><path fill="none" stroke="#000000" d="M 353 1783 L 506 1696" stroke-miterlimit="10"/></g><g transform="translate(10,-838) scale(1,1)"><path fill="#FFFFFF" stroke="none" d="M 492.49292231042415 1713.3654499592658 L 506 1696 L 484.1698263471349 1698.7282811962398"/></g><g transform="translate(10,-838) scale(1,1)"><path fill="none" stroke="#000000" d="M 492.49292231042415 1713.3654499592658 L 506 1696 L 484.1698263471349 1698.7282811962398 L 492.49292231042415 1713.3654499592658" stroke-miterlimit="10"/></g><g transform="translate(10,-838) scale(1,1)"><rect fill="#C0C0C0" stroke="none" x="551" y="1783" width="280" height="72" opacity="0.2"/></g><g transform="translate(10,-838) scale(1,1)"><rect fill="#ffffff" stroke="none" x="544" y="1776" width="280" height="72"/></g><g transform="translate(10,-838) scale(1,1)"><path fill="none" stroke="#000000" d="M 544 1776 L 824 1776 L 824 1848 L 544 1848 L 544 1776 Z Z" stroke-miterlimit="10"/></g><g transform="translate(10,-838) scale(1,1)"><path fill="none" stroke="#000000" d="M 544 1806 L 824 1806" stroke-miterlimit="10"/></g><g transform="translate(10,-838) scale(1,1)"><path fill="none" stroke="#000000" d="M 544 1816 L 824 1816" stroke-miterlimit="10"/></g><g transform="translate(10,-838) scale(1,1)"><g><path fill="none" stroke="none"/><text fill="#000000" stroke="none" font-family="Arial" font-size="18px" font-style="normal" font-weight="bold" text-decoration="none" x="562.45166015625" y="1800.5">ProjectSimpleClassHeaderDto</text></g></g><g transform="translate(10,-838) scale(1,1)"><path fill="none" stroke="#000000" d="M 657 1775 L 598 1696" stroke-miterlimit="10"/></g><g transform="translate(10,-838) scale(1,1)"><path fill="#FFFFFF" stroke="none" d="M 616.9076633207737 1707.247233782058 L 598 1696 L 603.4167416736277 1717.322732227395"/></g><g transform="translate(10,-838) scale(1,1)"><path fill="none" stroke="#000000" d="M 616.9076633207737 1707.247233782058 L 598 1696 L 603.4167416736277 1717.322732227395 L 616.9076633207737 1707.247233782058" stroke-miterlimit="10"/></g><g transform="translate(10,-838) scale(1,1)"><path fill="none" stroke="#000000" d="M 489 1304 L 535 1309" stroke-miterlimit="10"/></g><g transform="translate(10,-838) scale(1,1)"><path fill="#000000" stroke="none" d="M 524.4419560201726 1312.0866984498052 L 535 1309 L 525.3517101004629 1303.7169609111334 L 513.128821812472 1306.6226980230947"/></g><g transform="translate(10,-838) scale(1,1)"><path fill="none" stroke="#000000" d="M 524.4419560201726 1312.0866984498052 L 535 1309 L 525.3517101004629 1303.7169609111334 L 513.128821812472 1306.6226980230947 L 524.4419560201726 1312.0866984498052" stroke-miterlimit="10"/></g><g transform="translate(10,-838) scale(1,1)"><path fill="none" stroke="#000000" d="M 447 1660 L 356 1660" stroke-miterlimit="10"/></g><g transform="translate(10,-838) scale(1,1)"><path fill="#000000" stroke="none" d="M 366.16267485762415 1655.7904822439841 L 356 1660 L 366.16267485762415 1664.2095177560159 L 378 1660"/></g><g transform="translate(10,-838) scale(1,1)"><path fill="none" stroke="#000000" d="M 366.16267485762415 1655.7904822439841 L 356 1660 L 366.16267485762415 1664.2095177560159 L 378 1660 L 366.16267485762415 1655.7904822439841" stroke-miterlimit="10"/></g><g transform="translate(10,-838) scale(1,1)"><path fill="none" stroke="#000000" d="M 336 1064 L 509 960" stroke-miterlimit="10"/></g><g transform="translate(10,-838) scale(1,1)"><path fill="#000000" stroke="none" d="M 502.45886874493056 968.8438454251504 L 509 960 L 498.12117866101966 961.6282648047986 L 490.14477918273724 971.334930433499"/></g><g transform="translate(10,-838) scale(1,1)"><path fill="none" stroke="#000000" d="M 502.45886874493056 968.8438454251504 L 509 960 L 498.12117866101966 961.6282648047986 L 490.14477918273724 971.334930433499 L 502.45886874493056 968.8438454251504" stroke-miterlimit="10"/></g><g transform="translate(10,-838) scale(1,1)"><path fill="none" stroke="#000000" d="M 455 917 L 369 918" stroke-miterlimit="10"/></g><g transform="translate(10,-838) scale(1,1)"><path fill="#000000" stroke="none" d="M 379.1130433165524 913.6726041459633 L 369 918 L 379.2109324608354 922.0910705542997 L 390.9985128603762 917.7442033388328"/></g><g transform="translate(10,-838) scale(1,1)"><path fill="none" stroke="#000000" d="M 379.1130433165524 913.6726041459633 L 369 918 L 379.2109324608354 922.0910705542997 L 390.9985128603762 917.7442033388328 L 379.1130433165524 913.6726041459633" stroke-miterlimit="10"/></g><g transform="translate(10,-838) scale(1,1)"><path fill="none" stroke="#000000" d="M 519 1049 L 369 981" stroke-miterlimit="10"/></g><g transform="translate(10,-838) scale(1,1)"><path fill="#000000" stroke="none" d="M 379.9940388168641 981.3620918299071 L 369 981 L 376.5179218116932 989.0299969883722 L 389.0372017964703 990.0835314810665"/></g><g transform="translate(10,-838) scale(1,1)"><path fill="none" stroke="#000000" d="M 379.9940388168641 981.3620918299071 L 369 981 L 376.5179218116932 989.0299969883722 L 389.0372017964703 990.0835314810665 L 379.9940388168641 981.3620918299071" stroke-miterlimit="10"/></g><g transform="translate(10,-838) scale(1,1)"><rect fill="#C0C0C0" stroke="none" x="791" y="1503" width="176.02734375" height="235" opacity="0.2"/></g><g transform="translate(10,-838) scale(1,1)"><rect fill="#ffffff" stroke="none" x="784" y="1496" width="176.02734375" height="235"/></g><g transform="translate(10,-838) scale(1,1)"><path fill="none" stroke="#000000" d="M 784 1496 L 960.02734375 1496 L 960.02734375 1731 L 784 1731 L 784 1496 Z Z" stroke-miterlimit="10"/></g><g transform="translate(10,-838) scale(1,1)"><path fill="none" stroke="#000000" d="M 784 1544 L 960.02734375 1544" stroke-miterlimit="10"/></g><g transform="translate(10,-838) scale(1,1)"><g><path fill="none" stroke="none"/><text fill="#000000" stroke="none" font-family="Arial" font-size="18px" font-style="normal" font-weight="normal" text-decoration="none" x="811.97119140625" y="1518.5">«enumeration»</text></g></g><g transform="translate(10,-838) scale(1,1)"><g><path fill="none" stroke="none"/><text fill="#000000" stroke="none" font-family="Arial" font-size="18px" font-style="normal" font-weight="bold" text-decoration="none" x="849.513671875" y="1538.5">ICON</text></g></g><g transform="translate(10,-838) scale(1,1)"><g><path fill="none" stroke="none"/><text fill="#000000" stroke="none" font-family="Arial" font-size="18px" font-style="normal" font-weight="normal" text-decoration="none" x="789" y="1566.5">PLACEHOLDER</text></g></g><g transform="translate(10,-838) scale(1,1)"><g><path fill="none" stroke="none"/><text fill="#000000" stroke="none" font-family="Arial" font-size="18px" font-style="normal" font-weight="normal" text-decoration="none" x="789" y="1586.5">PROJECT</text></g></g><g transform="translate(10,-838) scale(1,1)"><g><path fill="none" stroke="none"/><text fill="#000000" stroke="none" font-family="Arial" font-size="18px" font-style="normal" font-weight="normal" text-decoration="none" x="789" y="1606.5">PROJECT_FOLDER</text></g></g><g transform="translate(10,-838) scale(1,1)"><g><path fill="none" stroke="none"/><text fill="#000000" stroke="none" font-family="Arial" font-size="18px" font-style="normal" font-weight="normal" text-decoration="none" x="789" y="1626.5">PROJECT_FILE</text></g></g><g transform="translate(10,-838) scale(1,1)"><g><path fill="none" stroke="none"/><text fill="#000000" stroke="none" font-family="Arial" font-size="18px" font-style="normal" font-weight="normal" text-decoration="none" x="789" y="1646.5">DIAGRAM</text></g></g><g transform="translate(10,-838) scale(1,1)"><g><path fill="none" stroke="none"/><text fill="#000000" stroke="none" font-family="Arial" font-size="18px" font-style="normal" font-weight="normal" text-decoration="none" x="789" y="1666.5">FOLDER</text></g></g><g transform="translate(10,-838) scale(1,1)"><g><path fill="none" stroke="none"/><text fill="#000000" stroke="none" font-family="Arial" font-size="18px" font-style="normal" font-weight="normal" text-decoration="none" x="789" y="1686.5">FOLDER_SHARED</text></g></g><g transform="translate(10,-838) scale(1,1)"><g><path fill="none" stroke="none"/><text fill="#000000" stroke="none" font-family="Arial" font-size="18px" font-style="normal" font-weight="normal" text-decoration="none" x="789" y="1706.5">FILE</text></g></g><g transform="translate(10,-838) scale(1,1)"><g><path fill="none" stroke="none"/><text fill="#000000" stroke="none" font-family="Arial" font-size="18px" font-style="normal" font-weight="normal" text-decoration="none" x="789" y="1726.5">PROJECT_CLASS</text></g></g><g transform="translate(10,-838) scale(1,1)"><path fill="none" stroke="#000000" d="M 961 1537 L 1104 1416 L 1096 1240 L 888 1160 L 864 1156" stroke-miterlimit="10"/></g><g transform="translate(10,-838) scale(1,1)"><path fill="#000000" stroke="none" d="M 874.7164411855751 1153.5184907181094 L 864 1156 L 873.3323602733092 1161.8229761917048 L 885.7006663243071 1159.616777720718"/></g><g transform="translate(10,-838) scale(1,1)"><path fill="none" stroke="#000000" d="M 874.7164411855751 1153.5184907181094 L 864 1156 L 873.3323602733092 1161.8229761917048 L 885.7006663243071 1159.616777720718 L 874.7164411855751 1153.5184907181094" stroke-miterlimit="10"/></g></g></svg>