<svg version="1.1" xmlns="http://www.w3.org/2000/svg" xmlns:xlink="http://www.w3.org/1999/xlink" width="1354" height="1020"><defs/><g><g transform="translate(-198,-30) scale(1,1)"><rect fill="#C0C0C0" stroke="none" x="215" y="47" width="271" height="39" opacity="0.2"/></g><g transform="translate(-198,-30) scale(1,1)"><rect fill="#ffffff" stroke="none" x="208" y="40" width="271" height="39"/></g><g transform="translate(-198,-30) scale(1,1)"><path fill="none" stroke="#000000" d="M 208 40 L 479 40 L 479 79 L 208 79 L 208 40 Z Z" stroke-miterlimit="10"/></g><g transform="translate(-198,-30) scale(1,1)"><g><path fill="none" stroke="none"/><text fill="#000000" stroke="none" font-family="Arial" font-size="18px" font-style="normal" font-weight="bold" text-decoration="none" x="320.490234375" y="64.5">Client</text></g></g><g transform="translate(-198,-30) scale(1,1)"><path fill="none" stroke="#000000" d="M 344.5 80 L 344.5 1040" stroke-miterlimit="10" stroke-dasharray="3"/></g><g transform="translate(-198,-30) scale(1,1)"><rect fill="#C0C0C0" stroke="none" x="671" y="47" width="282.0830078125" height="39" opacity="0.2"/></g><g transform="translate(-198,-30) scale(1,1)"><rect fill="#ffffff" stroke="none" x="664" y="40" width="282.0830078125" height="39"/></g><g transform="translate(-198,-30) scale(1,1)"><path fill="none" stroke="#000000" d="M 664 40 L 946.0830078125 40 L 946.0830078125 79 L 664 79 L 664 40 Z Z" stroke-miterlimit="10"/></g><g transform="translate(-198,-30) scale(1,1)"><g><path fill="none" stroke="none"/><text fill="#000000" stroke="none" font-family="Arial" font-size="18px" font-style="normal" font-weight="bold" text-decoration="none" x="684.4951171875" y="64.5">Server: EditorActionProcessor</text></g></g><g transform="translate(-198,-30) scale(1,1)"><path fill="none" stroke="#000000" d="M 806.5 80 L 806.5 984" stroke-miterlimit="10" stroke-dasharray="3"/></g><g transform="translate(-198,-30) scale(1,1)"><rect fill="#C0C0C0" stroke="none" x="1055" y="47" width="263" height="39" opacity="0.2"/></g><g transform="translate(-198,-30) scale(1,1)"><rect fill="#ffffff" stroke="none" x="1048" y="40" width="263" height="39"/></g><g transform="translate(-198,-30) scale(1,1)"><path fill="none" stroke="#000000" d="M 1048 40 L 1311 40 L 1311 79 L 1048 79 L 1048 40 Z Z" stroke-miterlimit="10"/></g><g transform="translate(-198,-30) scale(1,1)"><g><path fill="none" stroke="none"/><text fill="#000000" stroke="none" font-family="Arial" font-size="18px" font-style="normal" font-weight="bold" text-decoration="none" x="1092.4619140625" y="64.5">Server: EditorSession</text></g></g><g transform="translate(-198,-30) scale(1,1)"><path fill="none" stroke="#000000" d="M 1180.5 80 L 1180.5 976" stroke-miterlimit="10" stroke-dasharray="3"/></g><g transform="translate(-198,-30) scale(1,1)"><path fill="#ffffff" stroke="none" d="M 472 360 L 621.0908203125 360 L 631.0908203125 370 L 631.0908203125 406 L 472 406 L 472 360"/></g><g transform="translate(-198,-30) scale(1,1)"><path fill="none" stroke="#000000" d="M 472 360 L 621.0908203125 360 L 631.0908203125 370 L 631.0908203125 406 L 472 406 L 472 360 L 472 360" stroke-miterlimit="10"/></g><g transform="translate(-198,-30) scale(1,1)"><path fill="none" stroke="#000000" d="M 621.0908203125 360 L 621.0908203125 370 L 631.0908203125 370 L 621.0908203125 360" stroke-miterlimit="10"/></g><g transform="translate(-198,-30) scale(1,1)"><g><path fill="none" stroke="none"/><text fill="#000000" stroke="none" font-family="Arial" font-size="18px" font-style="normal" font-weight="normal" text-decoration="none" x="477" y="383">{SELECT Action}</text></g></g><g transform="translate(-198,-30) scale(1,1)"><path fill="none" stroke="#000000" d="M 567 359 L 571 352" stroke-miterlimit="10" stroke-dasharray="3"/></g><g transform="translate(-198,-30) scale(1,1)"><path fill="#ffffff" stroke="none" d="M 856 520 L 1095.1259765625 520 L 1105.1259765625 530 L 1105.1259765625 566 L 856 566 L 856 520"/></g><g transform="translate(-198,-30) scale(1,1)"><path fill="none" stroke="#000000" d="M 856 520 L 1095.1259765625 520 L 1105.1259765625 530 L 1105.1259765625 566 L 856 566 L 856 520 L 856 520" stroke-miterlimit="10"/></g><g transform="translate(-198,-30) scale(1,1)"><path fill="none" stroke="#000000" d="M 1095.1259765625 520 L 1095.1259765625 530 L 1105.1259765625 530 L 1095.1259765625 520" stroke-miterlimit="10"/></g><g transform="translate(-198,-30) scale(1,1)"><g><path fill="none" stroke="none"/><text fill="#000000" stroke="none" font-family="Arial" font-size="18px" font-style="normal" font-weight="normal" text-decoration="none" x="861" y="543">{SessionState(Locks)}</text></g></g><g transform="translate(-198,-30) scale(1,1)"><path fill="#ffffff" stroke="none" d="M 848 680 L 1076 680 L 1086 690 L 1086 742 L 848 742 L 848 680"/></g><g transform="translate(-198,-30) scale(1,1)"><path fill="none" stroke="#000000" d="M 848 680 L 1076 680 L 1086 690 L 1086 742 L 848 742 L 848 680 L 848 680" stroke-miterlimit="10"/></g><g transform="translate(-198,-30) scale(1,1)"><path fill="none" stroke="#000000" d="M 1076 680 L 1076 690 L 1086 690 L 1076 680" stroke-miterlimit="10"/></g><g transform="translate(-198,-30) scale(1,1)"><g><path fill="none" stroke="none"/><text fill="#000000" stroke="none" font-family="Arial" font-size="18px" font-style="normal" font-weight="normal" text-decoration="none" x="853" y="703">{SessionState(Locks)</text><text fill="#000000" stroke="none" font-family="Arial" font-size="18px" font-style="normal" font-weight="normal" text-decoration="none" x="853" y="721">+OriginalObject}</text></g></g><g transform="translate(-198,-30) scale(1,1)"><path fill="none" stroke="#000000" d="M 985 519 L 989 496" stroke-miterlimit="10" stroke-dasharray="3"/></g><g transform="translate(-198,-30) scale(1,1)"><path fill="none" stroke="#000000" d="M 980 679 L 993 649" stroke-miterlimit="10" stroke-dasharray="3"/></g><g transform="translate(-198,-30) scale(1,1)"><path fill="none" stroke="#000000" d="M 344 120 L 374 120 L 374 140 L 350 140" stroke-miterlimit="10"/></g><g transform="translate(-198,-30) scale(1,1)"><path fill="#000000" stroke="none" d="M 360.16267485762415 135.790482243984 L 350 140 L 360.16267485762415 144.209517756016"/></g><g transform="translate(-198,-30) scale(1,1)"><path fill="none" stroke="#000000" d="M 360.16267485762415 135.790482243984 L 350 140 L 360.16267485762415 144.209517756016 L 360.16267485762415 135.790482243984" stroke-miterlimit="10"/></g><g transform="translate(-198,-30) scale(1,1)"><g><path fill="none" stroke="none"/><text fill="#000000" stroke="none" font-family="Arial" font-size="18px" font-style="normal" font-weight="normal" text-decoration="none" x="323.5" y="136.5">1 : Editable Object Clicked</text></g></g><g transform="translate(-198,-30) scale(1,1)"><rect fill="#ffffff" stroke="none" x="337" y="140" width="13" height="28"/></g><g transform="translate(-198,-30) scale(1,1)"><path fill="none" stroke="#000000" d="M 337 140 L 350 140 L 350 168 L 337 168 L 337 140 Z Z" stroke-miterlimit="10"/></g><g transform="translate(-198,-30) scale(1,1)"><path fill="none" stroke="#000000" d="M 344 248 L 374 248 L 374 268 L 350 268" stroke-miterlimit="10"/></g><g transform="translate(-198,-30) scale(1,1)"><path fill="#000000" stroke="none" d="M 360.16267485762415 263.790482243984 L 350 268 L 360.16267485762415 272.209517756016"/></g><g transform="translate(-198,-30) scale(1,1)"><path fill="none" stroke="#000000" d="M 360.16267485762415 263.790482243984 L 350 268 L 360.16267485762415 272.209517756016 L 360.16267485762415 263.790482243984" stroke-miterlimit="10"/></g><g transform="translate(-198,-30) scale(1,1)"><g><path fill="none" stroke="none"/><text fill="#000000" stroke="none" font-family="Arial" font-size="18px" font-style="normal" font-weight="normal" text-decoration="none" x="375.5" y="264.5">2 : Edit Enabled</text></g></g><g transform="translate(-198,-30) scale(1,1)"><rect fill="#ffffff" stroke="none" x="337" y="268" width="13" height="28"/></g><g transform="translate(-198,-30) scale(1,1)"><path fill="none" stroke="#000000" d="M 337 268 L 350 268 L 350 296 L 337 296 L 337 268 Z Z" stroke-miterlimit="10"/></g><g transform="translate(-198,-30) scale(1,1)"><path fill="none" stroke="#000000" d="M 344 352 L 799 352" stroke-miterlimit="10"/></g><g transform="translate(-198,-30) scale(1,1)"><path fill="none" stroke="#000000" d="M 788.8373251423759 356.209517756016 L 799 352 L 788.8373251423758 347.790482243984" stroke-miterlimit="10"/></g><g transform="translate(-198,-30) scale(1,1)"><g><path fill="none" stroke="none"/><text fill="#000000" stroke="none" font-family="Arial" font-size="18px" font-style="normal" font-weight="normal" text-decoration="none" x="466.521484375" y="343.5">3 : [Async] LockObject</text></g></g><g transform="translate(-198,-30) scale(1,1)"><rect fill="#ffffff" stroke="none" x="799" y="352" width="13" height="28"/></g><g transform="translate(-198,-30) scale(1,1)"><path fill="none" stroke="#000000" d="M 799 352 L 812 352 L 812 380 L 799 380 L 799 352 Z Z" stroke-miterlimit="10"/></g><g transform="translate(-198,-30) scale(1,1)"><path fill="none" stroke="#000000" d="M 806 445 L 1173 445" stroke-miterlimit="10"/></g><g transform="translate(-198,-30) scale(1,1)"><path fill="#000000" stroke="none" d="M 1162.837325142376 449.209517756016 L 1173 445 L 1162.837325142376 440.790482243984"/></g><g transform="translate(-198,-30) scale(1,1)"><path fill="none" stroke="#000000" d="M 1162.837325142376 449.209517756016 L 1173 445 L 1162.837325142376 440.790482243984 L 1162.837325142376 449.209517756016" stroke-miterlimit="10"/></g><g transform="translate(-198,-30) scale(1,1)"><g><path fill="none" stroke="none"/><text fill="#000000" stroke="none" font-family="Arial" font-size="18px" font-style="normal" font-weight="normal" text-decoration="none" x="892.5" y="443.5">4 : Lock Object For user</text></g></g><g transform="translate(-198,-30) scale(1,1)"><rect fill="#ffffff" stroke="none" x="1173" y="445" width="13" height="54"/></g><g transform="translate(-198,-30) scale(1,1)"><path fill="none" stroke="#000000" d="M 1173 445 L 1186 445 L 1186 499 L 1173 499 L 1173 445 Z Z" stroke-miterlimit="10"/></g><g transform="translate(-198,-30) scale(1,1)"><path fill="none" stroke="#000000" d="M 1186 448 L 1216 448 L 1216 468 L 1193 468" stroke-miterlimit="10"/></g><g transform="translate(-198,-30) scale(1,1)"><path fill="#000000" stroke="none" d="M 1203.162674857624 463.790482243984 L 1193 468 L 1203.162674857624 472.209517756016"/></g><g transform="translate(-198,-30) scale(1,1)"><path fill="none" stroke="#000000" d="M 1203.162674857624 463.790482243984 L 1193 468 L 1203.162674857624 472.209517756016 L 1203.162674857624 463.790482243984" stroke-miterlimit="10"/></g><g transform="translate(-198,-30) scale(1,1)"><g><path fill="none" stroke="none"/><text fill="#000000" stroke="none" font-family="Arial" font-size="18px" font-style="normal" font-weight="normal" text-decoration="none" x="1222.5" y="464.5">5 : Update Locks on Object for User</text></g></g><g transform="translate(-198,-30) scale(1,1)"><rect fill="#ffffff" stroke="none" x="1180" y="468" width="13" height="28"/></g><g transform="translate(-198,-30) scale(1,1)"><path fill="none" stroke="#000000" d="M 1180 468 L 1193 468 L 1193 496 L 1180 496 L 1180 468 Z Z" stroke-miterlimit="10"/></g><g transform="translate(-198,-30) scale(1,1)"><path fill="none" stroke="#000000" d="M 1173 496 L 806 496" stroke-miterlimit="10" stroke-dasharray="3"/></g><g transform="translate(-198,-30) scale(1,1)"><path fill="none" stroke="#000000" d="M 816.1626748576241 491.790482243984 L 806 496 L 816.1626748576241 500.209517756016" stroke-miterlimit="10"/></g><g transform="translate(-198,-30) scale(1,1)"><g><path fill="none" stroke="none"/><text fill="#000000" stroke="none" font-family="Arial" font-size="18px" font-style="normal" font-weight="normal" text-decoration="none" x="941.5" y="514.5">6 : Success</text></g></g><g transform="translate(-198,-30) scale(1,1)"><path fill="none" stroke="#000000" d="M 806 512 L 344 512" stroke-miterlimit="10" stroke-dasharray="3"/></g><g transform="translate(-198,-30) scale(1,1)"><path fill="none" stroke="#000000" d="M 354.16267485762415 507.790482243984 L 344 512 L 354.16267485762415 516.209517756016" stroke-miterlimit="10"/></g><g transform="translate(-198,-30) scale(1,1)"><g><path fill="none" stroke="none"/><text fill="#000000" stroke="none" font-family="Arial" font-size="18px" font-style="normal" font-weight="normal" text-decoration="none" x="425.5" y="503.5">7 : Update SessionState(Locks)</text></g></g><g transform="translate(-198,-30) scale(1,1)"><path fill="none" stroke="#000000" d="M 344 528 L 374 528 L 374 548 L 350 548" stroke-miterlimit="10"/></g><g transform="translate(-198,-30) scale(1,1)"><path fill="#000000" stroke="none" d="M 360.16267485762415 543.790482243984 L 350 548 L 360.16267485762415 552.209517756016"/></g><g transform="translate(-198,-30) scale(1,1)"><path fill="none" stroke="#000000" d="M 360.16267485762415 543.790482243984 L 350 548 L 360.16267485762415 552.209517756016 L 360.16267485762415 543.790482243984" stroke-miterlimit="10"/></g><g transform="translate(-198,-30) scale(1,1)"><g><path fill="none" stroke="none"/><text fill="#000000" stroke="none" font-family="Arial" font-size="18px" font-style="normal" font-weight="normal" text-decoration="none" x="383.5" y="544.5">8 : Continue Edit</text></g></g><g transform="translate(-198,-30) scale(1,1)"><rect fill="#ffffff" stroke="none" x="337" y="548" width="13" height="28"/></g><g transform="translate(-198,-30) scale(1,1)"><path fill="none" stroke="#000000" d="M 337 548 L 350 548 L 350 576 L 337 576 L 337 548 Z Z" stroke-miterlimit="10"/></g><g transform="translate(-198,-30) scale(1,1)"><path fill="none" stroke="#000000" d="M 806 616 L 1173 616" stroke-miterlimit="10"/></g><g transform="translate(-198,-30) scale(1,1)"><path fill="#000000" stroke="none" d="M 1162.837325142376 620.209517756016 L 1173 616 L 1162.837325142376 611.790482243984"/></g><g transform="translate(-198,-30) scale(1,1)"><path fill="none" stroke="#000000" d="M 1162.837325142376 620.209517756016 L 1173 616 L 1162.837325142376 611.790482243984 L 1162.837325142376 620.209517756016" stroke-miterlimit="10"/></g><g transform="translate(-198,-30) scale(1,1)"><g><path fill="none" stroke="none"/><text fill="#000000" stroke="none" font-family="Arial" font-size="18px" font-style="normal" font-weight="normal" text-decoration="none" x="925.50537109375" y="614.5">9 : Get Request</text></g></g><g transform="translate(-198,-30) scale(1,1)"><rect fill="#ffffff" stroke="none" x="1173" y="616" width="13" height="54"/></g><g transform="translate(-198,-30) scale(1,1)"><path fill="none" stroke="#000000" d="M 1173 616 L 1186 616 L 1186 670 L 1173 670 L 1173 616 Z Z" stroke-miterlimit="10"/></g><g transform="translate(-198,-30) scale(1,1)"><path fill="none" stroke="#000000" d="M 1186 616 L 1216 616 L 1216 636 L 1193 636" stroke-miterlimit="10"/></g><g transform="translate(-198,-30) scale(1,1)"><path fill="#000000" stroke="none" d="M 1203.162674857624 631.790482243984 L 1193 636 L 1203.162674857624 640.209517756016"/></g><g transform="translate(-198,-30) scale(1,1)"><path fill="none" stroke="#000000" d="M 1203.162674857624 631.790482243984 L 1193 636 L 1203.162674857624 640.209517756016 L 1203.162674857624 631.790482243984" stroke-miterlimit="10"/></g><g transform="translate(-198,-30) scale(1,1)"><g><path fill="none" stroke="none"/><text fill="#000000" stroke="none" font-family="Arial" font-size="18px" font-style="normal" font-weight="normal" text-decoration="none" x="1224.41162109375" y="632.5">10 : Generate Restoration Response</text></g></g><g transform="translate(-198,-30) scale(1,1)"><rect fill="#ffffff" stroke="none" x="1180" y="636" width="13" height="31"/></g><g transform="translate(-198,-30) scale(1,1)"><path fill="none" stroke="#000000" d="M 1180 636 L 1193 636 L 1193 667 L 1180 667 L 1180 636 Z Z" stroke-miterlimit="10"/></g><g transform="translate(-198,-30) scale(1,1)"><path fill="none" stroke="#000000" d="M 1180 649 L 806 649" stroke-miterlimit="10" stroke-dasharray="3"/></g><g transform="translate(-198,-30) scale(1,1)"><path fill="none" stroke="#000000" d="M 816.1626748576241 644.790482243984 L 806 649 L 816.1626748576241 653.209517756016" stroke-miterlimit="10"/></g><g transform="translate(-198,-30) scale(1,1)"><g><path fill="none" stroke="none"/><text fill="#000000" stroke="none" font-family="Arial" font-size="18px" font-style="normal" font-weight="normal" text-decoration="none" x="933.16796875" y="672.5">11 : Response</text></g></g><g transform="translate(-198,-30) scale(1,1)"><path fill="none" stroke="#000000" d="M 806 664 L 344 664" stroke-miterlimit="10" stroke-dasharray="3"/></g><g transform="translate(-198,-30) scale(1,1)"><path fill="none" stroke="#000000" d="M 354.16267485762415 659.790482243984 L 344 664 L 354.16267485762415 668.209517756016" stroke-miterlimit="10"/></g><g transform="translate(-198,-30) scale(1,1)"><g><path fill="none" stroke="none"/><text fill="#000000" stroke="none" font-family="Arial" font-size="18px" font-style="normal" font-weight="normal" text-decoration="none" x="396.4990234375" y="655.5">12 : {SessionState,Locks, Original Object}</text></g></g><g transform="translate(-198,-30) scale(1,1)"><path fill="none" stroke="#000000" d="M 344 696 L 374 696 L 374 716 L 350 716" stroke-miterlimit="10"/></g><g transform="translate(-198,-30) scale(1,1)"><path fill="#000000" stroke="none" d="M 360.16267485762415 711.790482243984 L 350 716 L 360.16267485762415 720.209517756016"/></g><g transform="translate(-198,-30) scale(1,1)"><path fill="none" stroke="#000000" d="M 360.16267485762415 711.790482243984 L 350 716 L 360.16267485762415 720.209517756016 L 360.16267485762415 711.790482243984" stroke-miterlimit="10"/></g><g transform="translate(-198,-30) scale(1,1)"><g><path fill="none" stroke="none"/><text fill="#000000" stroke="none" font-family="Arial" font-size="18px" font-style="normal" font-weight="normal" text-decoration="none" x="374.5" y="712.5">13 : Interrupt Edit</text></g></g><g transform="translate(-198,-30) scale(1,1)"><rect fill="#ffffff" stroke="none" x="337" y="716" width="13" height="28"/></g><g transform="translate(-198,-30) scale(1,1)"><path fill="none" stroke="#000000" d="M 337 716 L 350 716 L 350 744 L 337 744 L 337 716 Z Z" stroke-miterlimit="10"/></g><g transform="translate(-198,-30) scale(1,1)"><path fill="none" stroke="#000000" d="M 344 752 L 374 752 L 374 772 L 350 772" stroke-miterlimit="10"/></g><g transform="translate(-198,-30) scale(1,1)"><path fill="#000000" stroke="none" d="M 360.16267485762415 767.790482243984 L 350 772 L 360.16267485762415 776.209517756016"/></g><g transform="translate(-198,-30) scale(1,1)"><path fill="none" stroke="#000000" d="M 360.16267485762415 767.790482243984 L 350 772 L 360.16267485762415 776.209517756016 L 360.16267485762415 767.790482243984" stroke-miterlimit="10"/></g><g transform="translate(-198,-30) scale(1,1)"><g><path fill="none" stroke="none"/><text fill="#000000" stroke="none" font-family="Arial" font-size="18px" font-style="normal" font-weight="normal" text-decoration="none" x="378.5361328125" y="768.5">14 : Restore Object</text></g></g><g transform="translate(-198,-30) scale(1,1)"><rect fill="#ffffff" stroke="none" x="337" y="772" width="13" height="28"/></g><g transform="translate(-198,-30) scale(1,1)"><path fill="none" stroke="#000000" d="M 337 772 L 350 772 L 350 800 L 337 800 L 337 772 Z Z" stroke-miterlimit="10"/></g><g transform="translate(-198,-30) scale(1,1)"><path fill="none" stroke="#000000" d="M 344 888 L 374 888 L 374 908 L 350 908" stroke-miterlimit="10"/></g><g transform="translate(-198,-30) scale(1,1)"><path fill="#000000" stroke="none" d="M 360.16267485762415 903.790482243984 L 350 908 L 360.16267485762415 912.209517756016"/></g><g transform="translate(-198,-30) scale(1,1)"><path fill="none" stroke="#000000" d="M 360.16267485762415 903.790482243984 L 350 908 L 360.16267485762415 912.209517756016 L 360.16267485762415 903.790482243984" stroke-miterlimit="10"/></g><g transform="translate(-198,-30) scale(1,1)"><g><path fill="none" stroke="none"/><text fill="#000000" stroke="none" font-family="Arial" font-size="18px" font-style="normal" font-weight="normal" text-decoration="none" x="370.5" y="904.5">15 : Edit Blocked</text></g></g><g transform="translate(-198,-30) scale(1,1)"><rect fill="#ffffff" stroke="none" x="337" y="908" width="13" height="28"/></g><g transform="translate(-198,-30) scale(1,1)"><path fill="none" stroke="#000000" d="M 337 908 L 350 908 L 350 936 L 337 936 L 337 908 Z Z" stroke-miterlimit="10"/></g><g transform="translate(-198,-30) scale(1,1)"><path fill="none" stroke="#000000" d="M 232 176 L 1488 176 L 1488 1033 L 232 1033 L 232 176" stroke-miterlimit="10"/></g><g transform="translate(-198,-30) scale(1,1)"><path fill="#ffffff" stroke="none" d="M 232 176 L 232 203 L 426.400390625 203 L 439.900390625 189.5 L 439.900390625 176 L 232 176"/></g><g transform="translate(-198,-30) scale(1,1)"><path fill="none" stroke="#000000" d="M 232 176 L 232 203 L 426.400390625 203 L 439.900390625 189.5 L 439.900390625 176 L 232 176 L 232 176" stroke-miterlimit="10"/></g><g transform="translate(-198,-30) scale(1,1)"><g><path fill="none" stroke="none"/><text fill="#000000" stroke="none" font-family="Arial" font-size="18px" font-style="normal" font-weight="normal" text-decoration="none" x="272.021484375" y="198.5">User Wants to Edit</text></g></g><g transform="translate(-198,-30) scale(1,1)"><g><path fill="none" stroke="none"/><text fill="#000000" stroke="none" font-family="Arial" font-size="18px" font-style="normal" font-weight="bold" text-decoration="none" x="237" y="198.5">seq</text></g></g><g transform="translate(-198,-30) scale(1,1)"><g><path fill="none" stroke="none"/><text fill="#000000" stroke="none" font-family="Arial" font-size="18px" font-style="normal" font-weight="normal" text-decoration="none" x="251.5" y="236.5">[not Locked on Client Side]</text></g></g><g transform="translate(-198,-30) scale(1,1)"><path fill="none" stroke="#000000" d="M 232 849 L 1488 849" stroke-miterlimit="10" stroke-dasharray="10,3"/></g><g transform="translate(-198,-30) scale(1,1)"><g><path fill="none" stroke="none"/><text fill="#000000" stroke="none" font-family="Arial" font-size="18px" font-style="normal" font-weight="normal" text-decoration="none" x="251.5" y="881.5">[Locked on Client Side]</text></g></g><g transform="translate(-198,-30) scale(1,1)"><path fill="none" stroke="#000000" d="M 256 416 L 1488 416 L 1488 824 L 256 824 L 256 416" stroke-miterlimit="10"/></g><g transform="translate(-198,-30) scale(1,1)"><path fill="#ffffff" stroke="none" d="M 256 416 L 256 443 L 665.1962890625 443 L 678.6962890625 429.5 L 678.6962890625 416 L 256 416"/></g><g transform="translate(-198,-30) scale(1,1)"><path fill="none" stroke="#000000" d="M 256 416 L 256 443 L 665.1962890625 443 L 678.6962890625 429.5 L 678.6962890625 416 L 256 416 L 256 416" stroke-miterlimit="10"/></g><g transform="translate(-198,-30) scale(1,1)"><g><path fill="none" stroke="none"/><text fill="#000000" stroke="none" font-family="Arial" font-size="18px" font-style="normal" font-weight="normal" text-decoration="none" x="296.021484375" y="438.5">[Async] Locks Are checked on the server side</text></g></g><g transform="translate(-198,-30) scale(1,1)"><g><path fill="none" stroke="none"/><text fill="#000000" stroke="none" font-family="Arial" font-size="18px" font-style="normal" font-weight="bold" text-decoration="none" x="261" y="438.5">seq</text></g></g><g transform="translate(-198,-30) scale(1,1)"><g><path fill="none" stroke="none"/><text fill="#000000" stroke="none" font-family="Arial" font-size="18px" font-style="normal" font-weight="normal" text-decoration="none" x="275.5" y="476.5">[Object is Not Locked]</text></g></g><g transform="translate(-198,-30) scale(1,1)"><path fill="none" stroke="#000000" d="M 256 585 L 1488 585" stroke-miterlimit="10" stroke-dasharray="10,3"/></g><g transform="translate(-198,-30) scale(1,1)"><g><path fill="none" stroke="none"/><text fill="#000000" stroke="none" font-family="Arial" font-size="18px" font-style="normal" font-weight="normal" text-decoration="none" x="275.5" y="617.5">[Locks Are Different]</text></g></g></g></svg>