<svg version="1.1" xmlns="http://www.w3.org/2000/svg" xmlns:xlink="http://www.w3.org/1999/xlink" width="1818.7919921875" height="1597"><defs/><g><g transform="translate(-254,-134) scale(1,1)"><rect fill="#C0C0C0" stroke="none" x="895" y="151" width="747.740234375" height="277" opacity="0.2"/></g><g transform="translate(-254,-134) scale(1,1)"><rect fill="#ffffff" stroke="none" x="888" y="144" width="747.740234375" height="277"/></g><g transform="translate(-254,-134) scale(1,1)"><path fill="none" stroke="#000000" d="M 888 144 L 1635.740234375 144 L 1635.740234375 421 L 888 421 L 888 144 Z Z" stroke-miterlimit="10"/></g><g transform="translate(-254,-134) scale(1,1)"><path fill="none" stroke="#000000" d="M 888 182 L 1635.740234375 182" stroke-miterlimit="10"/></g><g transform="translate(-254,-134) scale(1,1)"><path fill="none" stroke="#000000" d="M 888 330 L 1635.740234375 330" stroke-miterlimit="10"/></g><g transform="translate(-254,-134) scale(1,1)"><g><path fill="none" stroke="none"/><text fill="#000000" stroke="none" font-family="Arial" font-size="26px" font-style="normal" font-weight="bold" text-decoration="none" x="1146.25390625" y="176.5">EditorActionHandler</text></g></g><g transform="translate(-254,-134) scale(1,1)"><g><path fill="none" stroke="none"/><text fill="#000000" stroke="none" font-family="Arial" font-size="26px" font-style="normal" font-weight="normal" text-decoration="none" x="893" y="212.5">+sessionService: SocketSessionService</text></g></g><g transform="translate(-254,-134) scale(1,1)"><g><path fill="none" stroke="none"/><text fill="#000000" stroke="none" font-family="Arial" font-size="26px" font-style="normal" font-weight="normal" text-decoration="none" x="893" y="240.5">+socketSecurityService: SocketSecurityService</text></g></g><g transform="translate(-254,-134) scale(1,1)"><g><path fill="none" stroke="none"/><text fill="#000000" stroke="none" font-family="Arial" font-size="26px" font-style="normal" font-weight="normal" text-decoration="none" x="893" y="268.5">+threadManager: ThreadManager</text></g></g><g transform="translate(-254,-134) scale(1,1)"><g><path fill="none" stroke="none"/><text fill="#000000" stroke="none" font-family="Arial" font-size="26px" font-style="normal" font-weight="normal" text-decoration="none" x="893" y="296.5">+initMap: Map&lt;WebSocketSession&gt;</text></g></g><g transform="translate(-254,-134) scale(1,1)"><g><path fill="none" stroke="none"/><text fill="#000000" stroke="none" font-family="Arial" font-size="26px" font-style="normal" font-weight="normal" text-decoration="none" x="893" y="324.5">+mapper: ObjectMapper</text></g></g><g transform="translate(-254,-134) scale(1,1)"><g><path fill="none" stroke="none"/><text fill="#000000" stroke="none" font-family="Arial" font-size="26px" font-style="normal" font-weight="normal" text-decoration="none" x="893" y="360.5">+handleTextMessage(WebSocketSession, TextMessage): void</text></g></g><g transform="translate(-254,-134) scale(1,1)"><g><path fill="none" stroke="none"/><text fill="#000000" stroke="none" font-family="Arial" font-size="26px" font-style="normal" font-weight="normal" text-decoration="none" x="893" y="388.5">+afterConnnectionEstablished(WebSocketSession): void</text></g></g><g transform="translate(-254,-134) scale(1,1)"><g><path fill="none" stroke="none"/><text fill="#000000" stroke="none" font-family="Arial" font-size="26px" font-style="normal" font-weight="normal" text-decoration="none" x="893" y="416.5">+afterConnectionClosed(WebSocketSession, CloseStatus): void</text></g></g><g transform="translate(-254,-134) scale(1,1)"><rect fill="#C0C0C0" stroke="none" x="679" y="415" width="173.708984375" height="95" opacity="0.2"/></g><g transform="translate(-254,-134) scale(1,1)"><rect fill="#ffffff" stroke="none" x="672" y="408" width="173.708984375" height="95"/></g><g transform="translate(-254,-134) scale(1,1)"><path fill="none" stroke="#000000" d="M 672 408 L 845.708984375 408 L 845.708984375 503 L 672 503 L 672 408 Z Z" stroke-miterlimit="10"/></g><g transform="translate(-254,-134) scale(1,1)"><path fill="none" stroke="#000000" d="M 672 446 L 845.708984375 446" stroke-miterlimit="10"/></g><g transform="translate(-254,-134) scale(1,1)"><path fill="none" stroke="#000000" d="M 672 456 L 845.708984375 456" stroke-miterlimit="10"/></g><g transform="translate(-254,-134) scale(1,1)"><g><path fill="none" stroke="none"/><text fill="#000000" stroke="none" font-family="Arial" font-size="26px" font-style="normal" font-weight="bold" text-decoration="none" x="682.263671875" y="440.5">Client Socket</text></g></g><g transform="translate(-254,-134) scale(1,1)"><path fill="none" stroke="#ff0000" d="M 847 424 L 887 411" stroke-miterlimit="10"/></g><g transform="translate(-254,-134) scale(1,1)"><path fill="none" stroke="#ff0000" d="M 878.6360532906062 418.1445360550858 L 887 411 L 876.0338466713218 410.1377464572877" stroke-miterlimit="10"/></g><g transform="translate(-254,-134) scale(1,1)"><g><path fill="none" stroke="none"/><text fill="#000000" stroke="none" font-family="Arial" font-size="26px" font-style="normal" font-weight="normal" text-decoration="none" x="541.5" y="384.5">+handleTextMessage[action]</text></g></g><g transform="translate(-254,-134) scale(1,1)"><rect fill="#C0C0C0" stroke="none" x="959" y="503" width="732.302734375" height="195" opacity="0.2"/></g><g transform="translate(-254,-134) scale(1,1)"><rect fill="#ffffff" stroke="none" x="952" y="496" width="732.302734375" height="195"/></g><g transform="translate(-254,-134) scale(1,1)"><path fill="none" stroke="#000000" d="M 952 496 L 1684.302734375 496 L 1684.302734375 691 L 952 691 L 952 496 Z Z" stroke-miterlimit="10"/></g><g transform="translate(-254,-134) scale(1,1)"><path fill="none" stroke="#000000" d="M 952 534 L 1684.302734375 534" stroke-miterlimit="10"/></g><g transform="translate(-254,-134) scale(1,1)"><path fill="none" stroke="#000000" d="M 952 682 L 1684.302734375 682" stroke-miterlimit="10"/></g><g transform="translate(-254,-134) scale(1,1)"><g><path fill="none" stroke="none"/><text fill="#000000" stroke="none" font-family="Arial" font-size="26px" font-style="normal" font-weight="bold" text-decoration="none" x="1185.91064453125" y="528.5">SocketThreadManager</text></g></g><g transform="translate(-254,-134) scale(1,1)"><g><path fill="none" stroke="none"/><text fill="#000000" stroke="none" font-family="Arial" font-size="26px" font-style="normal" font-weight="normal" text-decoration="none" x="957" y="564.5">+actionQueue: BlockingQueue&lt;EditorAction&gt;</text></g></g><g transform="translate(-254,-134) scale(1,1)"><g><path fill="none" stroke="none"/><text fill="#000000" stroke="none" font-family="Arial" font-size="26px" font-style="normal" font-weight="normal" text-decoration="none" x="957" y="592.5">+taskExecutorEditorActionProcessor: TaskExecutor</text></g></g><g transform="translate(-254,-134) scale(1,1)"><g><path fill="none" stroke="none"/><text fill="#000000" stroke="none" font-family="Arial" font-size="26px" font-style="normal" font-weight="normal" text-decoration="none" x="957" y="620.5">+taskExecutorSessionStateResponseProcessor: TaskExecutor</text></g></g><g transform="translate(-254,-134) scale(1,1)"><g><path fill="none" stroke="none"/><text fill="#000000" stroke="none" font-family="Arial" font-size="26px" font-style="normal" font-weight="normal" text-decoration="none" x="957" y="648.5">+taskExecutorActionResponseProcessor: TaskExecutor</text></g></g><g transform="translate(-254,-134) scale(1,1)"><g><path fill="none" stroke="none"/><text fill="#000000" stroke="none" font-family="Arial" font-size="26px" font-style="normal" font-weight="normal" text-decoration="none" x="957" y="676.5">+taskExecutorNestedEditorActionProcessor: TaskExecutor</text></g></g><g transform="translate(-254,-134) scale(1,1)"><path fill="none" stroke="#ff0000" d="M 1287 422 L 1300 495" stroke-miterlimit="10"/></g><g transform="translate(-254,-134) scale(1,1)"><path fill="none" stroke="#ff0000" d="M 1294.0739250095924 485.73276550377267 L 1300 495 L 1302.3625565435912 484.25670783333453" stroke-miterlimit="10"/></g><g transform="translate(-254,-134) scale(1,1)"><g><path fill="none" stroke="none"/><text fill="#000000" stroke="none" font-family="Arial" font-size="26px" font-style="normal" font-weight="normal" text-decoration="none" x="1302.5" y="464.5">+postAction[action]</text></g></g><g transform="translate(-254,-134) scale(1,1)"><rect fill="#C0C0C0" stroke="none" x="399" y="759" width="963.7001953125" height="167" opacity="0.2"/></g><g transform="translate(-254,-134) scale(1,1)"><rect fill="#ffffff" stroke="none" x="392" y="752" width="963.7001953125" height="167"/></g><g transform="translate(-254,-134) scale(1,1)"><path fill="none" stroke="#000000" d="M 392 752 L 1355.7001953125 752 L 1355.7001953125 919 L 392 919 L 392 752 Z Z" stroke-miterlimit="10"/></g><g transform="translate(-254,-134) scale(1,1)"><path fill="none" stroke="#000000" d="M 392 790 L 1355.7001953125 790" stroke-miterlimit="10"/></g><g transform="translate(-254,-134) scale(1,1)"><path fill="none" stroke="#000000" d="M 392 800 L 1355.7001953125 800" stroke-miterlimit="10"/></g><g transform="translate(-254,-134) scale(1,1)"><g><path fill="none" stroke="none"/><text fill="#000000" stroke="none" font-family="Arial" font-size="26px" font-style="normal" font-weight="bold" text-decoration="none" x="783.51025390625" y="784.5">QueueManager</text></g></g><g transform="translate(-254,-134) scale(1,1)"><g><path fill="none" stroke="none"/><text fill="#000000" stroke="none" font-family="Arial" font-size="26px" font-style="normal" font-weight="normal" text-decoration="none" x="397" y="830.5">+getActionQueue(): BlockingQueue&lt;EditorAction&gt;                                               {1}</text></g></g><g transform="translate(-254,-134) scale(1,1)"><g><path fill="none" stroke="none"/><text fill="#000000" stroke="none" font-family="Arial" font-size="26px" font-style="normal" font-weight="normal" text-decoration="none" x="397" y="858.5">+getSessionStateResponseQueue(): BlockingQueue&lt;SessionStateResponse&gt;  {2}</text></g></g><g transform="translate(-254,-134) scale(1,1)"><g><path fill="none" stroke="none"/><text fill="#000000" stroke="none" font-family="Arial" font-size="26px" font-style="normal" font-weight="normal" text-decoration="none" x="397" y="886.5">+getActionResponseQueue(): BlockingQueue&lt;EditorActionResponse&gt;               {2}</text></g></g><g transform="translate(-254,-134) scale(1,1)"><g><path fill="none" stroke="none"/><text fill="#000000" stroke="none" font-family="Arial" font-size="26px" font-style="normal" font-weight="normal" text-decoration="none" x="397" y="914.5">+getNestedActionQueue(): BlockingQueue&lt;EditorAction&gt;                                    {3}</text></g></g><g transform="translate(-254,-134) scale(1,1)"><path fill="none" stroke="#000000" d="M 1136 692 L 1027 751" stroke-miterlimit="10" stroke-dasharray="3"/></g><g transform="translate(-254,-134) scale(1,1)"><path fill="none" stroke="#000000" d="M 1033.9335605781475 742.4603432323565 L 1027 751 L 1037.941216911982 749.8643184931695" stroke-miterlimit="10"/></g><g transform="translate(-254,-134) scale(1,1)"><g><path fill="none" stroke="none"/><text fill="#000000" stroke="none" font-family="Arial" font-size="26px" font-style="normal" font-weight="normal" text-decoration="none" x="894.5" y="727.5">+actionQueue</text></g></g><g transform="translate(-254,-134) scale(1,1)"><rect fill="#C0C0C0" stroke="none" x="1191" y="975" width="859.6240234375" height="193" opacity="0.2"/></g><g transform="translate(-254,-134) scale(1,1)"><rect fill="#ffffff" stroke="none" x="1184" y="968" width="859.6240234375" height="193"/></g><g transform="translate(-254,-134) scale(1,1)"><path fill="none" stroke="#000000" d="M 1184 968 L 2043.6240234375 968 L 2043.6240234375 1161 L 1184 1161 L 1184 968 Z Z" stroke-miterlimit="10"/></g><g transform="translate(-254,-134) scale(1,1)"><path fill="none" stroke="#000000" d="M 1184 1006 L 2043.6240234375 1006" stroke-miterlimit="10"/></g><g transform="translate(-254,-134) scale(1,1)"><path fill="none" stroke="#000000" d="M 1184 1126 L 2043.6240234375 1126" stroke-miterlimit="10"/></g><g transform="translate(-254,-134) scale(1,1)"><g><path fill="none" stroke="none"/><text fill="#000000" stroke="none" font-family="Arial" font-size="26px" font-style="normal" font-weight="bold" text-decoration="none" x="1424.48681640625" y="1000.5">EditorActionProcessor {Thread1}</text></g></g><g transform="translate(-254,-134) scale(1,1)"><g><path fill="none" stroke="none"/><text fill="#000000" stroke="none" font-family="Arial" font-size="26px" font-style="normal" font-weight="normal" text-decoration="none" x="1189" y="1036.5">+actionQueue: BlockingQueue&lt;EditorAction&gt;</text></g></g><g transform="translate(-254,-134) scale(1,1)"><g><path fill="none" stroke="none"/><text fill="#000000" stroke="none" font-family="Arial" font-size="26px" font-style="normal" font-weight="normal" text-decoration="none" x="1189" y="1064.5">+service: SocketSessionService</text></g></g><g transform="translate(-254,-134) scale(1,1)"><g><path fill="none" stroke="none"/><text fill="#000000" stroke="none" font-family="Arial" font-size="26px" font-style="normal" font-weight="normal" text-decoration="none" x="1189" y="1092.5">+sessionStateResponseQueue: BlockingQueue&lt;SessionStateResponse&gt;</text></g></g><g transform="translate(-254,-134) scale(1,1)"><g><path fill="none" stroke="none"/><text fill="#000000" stroke="none" font-family="Arial" font-size="26px" font-style="normal" font-weight="normal" text-decoration="none" x="1189" y="1120.5">+actionResponseQueue: BlockingQueue&lt;EditorActionResponse&gt;</text></g></g><g transform="translate(-254,-134) scale(1,1)"><g><path fill="none" stroke="none"/><text fill="#000000" stroke="none" font-family="Arial" font-size="26px" font-style="normal" font-weight="normal" text-decoration="none" x="1189" y="1156.5">+run(): void</text></g></g><g transform="translate(-254,-134) scale(1,1)"><path fill="none" stroke="#ff0000" d="M 1616 968 L 1616 944 L 1808 944 L 1808 968" stroke-miterlimit="10"/></g><g transform="translate(-254,-134) scale(1,1)"><path fill="none" stroke="#ff0000" d="M 1803.7904822439841 957.8373251423759 L 1808 968 L 1812.2095177560159 957.8373251423759" stroke-miterlimit="10"/></g><g transform="translate(-254,-134) scale(1,1)"><g><path fill="none" stroke="none"/><text fill="#000000" stroke="none" font-family="Arial" font-size="26px" font-style="normal" font-weight="normal" text-decoration="none" x="1581.5" y="935.5">+actionQueue.take[ ]</text></g></g><g transform="translate(-254,-134) scale(1,1)"><rect fill="#C0C0C0" stroke="none" x="1335" y="1255" width="605.12109375" height="208" opacity="0.2"/></g><g transform="translate(-254,-134) scale(1,1)"><rect fill="#ffffff" stroke="none" x="1328" y="1248" width="605.12109375" height="208"/></g><g transform="translate(-254,-134) scale(1,1)"><path fill="none" stroke="#000000" d="M 1328 1248 L 1933.12109375 1248 L 1933.12109375 1456 L 1328 1456 L 1328 1248 Z Z" stroke-miterlimit="10"/></g><g transform="translate(-254,-134) scale(1,1)"><path fill="none" stroke="#000000" d="M 1328 1286 L 1933.12109375 1286" stroke-miterlimit="10"/></g><g transform="translate(-254,-134) scale(1,1)"><path fill="none" stroke="#000000" d="M 1328 1350 L 1933.12109375 1350" stroke-miterlimit="10"/></g><g transform="translate(-254,-134) scale(1,1)"><g><path fill="none" stroke="none"/><text fill="#000000" stroke="none" font-family="Arial" font-size="26px" font-style="normal" font-weight="bold" text-decoration="none" x="1501.220703125" y="1280.5">SocketSessionService</text></g></g><g transform="translate(-254,-134) scale(1,1)"><g><path fill="none" stroke="none"/><text fill="#000000" stroke="none" font-family="Arial" font-size="26px" font-style="normal" font-weight="normal" text-decoration="none" x="1333" y="1316.5">+sessions: List&lt;EditorSession&gt;</text></g></g><g transform="translate(-254,-134) scale(1,1)"><g><path fill="none" stroke="none"/><text fill="#000000" stroke="none" font-family="Arial" font-size="26px" font-style="normal" font-weight="normal" text-decoration="none" x="1333" y="1344.5">+...</text></g></g><g transform="translate(-254,-134) scale(1,1)"><g><path fill="none" stroke="none"/><text fill="#000000" stroke="none" font-family="Arial" font-size="26px" font-style="normal" font-weight="normal" text-decoration="none" x="1333" y="1380.5">+tokenToSession(session_jwt string): EditorSession</text></g></g><g transform="translate(-254,-134) scale(1,1)"><g><path fill="none" stroke="none"/><text fill="#000000" stroke="none" font-family="Arial" font-size="26px" font-style="normal" font-weight="normal" text-decoration="none" x="1333" y="1408.5">+...(...)</text></g></g><g transform="translate(-254,-134) scale(1,1)"><path fill="none" stroke="#ff0000" d="M 1619 1162 L 1624 1247" stroke-miterlimit="10"/></g><g transform="translate(-254,-134) scale(1,1)"><path fill="none" stroke="#ff0000" d="M 1619.200973484669 1237.1020535207979 L 1624 1247 L 1627.605480883181 1236.6076707326501" stroke-miterlimit="10"/></g><g transform="translate(-254,-134) scale(1,1)"><g><path fill="none" stroke="none"/><text fill="#000000" stroke="none" font-family="Arial" font-size="26px" font-style="normal" font-weight="normal" text-decoration="none" x="1562.5" y="1153.5">+tokenToSession[ action.getSession_jwt[ ] ]</text></g></g><g transform="translate(-254,-134) scale(1,1)"><rect fill="#C0C0C0" stroke="none" x="327" y="1063" width="767.11328125" height="87" opacity="0.2"/></g><g transform="translate(-254,-134) scale(1,1)"><rect fill="#ffffff" stroke="none" x="320" y="1056" width="767.11328125" height="87"/></g><g transform="translate(-254,-134) scale(1,1)"><path fill="none" stroke="#000000" d="M 320 1056 L 1087.11328125 1056 L 1087.11328125 1143 L 320 1143 L 320 1056 Z Z" stroke-miterlimit="10"/></g><g transform="translate(-254,-134) scale(1,1)"><path fill="none" stroke="#000000" d="M 320 1094 L 1087.11328125 1094" stroke-miterlimit="10"/></g><g transform="translate(-254,-134) scale(1,1)"><path fill="none" stroke="#000000" d="M 320 1130 L 1087.11328125 1130" stroke-miterlimit="10"/></g><g transform="translate(-254,-134) scale(1,1)"><g><path fill="none" stroke="none"/><text fill="#000000" stroke="none" font-family="Arial" font-size="26px" font-style="normal" font-weight="bold" text-decoration="none" x="489.6533203125" y="1088.5">ActionResponseProcessor {Thread2}</text></g></g><g transform="translate(-254,-134) scale(1,1)"><g><path fill="none" stroke="none"/><text fill="#000000" stroke="none" font-family="Arial" font-size="26px" font-style="normal" font-weight="normal" text-decoration="none" x="325" y="1124.5">+actionResponseQueue: BlockingQueue&lt;EditorActionResponse&gt;</text></g></g><g transform="translate(-254,-134) scale(1,1)"><rect fill="#C0C0C0" stroke="none" x="303" y="1287" width="767.1259765625" height="95" opacity="0.2"/></g><g transform="translate(-254,-134) scale(1,1)"><rect fill="#ffffff" stroke="none" x="296" y="1280" width="767.1259765625" height="95"/></g><g transform="translate(-254,-134) scale(1,1)"><path fill="none" stroke="#000000" d="M 296 1280 L 1063.1259765625 1280 L 1063.1259765625 1375 L 296 1375 L 296 1280 Z Z" stroke-miterlimit="10"/></g><g transform="translate(-254,-134) scale(1,1)"><path fill="none" stroke="#000000" d="M 296 1318 L 1063.1259765625 1318" stroke-miterlimit="10"/></g><g transform="translate(-254,-134) scale(1,1)"><path fill="none" stroke="#000000" d="M 296 1354 L 1063.1259765625 1354" stroke-miterlimit="10"/></g><g transform="translate(-254,-134) scale(1,1)"><g><path fill="none" stroke="none"/><text fill="#000000" stroke="none" font-family="Arial" font-size="26px" font-style="normal" font-weight="bold" text-decoration="none" x="428.798828125" y="1312.5">SessionStateResponseProcessor{Thread3}</text></g></g><g transform="translate(-254,-134) scale(1,1)"><g><path fill="none" stroke="none"/><text fill="#000000" stroke="none" font-family="Arial" font-size="26px" font-style="normal" font-weight="normal" text-decoration="none" x="301" y="1348.5">+stateResponseQueue: BlockingQueue&lt;SessionStateResponse&gt;</text></g></g><g transform="translate(-254,-134) scale(1,1)"><path fill="none" stroke="#00ad00" d="M 1555 1247 L 1504 1176 L 1518 1162" stroke-miterlimit="10"/></g><g transform="translate(-254,-134) scale(1,1)"><path fill="none" stroke="#00ad00" d="M 1513.7904822439841 1172.162674857624 L 1518 1162 L 1507.837325142376 1166.2095177560159" stroke-miterlimit="10"/></g><g transform="translate(-254,-134) scale(1,1)"><path fill="none" stroke="#00ad00" d="M 1265 1162 L 849 1279" stroke-miterlimit="10" stroke-dasharray="3"/></g><g transform="translate(-254,-134) scale(1,1)"><path fill="none" stroke="#00ad00" d="M 857.64340019277 1272.1962045072162 L 849 1279 L 859.9228168195706 1280.3007969580628" stroke-miterlimit="10"/></g><g transform="translate(-254,-134) scale(1,1)"><g><path fill="none" stroke="none"/><text fill="#000000" stroke="none" font-family="Arial" font-size="26px" font-style="normal" font-weight="normal" text-decoration="none" x="999.48974609375" y="1223.5">+add{2}</text></g></g><g transform="translate(-254,-134) scale(1,1)"><path fill="none" stroke="#00ad00" d="M 1183 1081 L 1088 1084" stroke-miterlimit="10" stroke-dasharray="3"/></g><g transform="translate(-254,-134) scale(1,1)"><path fill="none" stroke="#00ad00" d="M 1098.0247454754513 1079.4718129287298 L 1088 1084 L 1098.2904772899371 1087.8866537207844" stroke-miterlimit="10"/></g><g transform="translate(-254,-134) scale(1,1)"><g><path fill="none" stroke="none"/><text fill="#000000" stroke="none" font-family="Arial" font-size="26px" font-style="normal" font-weight="normal" text-decoration="none" x="1068.51708984375" y="1047.5">+add{2}</text></g></g><g transform="translate(-254,-134) scale(1,1)"><path fill="none" stroke="#000000" d="M 731 1055 L 818 920" stroke-miterlimit="10" stroke-dasharray="3"/></g><g transform="translate(-254,-134) scale(1,1)"><path fill="none" stroke="#000000" d="M 816.0332641728105 930.8227515071745 L 818 920 L 808.9564667779716 926.2621487416118" stroke-miterlimit="10"/></g><g transform="translate(-254,-134) scale(1,1)"><g><path fill="none" stroke="none"/><text fill="#000000" stroke="none" font-family="Arial" font-size="26px" font-style="normal" font-weight="normal" text-decoration="none" x="725.5" y="959.5">+actionResponseQueue</text></g></g><g transform="translate(-254,-134) scale(1,1)"><path fill="none" stroke="#000000" d="M 519 1279 L 416 1248 L 416 1024 L 667 920" stroke-miterlimit="10" stroke-dasharray="3"/></g><g transform="translate(-254,-134) scale(1,1)"><path fill="none" stroke="#000000" d="M 659.222682302842 927.7790313945551 L 667 920 L 656.0000000667445 920.0012117670504" stroke-miterlimit="10"/></g><g transform="translate(-254,-134) scale(1,1)"><g><path fill="none" stroke="none"/><text fill="#000000" stroke="none" font-family="Arial" font-size="26px" font-style="normal" font-weight="normal" text-decoration="none" x="397.5" y="1015.5">+sessionResponseQueue</text></g></g><g transform="translate(-254,-134) scale(1,1)"><path fill="none" stroke="#ff0000" d="M 1359 692 L 1384 752 L 1542 967" stroke-miterlimit="10" stroke-dasharray="3"/></g><g transform="translate(-254,-134) scale(1,1)"><path fill="none" stroke="#ff0000" d="M 1532.5898435766392 961.3036014809461 L 1542 967 L 1539.3739766021795 956.3180525598514" stroke-miterlimit="10"/></g><g transform="translate(-254,-134) scale(1,1)"><g><path fill="none" stroke="none"/><text fill="#000000" stroke="none" font-family="Arial" font-size="26px" font-style="normal" font-weight="normal" text-decoration="none" x="1407.5" y="769.5">+actionQueue.add[action]</text></g></g><g transform="translate(-254,-134) scale(1,1)"><rect fill="#C0C0C0" stroke="none" x="415" y="1503" width="613.90625" height="135" opacity="0.2"/></g><g transform="translate(-254,-134) scale(1,1)"><rect fill="#ffffff" stroke="none" x="408" y="1496" width="613.90625" height="135"/></g><g transform="translate(-254,-134) scale(1,1)"><path fill="none" stroke="#000000" d="M 408 1496 L 1021.90625 1496 L 1021.90625 1631 L 408 1631 L 408 1496 Z Z" stroke-miterlimit="10"/></g><g transform="translate(-254,-134) scale(1,1)"><path fill="none" stroke="#000000" d="M 408 1534 L 1021.90625 1534" stroke-miterlimit="10"/></g><g transform="translate(-254,-134) scale(1,1)"><path fill="none" stroke="#000000" d="M 408 1570 L 1021.90625 1570" stroke-miterlimit="10"/></g><g transform="translate(-254,-134) scale(1,1)"><g><path fill="none" stroke="none"/><text fill="#000000" stroke="none" font-family="Arial" font-size="26px" font-style="normal" font-weight="bold" text-decoration="none" x="484.43798828125" y="1528.5">NestedEditorActionProcessor {Thread4}</text></g></g><g transform="translate(-254,-134) scale(1,1)"><g><path fill="none" stroke="none"/><text fill="#000000" stroke="none" font-family="Arial" font-size="26px" font-style="normal" font-weight="normal" text-decoration="none" x="413" y="1564.5">+nestedActionQueue: BlockingQueue&lt;EditorAction&gt;</text></g></g><g transform="translate(-254,-134) scale(1,1)"><g><path fill="none" stroke="none"/><text fill="#000000" stroke="none" font-family="Arial" font-size="26px" font-style="normal" font-weight="normal" text-decoration="none" x="413" y="1600.5">+run(): void</text></g></g><g transform="translate(-254,-134) scale(1,1)"><path fill="none" stroke="#000000" d="M 547 1495 L 352 1416 L 336 960 L 508 920" stroke-miterlimit="10" stroke-dasharray="3"/></g><g transform="translate(-254,-134) scale(1,1)"><path fill="none" stroke="#000000" d="M 499.05498569023433 926.4020870814202 L 508 920 L 497.147960534735 918.201878912773" stroke-miterlimit="10"/></g><g transform="translate(-254,-134) scale(1,1)"><g><path fill="none" stroke="none"/><text fill="#000000" stroke="none" font-family="Arial" font-size="26px" font-style="normal" font-weight="normal" text-decoration="none" x="281.5" y="1451.5">+nestedActionQueue</text></g></g><g transform="translate(-254,-134) scale(1,1)"><path fill="none" stroke="#000000" d="M 837 1495 L 1436 1162" stroke-miterlimit="10"/></g><g transform="translate(-254,-134) scale(1,1)"><path fill="#FFFFFF" stroke="none" d="M 1422.3259771966664 1179.2343001126796 L 1436 1162 L 1414.1445152709834 1164.5174962283431"/></g><g transform="translate(-254,-134) scale(1,1)"><path fill="none" stroke="#000000" d="M 1422.3259771966664 1179.2343001126796 L 1436 1162 L 1414.1445152709834 1164.5174962283431 L 1422.3259771966664 1179.2343001126796" stroke-miterlimit="10"/></g><g transform="translate(-254,-134) scale(1,1)"><path fill="none" stroke="#00ad00" d="M 1327 1422 L 1009 1495" stroke-miterlimit="10" stroke-dasharray="3"/></g><g transform="translate(-254,-134) scale(1,1)"><path fill="none" stroke="#00ad00" d="M 1017.9632011017721 1488.6234001216017 L 1009 1495 L 1019.8468772951306 1496.829003265273" stroke-miterlimit="10"/></g><g transform="translate(-254,-134) scale(1,1)"><g><path fill="none" stroke="none"/><text fill="#000000" stroke="none" font-family="Arial" font-size="26px" font-style="normal" font-weight="normal" text-decoration="none" x="1106.45166015625" y="1452.5">+add{3}</text></g></g><g transform="translate(-254,-134) scale(1,1)"><path fill="none" stroke="#00ad00" d="M 704 1495 L 686 1376" stroke-miterlimit="10" stroke-dasharray="3"/></g><g transform="translate(-254,-134) scale(1,1)"><path fill="none" stroke="#00ad00" d="M 691.6820942748456 1385.4188005951803 L 686 1376 L 683.3577496215888 1386.6779451645805" stroke-miterlimit="10"/></g><g transform="translate(-254,-134) scale(1,1)"><g><path fill="none" stroke="none"/><text fill="#000000" stroke="none" font-family="Arial" font-size="26px" font-style="normal" font-weight="normal" text-decoration="none" x="680.48974609375" y="1432.5">+add{2}</text></g></g><g transform="translate(-254,-134) scale(1,1)"><path fill="none" stroke="#00ad00" d="M 637 1495 L 512 1384 L 673 1144" stroke-miterlimit="10" stroke-dasharray="3"/></g><g transform="translate(-254,-134) scale(1,1)"><path fill="none" stroke="#00ad00" d="M 670.8342339424441 1154.784686244112 L 673 1144 L 663.8426473580577 1150.0944969104194" stroke-miterlimit="10"/></g><g transform="translate(-254,-134) scale(1,1)"><g><path fill="none" stroke="none"/><text fill="#000000" stroke="none" font-family="Arial" font-size="26px" font-style="normal" font-weight="normal" text-decoration="none" x="617.9052734375" y="1215.5">+add{2}</text></g></g><g transform="translate(-254,-134) scale(1,1)"><rect fill="#C0C0C0" stroke="none" x="1367" y="1535" width="287" height="109" opacity="0.2"/></g><g transform="translate(-254,-134) scale(1,1)"><rect fill="#ffffff" stroke="none" x="1360" y="1528" width="287" height="109"/></g><g transform="translate(-254,-134) scale(1,1)"><path fill="none" stroke="#000000" d="M 1360 1528 L 1647 1528 L 1647 1637 L 1360 1637 L 1360 1528 Z Z" stroke-miterlimit="10"/></g><g transform="translate(-254,-134) scale(1,1)"><path fill="none" stroke="#000000" d="M 1360 1566 L 1647 1566" stroke-miterlimit="10"/></g><g transform="translate(-254,-134) scale(1,1)"><path fill="none" stroke="#000000" d="M 1360 1602 L 1647 1602" stroke-miterlimit="10"/></g><g transform="translate(-254,-134) scale(1,1)"><g><path fill="none" stroke="none"/><text fill="#000000" stroke="none" font-family="Arial" font-size="26px" font-style="normal" font-weight="bold" text-decoration="none" x="1423.291015625" y="1560.5">EditorSession</text></g></g><g transform="translate(-254,-134) scale(1,1)"><g><path fill="none" stroke="none"/><text fill="#000000" stroke="none" font-family="Arial" font-size="26px" font-style="normal" font-weight="normal" text-decoration="none" x="1365" y="1596.5">+...</text></g></g><g transform="translate(-254,-134) scale(1,1)"><g><path fill="none" stroke="none"/><text fill="#000000" stroke="none" font-family="Arial" font-size="26px" font-style="normal" font-weight="normal" text-decoration="none" x="1365" y="1632.5">+...()</text></g></g><g transform="translate(-254,-134) scale(1,1)"><path fill="none" stroke="#ff0000" d="M 1572 1457 L 1533 1527" stroke-miterlimit="10"/></g><g transform="translate(-254,-134) scale(1,1)"><path fill="none" stroke="#ff0000" d="M 1534.268895879192 1516.0734313140963 L 1533 1527 L 1541.6234956936994 1520.1709940678934" stroke-miterlimit="10"/></g><g transform="translate(-254,-134) scale(1,1)"><path fill="none" stroke="#00ad00" d="M 1499 1527 L 1496 1488 L 1527 1457" stroke-miterlimit="10"/></g><g transform="translate(-254,-134) scale(1,1)"><path fill="none" stroke="#00ad00" d="M 1522.7904822439841 1467.162674857624 L 1527 1457 L 1516.837325142376 1461.2095177560159" stroke-miterlimit="10"/></g><g transform="translate(-254,-134) scale(1,1)"><path fill="none" stroke="#00ad00" d="M 319 1089 L 296 1088 L 360 504 L 640 496 L 671 485" stroke-miterlimit="10"/></g><g transform="translate(-254,-134) scale(1,1)"><path fill="none" stroke="#00ad00" d="M 662.8301174269033 492.3656648540243 L 671 485 L 660.0147090648375 484.4313321972935" stroke-miterlimit="10"/></g><g transform="translate(-254,-134) scale(1,1)"><g><path fill="none" stroke="none"/><text fill="#000000" stroke="none" font-family="Arial" font-size="26px" font-style="normal" font-weight="normal" text-decoration="none" x="370.68359375" y="543.5">+ActionSocket.sendMessage[...]</text></g></g><g transform="translate(-254,-134) scale(1,1)"><path fill="none" stroke="#00ad00" d="M 295 1321 L 264 1320 L 320 456 L 671 455" stroke-miterlimit="10"/></g><g transform="translate(-254,-134) scale(1,1)"><path fill="none" stroke="#00ad00" d="M 660.8493592658199 459.23845404429534 L 671 455 L 660.8253735070041 450.8194526999416" stroke-miterlimit="10"/></g><g transform="translate(-254,-134) scale(1,1)"><g><path fill="none" stroke="none"/><text fill="#000000" stroke="none" font-family="Arial" font-size="26px" font-style="normal" font-weight="normal" text-decoration="none" x="305.68359375" y="439.5">+StateSocket.sendMessage[...]</text></g></g><g transform="translate(-254,-134) scale(1,1)"><path fill="#ffffff" stroke="none" d="M 1840 864 L 2030.431640625 864 L 2040.431640625 874 L 2040.431640625 912 L 1840 912 L 1840 864"/></g><g transform="translate(-254,-134) scale(1,1)"><path fill="none" stroke="#000000" d="M 1840 864 L 2030.431640625 864 L 2040.431640625 874 L 2040.431640625 912 L 1840 912 L 1840 864 L 1840 864" stroke-miterlimit="10"/></g><g transform="translate(-254,-134) scale(1,1)"><path fill="none" stroke="#000000" d="M 2030.431640625 864 L 2030.431640625 874 L 2040.431640625 874 L 2030.431640625 864" stroke-miterlimit="10"/></g><g transform="translate(-254,-134) scale(1,1)"><g><path fill="none" stroke="none"/><text fill="#000000" stroke="none" font-family="Roboto" font-size="26px" font-style="normal" font-weight="normal" text-decoration="none" x="1845" y="895">CONSUMER{1}</text></g></g><g transform="translate(-254,-134) scale(1,1)"><path fill="none" stroke="#000000" d="M 1941 967 L 1992 952 L 1961 914" stroke-miterlimit="10" stroke-dasharray="3"/></g><g transform="translate(-254,-134) scale(1,1)"><path fill="#ffffff" stroke="none" d="M 448 712 L 657.9697265625 712 L 667.9697265625 722 L 667.9697265625 748 L 448 748 L 448 712"/></g><g transform="translate(-254,-134) scale(1,1)"><path fill="none" stroke="#000000" d="M 448 712 L 657.9697265625 712 L 667.9697265625 722 L 667.9697265625 748 L 448 748 L 448 712 L 448 712" stroke-miterlimit="10"/></g><g transform="translate(-254,-134) scale(1,1)"><path fill="none" stroke="#000000" d="M 657.9697265625 712 L 657.9697265625 722 L 667.9697265625 722 L 657.9697265625 712" stroke-miterlimit="10"/></g><g transform="translate(-254,-134) scale(1,1)"><g><path fill="none" stroke="none"/><text fill="#000000" stroke="none" font-family="Roboto" font-size="26px" font-style="normal" font-weight="normal" text-decoration="none" x="453" y="743">QUEUE{1}{2}{3}</text></g></g><g transform="translate(-254,-134) scale(1,1)"><path fill="none" stroke="#000000" d="M 621 751 L 618 750" stroke-miterlimit="10" stroke-dasharray="3"/></g><g transform="translate(-254,-134) scale(1,1)"><path fill="#ffffff" stroke="none" d="M 600 280 L 784.6552734375 280 L 794.6552734375 290 L 794.6552734375 328 L 600 328 L 600 280"/></g><g transform="translate(-254,-134) scale(1,1)"><path fill="none" stroke="#000000" d="M 600 280 L 784.6552734375 280 L 794.6552734375 290 L 794.6552734375 328 L 600 328 L 600 280 L 600 280" stroke-miterlimit="10"/></g><g transform="translate(-254,-134) scale(1,1)"><path fill="none" stroke="#000000" d="M 784.6552734375 280 L 784.6552734375 290 L 794.6552734375 290 L 784.6552734375 280" stroke-miterlimit="10"/></g><g transform="translate(-254,-134) scale(1,1)"><g><path fill="none" stroke="none"/><text fill="#000000" stroke="none" font-family="Roboto" font-size="26px" font-style="normal" font-weight="normal" text-decoration="none" x="605" y="311">PRODUCER{1}</text></g></g><g transform="translate(-254,-134) scale(1,1)"><path fill="none" stroke="#000000" d="M 739 407 L 708 330" stroke-miterlimit="10" stroke-dasharray="3"/></g><g transform="translate(-254,-134) scale(1,1)"><path fill="#ffffff" stroke="none" d="M 1656 1528 L 1786.814453125 1528 L 1796.814453125 1538 L 1796.814453125 1590 L 1656 1590 L 1656 1528"/></g><g transform="translate(-254,-134) scale(1,1)"><path fill="none" stroke="#000000" d="M 1656 1528 L 1786.814453125 1528 L 1796.814453125 1538 L 1796.814453125 1590 L 1656 1590 L 1656 1528 L 1656 1528" stroke-miterlimit="10"/></g><g transform="translate(-254,-134) scale(1,1)"><path fill="none" stroke="#000000" d="M 1786.814453125 1528 L 1786.814453125 1538 L 1796.814453125 1538 L 1786.814453125 1528" stroke-miterlimit="10"/></g><g transform="translate(-254,-134) scale(1,1)"><g><path fill="none" stroke="none"/><text fill="#000000" stroke="none" font-family="Roboto" font-size="26px" font-style="normal" font-weight="normal" text-decoration="none" x="1661" y="1559">BUSINESS</text><text fill="#000000" stroke="none" font-family="Roboto" font-size="26px" font-style="normal" font-weight="normal" text-decoration="none" x="1661" y="1585">LOGIC</text></g></g><g transform="translate(-254,-134) scale(1,1)"><path fill="none" stroke="#000000" d="M 1648 1567 L 1655 1566" stroke-miterlimit="10" stroke-dasharray="3"/></g><g transform="translate(-254,-134) scale(1,1)"><path fill="#ffffff" stroke="none" d="M 1840 912 L 2028.6162109375 912 L 2038.6162109375 922 L 2038.6162109375 960 L 1840 960 L 1840 912"/></g><g transform="translate(-254,-134) scale(1,1)"><path fill="none" stroke="#000000" d="M 1840 912 L 2028.6162109375 912 L 2038.6162109375 922 L 2038.6162109375 960 L 1840 960 L 1840 912 L 1840 912" stroke-miterlimit="10"/></g><g transform="translate(-254,-134) scale(1,1)"><path fill="none" stroke="#000000" d="M 2028.6162109375 912 L 2028.6162109375 922 L 2038.6162109375 922 L 2028.6162109375 912" stroke-miterlimit="10"/></g><g transform="translate(-254,-134) scale(1,1)"><g><path fill="none" stroke="none"/><text fill="#000000" stroke="none" font-family="Roboto" font-size="26px" font-style="normal" font-weight="normal" text-decoration="none" x="1845" y="943">PRODUCER{2}</text></g></g><g transform="translate(-254,-134) scale(1,1)"><path fill="none" stroke="#000000" d="M 1860 967 L 1873 962" stroke-miterlimit="10" stroke-dasharray="3"/></g><g transform="translate(-254,-134) scale(1,1)"><path fill="none" stroke="#ff0000" d="M 1023 1512 L 1120 1496 L 1327 1438" stroke-miterlimit="10"/></g><g transform="translate(-254,-134) scale(1,1)"><path fill="none" stroke="#ff0000" d="M 1318.3499391702587 1444.795325425745 L 1327 1438 L 1316.0784626407003 1436.6885040185275" stroke-miterlimit="10"/></g><g transform="translate(-254,-134) scale(1,1)"><path fill="#ffffff" stroke="none" d="M 1072 1536 L 1320 1536 L 1330 1546 L 1330 1598 L 1072 1598 L 1072 1536"/></g><g transform="translate(-254,-134) scale(1,1)"><path fill="none" stroke="#000000" d="M 1072 1536 L 1320 1536 L 1330 1546 L 1330 1598 L 1072 1598 L 1072 1536 L 1072 1536" stroke-miterlimit="10"/></g><g transform="translate(-254,-134) scale(1,1)"><path fill="none" stroke="#000000" d="M 1320 1536 L 1320 1546 L 1330 1546 L 1320 1536" stroke-miterlimit="10"/></g><g transform="translate(-254,-134) scale(1,1)"><g><path fill="none" stroke="none"/><text fill="#000000" stroke="none" font-family="Arial" font-size="26px" font-style="normal" font-weight="normal" text-decoration="none" x="1077" y="1567">this invoke never</text><text fill="#000000" stroke="none" font-family="Arial" font-size="26px" font-style="normal" font-weight="normal" text-decoration="none" x="1077" y="1593">cause cyle</text></g></g><g transform="translate(-254,-134) scale(1,1)"><path fill="none" stroke="#000000" d="M 1223 1467 L 1208 1535" stroke-miterlimit="10" stroke-dasharray="3"/></g><g transform="translate(-254,-134) scale(1,1)"><path fill="#ffffff" stroke="none" d="M 800 1016 L 991.498046875 1016 L 1001.498046875 1026 L 1001.498046875 1052 L 800 1052 L 800 1016"/></g><g transform="translate(-254,-134) scale(1,1)"><path fill="none" stroke="#000000" d="M 800 1016 L 991.498046875 1016 L 1001.498046875 1026 L 1001.498046875 1052 L 800 1052 L 800 1016 L 800 1016" stroke-miterlimit="10"/></g><g transform="translate(-254,-134) scale(1,1)"><path fill="none" stroke="#000000" d="M 991.498046875 1016 L 991.498046875 1026 L 1001.498046875 1026 L 991.498046875 1016" stroke-miterlimit="10"/></g><g transform="translate(-254,-134) scale(1,1)"><g><path fill="none" stroke="none"/><text fill="#000000" stroke="none" font-family="Roboto" font-size="26px" font-style="normal" font-weight="normal" text-decoration="none" x="805" y="1047">CONSUMER{2}</text></g></g><g transform="translate(-254,-134) scale(1,1)"><path fill="none" stroke="#000000" d="M 837 1055 L 840 1054" stroke-miterlimit="10" stroke-dasharray="3"/></g><g transform="translate(-254,-134) scale(1,1)"><path fill="#ffffff" stroke="none" d="M 632 1240 L 823.498046875 1240 L 833.498046875 1250 L 833.498046875 1276 L 632 1276 L 632 1240"/></g><g transform="translate(-254,-134) scale(1,1)"><path fill="none" stroke="#000000" d="M 632 1240 L 823.498046875 1240 L 833.498046875 1250 L 833.498046875 1276 L 632 1276 L 632 1240 L 632 1240" stroke-miterlimit="10"/></g><g transform="translate(-254,-134) scale(1,1)"><path fill="none" stroke="#000000" d="M 823.498046875 1240 L 823.498046875 1250 L 833.498046875 1250 L 823.498046875 1240" stroke-miterlimit="10"/></g><g transform="translate(-254,-134) scale(1,1)"><g><path fill="none" stroke="none"/><text fill="#000000" stroke="none" font-family="Roboto" font-size="26px" font-style="normal" font-weight="normal" text-decoration="none" x="637" y="1271">CONSUMER{2}</text></g></g><g transform="translate(-254,-134) scale(1,1)"><path fill="none" stroke="#000000" d="M 717 1279 L 717 1278" stroke-miterlimit="10" stroke-dasharray="3"/></g><g transform="translate(-254,-134) scale(1,1)"><path fill="#ffffff" stroke="none" d="M 1648 1584 L 1836.6162109375 1584 L 1846.6162109375 1594 L 1846.6162109375 1632 L 1648 1632 L 1648 1584"/></g><g transform="translate(-254,-134) scale(1,1)"><path fill="none" stroke="#000000" d="M 1648 1584 L 1836.6162109375 1584 L 1846.6162109375 1594 L 1846.6162109375 1632 L 1648 1632 L 1648 1584 L 1648 1584" stroke-miterlimit="10"/></g><g transform="translate(-254,-134) scale(1,1)"><path fill="none" stroke="#000000" d="M 1836.6162109375 1584 L 1836.6162109375 1594 L 1846.6162109375 1594 L 1836.6162109375 1584" stroke-miterlimit="10"/></g><g transform="translate(-254,-134) scale(1,1)"><g><path fill="none" stroke="none"/><text fill="#000000" stroke="none" font-family="Roboto" font-size="26px" font-style="normal" font-weight="normal" text-decoration="none" x="1653" y="1615">PRODUCER{3}</text></g></g><g transform="translate(-254,-134) scale(1,1)"><path fill="none" stroke="#000000" d="M 1648 1597 L 1747 1608" stroke-miterlimit="10" stroke-dasharray="3"/></g><g transform="translate(-254,-134) scale(1,1)"><path fill="none" stroke="#000000" d="M 888 1632 L 928 1648" stroke-miterlimit="10" stroke-dasharray="3"/></g><g transform="translate(-254,-134) scale(1,1)"><path fill="#ffffff" stroke="none" d="M 832 1672 L 1012.6162109375 1672 L 1022.6162109375 1682 L 1022.6162109375 1720 L 832 1720 L 832 1672"/></g><g transform="translate(-254,-134) scale(1,1)"><path fill="none" stroke="#000000" d="M 832 1672 L 1012.6162109375 1672 L 1022.6162109375 1682 L 1022.6162109375 1720 L 832 1720 L 832 1672 L 832 1672" stroke-miterlimit="10"/></g><g transform="translate(-254,-134) scale(1,1)"><path fill="none" stroke="#000000" d="M 1012.6162109375 1672 L 1012.6162109375 1682 L 1022.6162109375 1682 L 1012.6162109375 1672" stroke-miterlimit="10"/></g><g transform="translate(-254,-134) scale(1,1)"><g><path fill="none" stroke="none"/><text fill="#000000" stroke="none" font-family="Roboto" font-size="26px" font-style="normal" font-weight="normal" text-decoration="none" x="837" y="1703">PRODUCER{2}</text></g></g><g transform="translate(-254,-134) scale(1,1)"><path fill="none" stroke="#000000" d="M 825 1632 L 887 1671" stroke-miterlimit="10" stroke-dasharray="3"/></g><g transform="translate(-254,-134) scale(1,1)"><path fill="none" stroke="#000000" d="M 1300 967 L 1148 920" stroke-miterlimit="10" stroke-dasharray="3"/></g><g transform="translate(-254,-134) scale(1,1)"><path fill="none" stroke="#000000" d="M 1158.9526547641613 918.9805130618311 L 1148 920 L 1156.465582583044 927.0238103284231" stroke-miterlimit="10"/></g><g transform="translate(-254,-134) scale(1,1)"><path fill="#ffffff" stroke="none" d="M 832 1624 L 1013 1624 L 1023 1634 L 1023 1671 L 832 1671 L 832 1624"/></g><g transform="translate(-254,-134) scale(1,1)"><path fill="none" stroke="#000000" d="M 832 1624 L 1013 1624 L 1023 1634 L 1023 1671 L 832 1671 L 832 1624 L 832 1624" stroke-miterlimit="10"/></g><g transform="translate(-254,-134) scale(1,1)"><path fill="none" stroke="#000000" d="M 1013 1624 L 1013 1634 L 1023 1634 L 1013 1624" stroke-miterlimit="10"/></g><g transform="translate(-254,-134) scale(1,1)"><g><path fill="none" stroke="none"/><text fill="#000000" stroke="none" font-family="Roboto" font-size="26px" font-style="normal" font-weight="normal" text-decoration="none" x="837" y="1655">CONSUMER{3}</text></g></g><g transform="translate(-254,-134) scale(1,1)"><g><path fill="none" stroke="none"/></g></g></g></svg>