<svg version="1.1" xmlns="http://www.w3.org/2000/svg" xmlns:xlink="http://www.w3.org/1999/xlink" width="1832.6162109375" height="1485"><defs/><g><g transform="translate(-54,-198) scale(1,1)"><rect fill="#C0C0C0" stroke="none" x="799" y="215" width="520.435546875" height="205" opacity="0.2"/></g><g transform="translate(-54,-198) scale(1,1)"><rect fill="#ffffff" stroke="none" x="792" y="208" width="520.435546875" height="205"/></g><g transform="translate(-54,-198) scale(1,1)"><path fill="none" stroke="#000000" d="M 792 208 L 1312.435546875 208 L 1312.435546875 413 L 792 413 L 792 208 Z Z" stroke-miterlimit="10"/></g><g transform="translate(-54,-198) scale(1,1)"><path fill="none" stroke="#000000" d="M 792 238 L 1312.435546875 238" stroke-miterlimit="10"/></g><g transform="translate(-54,-198) scale(1,1)"><path fill="none" stroke="#000000" d="M 792 346 L 1312.435546875 346" stroke-miterlimit="10"/></g><g transform="translate(-54,-198) scale(1,1)"><g><path fill="none" stroke="none"/><text fill="#000000" stroke="none" font-family="Arial" font-size="18px" font-style="normal" font-weight="bold" text-decoration="none" x="972.17578125" y="232.5">EditorActionHandler</text></g></g><g transform="translate(-54,-198) scale(1,1)"><g><path fill="none" stroke="none"/><text fill="#000000" stroke="none" font-family="Arial" font-size="18px" font-style="normal" font-weight="normal" text-decoration="none" x="797" y="260.5">+sessionService: SocketSessionService</text></g></g><g transform="translate(-54,-198) scale(1,1)"><g><path fill="none" stroke="none"/><text fill="#000000" stroke="none" font-family="Arial" font-size="18px" font-style="normal" font-weight="normal" text-decoration="none" x="797" y="280.5">+socketSecurityService: SocketSecurityService</text></g></g><g transform="translate(-54,-198) scale(1,1)"><g><path fill="none" stroke="none"/><text fill="#000000" stroke="none" font-family="Arial" font-size="18px" font-style="normal" font-weight="normal" text-decoration="none" x="797" y="300.5">+threadManager: ThreadManager</text></g></g><g transform="translate(-54,-198) scale(1,1)"><g><path fill="none" stroke="none"/><text fill="#000000" stroke="none" font-family="Arial" font-size="18px" font-style="normal" font-weight="normal" text-decoration="none" x="797" y="320.5">+initMap: Map&lt;WebSocketSession&gt;</text></g></g><g transform="translate(-54,-198) scale(1,1)"><g><path fill="none" stroke="none"/><text fill="#000000" stroke="none" font-family="Arial" font-size="18px" font-style="normal" font-weight="normal" text-decoration="none" x="797" y="340.5">+mapper: ObjectMapper</text></g></g><g transform="translate(-54,-198) scale(1,1)"><g><path fill="none" stroke="none"/><text fill="#000000" stroke="none" font-family="Arial" font-size="18px" font-style="normal" font-weight="normal" text-decoration="none" x="797" y="368.5">+handleTextMessage(WebSocketSession, TextMessage): void</text></g></g><g transform="translate(-54,-198) scale(1,1)"><g><path fill="none" stroke="none"/><text fill="#000000" stroke="none" font-family="Arial" font-size="18px" font-style="normal" font-weight="normal" text-decoration="none" x="797" y="388.5">+afterConnnectionEstablished(WebSocketSession): void</text></g></g><g transform="translate(-54,-198) scale(1,1)"><g><path fill="none" stroke="none"/><text fill="#000000" stroke="none" font-family="Arial" font-size="18px" font-style="normal" font-weight="normal" text-decoration="none" x="797" y="408.5">+afterConnectionClosed(WebSocketSession, CloseStatus): void</text></g></g><g transform="translate(-54,-198) scale(1,1)"><rect fill="#C0C0C0" stroke="none" x="399" y="375" width="143" height="95" opacity="0.2"/></g><g transform="translate(-54,-198) scale(1,1)"><rect fill="#ffffff" stroke="none" x="392" y="368" width="143" height="95"/></g><g transform="translate(-54,-198) scale(1,1)"><path fill="none" stroke="#000000" d="M 392 368 L 535 368 L 535 463 L 392 463 L 392 368 Z Z" stroke-miterlimit="10"/></g><g transform="translate(-54,-198) scale(1,1)"><path fill="none" stroke="#000000" d="M 392 398 L 535 398" stroke-miterlimit="10"/></g><g transform="translate(-54,-198) scale(1,1)"><path fill="none" stroke="#000000" d="M 392 408 L 535 408" stroke-miterlimit="10"/></g><g transform="translate(-54,-198) scale(1,1)"><g><path fill="none" stroke="none"/><text fill="#000000" stroke="none" font-family="Arial" font-size="18px" font-style="normal" font-weight="bold" text-decoration="none" x="410.4755859375" y="392.5">Client Socket</text></g></g><g transform="translate(-54,-198) scale(1,1)"><path fill="none" stroke="#ff0000" d="M 536 402 L 791 357" stroke-miterlimit="10"/></g><g transform="translate(-54,-198) scale(1,1)"><path fill="none" stroke="#ff0000" d="M 781.7235173354246 362.911587720218 L 791 357 L 780.260412437774 354.6206599668646" stroke-miterlimit="10"/></g><g transform="translate(-54,-198) scale(1,1)"><g><path fill="none" stroke="none"/><text fill="#000000" stroke="none" font-family="Arial" font-size="18px" font-style="normal" font-weight="normal" text-decoration="none" x="542.5" y="351.5">+handleTextMessage[action]</text></g></g><g transform="translate(-54,-198) scale(1,1)"><rect fill="#C0C0C0" stroke="none" x="807" y="479" width="509.748046875" height="147" opacity="0.2"/></g><g transform="translate(-54,-198) scale(1,1)"><rect fill="#ffffff" stroke="none" x="800" y="472" width="509.748046875" height="147"/></g><g transform="translate(-54,-198) scale(1,1)"><path fill="none" stroke="#000000" d="M 800 472 L 1309.748046875 472 L 1309.748046875 619 L 800 619 L 800 472 Z Z" stroke-miterlimit="10"/></g><g transform="translate(-54,-198) scale(1,1)"><path fill="none" stroke="#000000" d="M 800 502 L 1309.748046875 502" stroke-miterlimit="10"/></g><g transform="translate(-54,-198) scale(1,1)"><path fill="none" stroke="#000000" d="M 800 610 L 1309.748046875 610" stroke-miterlimit="10"/></g><g transform="translate(-54,-198) scale(1,1)"><g><path fill="none" stroke="none"/><text fill="#000000" stroke="none" font-family="Arial" font-size="18px" font-style="normal" font-weight="bold" text-decoration="none" x="963.32275390625" y="496.5">SocketThreadManager</text></g></g><g transform="translate(-54,-198) scale(1,1)"><g><path fill="none" stroke="none"/><text fill="#000000" stroke="none" font-family="Arial" font-size="18px" font-style="normal" font-weight="normal" text-decoration="none" x="805" y="524.5">+actionQueue: BlockingQueue&lt;EditorAction&gt;</text></g></g><g transform="translate(-54,-198) scale(1,1)"><g><path fill="none" stroke="none"/><text fill="#000000" stroke="none" font-family="Arial" font-size="18px" font-style="normal" font-weight="normal" text-decoration="none" x="805" y="544.5">+taskExecutorEditorActionProcessor: TaskExecutor</text></g></g><g transform="translate(-54,-198) scale(1,1)"><g><path fill="none" stroke="none"/><text fill="#000000" stroke="none" font-family="Arial" font-size="18px" font-style="normal" font-weight="normal" text-decoration="none" x="805" y="564.5">+taskExecutorSessionStateResponseProcessor: TaskExecutor</text></g></g><g transform="translate(-54,-198) scale(1,1)"><g><path fill="none" stroke="none"/><text fill="#000000" stroke="none" font-family="Arial" font-size="18px" font-style="normal" font-weight="normal" text-decoration="none" x="805" y="584.5">+taskExecutorActionResponseProcessor: TaskExecutor</text></g></g><g transform="translate(-54,-198) scale(1,1)"><g><path fill="none" stroke="none"/><text fill="#000000" stroke="none" font-family="Arial" font-size="18px" font-style="normal" font-weight="normal" text-decoration="none" x="805" y="604.5">+taskExecutorNestedEditorActionProcessor: TaskExecutor</text></g></g><g transform="translate(-54,-198) scale(1,1)"><path fill="none" stroke="#ff0000" d="M 1053 414 L 1053 471" stroke-miterlimit="10"/></g><g transform="translate(-54,-198) scale(1,1)"><path fill="none" stroke="#ff0000" d="M 1048.7904822439841 460.83732514237585 L 1053 471 L 1057.2095177560159 460.83732514237585" stroke-miterlimit="10"/></g><g transform="translate(-54,-198) scale(1,1)"><g><path fill="none" stroke="none"/><text fill="#000000" stroke="none" font-family="Arial" font-size="18px" font-style="normal" font-weight="normal" text-decoration="none" x="1062.5" y="440.5">+postAction[action]</text></g></g><g transform="translate(-54,-198) scale(1,1)"><rect fill="#C0C0C0" stroke="none" x="279" y="799" width="674.9033203125" height="127" opacity="0.2"/></g><g transform="translate(-54,-198) scale(1,1)"><rect fill="#ffffff" stroke="none" x="272" y="792" width="674.9033203125" height="127"/></g><g transform="translate(-54,-198) scale(1,1)"><path fill="none" stroke="#000000" d="M 272 792 L 946.9033203125 792 L 946.9033203125 919 L 272 919 L 272 792 Z Z" stroke-miterlimit="10"/></g><g transform="translate(-54,-198) scale(1,1)"><path fill="none" stroke="#000000" d="M 272 822 L 946.9033203125 822" stroke-miterlimit="10"/></g><g transform="translate(-54,-198) scale(1,1)"><path fill="none" stroke="#000000" d="M 272 832 L 946.9033203125 832" stroke-miterlimit="10"/></g><g transform="translate(-54,-198) scale(1,1)"><g><path fill="none" stroke="none"/><text fill="#000000" stroke="none" font-family="Arial" font-size="18px" font-style="normal" font-weight="bold" text-decoration="none" x="546.90869140625" y="816.5">QueueManager</text></g></g><g transform="translate(-54,-198) scale(1,1)"><g><path fill="none" stroke="none"/><text fill="#000000" stroke="none" font-family="Arial" font-size="18px" font-style="normal" font-weight="normal" text-decoration="none" x="277" y="854.5">+getActionQueue(): BlockingQueue&lt;EditorAction&gt;                                               {1}</text></g></g><g transform="translate(-54,-198) scale(1,1)"><g><path fill="none" stroke="none"/><text fill="#000000" stroke="none" font-family="Arial" font-size="18px" font-style="normal" font-weight="normal" text-decoration="none" x="277" y="874.5">+getSessionStateResponseQueue(): BlockingQueue&lt;SessionStateResponse&gt;  {2}</text></g></g><g transform="translate(-54,-198) scale(1,1)"><g><path fill="none" stroke="none"/><text fill="#000000" stroke="none" font-family="Arial" font-size="18px" font-style="normal" font-weight="normal" text-decoration="none" x="277" y="894.5">+getActionResponseQueue(): BlockingQueue&lt;EditorActionResponse&gt;               {2}</text></g></g><g transform="translate(-54,-198) scale(1,1)"><g><path fill="none" stroke="none"/><text fill="#000000" stroke="none" font-family="Arial" font-size="18px" font-style="normal" font-weight="normal" text-decoration="none" x="277" y="914.5">+getNestedActionQueue(): BlockingQueue&lt;EditorAction&gt;                                    {3}</text></g></g><g transform="translate(-54,-198) scale(1,1)"><path fill="none" stroke="#000000" d="M 946 620 L 701 791" stroke-miterlimit="10" stroke-dasharray="3"/></g><g transform="translate(-54,-198) scale(1,1)"><path fill="none" stroke="#000000" d="M 706.9243001161445 781.7316307726844 L 701 791 L 711.7428395170856 788.6353860547345" stroke-miterlimit="10"/></g><g transform="translate(-54,-198) scale(1,1)"><g><path fill="none" stroke="none"/><text fill="#000000" stroke="none" font-family="Arial" font-size="18px" font-style="normal" font-weight="normal" text-decoration="none" x="774.5" y="725.5">+actionQueue</text></g></g><g transform="translate(-54,-198) scale(1,1)"><rect fill="#C0C0C0" stroke="none" x="1079" y="935" width="627.8935546875" height="168" opacity="0.2"/></g><g transform="translate(-54,-198) scale(1,1)"><rect fill="#ffffff" stroke="none" x="1072" y="928" width="627.8935546875" height="168"/></g><g transform="translate(-54,-198) scale(1,1)"><path fill="none" stroke="#000000" d="M 1072 928 L 1699.8935546875 928 L 1699.8935546875 1096 L 1072 1096 L 1072 928 Z Z" stroke-miterlimit="10"/></g><g transform="translate(-54,-198) scale(1,1)"><path fill="none" stroke="#000000" d="M 1072 958 L 1699.8935546875 958" stroke-miterlimit="10"/></g><g transform="translate(-54,-198) scale(1,1)"><path fill="none" stroke="#000000" d="M 1072 1046 L 1699.8935546875 1046" stroke-miterlimit="10"/></g><g transform="translate(-54,-198) scale(1,1)"><g><path fill="none" stroke="none"/><text fill="#000000" stroke="none" font-family="Arial" font-size="18px" font-style="normal" font-weight="bold" text-decoration="none" x="1254.87548828125" y="952.5">EditorActionProcessor {Thread1}</text></g></g><g transform="translate(-54,-198) scale(1,1)"><g><path fill="none" stroke="none"/><text fill="#000000" stroke="none" font-family="Arial" font-size="18px" font-style="normal" font-weight="normal" text-decoration="none" x="1077" y="980.5">+actionQueue: BlockingQueue&lt;EditorAction&gt;</text></g></g><g transform="translate(-54,-198) scale(1,1)"><g><path fill="none" stroke="none"/><text fill="#000000" stroke="none" font-family="Arial" font-size="18px" font-style="normal" font-weight="normal" text-decoration="none" x="1077" y="1000.5">+service: SocketSessionService</text></g></g><g transform="translate(-54,-198) scale(1,1)"><g><path fill="none" stroke="none"/><text fill="#000000" stroke="none" font-family="Arial" font-size="18px" font-style="normal" font-weight="normal" text-decoration="none" x="1077" y="1020.5">+sessionStateResponseQueue: BlockingQueue&lt;SessionStateResponse&gt;</text></g></g><g transform="translate(-54,-198) scale(1,1)"><g><path fill="none" stroke="none"/><text fill="#000000" stroke="none" font-family="Arial" font-size="18px" font-style="normal" font-weight="normal" text-decoration="none" x="1077" y="1040.5">+actionResponseQueue: BlockingQueue&lt;EditorActionResponse&gt;</text></g></g><g transform="translate(-54,-198) scale(1,1)"><g><path fill="none" stroke="none"/><text fill="#000000" stroke="none" font-family="Arial" font-size="18px" font-style="normal" font-weight="normal" text-decoration="none" x="1077" y="1068.5">+run(): void</text></g></g><g transform="translate(-54,-198) scale(1,1)"><path fill="none" stroke="#000000" d="M 1071 948 L 930 920" stroke-miterlimit="10" stroke-dasharray="3"/></g><g transform="translate(-54,-198) scale(1,1)"><path fill="none" stroke="#000000" d="M 940.7879546043798 917.8505732266857 L 930 920 L 939.1481101029641 926.1083616088151" stroke-miterlimit="10"/></g><g transform="translate(-54,-198) scale(1,1)"><g><path fill="none" stroke="none"/><text fill="#000000" stroke="none" font-family="Arial" font-size="18px" font-style="normal" font-weight="normal" text-decoration="none" x="940.5" y="956.5">+actionQueue</text></g></g><g transform="translate(-54,-198) scale(1,1)"><path fill="none" stroke="#000000" d="M 1156 927 L 1072 896 L 948 885" stroke-miterlimit="10" stroke-dasharray="3"/></g><g transform="translate(-54,-198) scale(1,1)"><path fill="none" stroke="#000000" d="M 958.4948864762464 881.7049494919349 L 948 885 L 957.7509579537418 890.0910528365318" stroke-miterlimit="10"/></g><g transform="translate(-54,-198) scale(1,1)"><g><path fill="none" stroke="none"/><text fill="#000000" stroke="none" font-family="Arial" font-size="18px" font-style="normal" font-weight="normal" text-decoration="none" x="990.5" y="887.5">+actionResponseQueue</text></g></g><g transform="translate(-54,-198) scale(1,1)"><path fill="none" stroke="#000000" d="M 1271 927 L 1176 856 L 948 856" stroke-miterlimit="10" stroke-dasharray="3"/></g><g transform="translate(-54,-198) scale(1,1)"><path fill="none" stroke="#000000" d="M 958.1626748576241 851.790482243984 L 948 856 L 958.1626748576241 860.209517756016" stroke-miterlimit="10"/></g><g transform="translate(-54,-198) scale(1,1)"><g><path fill="none" stroke="none"/><text fill="#000000" stroke="none" font-family="Arial" font-size="18px" font-style="normal" font-weight="normal" text-decoration="none" x="1006.5" y="847.5">+sessionStateResponseQueue</text></g></g><g transform="translate(-54,-198) scale(1,1)"><path fill="none" stroke="#ff0000" d="M 1584 928 L 1584 904 L 1760 904 L 1760 1000 L 1700 1000" stroke-miterlimit="10"/></g><g transform="translate(-54,-198) scale(1,1)"><path fill="none" stroke="#ff0000" d="M 1710.162674857624 995.790482243984 L 1700 1000 L 1710.162674857624 1004.209517756016" stroke-miterlimit="10"/></g><g transform="translate(-54,-198) scale(1,1)"><g><path fill="none" stroke="none"/><text fill="#000000" stroke="none" font-family="Arial" font-size="18px" font-style="normal" font-weight="normal" text-decoration="none" x="1593.5" y="895.5">+actionQueue.take[ ]</text></g></g><g transform="translate(-54,-198) scale(1,1)"><rect fill="#C0C0C0" stroke="none" x="1183" y="1231" width="431" height="208" opacity="0.2"/></g><g transform="translate(-54,-198) scale(1,1)"><rect fill="#ffffff" stroke="none" x="1176" y="1224" width="431" height="208"/></g><g transform="translate(-54,-198) scale(1,1)"><path fill="none" stroke="#000000" d="M 1176 1224 L 1607 1224 L 1607 1432 L 1176 1432 L 1176 1224 Z Z" stroke-miterlimit="10"/></g><g transform="translate(-54,-198) scale(1,1)"><path fill="none" stroke="#000000" d="M 1176 1254 L 1607 1254" stroke-miterlimit="10"/></g><g transform="translate(-54,-198) scale(1,1)"><path fill="none" stroke="#000000" d="M 1176 1302 L 1607 1302" stroke-miterlimit="10"/></g><g transform="translate(-54,-198) scale(1,1)"><g><path fill="none" stroke="none"/><text fill="#000000" stroke="none" font-family="Arial" font-size="18px" font-style="normal" font-weight="bold" text-decoration="none" x="1301.95703125" y="1248.5">SocketSessionService</text></g></g><g transform="translate(-54,-198) scale(1,1)"><g><path fill="none" stroke="none"/><text fill="#000000" stroke="none" font-family="Arial" font-size="18px" font-style="normal" font-weight="normal" text-decoration="none" x="1181" y="1276.5">+sessions: List&lt;EditorSession&gt;</text></g></g><g transform="translate(-54,-198) scale(1,1)"><g><path fill="none" stroke="none"/><text fill="#000000" stroke="none" font-family="Arial" font-size="18px" font-style="normal" font-weight="normal" text-decoration="none" x="1181" y="1296.5">+...</text></g></g><g transform="translate(-54,-198) scale(1,1)"><g><path fill="none" stroke="none"/><text fill="#000000" stroke="none" font-family="Arial" font-size="18px" font-style="normal" font-weight="normal" text-decoration="none" x="1181" y="1324.5">+tokenToSession(string): EditorSession</text></g></g><g transform="translate(-54,-198) scale(1,1)"><g><path fill="none" stroke="none"/><text fill="#000000" stroke="none" font-family="Arial" font-size="18px" font-style="normal" font-weight="normal" text-decoration="none" x="1181" y="1344.5">+...()</text></g></g><g transform="translate(-54,-198) scale(1,1)"><path fill="none" stroke="#ff0000" d="M 1387 1097 L 1389 1223" stroke-miterlimit="10"/></g><g transform="translate(-54,-198) scale(1,1)"><path fill="none" stroke="#ff0000" d="M 1384.6297204617008 1212.9054144831437 L 1389 1223 L 1393.0476955750244 1212.7717958305514" stroke-miterlimit="10"/></g><g transform="translate(-54,-198) scale(1,1)"><g><path fill="none" stroke="none"/><text fill="#000000" stroke="none" font-family="Arial" font-size="18px" font-style="normal" font-weight="normal" text-decoration="none" x="1395.5" y="1163.5">+tokenToSession[ action.getSession_jwt[ ] ]</text></g></g><g transform="translate(-54,-198) scale(1,1)"><rect fill="#C0C0C0" stroke="none" x="287" y="1031" width="533.84765625" height="87" opacity="0.2"/></g><g transform="translate(-54,-198) scale(1,1)"><rect fill="#ffffff" stroke="none" x="280" y="1024" width="533.84765625" height="87"/></g><g transform="translate(-54,-198) scale(1,1)"><path fill="none" stroke="#000000" d="M 280 1024 L 813.84765625 1024 L 813.84765625 1111 L 280 1111 L 280 1024 Z Z" stroke-miterlimit="10"/></g><g transform="translate(-54,-198) scale(1,1)"><path fill="none" stroke="#000000" d="M 280 1054 L 813.84765625 1054" stroke-miterlimit="10"/></g><g transform="translate(-54,-198) scale(1,1)"><path fill="none" stroke="#000000" d="M 280 1082 L 813.84765625 1082" stroke-miterlimit="10"/></g><g transform="translate(-54,-198) scale(1,1)"><g><path fill="none" stroke="none"/><text fill="#000000" stroke="none" font-family="Arial" font-size="18px" font-style="normal" font-weight="bold" text-decoration="none" x="398.8369140625" y="1048.5">ActionResponseProcessor {Thread2}</text></g></g><g transform="translate(-54,-198) scale(1,1)"><g><path fill="none" stroke="none"/><text fill="#000000" stroke="none" font-family="Arial" font-size="18px" font-style="normal" font-weight="normal" text-decoration="none" x="285" y="1076.5">+actionResponseQueue: BlockingQueue&lt;EditorActionResponse&gt;</text></g></g><g transform="translate(-54,-198) scale(1,1)"><rect fill="#C0C0C0" stroke="none" x="263" y="1247" width="533.8564453125" height="95" opacity="0.2"/></g><g transform="translate(-54,-198) scale(1,1)"><rect fill="#ffffff" stroke="none" x="256" y="1240" width="533.8564453125" height="95"/></g><g transform="translate(-54,-198) scale(1,1)"><path fill="none" stroke="#000000" d="M 256 1240 L 789.8564453125 1240 L 789.8564453125 1335 L 256 1335 L 256 1240 Z Z" stroke-miterlimit="10"/></g><g transform="translate(-54,-198) scale(1,1)"><path fill="none" stroke="#000000" d="M 256 1270 L 789.8564453125 1270" stroke-miterlimit="10"/></g><g transform="translate(-54,-198) scale(1,1)"><path fill="none" stroke="#000000" d="M 256 1298 L 789.8564453125 1298" stroke-miterlimit="10"/></g><g transform="translate(-54,-198) scale(1,1)"><g><path fill="none" stroke="none"/><text fill="#000000" stroke="none" font-family="Arial" font-size="18px" font-style="normal" font-weight="bold" text-decoration="none" x="349.322265625" y="1264.5">SessionStateResponseProcessor{Thread3}</text></g></g><g transform="translate(-54,-198) scale(1,1)"><g><path fill="none" stroke="none"/><text fill="#000000" stroke="none" font-family="Arial" font-size="18px" font-style="normal" font-weight="normal" text-decoration="none" x="261" y="1292.5">+stateResponseQueue: BlockingQueue&lt;SessionStateResponse&gt;</text></g></g><g transform="translate(-54,-198) scale(1,1)"><path fill="none" stroke="#00ad00" d="M 1368 1223 L 1352 1152 L 1365 1097" stroke-miterlimit="10"/></g><g transform="translate(-54,-198) scale(1,1)"><path fill="none" stroke="#00ad00" d="M 1366.7589640101064 1107.8584550287392 L 1365 1097 L 1358.5656881953787 1105.9218625634398" stroke-miterlimit="10"/></g><g transform="translate(-54,-198) scale(1,1)"><path fill="none" stroke="#00ad00" d="M 1118 1097 L 673 1239" stroke-miterlimit="10" stroke-dasharray="3"/></g><g transform="translate(-54,-198) scale(1,1)"><path fill="none" stroke="#00ad00" d="M 681.4020113927849 1231.9002672898541 L 673 1239 L 683.9613883754008 1239.9208500874888" stroke-miterlimit="10"/></g><g transform="translate(-54,-198) scale(1,1)"><g><path fill="none" stroke="none"/><text fill="#000000" stroke="none" font-family="Arial" font-size="18px" font-style="normal" font-weight="normal" text-decoration="none" x="723.5" y="1167.5">+sessionStateResponseQeueue.add[...]</text></g></g><g transform="translate(-54,-198) scale(1,1)"><path fill="none" stroke="#00ad00" d="M 1071 1033 L 815 1049" stroke-miterlimit="10" stroke-dasharray="3"/></g><g transform="translate(-54,-198) scale(1,1)"><path fill="none" stroke="#00ad00" d="M 824.8803013427749 1044.1647497090678 L 815 1049 L 825.405466349095 1052.5673898101904" stroke-miterlimit="10"/></g><g transform="translate(-54,-198) scale(1,1)"><g><path fill="none" stroke="none"/><text fill="#000000" stroke="none" font-family="Arial" font-size="18px" font-style="normal" font-weight="normal" text-decoration="none" x="823.5" y="1072.5">+actionResponseQueue.add[...]</text></g></g><g transform="translate(-54,-198) scale(1,1)"><path fill="none" stroke="#000000" d="M 559 1023 L 590 920" stroke-miterlimit="10" stroke-dasharray="3"/></g><g transform="translate(-54,-198) scale(1,1)"><path fill="none" stroke="#000000" d="M 591.1020181519069 930.9446587883253 L 590 920 L 583.0402020612063 928.5182869552019" stroke-miterlimit="10"/></g><g transform="translate(-54,-198) scale(1,1)"><g><path fill="none" stroke="none"/><text fill="#000000" stroke="none" font-family="Arial" font-size="18px" font-style="normal" font-weight="normal" text-decoration="none" x="462.5" y="974.5">+actionResponseQueue</text></g></g><g transform="translate(-54,-198) scale(1,1)"><path fill="none" stroke="#000000" d="M 339 1239 L 312 1232 L 208 1120 L 256 1000 L 451 920" stroke-miterlimit="10" stroke-dasharray="3"/></g><g transform="translate(-54,-198) scale(1,1)"><path fill="none" stroke="#000000" d="M 443.19556136404975 927.7518215651347 L 451 920 L 440.00006292191046 919.9627941124202" stroke-miterlimit="10"/></g><g transform="translate(-54,-198) scale(1,1)"><g><path fill="none" stroke="none"/><text fill="#000000" stroke="none" font-family="Arial" font-size="18px" font-style="normal" font-weight="normal" text-decoration="none" x="195.5" y="1007.5">+sessionResponseQueue</text></g></g><g transform="translate(-54,-198) scale(1,1)"><path fill="none" stroke="#ff0000" d="M 1127 620 L 1232 728 L 1339 927" stroke-miterlimit="10" stroke-dasharray="3"/></g><g transform="translate(-54,-198) scale(1,1)"><path fill="none" stroke="#ff0000" d="M 1330.4796884424006 920.0426807632941 L 1339 927 L 1337.8947975309536 916.055662308645" stroke-miterlimit="10"/></g><g transform="translate(-54,-198) scale(1,1)"><g><path fill="none" stroke="none"/><text fill="#000000" stroke="none" font-family="Arial" font-size="18px" font-style="normal" font-weight="normal" text-decoration="none" x="1142.5" y="728.5">+actionQueue.add[action]</text></g></g><g transform="translate(-54,-198) scale(1,1)"><rect fill="#C0C0C0" stroke="none" x="263" y="1479" width="439" height="135" opacity="0.2"/></g><g transform="translate(-54,-198) scale(1,1)"><rect fill="#ffffff" stroke="none" x="256" y="1472" width="439" height="135"/></g><g transform="translate(-54,-198) scale(1,1)"><path fill="none" stroke="#000000" d="M 256 1472 L 695 1472 L 695 1607 L 256 1607 L 256 1472 Z Z" stroke-miterlimit="10"/></g><g transform="translate(-54,-198) scale(1,1)"><path fill="none" stroke="#000000" d="M 256 1502 L 695 1502" stroke-miterlimit="10"/></g><g transform="translate(-54,-198) scale(1,1)"><path fill="none" stroke="#000000" d="M 256 1530 L 695 1530" stroke-miterlimit="10"/></g><g transform="translate(-54,-198) scale(1,1)"><g><path fill="none" stroke="none"/><text fill="#000000" stroke="none" font-family="Arial" font-size="18px" font-style="normal" font-weight="bold" text-decoration="none" x="315.91259765625" y="1496.5">NestedEditorActionProcessor {Thread4}</text></g></g><g transform="translate(-54,-198) scale(1,1)"><g><path fill="none" stroke="none"/><text fill="#000000" stroke="none" font-family="Arial" font-size="18px" font-style="normal" font-weight="normal" text-decoration="none" x="261" y="1524.5">+nestedActionQueue: BlockingQueue&lt;EditorAction&gt;</text></g></g><g transform="translate(-54,-198) scale(1,1)"><g><path fill="none" stroke="none"/><text fill="#000000" stroke="none" font-family="Arial" font-size="18px" font-style="normal" font-weight="normal" text-decoration="none" x="261" y="1552.5">+run(): void</text></g></g><g transform="translate(-54,-198) scale(1,1)"><path fill="none" stroke="#000000" d="M 348 1471 L 200 1392 L 184 936 L 271 919" stroke-miterlimit="10" stroke-dasharray="3"/></g><g transform="translate(-54,-198) scale(1,1)"><path fill="none" stroke="#000000" d="M 261.83323816406175 925.0803353068056 L 271 919 L 260.21867421695583 916.8175668716162" stroke-miterlimit="10"/></g><g transform="translate(-54,-198) scale(1,1)"><g><path fill="none" stroke="none"/><text fill="#000000" stroke="none" font-family="Arial" font-size="18px" font-style="normal" font-weight="normal" text-decoration="none" x="166.5" y="1423.5">+nestedActionQueue</text></g></g><g transform="translate(-54,-198) scale(1,1)"><path fill="none" stroke="#000000" d="M 592 1471 L 1238 1097" stroke-miterlimit="10"/></g><g transform="translate(-54,-198) scale(1,1)"><path fill="#FFFFFF" stroke="none" d="M 1224.6281502493346 1114.4697920492954 L 1238 1097 L 1216.1916659403212 1099.8976827882725"/></g><g transform="translate(-54,-198) scale(1,1)"><path fill="none" stroke="#000000" d="M 1224.6281502493346 1114.4697920492954 L 1238 1097 L 1216.1916659403212 1099.8976827882725 L 1224.6281502493346 1114.4697920492954" stroke-miterlimit="10"/></g><g transform="translate(-54,-198) scale(1,1)"><path fill="none" stroke="#00ad00" d="M 1175 1378 L 696 1488" stroke-miterlimit="10" stroke-dasharray="3"/></g><g transform="translate(-54,-198) scale(1,1)"><path fill="none" stroke="#00ad00" d="M 704.9626841108931 1481.622673481125 L 696 1488 L 706.8470255397826 1489.8281238851082" stroke-miterlimit="10"/></g><g transform="translate(-54,-198) scale(1,1)"><g><path fill="none" stroke="none"/><text fill="#000000" stroke="none" font-family="Arial" font-size="18px" font-style="normal" font-weight="normal" text-decoration="none" x="798.5" y="1391.5">+nestedActionQueue.add[...]</text></g></g><g transform="translate(-54,-198) scale(1,1)"><path fill="none" stroke="#00ad00" d="M 488 1471 L 513 1336" stroke-miterlimit="10" stroke-dasharray="3"/></g><g transform="translate(-54,-198) scale(1,1)"><path fill="none" stroke="#00ad00" d="M 515.288629112855 1346.759283283927 L 513 1336 L 507.0103429945488 1345.2262673360926" stroke-miterlimit="10"/></g><g transform="translate(-54,-198) scale(1,1)"><g><path fill="none" stroke="none"/><text fill="#000000" stroke="none" font-family="Arial" font-size="18px" font-style="normal" font-weight="normal" text-decoration="none" x="373.5" y="1407.5">+sessionStateResponseQeueue.add[...]</text></g></g><g transform="translate(-54,-198) scale(1,1)"><path fill="none" stroke="#00ad00" d="M 431 1471 L 360 1360 L 517 1112" stroke-miterlimit="10" stroke-dasharray="3"/></g><g transform="translate(-54,-198) scale(1,1)"><path fill="none" stroke="#00ad00" d="M 515.1208002194825 1122.838293601158 L 517 1112 L 508.00737419012216 1118.3350359938613" stroke-miterlimit="10"/></g><g transform="translate(-54,-198) scale(1,1)"><g><path fill="none" stroke="none"/><text fill="#000000" stroke="none" font-family="Arial" font-size="18px" font-style="normal" font-weight="normal" text-decoration="none" x="382.5" y="1184.5">+acionResponseQueue.add[...]</text></g></g><g transform="translate(-54,-198) scale(1,1)"><rect fill="#C0C0C0" stroke="none" x="1215" y="1511" width="287" height="85" opacity="0.2"/></g><g transform="translate(-54,-198) scale(1,1)"><rect fill="#ffffff" stroke="none" x="1208" y="1504" width="287" height="85"/></g><g transform="translate(-54,-198) scale(1,1)"><path fill="none" stroke="#000000" d="M 1208 1504 L 1495 1504 L 1495 1589 L 1208 1589 L 1208 1504 Z Z" stroke-miterlimit="10"/></g><g transform="translate(-54,-198) scale(1,1)"><path fill="none" stroke="#000000" d="M 1208 1534 L 1495 1534" stroke-miterlimit="10"/></g><g transform="translate(-54,-198) scale(1,1)"><path fill="none" stroke="#000000" d="M 1208 1562 L 1495 1562" stroke-miterlimit="10"/></g><g transform="translate(-54,-198) scale(1,1)"><g><path fill="none" stroke="none"/><text fill="#000000" stroke="none" font-family="Arial" font-size="18px" font-style="normal" font-weight="bold" text-decoration="none" x="1295.970703125" y="1528.5">EditorSession</text></g></g><g transform="translate(-54,-198) scale(1,1)"><g><path fill="none" stroke="none"/><text fill="#000000" stroke="none" font-family="Arial" font-size="18px" font-style="normal" font-weight="normal" text-decoration="none" x="1213" y="1556.5">+...</text></g></g><g transform="translate(-54,-198) scale(1,1)"><g><path fill="none" stroke="none"/><text fill="#000000" stroke="none" font-family="Arial" font-size="18px" font-style="normal" font-weight="normal" text-decoration="none" x="1213" y="1584.5">+...()</text></g></g><g transform="translate(-54,-198) scale(1,1)"><path fill="none" stroke="#ff0000" d="M 1372 1433 L 1359 1503" stroke-miterlimit="10"/></g><g transform="translate(-54,-198) scale(1,1)"><path fill="none" stroke="#ff0000" d="M 1356.7168746555355 1492.2395474694852 L 1359 1503 L 1364.9943755395934 1493.7767976336672" stroke-miterlimit="10"/></g><g transform="translate(-54,-198) scale(1,1)"><path fill="none" stroke="#00ad00" d="M 1347 1503 L 1344 1464 L 1355 1433" stroke-miterlimit="10"/></g><g transform="translate(-54,-198) scale(1,1)"><path fill="none" stroke="#00ad00" d="M 1355.5686678027066 1443.9852909351625 L 1355 1433 L 1347.6343351459757 1441.1698825730969" stroke-miterlimit="10"/></g><g transform="translate(-54,-198) scale(1,1)"><path fill="none" stroke="#00ad00" d="M 279 1065 L 128 1064 L 208 480 L 391 433" stroke-miterlimit="10"/></g><g transform="translate(-54,-198) scale(1,1)"><path fill="none" stroke="#00ad00" d="M 382.2039287763182 439.6052351228338 L 391 433 L 380.1096318432474 431.45084493662205" stroke-miterlimit="10"/></g><g transform="translate(-54,-198) scale(1,1)"><g><path fill="none" stroke="none"/><text fill="#000000" stroke="none" font-family="Arial" font-size="18px" font-style="normal" font-weight="normal" text-decoration="none" x="221.5" y="501.5">+s.getActionSocket.sendMessage[...]</text></g></g><g transform="translate(-54,-198) scale(1,1)"><path fill="none" stroke="#00ad00" d="M 255 1292 L 64 1296 L 168 432 L 391 419" stroke-miterlimit="10"/></g><g transform="translate(-54,-198) scale(1,1)"><path fill="none" stroke="#00ad00" d="M 381.09953174168703 423.79382188510766 L 391 419 L 380.60956779486463 415.3890557203848" stroke-miterlimit="10"/></g><g transform="translate(-54,-198) scale(1,1)"><g><path fill="none" stroke="none"/><text fill="#000000" stroke="none" font-family="Arial" font-size="18px" font-style="normal" font-weight="normal" text-decoration="none" x="78.5" y="410.5">+s.getStateSocket.sendMessage[...]</text></g></g><g transform="translate(-54,-198) scale(1,1)"><path fill="#ffffff" stroke="none" d="M 1320 808 L 1499.2978515625 808 L 1509.2978515625 818 L 1509.2978515625 856 L 1320 856 L 1320 808"/></g><g transform="translate(-54,-198) scale(1,1)"><path fill="none" stroke="#000000" d="M 1320 808 L 1499.2978515625 808 L 1509.2978515625 818 L 1509.2978515625 856 L 1320 856 L 1320 808 L 1320 808" stroke-miterlimit="10"/></g><g transform="translate(-54,-198) scale(1,1)"><path fill="none" stroke="#000000" d="M 1499.2978515625 808 L 1499.2978515625 818 L 1509.2978515625 818 L 1499.2978515625 808" stroke-miterlimit="10"/></g><g transform="translate(-54,-198) scale(1,1)"><g><path fill="none" stroke="none"/><text fill="#000000" stroke="none" font-family="Roboto" font-size="26px" font-style="normal" font-weight="normal" text-decoration="none" x="1325" y="839">CONSUMER{1}</text></g></g><g transform="translate(-54,-198) scale(1,1)"><path fill="none" stroke="#000000" d="M 1399 927 L 1411 858" stroke-miterlimit="10" stroke-dasharray="3"/></g><g transform="translate(-54,-198) scale(1,1)"><path fill="#ffffff" stroke="none" d="M 408 728 L 593.734375 728 L 603.734375 738 L 603.734375 776 L 408 776 L 408 728"/></g><g transform="translate(-54,-198) scale(1,1)"><path fill="none" stroke="#000000" d="M 408 728 L 593.734375 728 L 603.734375 738 L 603.734375 776 L 408 776 L 408 728 L 408 728" stroke-miterlimit="10"/></g><g transform="translate(-54,-198) scale(1,1)"><path fill="none" stroke="#000000" d="M 593.734375 728 L 593.734375 738 L 603.734375 738 L 593.734375 728" stroke-miterlimit="10"/></g><g transform="translate(-54,-198) scale(1,1)"><g><path fill="none" stroke="none"/><text fill="#000000" stroke="none" font-family="Roboto" font-size="26px" font-style="normal" font-weight="normal" text-decoration="none" x="413" y="759">QUEUE{1}{2}{3}</text></g></g><g transform="translate(-54,-198) scale(1,1)"><path fill="none" stroke="#000000" d="M 545 791 L 532 778" stroke-miterlimit="10" stroke-dasharray="3"/></g><g transform="translate(-54,-198) scale(1,1)"><path fill="#ffffff" stroke="none" d="M 360 296 L 532.099609375 296 L 542.099609375 306 L 542.099609375 344 L 360 344 L 360 296"/></g><g transform="translate(-54,-198) scale(1,1)"><path fill="none" stroke="#000000" d="M 360 296 L 532.099609375 296 L 542.099609375 306 L 542.099609375 344 L 360 344 L 360 296 L 360 296" stroke-miterlimit="10"/></g><g transform="translate(-54,-198) scale(1,1)"><path fill="none" stroke="#000000" d="M 532.099609375 296 L 532.099609375 306 L 542.099609375 306 L 532.099609375 296" stroke-miterlimit="10"/></g><g transform="translate(-54,-198) scale(1,1)"><g><path fill="none" stroke="none"/><text fill="#000000" stroke="none" font-family="Roboto" font-size="26px" font-style="normal" font-weight="normal" text-decoration="none" x="365" y="327">PRODUCER{1}</text></g></g><g transform="translate(-54,-198) scale(1,1)"><path fill="none" stroke="#000000" d="M 457 367 L 454 346" stroke-miterlimit="10" stroke-dasharray="3"/></g><g transform="translate(-54,-198) scale(1,1)"><path fill="#ffffff" stroke="none" d="M 1536 1480 L 1663.7041015625 1480 L 1673.7041015625 1490 L 1673.7041015625 1542 L 1536 1542 L 1536 1480"/></g><g transform="translate(-54,-198) scale(1,1)"><path fill="none" stroke="#000000" d="M 1536 1480 L 1663.7041015625 1480 L 1673.7041015625 1490 L 1673.7041015625 1542 L 1536 1542 L 1536 1480 L 1536 1480" stroke-miterlimit="10"/></g><g transform="translate(-54,-198) scale(1,1)"><path fill="none" stroke="#000000" d="M 1663.7041015625 1480 L 1663.7041015625 1490 L 1673.7041015625 1490 L 1663.7041015625 1480" stroke-miterlimit="10"/></g><g transform="translate(-54,-198) scale(1,1)"><g><path fill="none" stroke="none"/><text fill="#000000" stroke="none" font-family="Roboto" font-size="26px" font-style="normal" font-weight="normal" text-decoration="none" x="1541" y="1511">BUSINESS</text><text fill="#000000" stroke="none" font-family="Roboto" font-size="26px" font-style="normal" font-weight="normal" text-decoration="none" x="1541" y="1537">LOGIC</text></g></g><g transform="translate(-54,-198) scale(1,1)"><path fill="none" stroke="#000000" d="M 1496 1526 L 1535 1521" stroke-miterlimit="10" stroke-dasharray="3"/></g><g transform="translate(-54,-198) scale(1,1)"><path fill="#ffffff" stroke="none" d="M 1520 800 L 1708.6162109375 800 L 1718.6162109375 810 L 1718.6162109375 848 L 1520 848 L 1520 800"/></g><g transform="translate(-54,-198) scale(1,1)"><path fill="none" stroke="#000000" d="M 1520 800 L 1708.6162109375 800 L 1718.6162109375 810 L 1718.6162109375 848 L 1520 848 L 1520 800 L 1520 800" stroke-miterlimit="10"/></g><g transform="translate(-54,-198) scale(1,1)"><path fill="none" stroke="#000000" d="M 1708.6162109375 800 L 1708.6162109375 810 L 1718.6162109375 810 L 1708.6162109375 800" stroke-miterlimit="10"/></g><g transform="translate(-54,-198) scale(1,1)"><g><path fill="none" stroke="none"/><text fill="#000000" stroke="none" font-family="Roboto" font-size="26px" font-style="normal" font-weight="normal" text-decoration="none" x="1525" y="831">PRODUCER{2}</text></g></g><g transform="translate(-54,-198) scale(1,1)"><path fill="none" stroke="#000000" d="M 1491 927 L 1587 850" stroke-miterlimit="10" stroke-dasharray="3"/></g><g transform="translate(-54,-198) scale(1,1)"><path fill="none" stroke="#ff0000" d="M 696 1509 L 968 1472 L 1175 1402" stroke-miterlimit="10"/></g><g transform="translate(-54,-198) scale(1,1)"><path fill="none" stroke="#ff0000" d="M 1166.7213749033099 1409.2432290111835 L 1175 1402 L 1164.0243917037342 1401.2678644067244" stroke-miterlimit="10"/></g><g transform="translate(-54,-198) scale(1,1)"><g><path fill="none" stroke="none"/><text fill="#000000" stroke="none" font-family="Arial" font-size="18px" font-style="normal" font-weight="normal" text-decoration="none" x="718.5" y="1520.5">+tokenToSession[ action.getSession_jwt[ ] ]</text></g></g><g transform="translate(-54,-198) scale(1,1)"><path fill="#ffffff" stroke="none" d="M 936 1456 L 1184 1456 L 1194 1466 L 1194 1484 L 936 1484 L 936 1456"/></g><g transform="translate(-54,-198) scale(1,1)"><path fill="none" stroke="#000000" d="M 936 1456 L 1184 1456 L 1194 1466 L 1194 1484 L 936 1484 L 936 1456 L 936 1456" stroke-miterlimit="10"/></g><g transform="translate(-54,-198) scale(1,1)"><path fill="none" stroke="#000000" d="M 1184 1456 L 1184 1466 L 1194 1466 L 1184 1456" stroke-miterlimit="10"/></g><g transform="translate(-54,-198) scale(1,1)"><g><path fill="none" stroke="none"/><text fill="#000000" stroke="none" font-family="Arial" font-size="18px" font-style="normal" font-weight="normal" text-decoration="none" x="941" y="1479">this invoke never cause cyle</text></g></g><g transform="translate(-54,-198) scale(1,1)"><path fill="none" stroke="#000000" d="M 1071 1437 L 1068 1455" stroke-miterlimit="10" stroke-dasharray="3"/></g><g transform="translate(-54,-198) scale(1,1)"><path fill="#ffffff" stroke="none" d="M 792 976 L 983.498046875 976 L 993.498046875 986 L 993.498046875 1024 L 792 1024 L 792 976"/></g><g transform="translate(-54,-198) scale(1,1)"><path fill="none" stroke="#000000" d="M 792 976 L 983.498046875 976 L 993.498046875 986 L 993.498046875 1024 L 792 1024 L 792 976 L 792 976" stroke-miterlimit="10"/></g><g transform="translate(-54,-198) scale(1,1)"><path fill="none" stroke="#000000" d="M 983.498046875 976 L 983.498046875 986 L 993.498046875 986 L 983.498046875 976" stroke-miterlimit="10"/></g><g transform="translate(-54,-198) scale(1,1)"><g><path fill="none" stroke="none"/><text fill="#000000" stroke="none" font-family="Roboto" font-size="26px" font-style="normal" font-weight="normal" text-decoration="none" x="797" y="1007">CONSUMER{2}</text></g></g><g transform="translate(-54,-198) scale(1,1)"><path fill="none" stroke="#000000" d="M 774 1023 L 791 1020" stroke-miterlimit="10" stroke-dasharray="3"/></g><g transform="translate(-54,-198) scale(1,1)"><path fill="#ffffff" stroke="none" d="M 784 1192 L 975.498046875 1192 L 985.498046875 1202 L 985.498046875 1239 L 784 1239 L 784 1192"/></g><g transform="translate(-54,-198) scale(1,1)"><path fill="none" stroke="#000000" d="M 784 1192 L 975.498046875 1192 L 985.498046875 1202 L 985.498046875 1239 L 784 1239 L 784 1192 L 784 1192" stroke-miterlimit="10"/></g><g transform="translate(-54,-198) scale(1,1)"><path fill="none" stroke="#000000" d="M 975.498046875 1192 L 975.498046875 1202 L 985.498046875 1202 L 975.498046875 1192" stroke-miterlimit="10"/></g><g transform="translate(-54,-198) scale(1,1)"><g><path fill="none" stroke="none"/><text fill="#000000" stroke="none" font-family="Roboto" font-size="26px" font-style="normal" font-weight="normal" text-decoration="none" x="789" y="1223">CONSUMER{2}</text></g></g><g transform="translate(-54,-198) scale(1,1)"><path fill="none" stroke="#000000" d="M 767 1239 L 783 1236" stroke-miterlimit="10" stroke-dasharray="3"/></g><g transform="translate(-54,-198) scale(1,1)"><path fill="#ffffff" stroke="none" d="M 1677 1224 L 1865.6162109375 1224 L 1875.6162109375 1234 L 1875.6162109375 1272 L 1677 1272 L 1677 1224"/></g><g transform="translate(-54,-198) scale(1,1)"><path fill="none" stroke="#000000" d="M 1677 1224 L 1865.6162109375 1224 L 1875.6162109375 1234 L 1875.6162109375 1272 L 1677 1272 L 1677 1224 L 1677 1224" stroke-miterlimit="10"/></g><g transform="translate(-54,-198) scale(1,1)"><path fill="none" stroke="#000000" d="M 1865.6162109375 1224 L 1865.6162109375 1234 L 1875.6162109375 1234 L 1865.6162109375 1224" stroke-miterlimit="10"/></g><g transform="translate(-54,-198) scale(1,1)"><g><path fill="none" stroke="none"/><text fill="#000000" stroke="none" font-family="Roboto" font-size="26px" font-style="normal" font-weight="normal" text-decoration="none" x="1682" y="1255">PRODUCER{3}</text></g></g><g transform="translate(-54,-198) scale(1,1)"><path fill="none" stroke="#000000" d="M 1608 1283 L 1676 1269" stroke-miterlimit="10" stroke-dasharray="3"/></g><g transform="translate(-54,-198) scale(1,1)"><path fill="#ffffff" stroke="none" d="M 632 1616 L 813 1616 L 823 1626 L 823 1663 L 632 1663 L 632 1616"/></g><g transform="translate(-54,-198) scale(1,1)"><path fill="none" stroke="#000000" d="M 632 1616 L 813 1616 L 823 1626 L 823 1663 L 632 1663 L 632 1616 L 632 1616" stroke-miterlimit="10"/></g><g transform="translate(-54,-198) scale(1,1)"><path fill="none" stroke="#000000" d="M 813 1616 L 813 1626 L 823 1626 L 813 1616" stroke-miterlimit="10"/></g><g transform="translate(-54,-198) scale(1,1)"><g><path fill="none" stroke="none"/><text fill="#000000" stroke="none" font-family="Roboto" font-size="26px" font-style="normal" font-weight="normal" text-decoration="none" x="637" y="1647">CONSUMER{3}</text></g></g><g transform="translate(-54,-198) scale(1,1)"><g><path fill="none" stroke="none"/></g></g><g transform="translate(-54,-198) scale(1,1)"><path fill="none" stroke="#000000" d="M 648 1608 L 665 1615" stroke-miterlimit="10" stroke-dasharray="3"/></g><g transform="translate(-54,-198) scale(1,1)"><path fill="#ffffff" stroke="none" d="M 408 1624 L 596.6162109375 1624 L 606.6162109375 1634 L 606.6162109375 1672 L 408 1672 L 408 1624"/></g><g transform="translate(-54,-198) scale(1,1)"><path fill="none" stroke="#000000" d="M 408 1624 L 596.6162109375 1624 L 606.6162109375 1634 L 606.6162109375 1672 L 408 1672 L 408 1624 L 408 1624" stroke-miterlimit="10"/></g><g transform="translate(-54,-198) scale(1,1)"><path fill="none" stroke="#000000" d="M 596.6162109375 1624 L 596.6162109375 1634 L 606.6162109375 1634 L 596.6162109375 1624" stroke-miterlimit="10"/></g><g transform="translate(-54,-198) scale(1,1)"><g><path fill="none" stroke="none"/><text fill="#000000" stroke="none" font-family="Roboto" font-size="26px" font-style="normal" font-weight="normal" text-decoration="none" x="413" y="1655">PRODUCER{2}</text></g></g><g transform="translate(-54,-198) scale(1,1)"><path fill="none" stroke="#000000" d="M 495 1608 L 500 1623" stroke-miterlimit="10" stroke-dasharray="3"/></g></g></svg>