<svg version="1.1" xmlns="http://www.w3.org/2000/svg" xmlns:xlink="http://www.w3.org/1999/xlink" width="740" height="547"><defs/><g><g transform="translate(-110,-110) scale(1,1)"><rect fill="#C0C0C0" stroke="none" x="175" y="143" width="231" height="75" opacity="0.2"/></g><g transform="translate(-110,-110) scale(1,1)"><rect fill="#ffffff" stroke="none" x="168" y="136" width="231" height="75"/></g><g transform="translate(-110,-110) scale(1,1)"><path fill="none" stroke="#000000" d="M 168 136 L 399 136 L 399 211 L 168 211 L 168 136 Z Z" stroke-miterlimit="10"/></g><g transform="translate(-110,-110) scale(1,1)"><path fill="none" stroke="#000000" d="M 168 174 L 399 174" stroke-miterlimit="10"/></g><g transform="translate(-110,-110) scale(1,1)"><g><path fill="none" stroke="none"/><text fill="#000000" stroke="none" font-family="Arial" font-size="13px" font-style="normal" font-weight="normal" text-decoration="none" x="240.135986328125" y="153.5">«enumeration»</text></g></g><g transform="translate(-110,-110) scale(1,1)"><g><path fill="none" stroke="none"/><text fill="#000000" stroke="none" font-family="Arial" font-size="13px" font-style="normal" font-weight="bold" text-decoration="none" x="221.00732421875" y="168.5">RESPONSE_SCOPE</text></g></g><g transform="translate(-110,-110) scale(1,1)"><g><path fill="none" stroke="none"/><text fill="#000000" stroke="none" font-family="Arial" font-size="13px" font-style="normal" font-weight="normal" text-decoration="none" x="173" y="191.5">PUBLIC</text></g></g><g transform="translate(-110,-110) scale(1,1)"><g><path fill="none" stroke="none"/><text fill="#000000" stroke="none" font-family="Arial" font-size="13px" font-style="normal" font-weight="normal" text-decoration="none" x="173" y="206.5">PRIVATE</text></g></g><g transform="translate(-110,-110) scale(1,1)"><rect fill="#C0C0C0" stroke="none" x="455" y="127" width="207" height="127" opacity="0.2"/></g><g transform="translate(-110,-110) scale(1,1)"><rect fill="#ffffff" stroke="none" x="448" y="120" width="207" height="127"/></g><g transform="translate(-110,-110) scale(1,1)"><path fill="none" stroke="#000000" d="M 448 120 L 655 120 L 655 247 L 448 247 L 448 120 Z Z" stroke-miterlimit="10"/></g><g transform="translate(-110,-110) scale(1,1)"><path fill="none" stroke="#000000" d="M 448 158 L 655 158" stroke-miterlimit="10"/></g><g transform="translate(-110,-110) scale(1,1)"><g><path fill="none" stroke="none"/><text fill="#000000" stroke="none" font-family="Arial" font-size="13px" font-style="normal" font-weight="normal" text-decoration="none" x="508.135986328125" y="137.5">«enumeration»</text></g></g><g transform="translate(-110,-110) scale(1,1)"><g><path fill="none" stroke="none"/><text fill="#000000" stroke="none" font-family="Arial" font-size="13px" font-style="normal" font-weight="bold" text-decoration="none" x="505.02880859375" y="152.5">TARGET_TYPE</text></g></g><g transform="translate(-110,-110) scale(1,1)"><g><path fill="none" stroke="none"/><text fill="#000000" stroke="none" font-family="Arial" font-size="13px" font-style="normal" font-weight="normal" text-decoration="none" x="453" y="175.5">ITEM</text></g></g><g transform="translate(-110,-110) scale(1,1)"><g><path fill="none" stroke="none"/><text fill="#000000" stroke="none" font-family="Arial" font-size="13px" font-style="normal" font-weight="normal" text-decoration="none" x="453" y="190.5">CONTAINER</text></g></g><g transform="translate(-110,-110) scale(1,1)"><g><path fill="none" stroke="none"/><text fill="#000000" stroke="none" font-family="Arial" font-size="13px" font-style="normal" font-weight="normal" text-decoration="none" x="453" y="205.5">ITEM_INJECTION</text></g></g><g transform="translate(-110,-110) scale(1,1)"><g><path fill="none" stroke="none"/><text fill="#000000" stroke="none" font-family="Arial" font-size="13px" font-style="normal" font-weight="normal" text-decoration="none" x="453" y="220.5">CONTAINER_INJECTION</text></g></g><g transform="translate(-110,-110) scale(1,1)"><rect fill="#C0C0C0" stroke="none" x="391" y="311" width="263" height="117" opacity="0.2"/></g><g transform="translate(-110,-110) scale(1,1)"><rect fill="#ffffff" stroke="none" x="384" y="304" width="263" height="117"/></g><g transform="translate(-110,-110) scale(1,1)"><path fill="none" stroke="#000000" d="M 384 304 L 647 304 L 647 421 L 384 421 L 384 304 Z Z" stroke-miterlimit="10"/></g><g transform="translate(-110,-110) scale(1,1)"><path fill="none" stroke="#000000" d="M 384 329 L 647 329" stroke-miterlimit="10"/></g><g transform="translate(-110,-110) scale(1,1)"><path fill="none" stroke="#000000" d="M 384 412 L 647 412" stroke-miterlimit="10"/></g><g transform="translate(-110,-110) scale(1,1)"><g><path fill="none" stroke="none"/><text fill="#000000" stroke="none" font-family="Arial" font-size="13px" font-style="normal" font-weight="bold" text-decoration="none" x="463.83642578125" y="323.5">CustomResponse</text></g></g><g transform="translate(-110,-110) scale(1,1)"><g><path fill="none" stroke="none"/><text fill="#000000" stroke="none" font-family="Arial" font-size="13px" font-style="normal" font-weight="normal" text-decoration="none" x="389" y="346.5">+scope: RESPONSE_SCOPE</text></g></g><g transform="translate(-110,-110) scale(1,1)"><g><path fill="none" stroke="none"/><text fill="#000000" stroke="none" font-family="Arial" font-size="13px" font-style="normal" font-weight="normal" text-decoration="none" x="389" y="361.5">+target_user_id: string</text></g></g><g transform="translate(-110,-110) scale(1,1)"><g><path fill="none" stroke="none"/><text fill="#000000" stroke="none" font-family="Arial" font-size="13px" font-style="normal" font-weight="normal" text-decoration="none" x="389" y="376.5">+response_msg: string</text></g></g><g transform="translate(-110,-110) scale(1,1)"><g><path fill="none" stroke="none"/><text fill="#000000" stroke="none" font-family="Arial" font-size="13px" font-style="normal" font-weight="normal" text-decoration="none" x="389" y="391.5">+target_id: string</text></g></g><g transform="translate(-110,-110) scale(1,1)"><g><path fill="none" stroke="none"/><text fill="#000000" stroke="none" font-family="Arial" font-size="13px" font-style="normal" font-weight="normal" text-decoration="none" x="389" y="406.5">+target_type: TARGET_TYPE</text></g></g><g transform="translate(-110,-110) scale(1,1)"><rect fill="#C0C0C0" stroke="none" x="463" y="511" width="168" height="135" opacity="0.2"/></g><g transform="translate(-110,-110) scale(1,1)"><rect fill="#ffffff" stroke="none" x="456" y="504" width="168" height="135"/></g><g transform="translate(-110,-110) scale(1,1)"><path fill="none" stroke="#000000" d="M 456 504 L 624 504 L 624 639 L 456 639 L 456 504 Z Z" stroke-miterlimit="10"/></g><g transform="translate(-110,-110) scale(1,1)"><path fill="none" stroke="#000000" d="M 456 529 L 624 529" stroke-miterlimit="10"/></g><g transform="translate(-110,-110) scale(1,1)"><path fill="none" stroke="#000000" d="M 456 552 L 624 552" stroke-miterlimit="10"/></g><g transform="translate(-110,-110) scale(1,1)"><g><path fill="none" stroke="none"/><text fill="#000000" stroke="none" font-family="Arial" font-size="13px" font-style="normal" font-weight="bold" text-decoration="none" x="475.685546875" y="523.5">EditorActionResponse</text></g></g><g transform="translate(-110,-110) scale(1,1)"><g><path fill="none" stroke="none"/><text fill="#000000" stroke="none" font-family="Arial" font-size="13px" font-style="normal" font-weight="normal" text-decoration="none" x="461" y="546.5">+action: EditorAction</text></g></g><g transform="translate(-110,-110) scale(1,1)"><rect fill="#C0C0C0" stroke="none" x="687" y="495" width="151" height="147" opacity="0.2"/></g><g transform="translate(-110,-110) scale(1,1)"><rect fill="#ffffff" stroke="none" x="680" y="488" width="151" height="147"/></g><g transform="translate(-110,-110) scale(1,1)"><path fill="none" stroke="#000000" d="M 680 488 L 831 488 L 831 635 L 680 635 L 680 488 Z Z" stroke-miterlimit="10"/></g><g transform="translate(-110,-110) scale(1,1)"><path fill="none" stroke="#000000" d="M 680 513 L 831 513" stroke-miterlimit="10"/></g><g transform="translate(-110,-110) scale(1,1)"><path fill="none" stroke="#000000" d="M 680 626 L 831 626" stroke-miterlimit="10"/></g><g transform="translate(-110,-110) scale(1,1)"><g><path fill="none" stroke="none"/><text fill="#000000" stroke="none" font-family="Arial" font-size="13px" font-style="normal" font-weight="bold" text-decoration="none" x="720.45458984375" y="507.5">EditorAction</text></g></g><g transform="translate(-110,-110) scale(1,1)"><g><path fill="none" stroke="none"/><text fill="#000000" stroke="none" font-family="Arial" font-size="13px" font-style="normal" font-weight="normal" text-decoration="none" x="685" y="530.5">+user_id: string</text></g></g><g transform="translate(-110,-110) scale(1,1)"><g><path fill="none" stroke="none"/><text fill="#000000" stroke="none" font-family="Arial" font-size="13px" font-style="normal" font-weight="normal" text-decoration="none" x="685" y="545.5">+id: string</text></g></g><g transform="translate(-110,-110) scale(1,1)"><g><path fill="none" stroke="none"/><text fill="#000000" stroke="none" font-family="Arial" font-size="13px" font-style="normal" font-weight="normal" text-decoration="none" x="685" y="560.5">+json: string</text></g></g><g transform="translate(-110,-110) scale(1,1)"><g><path fill="none" stroke="none"/><text fill="#000000" stroke="none" font-family="Arial" font-size="13px" font-style="normal" font-weight="normal" text-decoration="none" x="685" y="575.5">+action: ACTION_TYPE</text></g></g><g transform="translate(-110,-110) scale(1,1)"><g><path fill="none" stroke="none"/><text fill="#000000" stroke="none" font-family="Arial" font-size="13px" font-style="normal" font-weight="normal" text-decoration="none" x="685" y="590.5">+target: ActionTarget</text></g></g><g transform="translate(-110,-110) scale(1,1)"><g><path fill="none" stroke="none"/><text fill="#000000" stroke="none" font-family="Arial" font-size="13px" font-style="normal" font-weight="normal" text-decoration="none" x="685" y="605.5">+extra: any</text></g></g><g transform="translate(-110,-110) scale(1,1)"><g><path fill="none" stroke="none"/><text fill="#000000" stroke="none" font-family="Arial" font-size="13px" font-style="normal" font-weight="normal" text-decoration="none" x="685" y="620.5">+session_jwt: string</text></g></g><g transform="translate(-110,-110) scale(1,1)"><rect fill="#C0C0C0" stroke="none" x="679" y="175" width="135" height="95" opacity="0.2"/></g><g transform="translate(-110,-110) scale(1,1)"><rect fill="#ffffff" stroke="none" x="672" y="168" width="135" height="95"/></g><g transform="translate(-110,-110) scale(1,1)"><path fill="none" stroke="#000000" d="M 672 168 L 807 168 L 807 263 L 672 263 L 672 168 Z Z" stroke-miterlimit="10"/></g><g transform="translate(-110,-110) scale(1,1)"><path fill="none" stroke="#000000" d="M 672 193 L 807 193" stroke-miterlimit="10"/></g><g transform="translate(-110,-110) scale(1,1)"><path fill="none" stroke="#000000" d="M 672 246 L 807 246" stroke-miterlimit="10"/></g><g transform="translate(-110,-110) scale(1,1)"><g><path fill="none" stroke="none"/><text fill="#000000" stroke="none" font-family="Arial" font-size="13px" font-style="normal" font-weight="bold" text-decoration="none" x="703.369140625" y="187.5">ActionTarget</text></g></g><g transform="translate(-110,-110) scale(1,1)"><g><path fill="none" stroke="none"/><text fill="#000000" stroke="none" font-family="Arial" font-size="13px" font-style="normal" font-weight="normal" text-decoration="none" x="677" y="210.5">+target_id: string</text></g></g><g transform="translate(-110,-110) scale(1,1)"><g><path fill="none" stroke="none"/><text fill="#000000" stroke="none" font-family="Arial" font-size="13px" font-style="normal" font-weight="normal" text-decoration="none" x="677" y="225.5">+parent_id: string</text></g></g><g transform="translate(-110,-110) scale(1,1)"><g><path fill="none" stroke="none"/><text fill="#000000" stroke="none" font-family="Arial" font-size="13px" font-style="normal" font-weight="normal" text-decoration="none" x="677" y="240.5">+_type: string</text></g></g><g transform="translate(-110,-110) scale(1,1)"><path fill="none" stroke="#000000" d="M 532 503 L 522 422" stroke-miterlimit="10"/></g><g transform="translate(-110,-110) scale(1,1)"><path fill="#FFFFFF" stroke="none" d="M 532.8459954683127 441.14064738459336 L 522 422 L 516.134795382416 443.203758506309"/></g><g transform="translate(-110,-110) scale(1,1)"><path fill="none" stroke="#000000" d="M 532.8459954683127 441.14064738459336 L 522 422 L 516.134795382416 443.203758506309 L 532.8459954683127 441.14064738459336" stroke-miterlimit="10"/></g><g transform="translate(-110,-110) scale(1,1)"><path fill="none" stroke="#000000" d="M 679 565 L 625 567" stroke-miterlimit="10"/></g><g transform="translate(-110,-110) scale(1,1)"><path fill="#000000" stroke="none" d="M 634.9999104938764 562.417228991706 L 625 567 L 635.3115129780683 570.8304960648887 L 646.9849263428689 566.1857434687827"/></g><g transform="translate(-110,-110) scale(1,1)"><path fill="none" stroke="#000000" d="M 634.9999104938764 562.417228991706 L 625 567 L 635.3115129780683 570.8304960648887 L 646.9849263428689 566.1857434687827 L 634.9999104938764 562.417228991706" stroke-miterlimit="10"/></g><g transform="translate(-110,-110) scale(1,1)"><path fill="none" stroke="#000000" d="M 698 264 L 664 305 L 664 440 L 699 487" stroke-miterlimit="10"/></g><g transform="translate(-110,-110) scale(1,1)"><path fill="#000000" stroke="none" d="M 689.5539636406862 481.3632990944595 L 699 487 L 696.3063930688226 476.33489420116643 L 685.8601447880403 469.3550515725113"/></g><g transform="translate(-110,-110) scale(1,1)"><path fill="none" stroke="#000000" d="M 689.5539636406862 481.3632990944595 L 699 487 L 696.3063930688226 476.33489420116643 L 685.8601447880403 469.3550515725113 L 689.5539636406862 481.3632990944595" stroke-miterlimit="10"/></g><g transform="translate(-110,-110) scale(1,1)"><path fill="none" stroke="#000000" d="M 538 248 L 527 303" stroke-miterlimit="10"/></g><g transform="translate(-110,-110) scale(1,1)"><path fill="#000000" stroke="none" d="M 524.8652927502162 292.20912306817837 L 527 303 L 533.1208362812703 293.8602317743892 L 531.31455497304 281.42722513479976"/></g><g transform="translate(-110,-110) scale(1,1)"><path fill="none" stroke="#000000" d="M 524.8652927502162 292.20912306817837 L 527 303 L 533.1208362812703 293.8602317743892 L 531.31455497304 281.42722513479976 L 524.8652927502162 292.20912306817837" stroke-miterlimit="10"/></g><g transform="translate(-110,-110) scale(1,1)"><path fill="none" stroke="#000000" d="M 331 212 L 443 303" stroke-miterlimit="10"/></g><g transform="translate(-110,-110) scale(1,1)"><path fill="#FFFFFF" stroke="none" d="M 432.4581149122204 299.8585578477313 L 443 303 L 437.7670966165162 293.32442651936725 L 425.9254919974422 289.12696224792177"/></g><g transform="translate(-110,-110) scale(1,1)"><path fill="none" stroke="#000000" d="M 432.4581149122204 299.8585578477313 L 443 303 L 437.7670966165162 293.32442651936725 L 425.9254919974422 289.12696224792177 L 432.4581149122204 299.8585578477313" stroke-miterlimit="10"/></g><g transform="translate(-110,-110) scale(1,1)"><rect fill="#C0C0C0" stroke="none" x="255" y="551" width="174.8515625" height="103" opacity="0.2"/></g><g transform="translate(-110,-110) scale(1,1)"><rect fill="#ffffff" stroke="none" x="248" y="544" width="174.8515625" height="103"/></g><g transform="translate(-110,-110) scale(1,1)"><path fill="none" stroke="#000000" d="M 248 544 L 422.8515625 544 L 422.8515625 647 L 248 647 L 248 544 Z Z" stroke-miterlimit="10"/></g><g transform="translate(-110,-110) scale(1,1)"><path fill="none" stroke="#000000" d="M 248 569 L 422.8515625 569" stroke-miterlimit="10"/></g><g transform="translate(-110,-110) scale(1,1)"><path fill="none" stroke="#000000" d="M 248 607 L 422.8515625 607" stroke-miterlimit="10"/></g><g transform="translate(-110,-110) scale(1,1)"><g><path fill="none" stroke="none"/><text fill="#000000" stroke="none" font-family="Arial" font-size="13px" font-style="normal" font-weight="bold" text-decoration="none" x="267.85498046875" y="563.5">SessionStateResponse</text></g></g><g transform="translate(-110,-110) scale(1,1)"><g><path fill="none" stroke="none"/><text fill="#000000" stroke="none" font-family="Arial" font-size="13px" font-style="normal" font-weight="normal" text-decoration="none" x="253" y="586.5">+sessionState: SessionState</text></g></g><g transform="translate(-110,-110) scale(1,1)"><g><path fill="none" stroke="none"/><text fill="#000000" stroke="none" font-family="Arial" font-size="13px" font-style="normal" font-weight="normal" text-decoration="none" x="253" y="601.5">+action_id: string</text></g></g><g transform="translate(-110,-110) scale(1,1)"><path fill="none" stroke="#000000" d="M 375 543 L 469 422" stroke-miterlimit="10"/></g><g transform="translate(-110,-110) scale(1,1)"><path fill="#FFFFFF" stroke="none" d="M 463.17916995750204 443.2159830697602 L 469 422 L 449.88208610664884 432.8860171029817"/></g><g transform="translate(-110,-110) scale(1,1)"><path fill="none" stroke="#000000" d="M 463.17916995750204 443.2159830697602 L 469 422 L 449.88208610664884 432.8860171029817 L 463.17916995750204 443.2159830697602" stroke-miterlimit="10"/></g><g transform="translate(-110,-110) scale(1,1)"><rect fill="#C0C0C0" stroke="none" x="127" y="367" width="238.4296875" height="135" opacity="0.2"/></g><g transform="translate(-110,-110) scale(1,1)"><rect fill="#ffffff" stroke="none" x="120" y="360" width="238.4296875" height="135"/></g><g transform="translate(-110,-110) scale(1,1)"><path fill="none" stroke="#000000" d="M 120 360 L 358.4296875 360 L 358.4296875 495 L 120 495 L 120 360 Z Z" stroke-miterlimit="10"/></g><g transform="translate(-110,-110) scale(1,1)"><path fill="none" stroke="#000000" d="M 120 385 L 358.4296875 385" stroke-miterlimit="10"/></g><g transform="translate(-110,-110) scale(1,1)"><path fill="none" stroke="#000000" d="M 120 453 L 358.4296875 453" stroke-miterlimit="10"/></g><g transform="translate(-110,-110) scale(1,1)"><g><path fill="none" stroke="none"/><text fill="#000000" stroke="none" font-family="Arial" font-size="13px" font-style="normal" font-weight="bold" text-decoration="none" x="200.9130859375" y="379.5">SessionState</text></g></g><g transform="translate(-110,-110) scale(1,1)"><g><path fill="none" stroke="none"/><text fill="#000000" stroke="none" font-family="Arial" font-size="13px" font-style="normal" font-weight="normal" text-decoration="none" x="125" y="402.5">+locks: LOCK_TYPE</text></g></g><g transform="translate(-110,-110) scale(1,1)"><g><path fill="none" stroke="none"/><text fill="#000000" stroke="none" font-family="Arial" font-size="13px" font-style="normal" font-weight="normal" text-decoration="none" x="125" y="417.5">+lockerUser_id: string</text></g></g><g transform="translate(-110,-110) scale(1,1)"><g><path fill="none" stroke="none"/><text fill="#000000" stroke="none" font-family="Arial" font-size="13px" font-style="normal" font-weight="normal" text-decoration="none" x="125" y="432.5">+draft: boolean</text></g></g><g transform="translate(-110,-110) scale(1,1)"><g><path fill="none" stroke="none"/><text fill="#000000" stroke="none" font-family="Arial" font-size="13px" font-style="normal" font-weight="normal" text-decoration="none" x="125" y="447.5">+extra: any</text></g></g><g transform="translate(-110,-110) scale(1,1)"><g><path fill="none" stroke="none"/><text fill="#000000" stroke="none" font-family="Arial" font-size="13px" font-style="normal" font-weight="normal" text-decoration="none" x="125" y="470.5">+has_lock(type: LOCK_TYPE): boolean</text></g></g><g transform="translate(-110,-110) scale(1,1)"><rect fill="#C0C0C0" stroke="none" x="207" y="239" width="135" height="90" opacity="0.2"/></g><g transform="translate(-110,-110) scale(1,1)"><rect fill="#ffffff" stroke="none" x="200" y="232" width="135" height="90"/></g><g transform="translate(-110,-110) scale(1,1)"><path fill="none" stroke="#000000" d="M 200 232 L 335 232 L 335 322 L 200 322 L 200 232 Z Z" stroke-miterlimit="10"/></g><g transform="translate(-110,-110) scale(1,1)"><path fill="none" stroke="#000000" d="M 200 270 L 335 270" stroke-miterlimit="10"/></g><g transform="translate(-110,-110) scale(1,1)"><g><path fill="none" stroke="none"/><text fill="#000000" stroke="none" font-family="Arial" font-size="13px" font-style="normal" font-weight="normal" text-decoration="none" x="224.135986328125" y="249.5">«enumeration»</text></g></g><g transform="translate(-110,-110) scale(1,1)"><g><path fill="none" stroke="none"/><text fill="#000000" stroke="none" font-family="Arial" font-size="13px" font-style="normal" font-weight="bold" text-decoration="none" x="229.207763671875" y="264.5">LOCK_TYPE</text></g></g><g transform="translate(-110,-110) scale(1,1)"><g><path fill="none" stroke="none"/><text fill="#000000" stroke="none" font-family="Arial" font-size="13px" font-style="normal" font-weight="normal" text-decoration="none" x="205" y="287.5">NO_MOVE</text></g></g><g transform="translate(-110,-110) scale(1,1)"><g><path fill="none" stroke="none"/><text fill="#000000" stroke="none" font-family="Arial" font-size="13px" font-style="normal" font-weight="normal" text-decoration="none" x="205" y="302.5">NO_DELETE</text></g></g><g transform="translate(-110,-110) scale(1,1)"><g><path fill="none" stroke="none"/><text fill="#000000" stroke="none" font-family="Arial" font-size="13px" font-style="normal" font-weight="normal" text-decoration="none" x="205" y="317.5">NO_EDIT</text></g></g><g transform="translate(-110,-110) scale(1,1)"><path fill="none" stroke="#000000" d="M 258 323 L 252 359" stroke-miterlimit="10"/></g><g transform="translate(-110,-110) scale(1,1)"><path fill="#000000" stroke="none" d="M 249.51849071810935 348.2835588144249 L 252 359 L 257.8229761917047 349.66763972669077 L 255.61677772071786 337.2993336756928"/></g><g transform="translate(-110,-110) scale(1,1)"><path fill="none" stroke="#000000" d="M 249.51849071810935 348.2835588144249 L 252 359 L 257.8229761917047 349.66763972669077 L 255.61677772071786 337.2993336756928 L 249.51849071810935 348.2835588144249" stroke-miterlimit="10"/></g><g transform="translate(-110,-110) scale(1,1)"><path fill="none" stroke="#000000" d="M 278 496 L 305 543" stroke-miterlimit="10"/></g><g transform="translate(-110,-110) scale(1,1)"><path fill="#000000" stroke="none" d="M 296.2876268912442 536.2847520660939 L 305 543 L 303.5878192459854 532.0910245431576 L 294.0412618674971 523.9236780656431"/></g><g transform="translate(-110,-110) scale(1,1)"><path fill="none" stroke="#000000" d="M 296.2876268912442 536.2847520660939 L 305 543 L 303.5878192459854 532.0910245431576 L 294.0412618674971 523.9236780656431 L 296.2876268912442 536.2847520660939" stroke-miterlimit="10"/></g><g transform="translate(-110,-110) scale(1,1)"><rect fill="#C0C0C0" stroke="none" x="695" y="303" width="152" height="151" opacity="0.2"/></g><g transform="translate(-110,-110) scale(1,1)"><rect fill="#ffffff" stroke="none" x="688" y="296" width="152" height="151"/></g><g transform="translate(-110,-110) scale(1,1)"><path fill="none" stroke="#000000" d="M 688 296 L 840 296 L 840 447 L 688 447 L 688 296 Z Z" stroke-miterlimit="10"/></g><g transform="translate(-110,-110) scale(1,1)"><path fill="none" stroke="#000000" d="M 688 334 L 840 334" stroke-miterlimit="10"/></g><g transform="translate(-110,-110) scale(1,1)"><g><path fill="none" stroke="none"/><text fill="#000000" stroke="none" font-family="Arial" font-size="13px" font-style="normal" font-weight="normal" text-decoration="none" x="720.635986328125" y="313.5">«enumeration»</text></g></g><g transform="translate(-110,-110) scale(1,1)"><g><path fill="none" stroke="none"/><text fill="#000000" stroke="none" font-family="Arial" font-size="13px" font-style="normal" font-weight="bold" text-decoration="none" x="718.852294921875" y="328.5">ACTION_TYPE</text></g></g><g transform="translate(-110,-110) scale(1,1)"><g><path fill="none" stroke="none"/><text fill="#000000" stroke="none" font-family="Arial" font-size="13px" font-style="normal" font-weight="normal" text-decoration="none" x="693" y="351.5">CREATE</text></g></g><g transform="translate(-110,-110) scale(1,1)"><g><path fill="none" stroke="none"/><text fill="#000000" stroke="none" font-family="Arial" font-size="13px" font-style="normal" font-weight="normal" text-decoration="none" x="693" y="366.5">UPDATE</text></g></g><g transform="translate(-110,-110) scale(1,1)"><g><path fill="none" stroke="none"/><text fill="#000000" stroke="none" font-family="Arial" font-size="13px" font-style="normal" font-weight="normal" text-decoration="none" x="693" y="381.5">DIMENSION_UPDATE</text></g></g><g transform="translate(-110,-110) scale(1,1)"><g><path fill="none" stroke="none"/><text fill="#000000" stroke="none" font-family="Arial" font-size="13px" font-style="normal" font-weight="normal" text-decoration="none" x="693" y="396.5">SELECT</text></g></g><g transform="translate(-110,-110) scale(1,1)"><g><path fill="none" stroke="none"/><text fill="#000000" stroke="none" font-family="Arial" font-size="13px" font-style="normal" font-weight="normal" text-decoration="none" x="693" y="411.5">DELETE</text></g></g><g transform="translate(-110,-110) scale(1,1)"><g><path fill="none" stroke="none"/><text fill="#000000" stroke="none" font-family="Arial" font-size="13px" font-style="normal" font-weight="normal" text-decoration="none" x="693" y="426.5">RESTORE</text></g></g><g transform="translate(-110,-110) scale(1,1)"><path fill="none" stroke="#000000" d="M 760 448 L 759 487" stroke-miterlimit="10"/></g><g transform="translate(-110,-110) scale(1,1)"><path fill="#000000" stroke="none" d="M 755.0523611490146 476.73276339504196 L 759 487 L 763.4686304262053 476.94856517138015 L 759.5639172174361 465.00722851999143"/></g><g transform="translate(-110,-110) scale(1,1)"><path fill="none" stroke="#000000" d="M 755.0523611490146 476.73276339504196 L 759 487 L 763.4686304262053 476.94856517138015 L 759.5639172174361 465.00722851999143 L 755.0523611490146 476.73276339504196" stroke-miterlimit="10"/></g></g></svg>