<svg version="1.1" xmlns="http://www.w3.org/2000/svg" xmlns:xlink="http://www.w3.org/1999/xlink" width="1634.1787109375" height="1116"><defs/><g><g transform="translate(-126,10) scale(1,1)"><path fill="none" stroke="#000000" d="M 136 0 L 1696 0 L 1696 1096 L 136 1096 L 136 0" stroke-miterlimit="10"/></g><g transform="translate(-126,10) scale(1,1)"><path fill="#ffffff" stroke="none" d="M 136 0 L 136 27 L 498.236328125 27 L 511.736328125 13.5 L 511.736328125 0 L 136 0"/></g><g transform="translate(-126,10) scale(1,1)"><path fill="none" stroke="#000000" d="M 136 0 L 136 27 L 498.236328125 27 L 511.736328125 13.5 L 511.736328125 0 L 136 0 L 136 0" stroke-miterlimit="10"/></g><g transform="translate(-126,10) scale(1,1)"><g><path fill="none" stroke="none"/><text fill="#000000" stroke="none" font-family="Arial" font-size="18px" font-style="normal" font-weight="normal" text-decoration="none" x="166.0107421875" y="22.5">Socket handshake_two_factor Sequence</text></g></g><g transform="translate(-126,10) scale(1,1)"><g><path fill="none" stroke="none"/><text fill="#000000" stroke="none" font-family="Arial" font-size="18px" font-style="normal" font-weight="bold" text-decoration="none" x="141" y="22.5">sd</text></g></g><g transform="translate(-126,10) scale(1,1)"><rect fill="#C0C0C0" stroke="none" x="327" y="47" width="134.0224609375" height="39" opacity="0.2"/></g><g transform="translate(-126,10) scale(1,1)"><rect fill="#ffffff" stroke="none" x="320" y="40" width="134.0224609375" height="39"/></g><g transform="translate(-126,10) scale(1,1)"><path fill="none" stroke="#000000" d="M 320 40 L 454.0224609375 40 L 454.0224609375 79 L 320 79 L 320 40 Z Z" stroke-miterlimit="10"/></g><g transform="translate(-126,10) scale(1,1)"><g><path fill="none" stroke="none"/><text fill="#000000" stroke="none" font-family="Arial" font-size="18px" font-style="normal" font-weight="bold" text-decoration="none" x="334.4833984375" y="64.5">ActionSocket</text></g></g><g transform="translate(-126,10) scale(1,1)"><path fill="none" stroke="#000000" d="M 388.5 80 L 388.5 1058" stroke-miterlimit="10" stroke-dasharray="3"/></g><g transform="translate(-126,10) scale(1,1)"><rect fill="#C0C0C0" stroke="none" x="479" y="47" width="159" height="39" opacity="0.2"/></g><g transform="translate(-126,10) scale(1,1)"><rect fill="#ffffff" stroke="none" x="472" y="40" width="159" height="39"/></g><g transform="translate(-126,10) scale(1,1)"><path fill="none" stroke="#000000" d="M 472 40 L 631 40 L 631 79 L 472 79 L 472 40 Z Z" stroke-miterlimit="10"/></g><g transform="translate(-126,10) scale(1,1)"><g><path fill="none" stroke="none"/><text fill="#000000" stroke="none" font-family="Arial" font-size="18px" font-style="normal" font-weight="bold" text-decoration="none" x="491.96728515625" y="64.5">SessionSocket</text></g></g><g transform="translate(-126,10) scale(1,1)"><path fill="none" stroke="#000000" d="M 552.5 80 L 552.5 990" stroke-miterlimit="10" stroke-dasharray="3"/></g><g transform="translate(-126,10) scale(1,1)"><rect fill="#C0C0C0" stroke="none" x="655" y="47" width="194.0078125" height="39" opacity="0.2"/></g><g transform="translate(-126,10) scale(1,1)"><rect fill="#ffffff" stroke="none" x="648" y="40" width="194.0078125" height="39"/></g><g transform="translate(-126,10) scale(1,1)"><path fill="none" stroke="#000000" d="M 648 40 L 842.0078125 40 L 842.0078125 79 L 648 79 L 648 40 Z Z" stroke-miterlimit="10"/></g><g transform="translate(-126,10) scale(1,1)"><g><path fill="none" stroke="none"/><text fill="#000000" stroke="none" font-family="Arial" font-size="18px" font-style="normal" font-weight="bold" text-decoration="none" x="664.9619140625" y="64.5">EditorActionHandler</text></g></g><g transform="translate(-126,10) scale(1,1)"><path fill="none" stroke="#000000" d="M 746.5 80 L 746.5 1058" stroke-miterlimit="10" stroke-dasharray="3"/></g><g transform="translate(-126,10) scale(1,1)"><rect fill="#C0C0C0" stroke="none" x="1079" y="47" width="213.115234375" height="39" opacity="0.2"/></g><g transform="translate(-126,10) scale(1,1)"><rect fill="#ffffff" stroke="none" x="1072" y="40" width="213.115234375" height="39"/></g><g transform="translate(-126,10) scale(1,1)"><path fill="none" stroke="#000000" d="M 1072 40 L 1285.115234375 40 L 1285.115234375 79 L 1072 79 L 1072 40 Z Z" stroke-miterlimit="10"/></g><g transform="translate(-126,10) scale(1,1)"><g><path fill="none" stroke="none"/><text fill="#000000" stroke="none" font-family="Arial" font-size="18px" font-style="normal" font-weight="bold" text-decoration="none" x="1088.5224609375" y="64.5">SocketSecurityService</text></g></g><g transform="translate(-126,10) scale(1,1)"><path fill="none" stroke="#000000" d="M 1179.5 80 L 1179.5 736" stroke-miterlimit="10" stroke-dasharray="3"/></g><g transform="translate(-126,10) scale(1,1)"><path fill="#ffffff" stroke="none" d="M 424 144 L 614.1181640625 144 L 624.1181640625 154 L 624.1181640625 182 L 424 182 L 424 144"/></g><g transform="translate(-126,10) scale(1,1)"><path fill="none" stroke="#000000" d="M 424 144 L 614.1181640625 144 L 624.1181640625 154 L 624.1181640625 182 L 424 182 L 424 144 L 424 144" stroke-miterlimit="10"/></g><g transform="translate(-126,10) scale(1,1)"><path fill="none" stroke="#000000" d="M 614.1181640625 144 L 614.1181640625 154 L 624.1181640625 154 L 614.1181640625 144" stroke-miterlimit="10"/></g><g transform="translate(-126,10) scale(1,1)"><g><path fill="none" stroke="none"/><text fill="#000000" stroke="none" font-family="Arial" font-size="18px" font-style="normal" font-weight="normal" text-decoration="none" x="429" y="167">{jwt_token,diagram_id}</text></g></g><g transform="translate(-126,10) scale(1,1)"><rect fill="#C0C0C0" stroke="none" x="1303" y="47" width="211.111328125" height="39" opacity="0.2"/></g><g transform="translate(-126,10) scale(1,1)"><rect fill="#ffffff" stroke="none" x="1296" y="40" width="211.111328125" height="39"/></g><g transform="translate(-126,10) scale(1,1)"><path fill="none" stroke="#000000" d="M 1296 40 L 1507.111328125 40 L 1507.111328125 79 L 1296 79 L 1296 40 Z Z" stroke-miterlimit="10"/></g><g transform="translate(-126,10) scale(1,1)"><g><path fill="none" stroke="none"/><text fill="#000000" stroke="none" font-family="Arial" font-size="18px" font-style="normal" font-weight="bold" text-decoration="none" x="1312.0126953125" y="64.5">SocketSessionService</text></g></g><g transform="translate(-126,10) scale(1,1)"><path fill="none" stroke="#000000" d="M 1402.5 80 L 1402.5 952" stroke-miterlimit="10" stroke-dasharray="3"/></g><g transform="translate(-126,10) scale(1,1)"><rect fill="#C0C0C0" stroke="none" x="863" y="47" width="199.0615234375" height="39" opacity="0.2"/></g><g transform="translate(-126,10) scale(1,1)"><rect fill="#ffffff" stroke="none" x="856" y="40" width="199.0615234375" height="39"/></g><g transform="translate(-126,10) scale(1,1)"><path fill="none" stroke="#000000" d="M 856 40 L 1055.0615234375 40 L 1055.0615234375 79 L 856 79 L 856 40 Z Z" stroke-miterlimit="10"/></g><g transform="translate(-126,10) scale(1,1)"><g><path fill="none" stroke="none"/><text fill="#000000" stroke="none" font-family="Arial" font-size="18px" font-style="normal" font-weight="bold" text-decoration="none" x="870.97998046875" y="64.5">SessionStateHandler</text></g></g><g transform="translate(-126,10) scale(1,1)"><path fill="none" stroke="#000000" d="M 956.5 80 L 956.5 984" stroke-miterlimit="10" stroke-dasharray="3"/></g><g transform="translate(-126,10) scale(1,1)"><path fill="#ffffff" stroke="none" d="M 1064 744 L 1357 744 L 1367 754 L 1367 791 L 1064 791 L 1064 744"/></g><g transform="translate(-126,10) scale(1,1)"><path fill="none" stroke="#000000" d="M 1064 744 L 1357 744 L 1367 754 L 1367 791 L 1064 791 L 1064 744 L 1064 744" stroke-miterlimit="10"/></g><g transform="translate(-126,10) scale(1,1)"><path fill="none" stroke="#000000" d="M 1357 744 L 1357 754 L 1367 754 L 1357 744" stroke-miterlimit="10"/></g><g transform="translate(-126,10) scale(1,1)"><g><path fill="none" stroke="none"/><text fill="#000000" stroke="none" font-family="Arial" font-size="18px" font-style="normal" font-weight="normal" text-decoration="none" x="1069" y="767">Skip security check, because we</text><text fill="#000000" stroke="none" font-family="Arial" font-size="18px" font-style="normal" font-weight="normal" text-decoration="none" x="1069" y="785">have a token to identify ourself</text></g></g><g transform="translate(-126,10) scale(1,1)"><path fill="#ffffff" stroke="none" d="M 1464 864 L 1637 864 L 1647 874 L 1647 928 L 1464 928 L 1464 864"/></g><g transform="translate(-126,10) scale(1,1)"><path fill="none" stroke="#000000" d="M 1464 864 L 1637 864 L 1647 874 L 1647 928 L 1464 928 L 1464 864 L 1464 864" stroke-miterlimit="10"/></g><g transform="translate(-126,10) scale(1,1)"><path fill="none" stroke="#000000" d="M 1637 864 L 1637 874 L 1647 874 L 1637 864" stroke-miterlimit="10"/></g><g transform="translate(-126,10) scale(1,1)"><g><path fill="none" stroke="none"/><text fill="#000000" stroke="none" font-family="Arial" font-size="18px" font-style="normal" font-weight="normal" text-decoration="none" x="1469" y="887">The Session's id is</text><text fill="#000000" stroke="none" font-family="Arial" font-size="18px" font-style="normal" font-weight="normal" text-decoration="none" x="1469" y="905">defined in the token</text></g></g><g transform="translate(-126,10) scale(1,1)"><path fill="#ffffff" stroke="none" d="M 832 208 L 1037 208 L 1047 218 L 1047 272 L 832 272 L 832 208"/></g><g transform="translate(-126,10) scale(1,1)"><path fill="none" stroke="#000000" d="M 832 208 L 1037 208 L 1047 218 L 1047 272 L 832 272 L 832 208 L 832 208" stroke-miterlimit="10"/></g><g transform="translate(-126,10) scale(1,1)"><path fill="none" stroke="#000000" d="M 1037 208 L 1037 218 L 1047 218 L 1037 208" stroke-miterlimit="10"/></g><g transform="translate(-126,10) scale(1,1)"><g><path fill="none" stroke="none"/><text fill="#000000" stroke="none" font-family="Arial" font-size="18px" font-style="normal" font-weight="normal" text-decoration="none" x="837" y="231">if the Authentication or</text><text fill="#000000" stroke="none" font-family="Arial" font-size="18px" font-style="normal" font-weight="normal" text-decoration="none" x="837" y="249">Authorization failed -&gt;</text><text fill="#000000" stroke="none" font-family="Arial" font-size="18px" font-style="normal" font-weight="normal" text-decoration="none" x="837" y="267">return value is null</text></g></g><g transform="translate(-126,10) scale(1,1)"><path fill="#ffffff" stroke="none" d="M 1472 672 L 1653 672 L 1663 682 L 1663 703 L 1472 703 L 1472 672"/></g><g transform="translate(-126,10) scale(1,1)"><path fill="none" stroke="#000000" d="M 1472 672 L 1653 672 L 1663 682 L 1663 703 L 1472 703 L 1472 672 L 1472 672" stroke-miterlimit="10"/></g><g transform="translate(-126,10) scale(1,1)"><path fill="none" stroke="#000000" d="M 1653 672 L 1653 682 L 1663 682 L 1653 672" stroke-miterlimit="10"/></g><g transform="translate(-126,10) scale(1,1)"><g><path fill="none" stroke="none"/><text fill="#000000" stroke="none" font-family="Arial" font-size="18px" font-style="normal" font-weight="normal" text-decoration="none" x="1477" y="695">(session_id included)</text></g></g><g transform="translate(-126,10) scale(1,1)"><path fill="none" stroke="#000000" d="M 388 136 L 739 136" stroke-miterlimit="10"/></g><g transform="translate(-126,10) scale(1,1)"><path fill="#000000" stroke="none" d="M 728.8373251423759 140.209517756016 L 739 136 L 728.8373251423758 131.790482243984"/></g><g transform="translate(-126,10) scale(1,1)"><path fill="none" stroke="#000000" d="M 728.8373251423759 140.209517756016 L 739 136 L 728.8373251423758 131.790482243984 L 728.8373251423759 140.209517756016" stroke-miterlimit="10"/></g><g transform="translate(-126,10) scale(1,1)"><g><path fill="none" stroke="none"/><text fill="#000000" stroke="none" font-family="Arial" font-size="18px" font-style="normal" font-weight="normal" text-decoration="none" x="432.5" y="134.5">1 : SocketAuthenticationRequest</text></g></g><g transform="translate(-126,10) scale(1,1)"><rect fill="#ffffff" stroke="none" x="739" y="136" width="13" height="28"/></g><g transform="translate(-126,10) scale(1,1)"><path fill="none" stroke="#000000" d="M 739 136 L 752 136 L 752 164 L 739 164 L 739 136 Z Z" stroke-miterlimit="10"/></g><g transform="translate(-126,10) scale(1,1)"><path fill="none" stroke="#000000" d="M 752 160 L 1172 160" stroke-miterlimit="10"/></g><g transform="translate(-126,10) scale(1,1)"><path fill="#000000" stroke="none" d="M 1161.837325142376 164.209517756016 L 1172 160 L 1161.837325142376 155.790482243984"/></g><g transform="translate(-126,10) scale(1,1)"><path fill="none" stroke="#000000" d="M 1161.837325142376 164.209517756016 L 1172 160 L 1161.837325142376 155.790482243984 L 1161.837325142376 164.209517756016" stroke-miterlimit="10"/></g><g transform="translate(-126,10) scale(1,1)"><g><path fill="none" stroke="none"/><text fill="#000000" stroke="none" font-family="Arial" font-size="18px" font-style="normal" font-weight="normal" text-decoration="none" x="829.5" y="158.5">2 : authenticateAndAuthorizeRequest</text></g></g><g transform="translate(-126,10) scale(1,1)"><rect fill="#ffffff" stroke="none" x="1172" y="160" width="13" height="32"/></g><g transform="translate(-126,10) scale(1,1)"><path fill="none" stroke="#000000" d="M 1172 160 L 1185 160 L 1185 192 L 1172 192 L 1172 160 Z Z" stroke-miterlimit="10"/></g><g transform="translate(-126,10) scale(1,1)"><path fill="none" stroke="#000000" d="M 1179 192 L 1209 192 L 1209 212 L 1185 212" stroke-miterlimit="10"/></g><g transform="translate(-126,10) scale(1,1)"><path fill="#000000" stroke="none" d="M 1195.162674857624 207.790482243984 L 1185 212 L 1195.162674857624 216.209517756016"/></g><g transform="translate(-126,10) scale(1,1)"><path fill="none" stroke="#000000" d="M 1195.162674857624 207.790482243984 L 1185 212 L 1195.162674857624 216.209517756016 L 1195.162674857624 207.790482243984" stroke-miterlimit="10"/></g><g transform="translate(-126,10) scale(1,1)"><g><path fill="none" stroke="none"/><text fill="#000000" stroke="none" font-family="Arial" font-size="18px" font-style="normal" font-weight="normal" text-decoration="none" x="1190.5" y="184.5">3 : Authenticate &amp; validate token</text></g></g><g transform="translate(-126,10) scale(1,1)"><rect fill="#ffffff" stroke="none" x="1172" y="212" width="13" height="28"/></g><g transform="translate(-126,10) scale(1,1)"><path fill="none" stroke="#000000" d="M 1172 212 L 1185 212 L 1185 240 L 1172 240 L 1172 212 Z Z" stroke-miterlimit="10"/></g><g transform="translate(-126,10) scale(1,1)"><path fill="none" stroke="#000000" d="M 1179 240 L 1209 240 L 1209 260 L 1185 260" stroke-miterlimit="10"/></g><g transform="translate(-126,10) scale(1,1)"><path fill="#000000" stroke="none" d="M 1195.162674857624 255.790482243984 L 1185 260 L 1195.162674857624 264.209517756016"/></g><g transform="translate(-126,10) scale(1,1)"><path fill="none" stroke="#000000" d="M 1195.162674857624 255.790482243984 L 1185 260 L 1195.162674857624 264.209517756016 L 1195.162674857624 255.790482243984" stroke-miterlimit="10"/></g><g transform="translate(-126,10) scale(1,1)"><g><path fill="none" stroke="none"/><text fill="#000000" stroke="none" font-family="Arial" font-size="18px" font-style="normal" font-weight="normal" text-decoration="none" x="1214.5" y="264.5">4 : Authorize user</text></g></g><g transform="translate(-126,10) scale(1,1)"><rect fill="#ffffff" stroke="none" x="1172" y="260" width="13" height="28"/></g><g transform="translate(-126,10) scale(1,1)"><path fill="none" stroke="#000000" d="M 1172 260 L 1185 260 L 1185 288 L 1172 288 L 1172 260 Z Z" stroke-miterlimit="10"/></g><g transform="translate(-126,10) scale(1,1)"><path fill="none" stroke="#000000" d="M 1172 285 L 746 285" stroke-miterlimit="10" stroke-dasharray="3"/></g><g transform="translate(-126,10) scale(1,1)"><path fill="none" stroke="#000000" d="M 756.1626748576241 280.790482243984 L 746 285 L 756.1626748576241 289.209517756016" stroke-miterlimit="10"/></g><g transform="translate(-126,10) scale(1,1)"><g><path fill="none" stroke="none"/><text fill="#000000" stroke="none" font-family="Arial" font-size="18px" font-style="normal" font-weight="normal" text-decoration="none" x="900.5" y="303.5">5 : userDetails</text></g></g><g transform="translate(-126,10) scale(1,1)"><path fill="none" stroke="#000000" d="M 746 368 L 1395 368" stroke-miterlimit="10"/></g><g transform="translate(-126,10) scale(1,1)"><path fill="#000000" stroke="none" d="M 1384.837325142376 372.209517756016 L 1395 368 L 1384.837325142376 363.790482243984"/></g><g transform="translate(-126,10) scale(1,1)"><path fill="none" stroke="#000000" d="M 1384.837325142376 372.209517756016 L 1395 368 L 1384.837325142376 363.790482243984 L 1384.837325142376 372.209517756016" stroke-miterlimit="10"/></g><g transform="translate(-126,10) scale(1,1)"><g><path fill="none" stroke="none"/><text fill="#000000" stroke="none" font-family="Arial" font-size="18px" font-style="normal" font-weight="normal" text-decoration="none" x="956.5" y="357.5">6 : call autoProcessRequest</text></g></g><g transform="translate(-126,10) scale(1,1)"><rect fill="#ffffff" stroke="none" x="1395" y="368" width="13" height="28"/></g><g transform="translate(-126,10) scale(1,1)"><path fill="none" stroke="#000000" d="M 1395 368 L 1408 368 L 1408 396 L 1395 396 L 1395 368 Z Z" stroke-miterlimit="10"/></g><g transform="translate(-126,10) scale(1,1)"><path fill="none" stroke="#000000" d="M 1402 432 L 1432 432 L 1432 452 L 1408 452" stroke-miterlimit="10"/></g><g transform="translate(-126,10) scale(1,1)"><path fill="#000000" stroke="none" d="M 1418.162674857624 447.790482243984 L 1408 452 L 1418.162674857624 456.209517756016"/></g><g transform="translate(-126,10) scale(1,1)"><path fill="none" stroke="#000000" d="M 1418.162674857624 447.790482243984 L 1408 452 L 1418.162674857624 456.209517756016 L 1418.162674857624 447.790482243984" stroke-miterlimit="10"/></g><g transform="translate(-126,10) scale(1,1)"><g><path fill="none" stroke="none"/><text fill="#000000" stroke="none" font-family="Arial" font-size="18px" font-style="normal" font-weight="normal" text-decoration="none" x="1438.5" y="452.5">7 : Add User to Session</text></g></g><g transform="translate(-126,10) scale(1,1)"><rect fill="#ffffff" stroke="none" x="1395" y="452" width="13" height="28"/></g><g transform="translate(-126,10) scale(1,1)"><path fill="none" stroke="#000000" d="M 1395 452 L 1408 452 L 1408 480 L 1395 480 L 1395 452 Z Z" stroke-miterlimit="10"/></g><g transform="translate(-126,10) scale(1,1)"><path fill="none" stroke="#000000" d="M 1402 512 L 1432 512 L 1432 532 L 1408 532" stroke-miterlimit="10"/></g><g transform="translate(-126,10) scale(1,1)"><path fill="#000000" stroke="none" d="M 1418.162674857624 527.790482243984 L 1408 532 L 1418.162674857624 536.209517756016"/></g><g transform="translate(-126,10) scale(1,1)"><path fill="none" stroke="#000000" d="M 1418.162674857624 527.790482243984 L 1408 532 L 1418.162674857624 536.209517756016 L 1418.162674857624 527.790482243984" stroke-miterlimit="10"/></g><g transform="translate(-126,10) scale(1,1)"><g><path fill="none" stroke="none"/><text fill="#000000" stroke="none" font-family="Arial" font-size="18px" font-style="normal" font-weight="normal" text-decoration="none" x="1438.5" y="528.5">8 : Create new Session</text></g></g><g transform="translate(-126,10) scale(1,1)"><rect fill="#ffffff" stroke="none" x="1395" y="532" width="13" height="28"/></g><g transform="translate(-126,10) scale(1,1)"><path fill="none" stroke="#000000" d="M 1395 532 L 1408 532 L 1408 560 L 1395 560 L 1395 532 Z Z" stroke-miterlimit="10"/></g><g transform="translate(-126,10) scale(1,1)"><path fill="none" stroke="#000000" d="M 1402 576 L 1432 576 L 1432 596 L 1408 596" stroke-miterlimit="10"/></g><g transform="translate(-126,10) scale(1,1)"><path fill="#000000" stroke="none" d="M 1418.162674857624 591.790482243984 L 1408 596 L 1418.162674857624 600.209517756016"/></g><g transform="translate(-126,10) scale(1,1)"><path fill="none" stroke="#000000" d="M 1418.162674857624 591.790482243984 L 1408 596 L 1418.162674857624 600.209517756016 L 1418.162674857624 591.790482243984" stroke-miterlimit="10"/></g><g transform="translate(-126,10) scale(1,1)"><g><path fill="none" stroke="none"/><text fill="#000000" stroke="none" font-family="Arial" font-size="18px" font-style="normal" font-weight="normal" text-decoration="none" x="1439.5" y="591.5">9 : Add User to Session</text></g></g><g transform="translate(-126,10) scale(1,1)"><rect fill="#ffffff" stroke="none" x="1395" y="596" width="13" height="28"/></g><g transform="translate(-126,10) scale(1,1)"><path fill="none" stroke="#000000" d="M 1395 596 L 1408 596 L 1408 624 L 1395 624 L 1395 596 Z Z" stroke-miterlimit="10"/></g><g transform="translate(-126,10) scale(1,1)"><path fill="none" stroke="#000000" d="M 1402 656 L 1432 656 L 1432 676 L 1408 676" stroke-miterlimit="10"/></g><g transform="translate(-126,10) scale(1,1)"><path fill="#000000" stroke="none" d="M 1418.162674857624 671.790482243984 L 1408 676 L 1418.162674857624 680.209517756016"/></g><g transform="translate(-126,10) scale(1,1)"><path fill="none" stroke="#000000" d="M 1418.162674857624 671.790482243984 L 1408 676 L 1418.162674857624 680.209517756016 L 1418.162674857624 671.790482243984" stroke-miterlimit="10"/></g><g transform="translate(-126,10) scale(1,1)"><g><path fill="none" stroke="none"/><text fill="#000000" stroke="none" font-family="Arial" font-size="18px" font-style="normal" font-weight="normal" text-decoration="none" x="1443.9248046875" y="672.5">10 : Generate session_token</text></g></g><g transform="translate(-126,10) scale(1,1)"><rect fill="#ffffff" stroke="none" x="1395" y="676" width="13" height="28"/></g><g transform="translate(-126,10) scale(1,1)"><path fill="none" stroke="#000000" d="M 1395 676 L 1408 676 L 1408 704 L 1395 704 L 1395 676 Z Z" stroke-miterlimit="10"/></g><g transform="translate(-126,10) scale(1,1)"><path fill="none" stroke="#000000" d="M 1402 704 L 746 704" stroke-miterlimit="10" stroke-dasharray="3"/></g><g transform="translate(-126,10) scale(1,1)"><path fill="none" stroke="#000000" d="M 756.1626748576241 699.790482243984 L 746 704 L 756.1626748576241 708.209517756016" stroke-miterlimit="10"/></g><g transform="translate(-126,10) scale(1,1)"><g><path fill="none" stroke="none"/><text fill="#000000" stroke="none" font-family="Arial" font-size="18px" font-style="normal" font-weight="normal" text-decoration="none" x="1006.5" y="723.5">11 : session_token</text></g></g><g transform="translate(-126,10) scale(1,1)"><path fill="none" stroke="#000000" d="M 746 720 L 388 720" stroke-miterlimit="10" stroke-dasharray="3"/></g><g transform="translate(-126,10) scale(1,1)"><path fill="none" stroke="#000000" d="M 398.16267485762415 715.790482243984 L 388 720 L 398.16267485762415 724.209517756016" stroke-miterlimit="10"/></g><g transform="translate(-126,10) scale(1,1)"><g><path fill="none" stroke="none"/><text fill="#000000" stroke="none" font-family="Arial" font-size="18px" font-style="normal" font-weight="normal" text-decoration="none" x="490.5" y="738.5">12 : session_token</text></g></g><g transform="translate(-126,10) scale(1,1)"><path fill="none" stroke="#000000" d="M 388 758 L 545 758" stroke-miterlimit="10"/></g><g transform="translate(-126,10) scale(1,1)"><path fill="#000000" stroke="none" d="M 534.8373251423759 762.209517756016 L 545 758 L 534.8373251423758 753.790482243984"/></g><g transform="translate(-126,10) scale(1,1)"><path fill="none" stroke="#000000" d="M 534.8373251423759 762.209517756016 L 545 758 L 534.8373251423758 753.790482243984 L 534.8373251423759 762.209517756016" stroke-miterlimit="10"/></g><g transform="translate(-126,10) scale(1,1)"><g><path fill="none" stroke="none"/><text fill="#000000" stroke="none" font-family="Arial" font-size="18px" font-style="normal" font-weight="normal" text-decoration="none" x="400.5" y="756.5">13 : call connect</text></g></g><g transform="translate(-126,10) scale(1,1)"><rect fill="#ffffff" stroke="none" x="545" y="758" width="13" height="28"/></g><g transform="translate(-126,10) scale(1,1)"><path fill="none" stroke="#000000" d="M 545 758 L 558 758 L 558 786 L 545 786 L 545 758 Z Z" stroke-miterlimit="10"/></g><g transform="translate(-126,10) scale(1,1)"><path fill="none" stroke="#000000" d="M 558 784 L 949 784" stroke-miterlimit="10"/></g><g transform="translate(-126,10) scale(1,1)"><path fill="#000000" stroke="none" d="M 938.8373251423759 788.209517756016 L 949 784 L 938.8373251423758 779.790482243984"/></g><g transform="translate(-126,10) scale(1,1)"><path fill="none" stroke="#000000" d="M 938.8373251423759 788.209517756016 L 949 784 L 938.8373251423758 779.790482243984 L 938.8373251423759 788.209517756016" stroke-miterlimit="10"/></g><g transform="translate(-126,10) scale(1,1)"><g><path fill="none" stroke="none"/><text fill="#000000" stroke="none" font-family="Arial" font-size="18px" font-style="normal" font-weight="normal" text-decoration="none" x="677.5" y="782.5">14 : session_token</text></g></g><g transform="translate(-126,10) scale(1,1)"><rect fill="#ffffff" stroke="none" x="949" y="784" width="13" height="28"/></g><g transform="translate(-126,10) scale(1,1)"><path fill="none" stroke="#000000" d="M 949 784 L 962 784 L 962 812 L 949 812 L 949 784 Z Z" stroke-miterlimit="10"/></g><g transform="translate(-126,10) scale(1,1)"><path fill="none" stroke="#000000" d="M 956 816 L 1395 816" stroke-miterlimit="10"/></g><g transform="translate(-126,10) scale(1,1)"><path fill="#000000" stroke="none" d="M 1384.837325142376 820.209517756016 L 1395 816 L 1384.837325142376 811.790482243984"/></g><g transform="translate(-126,10) scale(1,1)"><path fill="none" stroke="#000000" d="M 1384.837325142376 820.209517756016 L 1395 816 L 1384.837325142376 811.790482243984 L 1384.837325142376 820.209517756016" stroke-miterlimit="10"/></g><g transform="translate(-126,10) scale(1,1)"><g><path fill="none" stroke="none"/><text fill="#000000" stroke="none" font-family="Arial" font-size="18px" font-style="normal" font-weight="normal" text-decoration="none" x="1010.5" y="814.5">15 : updateuserWithStateAndGetSession</text></g></g><g transform="translate(-126,10) scale(1,1)"><rect fill="#ffffff" stroke="none" x="1395" y="816" width="13" height="28"/></g><g transform="translate(-126,10) scale(1,1)"><path fill="none" stroke="#000000" d="M 1395 816 L 1408 816 L 1408 844 L 1395 844 L 1395 816 Z Z" stroke-miterlimit="10"/></g><g transform="translate(-126,10) scale(1,1)"><path fill="none" stroke="#000000" d="M 1408 840 L 1438 840 L 1438 860 L 1408 860" stroke-miterlimit="10"/></g><g transform="translate(-126,10) scale(1,1)"><path fill="#000000" stroke="none" d="M 1418.162674857624 855.790482243984 L 1408 860 L 1418.162674857624 864.209517756016"/></g><g transform="translate(-126,10) scale(1,1)"><path fill="none" stroke="#000000" d="M 1418.162674857624 855.790482243984 L 1408 860 L 1418.162674857624 864.209517756016 L 1418.162674857624 855.790482243984" stroke-miterlimit="10"/></g><g transform="translate(-126,10) scale(1,1)"><g><path fill="none" stroke="none"/><text fill="#000000" stroke="none" font-family="Arial" font-size="18px" font-style="normal" font-weight="normal" text-decoration="none" x="1447.5" y="856.5">16 : Update user in the EditorSession.</text></g></g><g transform="translate(-126,10) scale(1,1)"><rect fill="#ffffff" stroke="none" x="1395" y="860" width="13" height="28"/></g><g transform="translate(-126,10) scale(1,1)"><path fill="none" stroke="#000000" d="M 1395 860 L 1408 860 L 1408 888 L 1395 888 L 1395 860 Z Z" stroke-miterlimit="10"/></g><g transform="translate(-126,10) scale(1,1)"><path fill="none" stroke="#000000" d="M 1395 880 L 956 880" stroke-miterlimit="10" stroke-dasharray="3"/></g><g transform="translate(-126,10) scale(1,1)"><path fill="none" stroke="#000000" d="M 966.1626748576241 875.790482243984 L 956 880 L 966.1626748576241 884.209517756016" stroke-miterlimit="10"/></g><g transform="translate(-126,10) scale(1,1)"><g><path fill="none" stroke="none"/><text fill="#000000" stroke="none" font-family="Arial" font-size="18px" font-style="normal" font-weight="normal" text-decoration="none" x="1085.5" y="898.5">17 : ref  EditorSession</text></g></g><g transform="translate(-126,10) scale(1,1)"><path fill="none" stroke="#000000" d="M 956 888 L 986 888 L 986 908 L 962 908" stroke-miterlimit="10"/></g><g transform="translate(-126,10) scale(1,1)"><path fill="#000000" stroke="none" d="M 972.1626748576241 903.790482243984 L 962 908 L 972.1626748576241 912.209517756016"/></g><g transform="translate(-126,10) scale(1,1)"><path fill="none" stroke="#000000" d="M 972.1626748576241 903.790482243984 L 962 908 L 972.1626748576241 912.209517756016 L 972.1626748576241 903.790482243984" stroke-miterlimit="10"/></g><g transform="translate(-126,10) scale(1,1)"><g><path fill="none" stroke="none"/><text fill="#000000" stroke="none" font-family="Arial" font-size="18px" font-style="normal" font-weight="normal" text-decoration="none" x="966.5" y="928.5">18 : Generate list from EditorSessions sessionItemMap</text></g></g><g transform="translate(-126,10) scale(1,1)"><rect fill="#ffffff" stroke="none" x="949" y="908" width="13" height="28"/></g><g transform="translate(-126,10) scale(1,1)"><path fill="none" stroke="#000000" d="M 949 908 L 962 908 L 962 936 L 949 936 L 949 908 Z Z" stroke-miterlimit="10"/></g><g transform="translate(-126,10) scale(1,1)"><path fill="none" stroke="#000000" d="M 552 928 L 582 928 L 582 948 L 558 948" stroke-miterlimit="10"/></g><g transform="translate(-126,10) scale(1,1)"><path fill="#000000" stroke="none" d="M 568.1626748576241 943.790482243984 L 558 948 L 568.1626748576241 952.209517756016"/></g><g transform="translate(-126,10) scale(1,1)"><path fill="none" stroke="#000000" d="M 568.1626748576241 943.790482243984 L 558 948 L 568.1626748576241 952.209517756016 L 568.1626748576241 943.790482243984" stroke-miterlimit="10"/></g><g transform="translate(-126,10) scale(1,1)"><g><path fill="none" stroke="none"/><text fill="#000000" stroke="none" font-family="Arial" font-size="18px" font-style="normal" font-weight="normal" text-decoration="none" x="558.5" y="975.5">19 : Inject SessionState into all Items</text></g></g><g transform="translate(-126,10) scale(1,1)"><rect fill="#ffffff" stroke="none" x="545" y="948" width="13" height="28"/></g><g transform="translate(-126,10) scale(1,1)"><path fill="none" stroke="#000000" d="M 545 948 L 558 948 L 558 976 L 545 976 L 545 948 Z Z" stroke-miterlimit="10"/></g><g transform="translate(-126,10) scale(1,1)"><path fill="none" stroke="#000000" d="M 949 928 L 552 928" stroke-miterlimit="10" stroke-dasharray="3"/></g><g transform="translate(-126,10) scale(1,1)"><path fill="none" stroke="#000000" d="M 562.1626748576241 923.790482243984 L 552 928 L 562.1626748576241 932.209517756016" stroke-miterlimit="10"/></g><g transform="translate(-126,10) scale(1,1)"><g><path fill="none" stroke="none"/><text fill="#000000" stroke="none" font-family="Arial" font-size="18px" font-style="normal" font-weight="normal" text-decoration="none" x="647.5" y="946.5">20 : List of SessionStates</text></g></g><g transform="translate(-126,10) scale(1,1)"><path fill="none" stroke="#000000" d="M 746 1008 L 394 1008" stroke-miterlimit="10"/></g><g transform="translate(-126,10) scale(1,1)"><path fill="#000000" stroke="none" d="M 404.16267485762415 1003.790482243984 L 394 1008 L 404.16267485762415 1012.209517756016"/></g><g transform="translate(-126,10) scale(1,1)"><path fill="none" stroke="#000000" d="M 404.16267485762415 1003.790482243984 L 394 1008 L 404.16267485762415 1012.209517756016 L 404.16267485762415 1003.790482243984" stroke-miterlimit="10"/></g><g transform="translate(-126,10) scale(1,1)"><path fill="none" stroke="#000000" d="M 378 1048 L 398 1068" stroke-miterlimit="10"/></g><g transform="translate(-126,10) scale(1,1)"><path fill="none" stroke="#000000" d="M 398 1048 L 378 1068" stroke-miterlimit="10"/></g><g transform="translate(-126,10) scale(1,1)"><g><path fill="none" stroke="none"/><text fill="#000000" stroke="none" font-family="Arial" font-size="18px" font-style="normal" font-weight="normal" text-decoration="none" x="470.5" y="1032.5">21 : Disconnect Socket</text></g></g><g transform="translate(-126,10) scale(1,1)"><g><path fill="none" stroke="none"/><text fill="#000000" stroke="none" font-family="Arial" font-size="13px" font-style="normal" font-weight="normal" text-decoration="none" x="535.5" y="1044.5">«destroy»</text></g></g><g transform="translate(-126,10) scale(1,1)"><rect fill="#ffffff" stroke="none" x="381" y="1008" width="13" height="28"/></g><g transform="translate(-126,10) scale(1,1)"><path fill="none" stroke="#000000" d="M 381 1008 L 394 1008 L 394 1036 L 381 1036 L 381 1008 Z Z" stroke-miterlimit="10"/></g><g transform="translate(-126,10) scale(1,1)"><path fill="none" stroke="#000000" d="M 312 320 L 1688 320 L 1688 1085 L 312 1085 L 312 320" stroke-miterlimit="10"/></g><g transform="translate(-126,10) scale(1,1)"><path fill="#ffffff" stroke="none" d="M 312 320 L 312 347 L 601.1552734375 347 L 614.6552734375 333.5 L 614.6552734375 320 L 312 320"/></g><g transform="translate(-126,10) scale(1,1)"><path fill="none" stroke="#000000" d="M 312 320 L 312 347 L 601.1552734375 347 L 614.6552734375 333.5 L 614.6552734375 320 L 312 320 L 312 320" stroke-miterlimit="10"/></g><g transform="translate(-126,10) scale(1,1)"><g><path fill="none" stroke="none"/><text fill="#000000" stroke="none" font-family="Arial" font-size="18px" font-style="normal" font-weight="normal" text-decoration="none" x="352.021484375" y="342.5">Auth &amp; Authorization succesful</text></g></g><g transform="translate(-126,10) scale(1,1)"><g><path fill="none" stroke="none"/><text fill="#000000" stroke="none" font-family="Arial" font-size="18px" font-style="normal" font-weight="bold" text-decoration="none" x="317" y="342.5">seq</text></g></g><g transform="translate(-126,10) scale(1,1)"><g><path fill="none" stroke="none"/><text fill="#000000" stroke="none" font-family="Arial" font-size="18px" font-style="normal" font-weight="normal" text-decoration="none" x="331.5" y="380.5">[true]</text></g></g><g transform="translate(-126,10) scale(1,1)"><path fill="none" stroke="#000000" d="M 312 998 L 1688 998" stroke-miterlimit="10" stroke-dasharray="10,3"/></g><g transform="translate(-126,10) scale(1,1)"><g><path fill="none" stroke="none"/><text fill="#000000" stroke="none" font-family="Arial" font-size="18px" font-style="normal" font-weight="normal" text-decoration="none" x="331.5" y="1030.5">[false]</text></g></g><g transform="translate(-126,10) scale(1,1)"><path fill="none" stroke="#000000" d="M 1192 392 L 1672 392 L 1672 644 L 1192 644 L 1192 392" stroke-miterlimit="10"/></g><g transform="translate(-126,10) scale(1,1)"><path fill="#ffffff" stroke="none" d="M 1192 392 L 1192 419 L 1620.2158203125 419 L 1633.7158203125 405.5 L 1633.7158203125 392 L 1192 392"/></g><g transform="translate(-126,10) scale(1,1)"><path fill="none" stroke="#000000" d="M 1192 392 L 1192 419 L 1620.2158203125 419 L 1633.7158203125 405.5 L 1633.7158203125 392 L 1192 392 L 1192 392" stroke-miterlimit="10"/></g><g transform="translate(-126,10) scale(1,1)"><g><path fill="none" stroke="none"/><text fill="#000000" stroke="none" font-family="Arial" font-size="18px" font-style="normal" font-weight="normal" text-decoration="none" x="1232.021484375" y="414.5">Does a session exists with the given diagram_id</text></g></g><g transform="translate(-126,10) scale(1,1)"><g><path fill="none" stroke="none"/><text fill="#000000" stroke="none" font-family="Arial" font-size="18px" font-style="normal" font-weight="bold" text-decoration="none" x="1197" y="414.5">seq</text></g></g><g transform="translate(-126,10) scale(1,1)"><g><path fill="none" stroke="none"/><text fill="#000000" stroke="none" font-family="Arial" font-size="18px" font-style="normal" font-weight="normal" text-decoration="none" x="1211.5" y="452.5">[true]</text></g></g><g transform="translate(-126,10) scale(1,1)"><path fill="none" stroke="#000000" d="M 1192 497 L 1672 497" stroke-miterlimit="10" stroke-dasharray="10,3"/></g><g transform="translate(-126,10) scale(1,1)"><g><path fill="none" stroke="none"/><text fill="#000000" stroke="none" font-family="Arial" font-size="18px" font-style="normal" font-weight="normal" text-decoration="none" x="1211.5" y="529.5">[false]</text></g></g></g></svg>