<svg version="1.1" xmlns="http://www.w3.org/2000/svg" xmlns:xlink="http://www.w3.org/1999/xlink" width="1571" height="1204"><defs/><g><g transform="translate(-278,10) scale(1,1)"><path fill="none" stroke="#000000" d="M 288 0 L 1816 0 L 1816 1184 L 288 1184 L 288 0" stroke-miterlimit="10"/></g><g transform="translate(-278,10) scale(1,1)"><path fill="#ffffff" stroke="none" d="M 288 0 L 288 31 L 727.177734375 31 L 742.677734375 15.5 L 742.677734375 0 L 288 0"/></g><g transform="translate(-278,10) scale(1,1)"><path fill="none" stroke="#000000" d="M 288 0 L 288 31 L 727.177734375 31 L 742.677734375 15.5 L 742.677734375 0 L 288 0 L 288 0" stroke-miterlimit="10"/></g><g transform="translate(-278,10) scale(1,1)"><g><path fill="none" stroke="none"/><text fill="#000000" stroke="none" font-family="Arial" font-size="22px" font-style="normal" font-weight="normal" text-decoration="none" x="322.2353515625" y="26.5">Socket handshake_two_factor Sequence</text></g></g><g transform="translate(-278,10) scale(1,1)"><g><path fill="none" stroke="none"/><text fill="#000000" stroke="none" font-family="Arial" font-size="22px" font-style="normal" font-weight="bold" text-decoration="none" x="293" y="26.5">sd</text></g></g><g transform="translate(-278,10) scale(1,1)"><rect fill="#C0C0C0" stroke="none" x="311" y="47" width="172.36328125" height="39" opacity="0.2"/></g><g transform="translate(-278,10) scale(1,1)"><rect fill="#ffffff" stroke="none" x="304" y="40" width="172.36328125" height="39"/></g><g transform="translate(-278,10) scale(1,1)"><path fill="none" stroke="#000000" d="M 304 40 L 476.36328125 40 L 476.36328125 79 L 304 79 L 304 40 Z Z" stroke-miterlimit="10"/></g><g transform="translate(-278,10) scale(1,1)"><g><path fill="none" stroke="none"/><text fill="#000000" stroke="none" font-family="Arial" font-size="22px" font-style="normal" font-weight="bold" text-decoration="none" x="325.98095703125" y="68.5">ActionSocket</text></g></g><g transform="translate(-278,10) scale(1,1)"><path fill="none" stroke="#000000" d="M 391.5 80 L 391.5 1072" stroke-miterlimit="10" stroke-dasharray="3"/></g><g transform="translate(-278,10) scale(1,1)"><rect fill="#C0C0C0" stroke="none" x="493.228515625" y="47" width="175.513671875" height="39" opacity="0.2"/></g><g transform="translate(-278,10) scale(1,1)"><rect fill="#ffffff" stroke="none" x="486.228515625" y="40" width="175.513671875" height="39"/></g><g transform="translate(-278,10) scale(1,1)"><path fill="none" stroke="#000000" d="M 486.228515625 40 L 661.7421875 40 L 661.7421875 79 L 486.228515625 79 L 486.228515625 40 Z Z" stroke-miterlimit="10"/></g><g transform="translate(-278,10) scale(1,1)"><g><path fill="none" stroke="none"/><text fill="#000000" stroke="none" font-family="Arial" font-size="22px" font-style="normal" font-weight="bold" text-decoration="none" x="501.22314453125" y="68.5">SessionSocket</text></g></g><g transform="translate(-278,10) scale(1,1)"><path fill="none" stroke="#000000" d="M 574.5 80 L 574.5 1160" stroke-miterlimit="10" stroke-dasharray="3"/></g><g transform="translate(-278,10) scale(1,1)"><rect fill="#C0C0C0" stroke="none" x="674.4453125" y="47" width="232.8984375" height="39" opacity="0.2"/></g><g transform="translate(-278,10) scale(1,1)"><rect fill="#ffffff" stroke="none" x="667.4453125" y="40" width="232.8984375" height="39"/></g><g transform="translate(-278,10) scale(1,1)"><path fill="none" stroke="#000000" d="M 667.4453125 40 L 900.34375 40 L 900.34375 79 L 667.4453125 79 L 667.4453125 40 Z Z" stroke-miterlimit="10"/></g><g transform="translate(-278,10) scale(1,1)"><g><path fill="none" stroke="none"/><text fill="#000000" stroke="none" font-family="Arial" font-size="22px" font-style="normal" font-weight="bold" text-decoration="none" x="686.0654296875" y="68.5">EditorActionHandler</text></g></g><g transform="translate(-278,10) scale(1,1)"><path fill="none" stroke="#000000" d="M 784.5 80 L 784.5 1144" stroke-miterlimit="10" stroke-dasharray="3"/></g><g transform="translate(-278,10) scale(1,1)"><rect fill="#C0C0C0" stroke="none" x="1135" y="47" width="256.251953125" height="39" opacity="0.2"/></g><g transform="translate(-278,10) scale(1,1)"><rect fill="#ffffff" stroke="none" x="1128" y="40" width="256.251953125" height="39"/></g><g transform="translate(-278,10) scale(1,1)"><path fill="none" stroke="#000000" d="M 1128 40 L 1384.251953125 40 L 1384.251953125 79 L 1128 79 L 1128 40 Z Z" stroke-miterlimit="10"/></g><g transform="translate(-278,10) scale(1,1)"><g><path fill="none" stroke="none"/><text fill="#000000" stroke="none" font-family="Arial" font-size="22px" font-style="normal" font-weight="bold" text-decoration="none" x="1146.0830078125" y="68.5">SocketSecurityService</text></g></g><g transform="translate(-278,10) scale(1,1)"><path fill="none" stroke="#000000" d="M 1257.5 80 L 1257.5 1128" stroke-miterlimit="10" stroke-dasharray="3"/></g><g transform="translate(-278,10) scale(1,1)"><path fill="#ffffff" stroke="none" d="M 424 144 L 674.82421875 144 L 684.82421875 154 L 684.82421875 182 L 424 182 L 424 144"/></g><g transform="translate(-278,10) scale(1,1)"><path fill="none" stroke="#000000" d="M 424 144 L 674.82421875 144 L 684.82421875 154 L 684.82421875 182 L 424 182 L 424 144 L 424 144" stroke-miterlimit="10"/></g><g transform="translate(-278,10) scale(1,1)"><path fill="none" stroke="#000000" d="M 674.82421875 144 L 674.82421875 154 L 684.82421875 154 L 674.82421875 144" stroke-miterlimit="10"/></g><g transform="translate(-278,10) scale(1,1)"><g><path fill="none" stroke="none"/><text fill="#000000" stroke="none" font-family="Arial" font-size="22px" font-style="normal" font-weight="normal" text-decoration="none" x="429" y="171">{jwt_token,diagram_id}</text></g></g><g transform="translate(-278,10) scale(1,1)"><rect fill="#C0C0C0" stroke="none" x="1396.345703125" y="47" width="253.802734375" height="39" opacity="0.2"/></g><g transform="translate(-278,10) scale(1,1)"><rect fill="#ffffff" stroke="none" x="1389.345703125" y="40" width="253.802734375" height="39"/></g><g transform="translate(-278,10) scale(1,1)"><path fill="none" stroke="#000000" d="M 1389.345703125 40 L 1643.1484375 40 L 1643.1484375 79 L 1389.345703125 79 L 1389.345703125 40 Z Z" stroke-miterlimit="10"/></g><g transform="translate(-278,10) scale(1,1)"><g><path fill="none" stroke="none"/><text fill="#000000" stroke="none" font-family="Arial" font-size="22px" font-style="normal" font-weight="bold" text-decoration="none" x="1406.8056640625" y="68.5">SocketSessionService</text></g></g><g transform="translate(-278,10) scale(1,1)"><path fill="none" stroke="#000000" d="M 1517.5 80 L 1517.5 1144" stroke-miterlimit="10" stroke-dasharray="3"/></g><g transform="translate(-278,10) scale(1,1)"><rect fill="#C0C0C0" stroke="none" x="903" y="47" width="239.0751953125" height="39" opacity="0.2"/></g><g transform="translate(-278,10) scale(1,1)"><rect fill="#ffffff" stroke="none" x="896" y="40" width="239.0751953125" height="39"/></g><g transform="translate(-278,10) scale(1,1)"><path fill="none" stroke="#000000" d="M 896 40 L 1135.0751953125 40 L 1135.0751953125 79 L 896 79 L 896 40 Z Z" stroke-miterlimit="10"/></g><g transform="translate(-278,10) scale(1,1)"><g><path fill="none" stroke="none"/><text fill="#000000" stroke="none" font-family="Arial" font-size="22px" font-style="normal" font-weight="bold" text-decoration="none" x="912.19775390625" y="68.5">SessionStateHandler</text></g></g><g transform="translate(-278,10) scale(1,1)"><path fill="none" stroke="#000000" d="M 1016.5 80 L 1016.5 1136" stroke-miterlimit="10" stroke-dasharray="3"/></g><g transform="translate(-278,10) scale(1,1)"><path fill="#ffffff" stroke="none" d="M 1056 736 L 1389 736 L 1399 746 L 1399 791 L 1056 791 L 1056 736"/></g><g transform="translate(-278,10) scale(1,1)"><path fill="none" stroke="#000000" d="M 1056 736 L 1389 736 L 1399 746 L 1399 791 L 1056 791 L 1056 736 L 1056 736" stroke-miterlimit="10"/></g><g transform="translate(-278,10) scale(1,1)"><path fill="none" stroke="#000000" d="M 1389 736 L 1389 746 L 1399 746 L 1389 736" stroke-miterlimit="10"/></g><g transform="translate(-278,10) scale(1,1)"><g><path fill="none" stroke="none"/><text fill="#000000" stroke="none" font-family="Arial" font-size="22px" font-style="normal" font-weight="normal" text-decoration="none" x="1061" y="763">Skip security check, because we</text><text fill="#000000" stroke="none" font-family="Arial" font-size="22px" font-style="normal" font-weight="normal" text-decoration="none" x="1061" y="785">have a token to identify ourself</text></g></g><g transform="translate(-278,10) scale(1,1)"><path fill="#ffffff" stroke="none" d="M 1520 880 L 1693 880 L 1703 890 L 1703 962 L 1520 962 L 1520 880"/></g><g transform="translate(-278,10) scale(1,1)"><path fill="none" stroke="#000000" d="M 1520 880 L 1693 880 L 1703 890 L 1703 962 L 1520 962 L 1520 880 L 1520 880" stroke-miterlimit="10"/></g><g transform="translate(-278,10) scale(1,1)"><path fill="none" stroke="#000000" d="M 1693 880 L 1693 890 L 1703 890 L 1693 880" stroke-miterlimit="10"/></g><g transform="translate(-278,10) scale(1,1)"><g><path fill="none" stroke="none"/><text fill="#000000" stroke="none" font-family="Arial" font-size="22px" font-style="normal" font-weight="normal" text-decoration="none" x="1525" y="907">The Session's id</text><text fill="#000000" stroke="none" font-family="Arial" font-size="22px" font-style="normal" font-weight="normal" text-decoration="none" x="1525" y="929">is defined in the</text><text fill="#000000" stroke="none" font-family="Arial" font-size="22px" font-style="normal" font-weight="normal" text-decoration="none" x="1525" y="951">token</text></g></g><g transform="translate(-278,10) scale(1,1)"><path fill="#ffffff" stroke="none" d="M 824 192 L 1133 192 L 1143 202 L 1143 268 L 824 268 L 824 192"/></g><g transform="translate(-278,10) scale(1,1)"><path fill="none" stroke="#000000" d="M 824 192 L 1133 192 L 1143 202 L 1143 268 L 824 268 L 824 192 L 824 192" stroke-miterlimit="10"/></g><g transform="translate(-278,10) scale(1,1)"><path fill="none" stroke="#000000" d="M 1133 192 L 1133 202 L 1143 202 L 1133 192" stroke-miterlimit="10"/></g><g transform="translate(-278,10) scale(1,1)"><g><path fill="none" stroke="none"/><text fill="#000000" stroke="none" font-family="Arial" font-size="22px" font-style="normal" font-weight="normal" text-decoration="none" x="829" y="219">if the Authentication or</text><text fill="#000000" stroke="none" font-family="Arial" font-size="22px" font-style="normal" font-weight="normal" text-decoration="none" x="829" y="241">Authorization failed -&gt; return</text><text fill="#000000" stroke="none" font-family="Arial" font-size="22px" font-style="normal" font-weight="normal" text-decoration="none" x="829" y="263">value is null</text></g></g><g transform="translate(-278,10) scale(1,1)"><path fill="#ffffff" stroke="none" d="M 1256 664 L 1477 664 L 1487 674 L 1487 696 L 1256 696 L 1256 664"/></g><g transform="translate(-278,10) scale(1,1)"><path fill="none" stroke="#000000" d="M 1256 664 L 1477 664 L 1487 674 L 1487 696 L 1256 696 L 1256 664 L 1256 664" stroke-miterlimit="10"/></g><g transform="translate(-278,10) scale(1,1)"><path fill="none" stroke="#000000" d="M 1477 664 L 1477 674 L 1487 674 L 1477 664" stroke-miterlimit="10"/></g><g transform="translate(-278,10) scale(1,1)"><g><path fill="none" stroke="none"/><text fill="#000000" stroke="none" font-family="Arial" font-size="22px" font-style="normal" font-weight="normal" text-decoration="none" x="1261" y="691">(session_id included)</text></g></g><g transform="translate(-278,10) scale(1,1)"><path fill="none" stroke="#000000" d="M 391 136 L 777 136" stroke-miterlimit="10"/></g><g transform="translate(-278,10) scale(1,1)"><path fill="#000000" stroke="none" d="M 766.8373251423759 140.209517756016 L 777 136 L 766.8373251423758 131.790482243984"/></g><g transform="translate(-278,10) scale(1,1)"><path fill="none" stroke="#000000" d="M 766.8373251423759 140.209517756016 L 777 136 L 766.8373251423758 131.790482243984 L 766.8373251423759 140.209517756016" stroke-miterlimit="10"/></g><g transform="translate(-278,10) scale(1,1)"><g><path fill="none" stroke="none"/><text fill="#000000" stroke="none" font-family="Arial" font-size="22px" font-style="normal" font-weight="normal" text-decoration="none" x="424.00927734375" y="136.5">1 : SocketAuthenticationRequest</text></g></g><g transform="translate(-278,10) scale(1,1)"><rect fill="#ffffff" stroke="none" x="777" y="136" width="13" height="28"/></g><g transform="translate(-278,10) scale(1,1)"><path fill="none" stroke="#000000" d="M 777 136 L 790 136 L 790 164 L 777 164 L 777 136 Z Z" stroke-miterlimit="10"/></g><g transform="translate(-278,10) scale(1,1)"><path fill="none" stroke="#000000" d="M 790 160 L 1250 160" stroke-miterlimit="10"/></g><g transform="translate(-278,10) scale(1,1)"><path fill="#000000" stroke="none" d="M 1239.837325142376 164.209517756016 L 1250 160 L 1239.837325142376 155.790482243984"/></g><g transform="translate(-278,10) scale(1,1)"><path fill="none" stroke="#000000" d="M 1239.837325142376 164.209517756016 L 1250 160 L 1239.837325142376 155.790482243984 L 1239.837325142376 164.209517756016" stroke-miterlimit="10"/></g><g transform="translate(-278,10) scale(1,1)"><g><path fill="none" stroke="none"/><text fill="#000000" stroke="none" font-family="Arial" font-size="22px" font-style="normal" font-weight="normal" text-decoration="none" x="855.06689453125" y="160.5">2 : authenticateAndAuthorizeRequest</text></g></g><g transform="translate(-278,10) scale(1,1)"><rect fill="#ffffff" stroke="none" x="1250" y="160" width="13" height="32"/></g><g transform="translate(-278,10) scale(1,1)"><path fill="none" stroke="#000000" d="M 1250 160 L 1263 160 L 1263 192 L 1250 192 L 1250 160 Z Z" stroke-miterlimit="10"/></g><g transform="translate(-278,10) scale(1,1)"><path fill="none" stroke="#000000" d="M 1257 192 L 1287 192 L 1287 212 L 1263 212" stroke-miterlimit="10"/></g><g transform="translate(-278,10) scale(1,1)"><path fill="#000000" stroke="none" d="M 1273.162674857624 207.790482243984 L 1263 212 L 1273.162674857624 216.209517756016"/></g><g transform="translate(-278,10) scale(1,1)"><path fill="none" stroke="#000000" d="M 1273.162674857624 207.790482243984 L 1263 212 L 1273.162674857624 216.209517756016 L 1273.162674857624 207.790482243984" stroke-miterlimit="10"/></g><g transform="translate(-278,10) scale(1,1)"><g><path fill="none" stroke="none"/><text fill="#000000" stroke="none" font-family="Arial" font-size="22px" font-style="normal" font-weight="normal" text-decoration="none" x="1305.8427734375" y="212.5">3 : Authenticate &amp; validate token</text></g></g><g transform="translate(-278,10) scale(1,1)"><rect fill="#ffffff" stroke="none" x="1250" y="212" width="13" height="28"/></g><g transform="translate(-278,10) scale(1,1)"><path fill="none" stroke="#000000" d="M 1250 212 L 1263 212 L 1263 240 L 1250 240 L 1250 212 Z Z" stroke-miterlimit="10"/></g><g transform="translate(-278,10) scale(1,1)"><path fill="none" stroke="#000000" d="M 1257 240 L 1287 240 L 1287 260 L 1263 260" stroke-miterlimit="10"/></g><g transform="translate(-278,10) scale(1,1)"><path fill="#000000" stroke="none" d="M 1273.162674857624 255.790482243984 L 1263 260 L 1273.162674857624 264.209517756016"/></g><g transform="translate(-278,10) scale(1,1)"><path fill="none" stroke="#000000" d="M 1273.162674857624 255.790482243984 L 1263 260 L 1273.162674857624 264.209517756016 L 1273.162674857624 255.790482243984" stroke-miterlimit="10"/></g><g transform="translate(-278,10) scale(1,1)"><g><path fill="none" stroke="none"/><text fill="#000000" stroke="none" font-family="Arial" font-size="22px" font-style="normal" font-weight="normal" text-decoration="none" x="1305.33740234375" y="260.5">4 : Authorize user</text></g></g><g transform="translate(-278,10) scale(1,1)"><rect fill="#ffffff" stroke="none" x="1250" y="260" width="13" height="28"/></g><g transform="translate(-278,10) scale(1,1)"><path fill="none" stroke="#000000" d="M 1250 260 L 1263 260 L 1263 288 L 1250 288 L 1250 260 Z Z" stroke-miterlimit="10"/></g><g transform="translate(-278,10) scale(1,1)"><path fill="none" stroke="#000000" d="M 1250 285 L 784 285" stroke-miterlimit="10" stroke-dasharray="3"/></g><g transform="translate(-278,10) scale(1,1)"><path fill="none" stroke="#000000" d="M 794.1626748576241 280.790482243984 L 784 285 L 794.1626748576241 289.209517756016" stroke-miterlimit="10"/></g><g transform="translate(-278,10) scale(1,1)"><g><path fill="none" stroke="none"/><text fill="#000000" stroke="none" font-family="Arial" font-size="22px" font-style="normal" font-weight="normal" text-decoration="none" x="945.8916015625" y="308.5">5 : userDetails</text></g></g><g transform="translate(-278,10) scale(1,1)"><path fill="none" stroke="#000000" d="M 784 368 L 1510 368" stroke-miterlimit="10"/></g><g transform="translate(-278,10) scale(1,1)"><path fill="#000000" stroke="none" d="M 1499.837325142376 372.209517756016 L 1510 368 L 1499.837325142376 363.790482243984"/></g><g transform="translate(-278,10) scale(1,1)"><path fill="none" stroke="#000000" d="M 1499.837325142376 372.209517756016 L 1510 368 L 1499.837325142376 363.790482243984 L 1499.837325142376 372.209517756016" stroke-miterlimit="10"/></g><g transform="translate(-278,10) scale(1,1)"><g><path fill="none" stroke="none"/><text fill="#000000" stroke="none" font-family="Arial" font-size="22px" font-style="normal" font-weight="normal" text-decoration="none" x="1008.951171875" y="359.5">6 : call autoProcessRequest</text></g></g><g transform="translate(-278,10) scale(1,1)"><rect fill="#ffffff" stroke="none" x="1510" y="368" width="13" height="28"/></g><g transform="translate(-278,10) scale(1,1)"><path fill="none" stroke="#000000" d="M 1510 368 L 1523 368 L 1523 396 L 1510 396 L 1510 368 Z Z" stroke-miterlimit="10"/></g><g transform="translate(-278,10) scale(1,1)"><path fill="none" stroke="#000000" d="M 1517 432 L 1547 432 L 1547 452 L 1523 452" stroke-miterlimit="10"/></g><g transform="translate(-278,10) scale(1,1)"><path fill="#000000" stroke="none" d="M 1533.162674857624 447.790482243984 L 1523 452 L 1533.162674857624 456.209517756016"/></g><g transform="translate(-278,10) scale(1,1)"><path fill="none" stroke="#000000" d="M 1533.162674857624 447.790482243984 L 1523 452 L 1533.162674857624 456.209517756016 L 1533.162674857624 447.790482243984" stroke-miterlimit="10"/></g><g transform="translate(-278,10) scale(1,1)"><g><path fill="none" stroke="none"/><text fill="#000000" stroke="none" font-family="Arial" font-size="22px" font-style="normal" font-weight="normal" text-decoration="none" x="1555.00537109375" y="452.5">7 : Add User to Session</text></g></g><g transform="translate(-278,10) scale(1,1)"><rect fill="#ffffff" stroke="none" x="1510" y="452" width="13" height="28"/></g><g transform="translate(-278,10) scale(1,1)"><path fill="none" stroke="#000000" d="M 1510 452 L 1523 452 L 1523 480 L 1510 480 L 1510 452 Z Z" stroke-miterlimit="10"/></g><g transform="translate(-278,10) scale(1,1)"><path fill="none" stroke="#000000" d="M 1517 512 L 1547 512 L 1547 532 L 1523 532" stroke-miterlimit="10"/></g><g transform="translate(-278,10) scale(1,1)"><path fill="#000000" stroke="none" d="M 1533.162674857624 527.790482243984 L 1523 532 L 1533.162674857624 536.209517756016"/></g><g transform="translate(-278,10) scale(1,1)"><path fill="none" stroke="#000000" d="M 1533.162674857624 527.790482243984 L 1523 532 L 1533.162674857624 536.209517756016 L 1533.162674857624 527.790482243984" stroke-miterlimit="10"/></g><g transform="translate(-278,10) scale(1,1)"><g><path fill="none" stroke="none"/><text fill="#000000" stroke="none" font-family="Arial" font-size="22px" font-style="normal" font-weight="normal" text-decoration="none" x="1553.8388671875" y="532.5">8 : Create new Session</text></g></g><g transform="translate(-278,10) scale(1,1)"><rect fill="#ffffff" stroke="none" x="1510" y="532" width="13" height="28"/></g><g transform="translate(-278,10) scale(1,1)"><path fill="none" stroke="#000000" d="M 1510 532 L 1523 532 L 1523 560 L 1510 560 L 1510 532 Z Z" stroke-miterlimit="10"/></g><g transform="translate(-278,10) scale(1,1)"><path fill="none" stroke="#000000" d="M 1517 576 L 1547 576 L 1547 596 L 1523 596" stroke-miterlimit="10"/></g><g transform="translate(-278,10) scale(1,1)"><path fill="#000000" stroke="none" d="M 1533.162674857624 591.790482243984 L 1523 596 L 1533.162674857624 600.209517756016"/></g><g transform="translate(-278,10) scale(1,1)"><path fill="none" stroke="#000000" d="M 1533.162674857624 591.790482243984 L 1523 596 L 1533.162674857624 600.209517756016 L 1533.162674857624 591.790482243984" stroke-miterlimit="10"/></g><g transform="translate(-278,10) scale(1,1)"><g><path fill="none" stroke="none"/><text fill="#000000" stroke="none" font-family="Arial" font-size="22px" font-style="normal" font-weight="normal" text-decoration="none" x="1556.00537109375" y="595.5">9 : Add User to Session</text></g></g><g transform="translate(-278,10) scale(1,1)"><rect fill="#ffffff" stroke="none" x="1510" y="596" width="13" height="28"/></g><g transform="translate(-278,10) scale(1,1)"><path fill="none" stroke="#000000" d="M 1510 596 L 1523 596 L 1523 624 L 1510 624 L 1510 596 Z Z" stroke-miterlimit="10"/></g><g transform="translate(-278,10) scale(1,1)"><path fill="none" stroke="#000000" d="M 1517 656 L 1547 656 L 1547 676 L 1523 676" stroke-miterlimit="10"/></g><g transform="translate(-278,10) scale(1,1)"><path fill="#000000" stroke="none" d="M 1533.162674857624 671.790482243984 L 1523 676 L 1533.162674857624 680.209517756016"/></g><g transform="translate(-278,10) scale(1,1)"><path fill="none" stroke="#000000" d="M 1533.162674857624 671.790482243984 L 1523 676 L 1533.162674857624 680.209517756016 L 1533.162674857624 671.790482243984" stroke-miterlimit="10"/></g><g transform="translate(-278,10) scale(1,1)"><g><path fill="none" stroke="none"/><text fill="#000000" stroke="none" font-family="Arial" font-size="22px" font-style="normal" font-weight="normal" text-decoration="none" x="1530.2861328125" y="700.5">10 : Generate session_token</text></g></g><g transform="translate(-278,10) scale(1,1)"><rect fill="#ffffff" stroke="none" x="1510" y="676" width="13" height="28"/></g><g transform="translate(-278,10) scale(1,1)"><path fill="none" stroke="#000000" d="M 1510 676 L 1523 676 L 1523 704 L 1510 704 L 1510 676 Z Z" stroke-miterlimit="10"/></g><g transform="translate(-278,10) scale(1,1)"><path fill="none" stroke="#000000" d="M 1517 704 L 784 704" stroke-miterlimit="10" stroke-dasharray="3"/></g><g transform="translate(-278,10) scale(1,1)"><path fill="none" stroke="#000000" d="M 794.1626748576241 699.790482243984 L 784 704 L 794.1626748576241 708.209517756016" stroke-miterlimit="10"/></g><g transform="translate(-278,10) scale(1,1)"><g><path fill="none" stroke="none"/><text fill="#000000" stroke="none" font-family="Arial" font-size="22px" font-style="normal" font-weight="normal" text-decoration="none" x="1064.7646484375" y="700.5">11 : session_token</text></g></g><g transform="translate(-278,10) scale(1,1)"><path fill="none" stroke="#000000" d="M 784 720 L 391 720" stroke-miterlimit="10" stroke-dasharray="3"/></g><g transform="translate(-278,10) scale(1,1)"><path fill="none" stroke="#000000" d="M 401.16267485762415 715.790482243984 L 391 720 L 401.16267485762415 724.209517756016" stroke-miterlimit="10"/></g><g transform="translate(-278,10) scale(1,1)"><g><path fill="none" stroke="none"/><text fill="#000000" stroke="none" font-family="Arial" font-size="22px" font-style="normal" font-weight="normal" text-decoration="none" x="494.8388671875" y="716.5">12 : session_token</text></g></g><g transform="translate(-278,10) scale(1,1)"><path fill="none" stroke="#000000" d="M 391 758 L 567 758" stroke-miterlimit="10"/></g><g transform="translate(-278,10) scale(1,1)"><path fill="#000000" stroke="none" d="M 556.8373251423759 762.209517756016 L 567 758 L 556.8373251423758 753.790482243984"/></g><g transform="translate(-278,10) scale(1,1)"><path fill="none" stroke="#000000" d="M 556.8373251423759 762.209517756016 L 567 758 L 556.8373251423758 753.790482243984 L 556.8373251423759 762.209517756016" stroke-miterlimit="10"/></g><g transform="translate(-278,10) scale(1,1)"><g><path fill="none" stroke="none"/><text fill="#000000" stroke="none" font-family="Arial" font-size="22px" font-style="normal" font-weight="normal" text-decoration="none" x="399.7265625" y="758.5">13 : call connect</text></g></g><g transform="translate(-278,10) scale(1,1)"><rect fill="#ffffff" stroke="none" x="567" y="758" width="13" height="28"/></g><g transform="translate(-278,10) scale(1,1)"><path fill="none" stroke="#000000" d="M 567 758 L 580 758 L 580 786 L 567 786 L 567 758 Z Z" stroke-miterlimit="10"/></g><g transform="translate(-278,10) scale(1,1)"><path fill="none" stroke="#000000" d="M 580 784 L 1009 784" stroke-miterlimit="10"/></g><g transform="translate(-278,10) scale(1,1)"><path fill="#000000" stroke="none" d="M 998.8373251423759 788.209517756016 L 1009 784 L 998.8373251423758 779.790482243984"/></g><g transform="translate(-278,10) scale(1,1)"><path fill="none" stroke="#000000" d="M 998.8373251423759 788.209517756016 L 1009 784 L 998.8373251423758 779.790482243984 L 998.8373251423759 788.209517756016" stroke-miterlimit="10"/></g><g transform="translate(-278,10) scale(1,1)"><g><path fill="none" stroke="none"/><text fill="#000000" stroke="none" font-family="Arial" font-size="22px" font-style="normal" font-weight="normal" text-decoration="none" x="701.8388671875" y="784.5">14 : session_token</text></g></g><g transform="translate(-278,10) scale(1,1)"><rect fill="#ffffff" stroke="none" x="1009" y="784" width="13" height="28"/></g><g transform="translate(-278,10) scale(1,1)"><path fill="none" stroke="#000000" d="M 1009 784 L 1022 784 L 1022 812 L 1009 812 L 1009 784 Z Z" stroke-miterlimit="10"/></g><g transform="translate(-278,10) scale(1,1)"><path fill="none" stroke="#000000" d="M 1016 816 L 1510 816" stroke-miterlimit="10"/></g><g transform="translate(-278,10) scale(1,1)"><path fill="#000000" stroke="none" d="M 1499.837325142376 820.209517756016 L 1510 816 L 1499.837325142376 811.790482243984"/></g><g transform="translate(-278,10) scale(1,1)"><path fill="none" stroke="#000000" d="M 1499.837325142376 820.209517756016 L 1510 816 L 1499.837325142376 811.790482243984 L 1499.837325142376 820.209517756016" stroke-miterlimit="10"/></g><g transform="translate(-278,10) scale(1,1)"><g><path fill="none" stroke="none"/><text fill="#000000" stroke="none" font-family="Arial" font-size="22px" font-style="normal" font-weight="normal" text-decoration="none" x="1060.9072265625" y="816.5">15 : updateUserWithStateAndGetSession</text></g></g><g transform="translate(-278,10) scale(1,1)"><rect fill="#ffffff" stroke="none" x="1510" y="816" width="13" height="28"/></g><g transform="translate(-278,10) scale(1,1)"><path fill="none" stroke="#000000" d="M 1510 816 L 1523 816 L 1523 844 L 1510 844 L 1510 816 Z Z" stroke-miterlimit="10"/></g><g transform="translate(-278,10) scale(1,1)"><path fill="none" stroke="#000000" d="M 1523 840 L 1553 840 L 1553 860 L 1523 860" stroke-miterlimit="10"/></g><g transform="translate(-278,10) scale(1,1)"><path fill="#000000" stroke="none" d="M 1533.162674857624 855.790482243984 L 1523 860 L 1533.162674857624 864.209517756016"/></g><g transform="translate(-278,10) scale(1,1)"><path fill="none" stroke="#000000" d="M 1533.162674857624 855.790482243984 L 1523 860 L 1533.162674857624 864.209517756016 L 1533.162674857624 855.790482243984" stroke-miterlimit="10"/></g><g transform="translate(-278,10) scale(1,1)"><g><path fill="none" stroke="none"/><text fill="#000000" stroke="none" font-family="Arial" font-size="22px" font-style="normal" font-weight="normal" text-decoration="none" x="1524.45947265625" y="836.5">16 : Update user in the Session.</text></g></g><g transform="translate(-278,10) scale(1,1)"><rect fill="#ffffff" stroke="none" x="1510" y="860" width="13" height="28"/></g><g transform="translate(-278,10) scale(1,1)"><path fill="none" stroke="#000000" d="M 1510 860 L 1523 860 L 1523 888 L 1510 888 L 1510 860 Z Z" stroke-miterlimit="10"/></g><g transform="translate(-278,10) scale(1,1)"><path fill="none" stroke="#000000" d="M 1510 880 L 1016 880" stroke-miterlimit="10" stroke-dasharray="3"/></g><g transform="translate(-278,10) scale(1,1)"><path fill="none" stroke="#000000" d="M 1026.162674857624 875.790482243984 L 1016 880 L 1026.162674857624 884.209517756016" stroke-miterlimit="10"/></g><g transform="translate(-278,10) scale(1,1)"><g><path fill="none" stroke="none"/><text fill="#000000" stroke="none" font-family="Arial" font-size="22px" font-style="normal" font-weight="normal" text-decoration="none" x="1136.33837890625" y="907.5">17 : ref  EditorSession</text></g></g><g transform="translate(-278,10) scale(1,1)"><path fill="none" stroke="#000000" d="M 1016 888 L 1046 888 L 1046 908 L 1022 908" stroke-miterlimit="10"/></g><g transform="translate(-278,10) scale(1,1)"><path fill="#000000" stroke="none" d="M 1032.162674857624 903.790482243984 L 1022 908 L 1032.162674857624 912.209517756016"/></g><g transform="translate(-278,10) scale(1,1)"><path fill="none" stroke="#000000" d="M 1032.162674857624 903.790482243984 L 1022 908 L 1032.162674857624 912.209517756016 L 1032.162674857624 903.790482243984" stroke-miterlimit="10"/></g><g transform="translate(-278,10) scale(1,1)"><g><path fill="none" stroke="none"/><text fill="#000000" stroke="none" font-family="Arial" font-size="22px" font-style="normal" font-weight="normal" text-decoration="none" x="964.8994140625" y="964.5">18 : Generate list from EditorSessions sessionItemMap</text></g></g><g transform="translate(-278,10) scale(1,1)"><rect fill="#ffffff" stroke="none" x="1009" y="908" width="13" height="28"/></g><g transform="translate(-278,10) scale(1,1)"><path fill="none" stroke="#000000" d="M 1009 908 L 1022 908 L 1022 936 L 1009 936 L 1009 908 Z Z" stroke-miterlimit="10"/></g><g transform="translate(-278,10) scale(1,1)"><path fill="none" stroke="#000000" d="M 1009 928 L 574 928" stroke-miterlimit="10" stroke-dasharray="3"/></g><g transform="translate(-278,10) scale(1,1)"><path fill="none" stroke="#000000" d="M 584.1626748576241 923.790482243984 L 574 928 L 584.1626748576241 932.209517756016" stroke-miterlimit="10"/></g><g transform="translate(-278,10) scale(1,1)"><g><path fill="none" stroke="none"/><text fill="#000000" stroke="none" font-family="Arial" font-size="22px" font-style="normal" font-weight="normal" text-decoration="none" x="664.5" y="921.5">19 : List of SessionStates</text></g></g><g transform="translate(-278,10) scale(1,1)"><path fill="none" stroke="#000000" d="M 574 936 L 604 936 L 604 956 L 580 956" stroke-miterlimit="10"/></g><g transform="translate(-278,10) scale(1,1)"><path fill="#000000" stroke="none" d="M 590.1626748576241 951.790482243984 L 580 956 L 590.1626748576241 960.209517756016"/></g><g transform="translate(-278,10) scale(1,1)"><path fill="none" stroke="#000000" d="M 590.1626748576241 951.790482243984 L 580 956 L 590.1626748576241 960.209517756016 L 590.1626748576241 951.790482243984" stroke-miterlimit="10"/></g><g transform="translate(-278,10) scale(1,1)"><g><path fill="none" stroke="none"/><text fill="#000000" stroke="none" font-family="Arial" font-size="22px" font-style="normal" font-weight="normal" text-decoration="none" x="582.8974609375" y="980.5">20 : Inject SessionState into all Items</text></g></g><g transform="translate(-278,10) scale(1,1)"><rect fill="#ffffff" stroke="none" x="567" y="956" width="13" height="28"/></g><g transform="translate(-278,10) scale(1,1)"><path fill="none" stroke="#000000" d="M 567 956 L 580 956 L 580 984 L 567 984 L 567 956 Z Z" stroke-miterlimit="10"/></g><g transform="translate(-278,10) scale(1,1)"><path fill="none" stroke="#000000" d="M 784 1008 L 397 1008" stroke-miterlimit="10"/></g><g transform="translate(-278,10) scale(1,1)"><path fill="#000000" stroke="none" d="M 407.16267485762415 1003.790482243984 L 397 1008 L 407.16267485762415 1012.209517756016"/></g><g transform="translate(-278,10) scale(1,1)"><path fill="none" stroke="#000000" d="M 407.16267485762415 1003.790482243984 L 397 1008 L 407.16267485762415 1012.209517756016 L 407.16267485762415 1003.790482243984" stroke-miterlimit="10"/></g><g transform="translate(-278,10) scale(1,1)"><path fill="none" stroke="#000000" d="M 381 1062 L 401 1082" stroke-miterlimit="10"/></g><g transform="translate(-278,10) scale(1,1)"><path fill="none" stroke="#000000" d="M 401 1062 L 381 1082" stroke-miterlimit="10"/></g><g transform="translate(-278,10) scale(1,1)"><g><path fill="none" stroke="none"/><text fill="#000000" stroke="none" font-family="Arial" font-size="22px" font-style="normal" font-weight="normal" text-decoration="none" x="470.7275390625" y="1034.5">21 : Disconnect Socket</text></g></g><g transform="translate(-278,10) scale(1,1)"><g><path fill="none" stroke="none"/><text fill="#000000" stroke="none" font-family="Arial" font-size="22px" font-style="normal" font-weight="normal" text-decoration="none" x="531.8916015625" y="1052.5">«destroy»</text></g></g><g transform="translate(-278,10) scale(1,1)"><rect fill="#ffffff" stroke="none" x="384" y="1008" width="13" height="28"/></g><g transform="translate(-278,10) scale(1,1)"><path fill="none" stroke="#000000" d="M 384 1008 L 397 1008 L 397 1036 L 384 1036 L 384 1008 Z Z" stroke-miterlimit="10"/></g><g transform="translate(-278,10) scale(1,1)"><path fill="none" stroke="#000000" d="M 304 320 L 1800 320 L 1800 1091 L 304 1091 L 304 320" stroke-miterlimit="10"/></g><g transform="translate(-278,10) scale(1,1)"><path fill="#ffffff" stroke="none" d="M 304 320 L 304 351 L 653.8564453125 351 L 669.3564453125 335.5 L 669.3564453125 320 L 304 320"/></g><g transform="translate(-278,10) scale(1,1)"><path fill="none" stroke="#000000" d="M 304 320 L 304 351 L 653.8564453125 351 L 669.3564453125 335.5 L 669.3564453125 320 L 304 320 L 304 320" stroke-miterlimit="10"/></g><g transform="translate(-278,10) scale(1,1)"><g><path fill="none" stroke="none"/><text fill="#000000" stroke="none" font-family="Arial" font-size="22px" font-style="normal" font-weight="normal" text-decoration="none" x="350.470703125" y="346.5">Auth &amp; Authorization succesful</text></g></g><g transform="translate(-278,10) scale(1,1)"><g><path fill="none" stroke="none"/><text fill="#000000" stroke="none" font-family="Arial" font-size="22px" font-style="normal" font-weight="bold" text-decoration="none" x="309" y="346.5">seq</text></g></g><g transform="translate(-278,10) scale(1,1)"><g><path fill="none" stroke="none"/><text fill="#000000" stroke="none" font-family="Arial" font-size="22px" font-style="normal" font-weight="normal" text-decoration="none" x="323.5" y="388.5">[true]</text></g></g><g transform="translate(-278,10) scale(1,1)"><path fill="none" stroke="#000000" d="M 304 1002 L 1800 1002" stroke-miterlimit="10" stroke-dasharray="10,3"/></g><g transform="translate(-278,10) scale(1,1)"><g><path fill="none" stroke="none"/><text fill="#000000" stroke="none" font-family="Arial" font-size="22px" font-style="normal" font-weight="normal" text-decoration="none" x="323.5" y="1038.5">[false]</text></g></g><g transform="translate(-278,10) scale(1,1)"><path fill="none" stroke="#000000" d="M 1238.8017578125 392 L 1780.62109375 392 L 1780.62109375 650 L 1238.8017578125 650 L 1238.8017578125 392" stroke-miterlimit="10"/></g><g transform="translate(-278,10) scale(1,1)"><path fill="#ffffff" stroke="none" d="M 1238.8017578125 392 L 1238.8017578125 423 L 1758.62109375 423 L 1774.12109375 407.5 L 1774.12109375 392 L 1238.8017578125 392"/></g><g transform="translate(-278,10) scale(1,1)"><path fill="none" stroke="#000000" d="M 1238.8017578125 392 L 1238.8017578125 423 L 1758.62109375 423 L 1774.12109375 407.5 L 1774.12109375 392 L 1238.8017578125 392 L 1238.8017578125 392" stroke-miterlimit="10"/></g><g transform="translate(-278,10) scale(1,1)"><g><path fill="none" stroke="none"/><text fill="#000000" stroke="none" font-family="Arial" font-size="22px" font-style="normal" font-weight="normal" text-decoration="none" x="1285.2724609375" y="418.5">Does a session exists with the given diagram_id</text></g></g><g transform="translate(-278,10) scale(1,1)"><g><path fill="none" stroke="none"/><text fill="#000000" stroke="none" font-family="Arial" font-size="22px" font-style="normal" font-weight="bold" text-decoration="none" x="1243.8017578125" y="418.5">seq</text></g></g><g transform="translate(-278,10) scale(1,1)"><g><path fill="none" stroke="none"/><text fill="#000000" stroke="none" font-family="Arial" font-size="22px" font-style="normal" font-weight="normal" text-decoration="none" x="1258.3017578125" y="460.5">[true]</text></g></g><g transform="translate(-278,10) scale(1,1)"><path fill="none" stroke="#000000" d="M 1238.8017578125 501 L 1780.62109375 501" stroke-miterlimit="10" stroke-dasharray="10,3"/></g><g transform="translate(-278,10) scale(1,1)"><g><path fill="none" stroke="none"/><text fill="#000000" stroke="none" font-family="Arial" font-size="22px" font-style="normal" font-weight="normal" text-decoration="none" x="1258.3017578125" y="537.5">[false]</text></g></g></g></svg>