<svg width="64" height="64" xmlns="http://www.w3.org/2000/svg" xmlns:xlink="http://www.w3.org/1999/xlink">
 <defs>
  <linearGradient y2="0" y1="1" x2="0.50001" x1="0.50001" id="SVGID_1_">
   <stop offset="0" stop-color="#d6a7ff"/>
   <stop offset="1" stop-color="#6ee6ff"/>
   <stop offset="1" stop-color="#0bb1d3"/>
  </linearGradient>
 </defs>
 <g>
  <title>Layer 1</title>
  <rect id="svg_1" fill="#333333" height="64" width="64"/>
  <g id="svg_2" transform="matrix(0.7,0,0,0.7,9.491850471496583,9.600000000000001) ">
   <path id="svg_3" fill="url(#SVGID_1_)" d="m63,8c0,-1.654 -1.346,-3 -3,-3c-1.302,0 -2.402,0.839 -2.816,2l-10.184,0l0,2l10.184,0c0.302,0.847 0.969,1.514 1.816,1.816l0,28.369c-0.847,0.302 -1.514,0.969 -1.816,1.816l-6.77,0l2.293,-2.293l-1.414,-1.414l-4.707,4.706l4.707,4.707l1.414,-1.414l-2.293,-2.293l6.77,0c0.414,1.161 1.514,2 2.816,2c1.654,0 3,-1.346 3,-3c0,-1.302 -0.839,-2.402 -2,-2.816l0,-28.368c1.161,-0.414 2,-1.514 2,-2.816zm-3,-1c0.551,0 1,0.449 1,1s-0.449,1 -1,1s-1,-0.449 -1,-1s0.449,-1 1,-1zm0,36c-0.551,0 -1,-0.449 -1,-1s0.449,-1 1,-1s1,0.449 1,1s-0.449,1 -1,1zm-42.279,-17l-8.721,-6.229l-8.721,6.229l8.721,6.229l8.721,-6.229zm-8.721,-3.771l5.279,3.771l-5.279,3.771l-5.279,-3.771l5.279,-3.771zm22,-17.229l10,0l0,2l-10,0l0,-2zm0,4l6,0l0,2l-6,0l0,-2zm8,0l2,0l0,2l-2,0l0,-2zm-31,25l0,21.184c-1.161,0.414 -2,1.514 -2,2.816c0,1.654 1.346,3 3,3c1.302,0 2.402,-0.839 2.816,-2l8.77,0l-2.293,2.293l1.414,1.414l4.707,-4.707l-4.707,-4.707l-1.414,1.414l2.293,2.293l-8.77,0c-0.302,-0.847 -0.969,-1.514 -1.816,-1.816l0,-21.184l-2,0zm1,25c-0.551,0 -1,-0.449 -1,-1s0.449,-1 1,-1s1,0.449 1,1s-0.449,1 -1,1zm11,-32l9,0l0,3l6,0l0,6.446l-8.887,5.554l8.887,5.554l0,5.446l-6,0c-1.654,0 -3,1.346 -3,3l0,4c0,1.654 1.346,3 3,3l14,0c1.654,0 3,-1.346 3,-3l0,-4c0,-1.654 -1.346,-3 -3,-3l-6,0l0,-5.446l8.887,-5.554l-8.887,-5.554l0,-6.446l6,0l0,-8l-6,0l0,-7l8,0l0,-14l-18,0l0,14l8,0l0,7l-6,0l0,3l-9,0l0,2zm24,29l0,4c0,0.551 -0.449,1 -1,1l-14,0c-0.551,0 -1,-0.449 -1,-1l0,-4c0,-0.551 0.449,-1 1,-1l14,0c0.551,0 1,0.449 1,1zm-8,-10.179l-6.113,-3.821l6.113,-3.821l6.113,3.821l-6.113,3.821zm-7,-42.821l14,0l0,10l-14,0l0,-10zm2,21l10,0l0,4l-10,0l0,-4zm23,33l0,2l-2,0l0,-2l2,0zm-4,0l0,2l-2,0l0,-2l2,0zm8,0l0,2l-2,0l0,-2l2,0zm-43,-48l2,0l0,2l-2,0l0,-2zm10,0l0,2l-2,0l0,-2l2,0zm-6,0l2,0l0,2l-2,0l0,-2z"/>
  </g>
  <g stroke="null" id="svg_17">
   <circle stroke="null" transform="matrix(0.06125653152662242,0,0,0.06125653152662242,-103.00178189631131,-102.13150703363874) " id="svg_13" fill="#444444" cy="2458.88401" cx="2467.36321" r="214.98056"/>
   <g stroke="null" id="svg_14" transform="matrix(0.042879572068635685,0,0,0.042879572068635685,-99.051140805508,-98.1719868256022) ">
    <linearGradient stroke="null" transform="translate(-4.091424942016602,0) translate(-4.091424942016602,0) translate(-4.091424942016602,0) translate(-4.091424942016602,0) translate(-4.091424942016602,0) translate(-4.091424942016602,0) translate(-4.091424942016602,0) translate(4.547473508864641e-13,4.091424942016602) translate(20.457124710083008,4.091424465179443) translate(-4.352345943450928,0) translate(4.352345943450928,0) translate(4.547473508864641e-13,-4.352345943450928) translate(4.547473508864641e-13,-4.352345943450928) translate(4.547473508864641e-13,-4.352345943450928) translate(4.547473508864641e-13,-4.352345943450928) translate(4.547473508864641e-13,-4.352345943450928) translate(4.547473508864641e-13,-4.352345943450928) translate(4.547473508864641e-13,-4.352345943450928) translate(4.547473508864641e-13,-4.352345943450928) translate(4.547473508864641e-13,-4.352345943450928) translate(4.547473508864641e-13,-4.352345943450928) translate(4.547473508864641e-13,-4.352345943450928) translate(4.547473508864641e-13,-4.352345943450928) translate(4.547473508864641e-13,-4.352345943450928) translate(-4.352345943450928,0) translate(-4.352345943450928,0) translate(-4.352345943450928,0) translate(-4.352345943450928,0) translate(-4.352345943450928,0) translate(-4.352345943450928,0) translate(-4.352345943450928,0) translate(-4.352345943450928,0) translate(-4.352345943450928,0) translate(-4.352345943450928,0) translate(-4.352345943450928,0) translate(-4.352345943450928,0) translate(-4.352345943450928,0) translate(-4.352345943450928,0) translate(1597.7840576171875,1564.952880859375) translate(1689.0211181640625,1.4210854715202004e-14) translate(0,1689.7076416015625) " id="svg_11">
     <stop stroke="null" offset="0.23359" stop-color="#9864dd"/>
     <stop stroke="null" offset="0.466" stop-color="#c59def"/>
     <stop stroke="null" offset="0.68533" stop-color="#d8a1dd"/>
     <stop stroke="null" offset="0.84749" stop-color="#fff0f7"/>
    </linearGradient>
    <linearGradient stroke="null" transform="translate(-4.091424942016602,0) translate(-4.091424942016602,0) translate(-4.091424942016602,0) translate(-4.091424942016602,0) translate(-4.091424942016602,0) translate(-4.091424942016602,0) translate(-4.091424942016602,0) translate(4.547473508864641e-13,4.091424942016602) translate(20.457124710083008,4.091424465179443) translate(-4.352345943450928,0) translate(4.352345943450928,0) translate(4.547473508864641e-13,-4.352345943450928) translate(4.547473508864641e-13,-4.352345943450928) translate(4.547473508864641e-13,-4.352345943450928) translate(4.547473508864641e-13,-4.352345943450928) translate(4.547473508864641e-13,-4.352345943450928) translate(4.547473508864641e-13,-4.352345943450928) translate(4.547473508864641e-13,-4.352345943450928) translate(4.547473508864641e-13,-4.352345943450928) translate(4.547473508864641e-13,-4.352345943450928) translate(4.547473508864641e-13,-4.352345943450928) translate(4.547473508864641e-13,-4.352345943450928) translate(4.547473508864641e-13,-4.352345943450928) translate(4.547473508864641e-13,-4.352345943450928) translate(-4.352345943450928,0) translate(-4.352345943450928,0) translate(-4.352345943450928,0) translate(-4.352345943450928,0) translate(-4.352345943450928,0) translate(-4.352345943450928,0) translate(-4.352345943450928,0) translate(-4.352345943450928,0) translate(-4.352345943450928,0) translate(-4.352345943450928,0) translate(-4.352345943450928,0) translate(-4.352345943450928,0) translate(-4.352345943450928,0) translate(-4.352345943450928,0) translate(1597.7840576171875,1564.952880859375) translate(1689.0211181640625,1.4210854715202004e-14) translate(0,1689.7076416015625) " y2="-0.83132" y1="1.5067" xlink:href="#svg_11" x2="0.50011" x1="0.50011" id="svg_10" xmlns:xlink="http://www.w3.org/1999/xlink"/>
    <linearGradient stroke="null" transform="translate(-4.091424942016602,0) translate(-4.091424942016602,0) translate(-4.091424942016602,0) translate(-4.091424942016602,0) translate(-4.091424942016602,0) translate(-4.091424942016602,0) translate(-4.091424942016602,0) translate(4.547473508864641e-13,4.091424942016602) translate(20.457124710083008,4.091424465179443) translate(-4.352345943450928,0) translate(4.352345943450928,0) translate(4.547473508864641e-13,-4.352345943450928) translate(4.547473508864641e-13,-4.352345943450928) translate(4.547473508864641e-13,-4.352345943450928) translate(4.547473508864641e-13,-4.352345943450928) translate(4.547473508864641e-13,-4.352345943450928) translate(4.547473508864641e-13,-4.352345943450928) translate(4.547473508864641e-13,-4.352345943450928) translate(4.547473508864641e-13,-4.352345943450928) translate(4.547473508864641e-13,-4.352345943450928) translate(4.547473508864641e-13,-4.352345943450928) translate(4.547473508864641e-13,-4.352345943450928) translate(4.547473508864641e-13,-4.352345943450928) translate(4.547473508864641e-13,-4.352345943450928) translate(-4.352345943450928,0) translate(-4.352345943450928,0) translate(-4.352345943450928,0) translate(-4.352345943450928,0) translate(-4.352345943450928,0) translate(-4.352345943450928,0) translate(-4.352345943450928,0) translate(-4.352345943450928,0) translate(-4.352345943450928,0) translate(-4.352345943450928,0) translate(-4.352345943450928,0) translate(-4.352345943450928,0) translate(-4.352345943450928,0) translate(-4.352345943450928,0) translate(1597.7840576171875,1564.952880859375) translate(1689.0211181640625,1.4210854715202004e-14) translate(0,1689.7076416015625) " y2="-0.22611" y1="1.05936" xlink:href="#svg_11" x2="0.50005" x1="0.50005" id="svg_9" xmlns:xlink="http://www.w3.org/1999/xlink"/>
    <path stroke="null" id="svg_15" fill="url(#svg_10)" d="m3540.49026,3411.74334l-95.69922,0l0,-95.69922c0,-5.52344 -4.47656,-10 -10,-10c-5.52344,0 -10,4.47656 -10,10l0,95.69922l-100.60156,0c-5.52344,0 -10,4.47656 -10,10c0,5.52344 4.47656,10 10,10l100.69922,0l0,100.69922c0,5.52344 4.48047,10 10,10c5.52344,0 10,-4.47656 10,-10l0,-100.69922l95.70312,0c5.51953,-0.02734 9.97657,-4.52734 9.94922,-10.05078c-0.02734,-5.51953 -4.52734,-9.97656 -10.05078,-9.94922zm0,0"/>
    <path stroke="null" id="svg_16" fill="url(#svg_9)" d="m3432.68948,3206.74334c-86.96094,-0.01563 -165.36328,52.36328 -198.64062,132.70703c-33.27344,80.34375 -14.86719,172.82031 46.64062,234.29297c83.94922,83.94922 220.05469,83.94922 304,0c83.94922,-83.94531 83.94922,-220.05078 0,-304c-40.22266,-40.45313 -94.95312,-63.13672 -152,-63zm0,410c-107.5,0 -195,-87.5 -195,-195s87.5,-195 195,-195s195,87.5 195,195s-87.5,195 -195,195zm0,0"/>
   </g>
  </g>
 </g>
</svg>