<?xml version="1.0"?>
<svg xmlns="http://www.w3.org/2000/svg" xmlns:xlink="http://www.w3.org/1999/xlink" xmlns:svgjs="http://svgjs.com/svgjs" version="1.1" width="512" height="512" x="0" y="0" viewBox="0 0 429.96113 429" style="enable-background:new 0 0 512 512" xml:space="preserve" class=""><circle r="214.980565" cx="214.980565" cy="214.5" fill="#444444" shape="circle"/><g transform="matrix(0.7,0,0,0.7,64.4933853149414,64.63833503723146)"><linearGradient xmlns="http://www.w3.org/2000/svg" id="a"><stop stop-opacity="1" stop-color="#9864dd" offset="0.2335907335907336"/><stop stop-opacity="1" stop-color="#c59def" offset="0.466"/><stop stop-opacity="1" stop-color="#d8a1dd" offset="0.6853281853281853"/><stop stop-opacity="1" stop-color="#fff0f7" offset="0.8474903474903475"/></linearGradient><linearGradient xmlns="http://www.w3.org/2000/svg" xmlns:xlink="http://www.w3.org/1999/xlink" id="b" gradientTransform="matrix(1 0 0 -1 -40.999333 473.481185)" gradientUnits="userSpaceOnUse" x1="255.7" x2="255.7" xlink:href="#a" y1="17.518" y2="570.222"/><linearGradient xmlns="http://www.w3.org/2000/svg" xmlns:xlink="http://www.w3.org/1999/xlink" id="c" gradientTransform="matrix(1 0 0 -1 -40.999333 473.481185)" gradientUnits="userSpaceOnUse" x1="256" x2="256" xlink:href="#a" y1="17.518" y2="570.222"/><path xmlns="http://www.w3.org/2000/svg" d="m322.800781 205.480469h-95.699219v-95.699219c0-5.523438-4.476562-10-10-10-5.523437 0-10 4.476562-10 10v95.699219h-100.601562c-5.523438 0-10 4.476562-10 10 0 5.523437 4.476562 10 10 10h100.699219v100.699219c0 5.523437 4.480469 10 10 10 5.523437 0 10-4.476563 10-10v-100.699219h95.703125c5.519531-.027344 9.976562-4.527344 9.949218-10.050781-.027343-5.519532-4.527343-9.976563-10.050781-9.949219zm0 0" fill="url(#b)" data-original="url(#b)" style=""/><path xmlns="http://www.w3.org/2000/svg" d="m215 .480469c-86.960938-.015625-165.363281 52.363281-198.640625 132.707031-33.273437 80.34375-14.867187 172.820312 46.640625 234.292969 83.949219 83.949219 220.054688 83.949219 304 0 83.949219-83.945313 83.949219-220.050781 0-304-40.222656-40.453125-94.953125-63.136719-152-63zm0 410c-107.5 0-195-87.5-195-195s87.5-195 195-195 195 87.5 195 195-87.5 195-195 195zm0 0" fill="url(#c)" data-original="url(#c)" style="" class=""/></g></svg>
