
<svg height="503pt" viewBox="0 0 503.18707 503" width="503pt" xmlns="http://www.w3.org/2000/svg"><path d="m433.9375 182.570312-286.078125 285.867188h-.214844l-112.851562-112.851562v-.214844l286.078125-285.867188zm0 0" fill="#90a4ae"/><path d="m485.992188 130.304688-52.054688 52.265624-113.066406-113.066406 52.054687-52.265625c22.828125-22.828125 59.945313-22.828125 82.988281 0l30.078126 30.078125c22.828124 23.042969 22.828124 60.160156 0 82.988282zm0 0" fill="#607d8b"/><path d="m147.644531 468.4375c-2.132812 2.132812-4.480469 3.625-7.253906 4.265625l-120.53125 30.082031c-1.28125.210938-2.558594.425782-3.839844.425782-4.265625 0-8.320312-1.707032-11.308593-4.695313-4.050782-4.050781-5.546876-9.8125-4.265626-15.144531l30.082032-120.535156c.636718-2.773438 2.132812-5.117188 4.265625-7.25zm0 0" fill="#607d8b"/><path d="m16.019531 503.210938c-4.183593 0-8.277343-1.644532-11.308593-4.695313-3.964844-3.964844-5.566407-9.726563-4.203126-15.167969l30.039063-120.53125c.703125-2.816406 2.15625-5.398437 4.203125-7.445312l338.113281-338.132813c22.890625-22.847656 60.09375-22.871093 82.964844 0l30.164063 30.1875c11.09375 11.070313 17.195312 25.789063 17.195312 41.46875 0 15.683594-6.101562 30.402344-17.195312 41.472657l-338.113282 338.132812c-2.046875 2.050781-4.628906 3.523438-7.445312 4.203125l-120.554688 30.039063c-1.277344.320312-2.558594.46875-3.859375.46875zm44.480469-128.363282-22.527344 90.410156 90.410156-22.527343 334.996094-334.996094c5.035156-5.035156 7.808594-11.734375 7.808594-18.859375s-2.773438-13.804688-7.808594-18.859375l-30.164062-30.164063c-10.410156-10.410156-27.328125-10.410156-37.71875 0zm76.074219 82.324219h.210937zm0 0"/><path d="m422.652344 187.09375c-4.09375 0-8.191406-1.558594-11.304688-4.695312l-90.519531-90.496094c-6.25-6.25-6.25-16.382813 0-22.632813 6.253906-6.25 16.386719-6.25 22.636719 0l90.515625 90.515625c6.25 6.253906 6.25 16.386719 0 22.636719-3.15625 3.113281-7.253907 4.671875-11.328125 4.671875zm0 0"/><path d="m136.574219 473.171875c-4.097657 0-8.191407-1.554687-11.308594-4.691406l-90.515625-90.496094c-6.25-6.25-6.25-16.382813 0-22.636719 6.25-6.25 16.382812-6.25 22.632812 0l90.519532 90.519532c6.25 6.25 6.25 16.382812 0 22.632812-3.136719 3.117188-7.234375 4.671875-11.328125 4.671875zm0 0"/></svg>
