<?xml version="1.0"?>
<svg xmlns="http://www.w3.org/2000/svg" xmlns:xlink="http://www.w3.org/1999/xlink" xmlns:svgjs="http://svgjs.com/svgjs" version="1.1" width="512" height="512" x="0" y="0" viewBox="0 0 394 394" style="enable-background:new 0 0 512 512" xml:space="preserve" class=""><rect width="394" height="394" rx="20" ry="20" fill="#333333" shape="rounded" transform="matrix(1,0,0,1,0,0)"/><g transform="matrix(0.7,0,0,0.7,59.10000000000002,56.5693359375)"><linearGradient xmlns="http://www.w3.org/2000/svg" id="a"><stop offset=".322" stop-color="#a163f5"/><stop offset=".466" stop-color="#b074ee"/><stop offset=".752" stop-color="#d8a1dd"/><stop offset=".898" stop-color="#efbad3"/></linearGradient><linearGradient xmlns="http://www.w3.org/2000/svg" xmlns:xlink="http://www.w3.org/1999/xlink" id="b" gradientUnits="userSpaceOnUse" x1="197" x2="197" xlink:href="#a" y1="437.439" y2="-60.197"/><linearGradient xmlns="http://www.w3.org/2000/svg" xmlns:xlink="http://www.w3.org/1999/xlink" id="c" gradientUnits="userSpaceOnUse" x1="241.693" x2="241.693" xlink:href="#a" y1="437.439" y2="-60.197"/><path xmlns="http://www.w3.org/2000/svg" d="m344.542969 100h-2.609375v-1.640625c-.03125-27.304687-22.15625-49.429687-49.457032-49.460937h-79.675781c-1.015625 0-1.984375-.425782-2.667969-1.175782l-28.914062-31.632812c-9.378906-10.238282-22.625-16.074219-36.507812-16.089844h-95.253907c-27.300781.03125-49.425781 22.15625-49.457031 49.457031v278.214844c.03125 27.300781 22.15625 49.425781 49.457031 49.457031h295.085938c27.300781-.03125 49.425781-22.15625 49.457031-49.457031v-178.214844c-.03125-27.300781-22.15625-49.425781-49.457031-49.457031zm-290.617188 263.128906h-4.46875c-19.574219-.023437-35.433593-15.886718-35.457031-35.457031v-278.214844c.023438-19.574219 15.882812-35.433593 35.457031-35.457031h95.253907c9.953124.011719 19.449218 4.195312 26.171874 11.535156l28.910157 31.628906c3.339843 3.648438 8.054687 5.726563 13 5.730469h79.679687c19.574219.023438 35.433594 15.886719 35.457032 35.460938v1.640625h-189.085938c-27.300781.03125-49.429688 22.15625-49.457031 49.457031v178.21875c-.023438 19.570313-15.886719 35.433594-35.460938 35.457031zm326.074219-35.457031c-.023438 19.570313-15.882812 35.433594-35.457031 35.457031h-256.167969c9.601562-9.296875 15.015625-22.09375 15.011719-35.457031v-178.214844c.019531-19.574219 15.882812-35.433593 35.457031-35.457031h205.699219c19.574219.023438 35.433593 15.886719 35.457031 35.457031zm0 0" fill="url(#b)" data-original="url(#b)" style="" class=""/><path xmlns="http://www.w3.org/2000/svg" d="m291.691406 231.5625h-43v-43c0-3.863281-3.132812-7-7-7-3.863281 0-7 3.136719-7 7v43h-43c-3.863281 0-7 3.136719-7 7 0 3.867188 3.136719 7 7 7h43v43c0 3.867188 3.136719 7 7 7 3.867188 0 7-3.132812 7-7v-43h43c3.867188 0 7-3.132812 7-7 0-3.863281-3.132812-7-7-7zm0 0" fill="url(#c)" data-original="url(#c)" style=""/></g></svg>
