<?xml version="1.0"?>
<svg xmlns="http://www.w3.org/2000/svg" xmlns:xlink="http://www.w3.org/1999/xlink" xmlns:svgjs="http://svgjs.com/svgjs" version="1.1" width="512" height="512" x="0" y="0" viewBox="0 0 512 512" style="enable-background:new 0 0 512 512" xml:space="preserve" class=""><circle r="256" cx="256" cy="256" fill="#333333" shape="circle"/><g transform="matrix(0.7,0,0,0.6999999999999998,76.80000114440918,46.78958072662357)"><defs xmlns="http://www.w3.org/2000/svg"><linearGradient id="linear-gradient" x1="414.93" y1="490.593" x2="414.93" y2="22.008" gradientUnits="userSpaceOnUse"><stop stop-opacity="1" stop-color="#b186eb" offset="0.2413127413127413"/><stop stop-opacity="1" stop-color="#b074ee" offset="0.44594594594594594"/><stop stop-opacity="1" stop-color="#d8a1dd" offset="0.5694980694980695"/><stop stop-opacity="1" stop-color="#d8a1dd" offset="0.6853281853281853"/><stop stop-opacity="1" stop-color="#d8a1dd" offset="0.7239382239382239"/><stop stop-opacity="1" stop-color="#f9cfe3" offset="0.898"/></linearGradient><linearGradient xmlns:xlink="http://www.w3.org/1999/xlink" id="linear-gradient-2" x1="97.057" y1="490.593" x2="97.057" y2="22.008" xlink:href="#linear-gradient"/><linearGradient xmlns:xlink="http://www.w3.org/1999/xlink" id="linear-gradient-3" x1="256" y1="490.593" x2="256" y2="22.008" xlink:href="#linear-gradient"/><linearGradient xmlns:xlink="http://www.w3.org/1999/xlink" id="linear-gradient-4" x1="256.014" y1="490.593" x2="256.014" y2="22.008" xlink:href="#linear-gradient"/></defs><title xmlns="http://www.w3.org/2000/svg">Business organization 2</title><path xmlns="http://www.w3.org/2000/svg" d="M472.405,405.724a8.034,8.034,0,0,0-.776-.277L452,398.41v-6.2a5.655,5.655,0,0,0-3.575-5.374l.053.165h.033l-8.888-3.836a57.524,57.524,0,0,0,32.038-47.222,19.084,19.084,0,0,0,10.922-17.276,19.291,19.291,0,0,0-.543-4.561,15.685,15.685,0,0,0-7.946-10.243l.523-3.654c.021-.146.037-.294.047-.441a60.111,60.111,0,0,0-75.553-62.289,65.694,65.694,0,0,0-11.86,4.818q-.946.461-1.9.92a6,6,0,0,0-3.409,5.412,10.465,10.465,0,0,1-4.683,8.735l-14.612,9.712a5.991,5.991,0,0,0-1.841,1.931l-.868,1.457a5.913,5.913,0,0,0-.323.622,60.317,60.317,0,0,0-5.069,28.68c.011.152.027.3.049.455l.528,3.607a15.652,15.652,0,0,0-7.99,10.257,19.049,19.049,0,0,0,8.45,20.716,12.562,12.562,0,0,0,1.937.931,57.33,57.33,0,0,0,32.107,47.294l-8.7,3.584.019.046c-.01.005-.124.006-.134.011A6.1,6.1,0,0,0,377,392.209v6.2l-19.4,7.037a5.1,5.1,0,0,0-.595.277,33.352,33.352,0,0,0-18.148,27.041c-.014.165.139.331.139.5V477a5.78,5.78,0,0,0,5.733,6h140A6.236,6.236,0,0,0,491,477V433.263c0-.167-.14-.333-.154-.5A33.667,33.667,0,0,0,472.405,405.724Zm-57.427,9.525L404,404.023V387.7a50.6,50.6,0,0,0,10.849,1.081A57.189,57.189,0,0,0,426,387.636v16.342Zm-9.663,7.553L401.3,425.48l-6.7-13.392Zm29.55-10.715-6.7,13.393-4.018-2.678ZM393.6,252.554a49.718,49.718,0,0,1,8.626-3.487,48.171,48.171,0,0,1,60.484,49.659l-.255,1.65A22.005,22.005,0,0,0,441.326,284H410.643a2.536,2.536,0,0,1-2.637-2.512,15.266,15.266,0,0,0-15.119-15.207l-7.488-.042A22.347,22.347,0,0,0,393.6,252.554Zm-23.923,25.561,4.087.04a35.891,35.891,0,0,0-6.2,17.6,6.815,6.815,0,0,1-1.046,3.03l-.01-.069A47.6,47.6,0,0,1,369.674,278.115Zm-.308,53.355a6,6,0,0,0-4.936-5.907c-.726-.261-2.12-.826-2.737-1.1a7.049,7.049,0,0,1-2.907-7.526,3.862,3.862,0,0,1,3.51-2.932,5.989,5.989,0,0,0,2.091-.592,18.352,18.352,0,0,0,15.121-16.574c.687-7.57,3.855-13.2,10.492-18.524l2.768.027a3.175,3.175,0,0,1,3.238,3.145A14.547,14.547,0,0,0,410.643,296h30.683a9.973,9.973,0,0,1,9.854,9.979,11.09,11.09,0,0,0,17.868,8.819,3.7,3.7,0,0,1,1.338,2.125,7.13,7.13,0,0,1,.2,1.693,7.027,7.027,0,0,1-5.8,6.937,6.09,6.09,0,0,0-4.954,5.993,45.235,45.235,0,1,1-90.469-.076ZM351,433.528c0-7.165,4.885-13.6,11.267-16.921l17.987-6.515,13.383,26.834a5.966,5.966,0,0,0,5.342,3.317,6.426,6.426,0,0,0,3.457-1.008l6.564-4.29V471H351ZM479,471H421V434.945l6.3,4.29a5.77,5.77,0,0,0,4.768.807,5.974,5.974,0,0,0,3.81-3.116l13.408-26.834,18.183,6.515A22.368,22.368,0,0,1,479,433.528Z" style="fill:url(#linear-gradient)" fill=""/><path xmlns="http://www.w3.org/2000/svg" d="M154.939,405.724a4.4,4.4,0,0,0-.543-.277L135,398.41v-6.2a5.869,5.869,0,0,0-3.808-5.374l-.063.165H131.1l-8.917-3.836a57.506,57.506,0,0,0,32.023-47.222,19.077,19.077,0,0,0,10.916-17.276,19.3,19.3,0,0,0-.548-4.561,15.686,15.686,0,0,0-7.947-10.243l.522-3.654c.021-.146.036-.294.046-.441a60.111,60.111,0,0,0-75.553-62.289,65.694,65.694,0,0,0-11.86,4.818q-.947.461-1.9.92a6,6,0,0,0-3.409,5.412,10.465,10.465,0,0,1-4.683,8.735l-14.612,9.712a5.991,5.991,0,0,0-1.841,1.931l-.868,1.457a5.913,5.913,0,0,0-.323.622,60.317,60.317,0,0,0-5.069,28.68c.011.152.027.3.049.455l.528,3.607a15.652,15.652,0,0,0-7.99,10.257,19.045,19.045,0,0,0,8.45,20.716,12.62,12.62,0,0,0,1.937.931,57.332,57.332,0,0,0,32.107,47.294l-8.7,3.584.019.046c-.01.005.109.006.1.011A5.883,5.883,0,0,0,60,392.209v6.2l-19.629,7.037a6.883,6.883,0,0,0-.711.277,33.7,33.7,0,0,0-18.473,27.041c-.014.165-.187.331-.187.5V477a6.236,6.236,0,0,0,6.267,6h140A5.78,5.78,0,0,0,173,477V433.263c0-.167.127-.333.113-.5A33.379,33.379,0,0,0,154.939,405.724Zm-57.461,9.525L86,404.023V387.7a63.311,63.311,0,0,0,11.349,1.081A62.3,62.3,0,0,0,109,387.636v16.342ZM87.849,422.8l-4.018,2.678-6.7-13.393Zm29.55-10.714-6.7,13.392-4.018-2.678ZM76.131,252.554a49.718,49.718,0,0,1,8.626-3.487,48.172,48.172,0,0,1,60.484,49.659l-.255,1.65A22.005,22.005,0,0,0,123.86,284H93.177a2.536,2.536,0,0,1-2.637-2.512,15.266,15.266,0,0,0-15.119-15.207l-7.488-.042A22.347,22.347,0,0,0,76.131,252.554ZM52.208,278.115l4.087.04a35.891,35.891,0,0,0-6.2,17.6,6.815,6.815,0,0,1-1.046,3.03l-.01-.069A47.58,47.58,0,0,1,52.208,278.115ZM51.9,331.47a6,6,0,0,0-4.937-5.907c-.726-.261-2.12-.826-2.737-1.1a7.049,7.049,0,0,1-2.907-7.526,3.862,3.862,0,0,1,3.51-2.932,5.989,5.989,0,0,0,2.091-.592A18.352,18.352,0,0,0,62.042,296.84c.687-7.57,3.855-13.2,10.491-18.524l2.769.027a3.175,3.175,0,0,1,3.238,3.145A14.547,14.547,0,0,0,93.177,296H123.86a9.973,9.973,0,0,1,9.854,9.979,11.09,11.09,0,0,0,17.868,8.819,3.7,3.7,0,0,1,1.338,2.125,7.182,7.182,0,0,1,.2,1.693,7.027,7.027,0,0,1-5.8,6.937,6.09,6.09,0,0,0-4.954,5.993A45.234,45.234,0,1,1,51.9,331.47ZM33,433.528a22.373,22.373,0,0,1,11.534-16.921l18.12-6.515,13.451,26.834a6.029,6.029,0,0,0,3.843,3.116,6.09,6.09,0,0,0,1.548.2,5.6,5.6,0,0,0,3.2-1.008L91,434.945V471H33ZM161,471H103V434.945l6.568,4.29a6.221,6.221,0,0,0,3.395,1.008,6.284,6.284,0,0,0,1.573-.2,6.029,6.029,0,0,0,3.843-3.116l13.426-26.834,17.924,6.515c6.382,3.318,11.271,9.756,11.271,16.921Z" style="fill:url(#linear-gradient-2)" fill=""/><path xmlns="http://www.w3.org/2000/svg" d="M262,367.281V308.97a6,6,0,0,0-12,0v58.311l-49.091,58.325a6,6,0,0,0,9.182,7.727L256,378.788l45.909,54.545a6,6,0,0,0,9.182-7.727Z" style="fill:url(#linear-gradient-3)" fill=""/><path xmlns="http://www.w3.org/2000/svg" d="M313.762,210.575a6.123,6.123,0,0,0-.646-.277l-2.5-.9a59.97,59.97,0,0,0,5.56-29.4L315,160.786v-20.3a18.733,18.733,0,0,0,11.628-22.374,15.911,15.911,0,0,0-11.484-11.553l.9-13.275a60.035,60.035,0,0,0-12.832-41.461c-5.093-6.439-12.024-11.988-21.186-16.961-25.328-13.751-52.291.111-59.75,4.583a6.03,6.03,0,0,0-1.334.722A59.875,59.875,0,0,0,195.9,93.283l.919,13.324a15.794,15.794,0,0,0-11.485,11.5A18.563,18.563,0,0,0,197,140.493v20.361l-1.211,19.137a59.824,59.824,0,0,0,5.489,29.489l-2.24.818a5.918,5.918,0,0,0-.633.277,33.566,33.566,0,0,0-18.346,27.041c-.014.166-.059.332-.059.5v25.345c0,3.314,2.777,5.541,6.091,5.541h140c3.313,0,5.909-2.227,5.909-5.541V238.114c0-.166.038-.332.025-.5A33.476,33.476,0,0,0,313.762,210.575ZM291,238.114V257H222V238.114c0-.166-.1-.332-.114-.5a33.522,33.522,0,0,0-8.653-19.656l6.08-2.2,15.378,35.91a5.989,5.989,0,0,0,8.833,2.628l12.434-8.289,12.434,8.289a6,6,0,0,0,8.842-2.628l15.426-35.993,7.12,2.569a33.716,33.716,0,0,0-8.55,19.373C291.216,237.782,291,237.948,291,238.114Zm-15.469-12.936-6.485,15.132-4.127-2.751Zm-8.506-29.963.006,21.44-11.074,12.92-11.084-12.931-.006-21.437a48.624,48.624,0,0,0,22.158.008ZM247,237.559l-4.127,2.751-6.485-15.132ZM293,203.213v-1.2c0-.283.216-.563.176-.84-.008-.054.1-.108.1-.162a5.864,5.864,0,0,0-.125-.787c-.009-.029.009-.055,0-.084a6.045,6.045,0,0,0-.259-.679c-.024-.052-.04-.1-.066-.155a5.862,5.862,0,0,0-.4-.68c-.023-.035-.048-.067-.072-.1a6.167,6.167,0,0,0-.464-.572c-.026-.028-.05-.057-.076-.085a5.992,5.992,0,0,0-.6-.545c-.039-.031-.08-.06-.12-.09a5.981,5.981,0,0,0-.605-.4c-.038-.022-.073-.046-.111-.067a6.3,6.3,0,0,0-.62-.294L279,192.043v-1.281a62.966,62.966,0,0,0,17.08-13.342,67.181,67.181,0,0,0,7.074-9.436l.888,12.833A48.087,48.087,0,0,1,299.03,205.3ZM276.3,45.407c7.706,4.184,13.429,8.717,17.5,13.859A47.96,47.96,0,0,1,304.05,92.458l-.838,12.148c-9.77-4.38-12.742-15.467-12.879-16a6,6,0,0,0-5.458-4.551c-37.832-2.318-45.906-11.913-53.29-36.128C239.717,43.841,259.2,36.125,276.3,45.407ZM221.41,55.51a79.227,79.227,0,0,0,6.9,15.774,61.017,61.017,0,0,0-20.546,18.2A47.816,47.816,0,0,1,221.41,55.51Zm-24.419,65.454a3.773,3.773,0,0,1,3.885-2.86,5.085,5.085,0,0,1,.822-.067,6.049,6.049,0,0,0,1.115-.037h.413a5.873,5.873,0,0,0,4.387-1.765,5.762,5.762,0,0,0,1.444-2.611c5.992-18.722,17.3-28.1,26.9-32.818.509.475,1.028.96,1.567,1.415,9.2,7.774,22.079,11.895,42.613,13.525,2.862,7.024,10.485,20.274,27.554,22.27A6.04,6.04,0,0,0,308.7,118h.372a6.02,6.02,0,0,0,1.115,0,4,4,0,0,1,4.707,2.91,8.651,8.651,0,0,1,.2,1.866A7.207,7.207,0,0,1,308.055,130h-.883a5.87,5.87,0,0,0-6,5.651,54.149,54.149,0,0,1-14.006,33.823c-8.751,9.733-19.833,15.054-31.207,15.054s-22.457-5.379-31.207-15.111a53.972,53.972,0,0,1-14.007-33.756,5.878,5.878,0,0,0-6-5.661h-.919a7.183,7.183,0,0,1-7.042-7.2A8.489,8.489,0,0,1,196.991,120.964Zm10.878,59.852.886-12.845a67.642,67.642,0,0,0,7.143,9.449A63.057,63.057,0,0,0,233,190.745V192l-10.786,4.414a6.242,6.242,0,0,0-3.963,5.575c0,.008-.251.017-.251.025v1.3l-5.531,2.073A47.711,47.711,0,0,1,207.869,180.816ZM192,238.379a23.13,23.13,0,0,1,9-15.351,23.128,23.128,0,0,1,9,15.352V257H192ZM320,257H303V238.379a23.4,23.4,0,0,1,8.5-14.967c4.684,3.577,8.5,9.019,8.5,14.967Z" style="fill:url(#linear-gradient-4)" fill=""/></g></svg>
