<?xml version="1.0"?>
<svg xmlns="http://www.w3.org/2000/svg" xmlns:xlink="http://www.w3.org/1999/xlink" xmlns:svgjs="http://svgjs.com/svgjs" version="1.1" width="512" height="512" x="0" y="0" viewBox="0 0 512 512" style="enable-background:new 0 0 512 512" xml:space="preserve" class=""><circle r="256" cx="256" cy="256" fill="#333333" shape="circle"/><g transform="matrix(0.73,0,0,0.73,69.12000437736515,64.11999794006351)"><linearGradient xmlns="http://www.w3.org/2000/svg" id="linear-gradient" gradientUnits="userSpaceOnUse" x1="134.205" x2="134.205" y1="377.099" y2="191.7"><stop stop-opacity="1" stop-color="#b887fb" offset="0.322"/><stop stop-opacity="1" stop-color="#bf91ef" offset="0.466"/><stop stop-opacity="1" stop-color="#d8a1dd" offset="0.752"/><stop stop-opacity="1" stop-color="#efbad3" offset="0.898"/></linearGradient><linearGradient xmlns="http://www.w3.org/2000/svg" xmlns:xlink="http://www.w3.org/1999/xlink" id="linear-gradient-3" x1="256" x2="256" xlink:href="#linear-gradient" y1="377.099" y2="191.7"/><path xmlns="http://www.w3.org/2000/svg" d="m128.205 270.223h12v14.777h-12z" fill="url(#linear-gradient)" data-original="url(#linear-gradient)" style=""/><path xmlns="http://www.w3.org/2000/svg" d="m128.205 296.822h12v99.178h-12z" fill="url(#linear-gradient)" data-original="url(#linear-gradient)" style=""/><g xmlns="http://www.w3.org/2000/svg" fill="url(#linear-gradient-3)"><path d="m212.629 278.448a43.371 43.371 0 1 0 43.371-43.371 43.42 43.42 0 0 0 -43.371 43.371zm74.742 0a31.371 31.371 0 1 1 -31.371-31.371 31.407 31.407 0 0 1 31.371 31.371z" fill=""/><path d="m496.763 241.052-100.346-80.786v-122.322a6 6 0 0 0 -6-6h-49.394a6 6 0 0 0 -6 6v74.005l-75.28-60.089a6 6 0 0 0 -7.486 0l-237 189.176a6 6 0 0 0 .689 9.855l47.294 27.965a6 6 0 0 0 6.805-.482l21.069-16.874v212.556a6 6 0 0 0 6 6h317.772a6 6 0 0 0 6-6v-212.556l21.069 16.879a6 6 0 0 0 6.805.482l47.294-27.965a6 6 0 0 0 .709-9.839zm-193.72 227h-94.086v-107.652h94.086zm105.843 0h-93.843v-113.652a6 6 0 0 0 -6-6h-106.086a6 6 0 0 0 -6 6v113.66h-93.843v-216.179l152.886-122.481 152.886 122.48zm37.336-201.64-186.471-149.381a6 6 0 0 0 -7.5 0l-186.473 149.385-36.237-21.428 226.459-180.761 81.28 64.873a6 6 0 0 0 9.743-4.689v-80.467h37.394v119.194a6 6 0 0 0 2.237 4.674l95.838 77.157z" fill=""/></g></g></svg>
