<?xml version="1.0"?>
<svg xmlns="http://www.w3.org/2000/svg" xmlns:xlink="http://www.w3.org/1999/xlink" xmlns:svgjs="http://svgjs.com/svgjs" version="1.1" width="512" height="512" x="0" y="0" viewBox="0 0 459.22315 459" style="enable-background:new 0 0 512 512" xml:space="preserve"><circle r="229.611575" cx="229.611575" cy="229.5" fill="#333333" shape="circle"/><g transform="matrix(0.7,0,0,0.6999999999999998,83.88372802734375,93.99639892578128)"><linearGradient xmlns="http://www.w3.org/2000/svg" id="a"><stop offset=".322" stop-color="#a163f5"/><stop offset=".466" stop-color="#b074ee"/><stop offset=".752" stop-color="#d8a1dd"/><stop offset=".898" stop-color="#efbad3"/></linearGradient><linearGradient xmlns="http://www.w3.org/2000/svg" xmlns:xlink="http://www.w3.org/1999/xlink" id="b" gradientUnits="userSpaceOnUse" x1="347.227" x2="347.227" xlink:href="#a" y1="446.346575" y2="-56.220425"/><linearGradient xmlns="http://www.w3.org/2000/svg" xmlns:xlink="http://www.w3.org/1999/xlink" id="c" gradientUnits="userSpaceOnUse" x1="229.613" x2="229.613" xlink:href="#a" y1="446.346575" y2="-56.220425"/><linearGradient xmlns="http://www.w3.org/2000/svg" xmlns:xlink="http://www.w3.org/1999/xlink" id="d" gradientUnits="userSpaceOnUse" x1="100.377" x2="100.377" xlink:href="#a" y1="446.346575" y2="-56.220425"/><linearGradient xmlns="http://www.w3.org/2000/svg" xmlns:xlink="http://www.w3.org/1999/xlink" id="e" gradientUnits="userSpaceOnUse" x1="43.935" x2="43.935" xlink:href="#a" y1="446.346575" y2="-56.220425"/><linearGradient xmlns="http://www.w3.org/2000/svg" xmlns:xlink="http://www.w3.org/1999/xlink" id="f" gradientUnits="userSpaceOnUse" x1="156.82" x2="156.82" xlink:href="#a" y1="446.346575" y2="-56.220425"/><path xmlns="http://www.w3.org/2000/svg" d="m380.8125 247.589844c-2.734375-2.730469-7.164062-2.730469-9.898438 0l-23.6875 23.6875-23.6875-23.6875c-2.730468-2.730469-7.164062-2.730469-9.898437 0-2.734375 2.734375-2.734375 7.167968 0 9.902344l23.6875 23.6875-23.6875 23.683593c-2.734375 2.734375-2.734375 7.167969 0 9.902344s7.164063 2.734375 9.898437 0l23.6875-23.6875 23.6875 23.683594c2.734376 2.734375 7.164063 2.734375 9.898438 0 2.734375-2.730469 2.734375-7.164063 0-9.898438l-23.683594-23.6875 23.683594-23.683593c2.734375-2.734376 2.734375-7.167969 0-9.902344zm0 0" fill="url(#b)" data-original="url(#b)" style=""/><path xmlns="http://www.w3.org/2000/svg" d="m354 169.386719v-122.273438c-.027344-25.945312-21.054688-46.972656-47-47h-260c-25.945312.027344-46.9726562 21.054688-47 47v218.605469c.0273438 25.945312 21.054688 46.972656 47 47h192.753906c16.015625 54.570312 70.382813 88.476562 126.429688 78.847656 56.050781-9.628906 95.984375-59.730468 92.871094-116.515625-3.113282-56.785156-48.289063-102.222656-105.054688-105.664062zm-307-155.273438h260c18.214844.019531 32.980469 14.78125 33 33v34.34375h-326v-34.34375c.019531-18.21875 14.78125-32.980469 33-33zm-33 251.605469v-170.261719h326v73.960938c-31.4375 2.042969-60.5625 17.226562-80.234375 41.828125-19.675781 24.605468-28.085937 56.355468-23.164063 87.472656h-189.601562c-18.214844-.023438-32.976562-14.78125-33-33zm333.226562 113.457031c-44.503906.003907-83.421874-29.972656-94.785156-73-.152344-.578125-.285156-1.160156-.425781-1.742187-.050781-.28125-.117187-.558594-.203125-.832032-9.546875-40.601562 7.648438-82.800781 42.855469-105.164062s80.710937-19.996094 113.40625 5.898438c32.695312 25.898437 45.417969 69.648437 31.710937 109.042968-13.707031 39.390625-50.847656 65.792969-92.554687 65.796875zm0 0" fill="url(#c)" data-original="url(#c)" style=""/><path xmlns="http://www.w3.org/2000/svg" d="m100.3125 67.675781h.0625c10.753906-.058593 19.441406-8.78125 19.460938-19.535156.015624-10.75-8.648438-19.503906-19.402344-19.59375h-.058594c-10.753906.058594-19.445312 8.78125-19.460938 19.535156-.015624 10.753907 8.648438 19.503907 19.398438 19.59375zm-3.859375-23.511719c1.039063-1.039062 2.449219-1.621093 3.921875-1.617187h.015625c3.074219.007813 5.558594 2.507813 5.546875 5.582031-.011719 3.066406-2.496094 5.542969-5.5625 5.546875h-.019531c-2.25-.007812-4.273438-1.367187-5.128907-3.449219-.855468-2.085937-.371093-4.476562 1.226563-6.0625zm0 0" fill="url(#d)" data-original="url(#d)" style=""/><path xmlns="http://www.w3.org/2000/svg" d="m43.875 67.5h.058594c10.808594.015625 19.578125-8.726562 19.597656-19.535156.015625-10.804688-8.730469-19.578125-19.535156-19.59375h-.0625c-10.804688-.015625-19.578125 8.730468-19.59375 19.535156s8.730468 19.578125 19.535156 19.59375zm-3.863281-23.511719c1.042969-1.039062 2.453125-1.621093 3.921875-1.617187h.019531c3.074219.007812 5.558594 2.507812 5.546875 5.582031-.011719 3.066406-2.5 5.542969-5.5625 5.546875h-.019531c-2.25-.007812-4.273438-1.371094-5.128907-3.453125-.855468-2.082031-.371093-4.472656 1.222657-6.058594zm0 0" fill="url(#e)" data-original="url(#e)" style=""/><path xmlns="http://www.w3.org/2000/svg" d="m156.757812 67.855469h.0625c10.804688.015625 19.578126-8.730469 19.59375-19.535157.019532-10.808593-8.726562-19.578124-19.53125-19.597656h-.0625c-10.808593-.015625-19.578124 8.730469-19.597656 19.535156-.015625 10.804688 8.730469 19.578126 19.535156 19.597657zm-3.859374-23.511719c1.039062-1.039062 2.449218-1.621094 3.921874-1.617188h.015626c3.074218.011719 5.558593 2.507813 5.546874 5.582032.019532 2.003906-1.039062 3.867187-2.777343 4.871094-1.734375 1.003906-3.875.996093-5.605469-.019532s-2.777344-2.882812-2.746094-4.886718c0-1.476563.59375-2.890626 1.644532-3.929688zm0 0" fill="url(#f)" data-original="url(#f)" style=""/></g></svg>
