
<?xml version="1.0" encoding="iso-8859-1"?>
<!-- Generator: Adobe Illustrator 19.0.0, SVG Export Plug-In . SVG Version: 6.00 Build 0)  -->
<svg xmlns="http://www.w3.org/2000/svg" xmlns:xlink="http://www.w3.org/1999/xlink" version="1.1" id="Layer_1" x="0px" y="0px" viewBox="0 0 505.761 505.761" style="enable-background:new 0 0 505.761 505.761;" xml:space="preserve" width="512" height="512">
<g>
	<g>
		<path style="fill:#737B87;" d="M488.937,233.34l-68.849-55.715c-9.869-7.987-24.589-0.962-24.589,11.734v24.73h-80.577    c-12.84,0-23.249-10.409-23.249-23.249v-80.577h24.73c12.696,0,19.72-14.72,11.734-24.589l-55.715-68.849    c-10.061-12.432-29.02-12.432-39.081,0l-55.715,68.849c-7.987,9.869-0.962,24.589,11.734,24.589h24.73v80.577    c0,12.84-10.409,23.249-23.249,23.249h-80.577v-24.73c0-12.696-14.72-19.72-24.589-11.734L16.824,233.34    c-12.432,10.061-12.432,29.02,0,39.081l68.849,55.715c9.869,7.987,24.589,0.962,24.589-11.734v-24.73h80.577    c12.84,0,23.249,10.409,23.249,23.249v80.577h-24.73c-12.696,0-19.72,14.72-11.734,24.589l55.715,68.849    c10.061,12.432,29.02,12.432,39.081,0l55.715-68.849c7.987-9.869,0.962-24.589-11.734-24.589h-24.73v-80.577    c0-12.84,10.409-23.249,23.249-23.249h80.577v24.73c0,12.696,14.72,19.72,24.589,11.734l68.849-55.715    C501.369,262.36,501.369,243.401,488.937,233.34z"/>
		<g>
			<path style="fill:#37414F;" d="M189.359,110.263h17.593c-12.696,0-19.72-14.72-11.733-24.589l55.715-68.849     c2.961-3.659,6.695-6.232,10.744-7.737c-9.708-3.609-21.237-1.036-28.337,7.737l-55.715,68.849     C169.639,95.543,176.663,110.263,189.359,110.263z"/>
			<path style="fill:#37414F;" d="M413.091,189.359c0-5.308,2.578-9.619,6.294-12.261c-9.85-7.119-23.887-0.138-23.887,12.261v24.73     h4.018c7.497,0,13.575-6.078,13.575-13.575V189.359z"/>
			<path style="fill:#37414F;" d="M231.681,381.923v-67.002c0-12.84-10.409-23.249-23.249-23.249H190.84     c12.84,0,23.249,10.409,23.249,23.249v80.577h4.018C225.604,395.498,231.681,389.42,231.681,381.923z"/>
			<path style="fill:#37414F;" d="M103.266,328.136l-68.849-55.715c-12.432-10.061-12.432-29.02,0-39.081l68.849-55.715     c0.231-0.187,0.467-0.357,0.703-0.528c-5.172-3.678-12.553-4.12-18.295,0.528L16.824,233.34     c-12.432,10.061-12.432,29.02,0,39.081l68.849,55.715c5.743,4.647,13.124,4.206,18.295,0.528     C103.733,328.493,103.497,328.323,103.266,328.136z"/>
			<path style="fill:#37414F;" d="M413.091,316.402v-11.155c0-7.497-6.078-13.575-13.575-13.575h-4.018v24.73     c0,12.399,14.037,19.38,23.887,12.261C415.669,326.021,413.091,321.711,413.091,316.402z"/>
			<path style="fill:#37414F;" d="M218.107,110.263h-4.018v80.577c0,12.84-10.409,23.249-23.249,23.249h17.593     c12.84,0,23.249-10.409,23.249-23.249v-67.002C231.681,116.34,225.604,110.263,218.107,110.263z"/>
			<path style="fill:#37414F;" d="M250.933,488.937l-55.715-68.849c-7.987-9.869-0.962-24.589,11.733-24.589h-17.593     c-12.696,0-19.72,14.72-11.734,24.589l55.715,68.849c7.1,8.773,18.628,11.347,28.337,7.737     C257.628,495.169,253.894,492.596,250.933,488.937z"/>
		</g>
	</g>
	<g>
		<path d="M410.638,339.027c-3.305,0-6.637-0.736-9.775-2.233c-7.935-3.786-12.864-11.6-12.864-20.392v-17.23h-9.854    c-4.143,0-7.5-3.358-7.5-7.5s3.357-7.5,7.5-7.5h17.354c4.143,0,7.5,3.358,7.5,7.5v24.73c0,3,1.616,5.562,4.324,6.854    c2.706,1.292,5.715,0.937,8.048-0.951l68.849-55.715c4.157-3.365,6.542-8.362,6.542-13.71c0-5.349-2.385-10.346-6.542-13.71    l-68.849-55.715c-2.333-1.887-5.342-2.241-8.049-0.95c-2.707,1.292-4.323,3.854-4.323,6.854v24.73c0,4.142-3.357,7.5-7.5,7.5    h-80.577c-16.954,0-30.748-13.794-30.748-30.749v-80.577c0-4.142,3.357-7.5,7.5-7.5h24.729c3,0,5.562-1.616,6.854-4.323    c1.292-2.708,0.937-5.716-0.95-8.048l-55.715-68.849C263.227,17.385,258.229,15,252.88,15c-5.348,0-10.345,2.385-13.71,6.542    l-55.715,68.849c-1.887,2.332-2.242,5.34-0.95,8.048s3.854,4.324,6.854,4.324h24.729c4.142,0,7.5,3.358,7.5,7.5v30.629    c0,4.142-3.358,7.5-7.5,7.5s-7.5-3.358-7.5-7.5v-23.129h-17.229c-8.792,0-16.605-4.929-20.392-12.864    c-3.787-7.935-2.703-17.109,2.828-23.943l55.715-68.849C233.736,4.413,242.983,0,252.88,0c9.898,0,19.145,4.413,25.371,12.106    l55.715,68.849c5.53,6.834,6.614,16.009,2.828,23.944c-3.786,7.934-11.6,12.863-20.392,12.863h-17.229v73.077    c0,8.684,7.064,15.749,15.748,15.749h73.077v-17.23c0-8.792,4.929-16.605,12.863-20.391c7.938-3.787,17.111-2.702,23.944,2.828    l68.849,55.715c7.694,6.226,12.106,15.473,12.106,25.371c0,9.897-4.412,19.145-12.106,25.37l-68.849,55.715    C420.675,337.309,415.688,339.027,410.638,339.027z"/>
		<path d="M252.881,505.761c-9.897,0-19.145-4.413-25.371-12.106l-55.715-68.849c-5.531-6.834-6.614-16.009-2.828-23.943    c3.786-7.935,11.6-12.864,20.392-12.864h17.229v-73.077c0-8.684-7.065-15.749-15.749-15.749h-73.077v17.23    c0,8.792-4.929,16.605-12.864,20.392s-17.109,2.703-23.943-2.828l-68.849-55.715C4.413,272.025,0,262.778,0,252.88    c0-9.897,4.413-19.144,12.106-25.37l68.849-55.715c6.834-5.531,16.009-6.615,23.944-2.828c7.935,3.786,12.863,11.6,12.863,20.391    v17.23h73.077c8.684,0,15.749-7.065,15.749-15.749v-19.946c0-4.142,3.358-7.5,7.5-7.5s7.5,3.358,7.5,7.5v19.946    c0,16.955-13.794,30.749-30.749,30.749h-80.577c-4.142,0-7.5-3.358-7.5-7.5v-24.73c0-3-1.616-5.562-4.323-6.854    c-2.708-1.291-5.716-0.937-8.048,0.95L21.542,239.17C17.385,242.535,15,247.532,15,252.88c0,5.349,2.385,10.346,6.542,13.71    l68.849,55.715c2.333,1.887,5.341,2.243,8.048,0.951c2.708-1.292,4.324-3.854,4.324-6.854v-24.73c0-4.142,3.358-7.5,7.5-7.5    h80.577c16.955,0,30.749,13.794,30.749,30.749v80.577c0,4.142-3.358,7.5-7.5,7.5h-24.729c-3,0-5.562,1.616-6.854,4.324    s-0.937,5.716,0.95,8.048l55.715,68.849c3.365,4.158,8.362,6.542,13.71,6.542s10.346-2.384,13.71-6.542l55.715-68.849    c1.887-2.332,2.242-5.341,0.95-8.048c-1.292-2.707-3.854-4.323-6.854-4.323h-24.729c-4.143,0-7.5-3.358-7.5-7.5v-80.577    c0-16.955,13.794-30.749,30.748-30.749h33.223c4.143,0,7.5,3.358,7.5,7.5s-3.357,7.5-7.5,7.5h-33.223    c-8.684,0-15.748,7.065-15.748,15.749v73.077h17.229c8.792,0,16.605,4.929,20.392,12.863c3.786,7.935,2.702,17.109-2.828,23.944    l-55.715,68.849C272.025,501.348,262.778,505.761,252.881,505.761z"/>
	</g>
</g>















</svg>
