<?xml version="1.0"?>
<svg xmlns="http://www.w3.org/2000/svg" xmlns:xlink="http://www.w3.org/1999/xlink" xmlns:svgjs="http://svgjs.com/svgjs" version="1.1" width="512" height="512" x="0" y="0" viewBox="0 0 381 382" style="enable-background:new 0 0 512 512" xml:space="preserve"><circle r="190.5" cx="190.5" cy="191" fill="#333333" shape="circle"/><g transform="matrix(0.6,0,0,0.6,79.99999923706054,71.39999999999999)"><linearGradient xmlns="http://www.w3.org/2000/svg" id="a"><stop offset=".322" stop-color="#a163f5"/><stop offset=".466" stop-color="#b074ee"/><stop offset=".752" stop-color="#d8a1dd"/><stop offset=".898" stop-color="#efbad3"/></linearGradient><linearGradient xmlns="http://www.w3.org/2000/svg" xmlns:xlink="http://www.w3.org/1999/xlink" id="b" gradientUnits="userSpaceOnUse" x1="187.500028" x2="187.500028" xlink:href="#a" y1="417.814" y2="-35.589"/><linearGradient xmlns="http://www.w3.org/2000/svg" xmlns:xlink="http://www.w3.org/1999/xlink" id="c" gradientUnits="userSpaceOnUse" x1="187.015028" x2="187.015028" xlink:href="#a" y1="417.814" y2="-35.589"/><path xmlns="http://www.w3.org/2000/svg" d="m367.5 158h-13v-151c0-3.867188-3.132812-7-7-7h-40c-3.867188 0-7 3.132812-7 7v20h-226v-20c0-3.867188-3.132812-7-7-7h-40c-3.867188 0-7 3.132812-7 7v151h-13c-3.890625.0625-7.011719 3.242188-7 7.136719v209.863281c0 3.867188 3.132812 7 7 7h360c3.867188 0 7-3.132812 7-7v-209.863281c.011719-3.894531-3.109375-7.074219-7-7.136719zm-333-94.878906c3.78125 10.84375 14.078125 18.046875 25.558594 17.878906h.441406v74h-26zm25.558594 3.878906c-7.179688 0-13-5.820312-13-13s5.820312-13 13-13h254.882812c7.21875.109375 13.011719 6 13 13.21875.007813 3.417969-1.367187 6.691406-3.8125 9.082031-2.441406 2.414063-5.753906 3.75-9.1875 3.699219zm254.441406 14h.441406c7.136719.101562 14.015625-2.671875 19.089844-7.691406 2.917969-2.832032 5.132812-6.308594 6.46875-10.148438v91.839844h-26zm0-67h26v31.757812c-3.625-10.640624-13.707031-18.757812-25.558594-18.757812h-.441406zm-254 0v13h-.441406c-11.847656 0-21.933594 8.117188-25.558594 18.757812v-31.757812zm14 67h226v77h-226zm286 287h-346v-196h346zm0 0" fill="url(#b)" data-original="url(#b)" style=""/><path xmlns="http://www.w3.org/2000/svg" d="m103.507812 253h55.410157c.675781-.050781 1.34375-.195312 1.980469-.429688l18.601562-5.550781v.183594c0 3.867187 3.132812 7 7 7s7-3.132813 7-7v-17.203125h93.03125c3.863281 0 7-3.132812 7-7s-3.136719-7-7-7h-93.03125v-16.625c0-3.867188-3.132812-7-7-7s-7 3.132812-7 7v.183594l-18.601562-5.339844c-.644532-.164062-1.3125-.238281-1.980469-.21875h-55.410157c-6.089843-.019531-11.933593 2.378906-16.25 6.671875-4.316406 4.292969-6.746093 10.128906-6.757812 16.214844v12.800781c-.011719 12.761719 10.246094 23.15625 23.007812 23.3125zm-9.007812-36.113281c.007812-2.375.960938-4.648438 2.652344-6.320313 1.691406-1.667968 3.976562-2.589844 6.355468-2.566406h54.410157l21.582031 6.136719v18.300781l-21.582031 6.5625h-54.410157c-5.03125-.148438-9.027343-4.277344-9.007812-9.308594zm0 0" fill="url(#c)" data-original="url(#c)" style=""/><path xmlns="http://www.w3.org/2000/svg" d="m103.253906 324h97.132813c8.601562 17.867188 26.617187 29.28125 46.445312 29.4375 19.828125.152344 38.019531-10.984375 46.898438-28.714844 1.085937-2.097656.96875-4.617187-.308594-6.605468-1.296875-2.011719-3.558594-3.195313-5.953125-3.117188h-22.070312l-8.558594-13.011719 9.304687-13.179687 21.324219.191406h.03125c1.753906-.074219 3.421875-.785156 4.6875-2 2.339844-2.144531 2.984375-5.570312 1.585938-8.417969-8.832032-17.757812-26.988282-28.953125-46.820313-28.863281s-37.890625 11.445312-46.5625 29.28125h-97.136719c-12.425781 0-22.5 10.074219-22.5 22.5s10.074219 22.5 22.5 22.5zm0-31h101.734375c2.933594-.03125 5.542969-1.871094 6.558594-4.621094 4.476563-12.128906 14.832031-21.132812 27.464844-23.878906 12.632812-2.75 25.792969 1.140625 34.902343 10.316406l-11.382812.183594h-.023438c-2.246093-.09375-4.394531.9375-5.734374 2.746094l-14.144532 20.101562c-1.652344 2.335938-1.6875 5.453125-.089844 7.832032l13.289063 20.078124c1.285156 1.980469 3.464844 3.195313 5.824219 3.242188h12.238281c-7.109375 7.019531-16.734375 10.902344-26.722656 10.78125-15.894531-.152344-30.054688-10.078125-35.621094-24.96875-.996094-2.796875-3.59375-4.703125-6.558594-4.8125h-101.734375c-4.691406 0-8.5-3.804688-8.5-8.5s3.808594-8.5 8.5-8.5zm0 0" fill="url(#b)" data-original="url(#b)" style=""/></g></svg>
