<?xml version="1.0"?>
<svg xmlns="http://www.w3.org/2000/svg" xmlns:xlink="http://www.w3.org/1999/xlink" xmlns:svgjs="http://svgjs.com/svgjs" version="1.1" width="512" height="512" x="0" y="0" viewBox="0 0 512 512" style="enable-background:new 0 0 512 512" xml:space="preserve" class=""><rect width="512" height="512" rx="20" ry="20" fill="#333333" shape="rounded"/><g transform="matrix(0.7,0,0,0.7,76.79986495971681,76.8000005722046)"><linearGradient xmlns="http://www.w3.org/2000/svg" id="linear-gradient" gradientUnits="userSpaceOnUse" x1="98.278" x2="98.278" y1="434" y2="89.228"><stop stop-opacity="1" stop-color="#b082ef" offset="0.322"/><stop stop-opacity="1" stop-color="#bb85f3" offset="0.4594594594594595"/><stop stop-opacity="1" stop-color="#d8a1dd" offset="0.8223938223938224"/><stop stop-opacity="1" stop-color="#efbad3" offset="0.898"/><stop stop-opacity="1" stop-color="#d8a1dd" offset="1"/></linearGradient><linearGradient xmlns="http://www.w3.org/2000/svg" xmlns:xlink="http://www.w3.org/1999/xlink" id="linear-gradient-2" x1="162.344" x2="162.344" xlink:href="#linear-gradient" y1="434" y2="89.228"/><linearGradient xmlns="http://www.w3.org/2000/svg" xmlns:xlink="http://www.w3.org/1999/xlink" id="linear-gradient-3" x1="256" x2="256" xlink:href="#linear-gradient" y1="434" y2="89.228"/><linearGradient xmlns="http://www.w3.org/2000/svg" xmlns:xlink="http://www.w3.org/1999/xlink" id="linear-gradient-4" x1="328.158" x2="328.158" xlink:href="#linear-gradient" y1="434" y2="89.228"/><linearGradient xmlns="http://www.w3.org/2000/svg" xmlns:xlink="http://www.w3.org/1999/xlink" id="linear-gradient-5" x1="182.7" x2="182.7" xlink:href="#linear-gradient" y1="434" y2="89.228"/><path xmlns="http://www.w3.org/2000/svg" d="m99.626 118h-2.7a6 6 0 0 0 0 12h2.7a6 6 0 0 0 0-12z" fill="url(#linear-gradient)" data-original="url(#linear-gradient)" style=""/><path xmlns="http://www.w3.org/2000/svg" d="m205.7 118h-86.711a6 6 0 0 0 0 12h86.711a6 6 0 0 0 0-12z" fill="url(#linear-gradient-2)" data-original="url(#linear-gradient-2)" style=""/><path xmlns="http://www.w3.org/2000/svg" d="m256 454.819a6 6 0 0 0 6-6v-219.763a6 6 0 0 0 -12 0v219.763a6 6 0 0 0 6 6z" fill="url(#linear-gradient-3)" data-original="url(#linear-gradient-3)" style="" class=""/><path xmlns="http://www.w3.org/2000/svg" d="m317.9 454.8c.181.016.36.023.536.023a6 6 0 0 0 5.97-5.47l19.446-219.764a6 6 0 1 0 -11.953-1.059l-19.441 219.76a6 6 0 0 0 5.442 6.51z" fill="url(#linear-gradient-4)" data-original="url(#linear-gradient-4)" style="" class=""/><path xmlns="http://www.w3.org/2000/svg" d="m186.446 449.349a6 6 0 0 0 5.97 5.47c.177 0 .356-.007.536-.023a6 6 0 0 0 5.447-6.506l-19.445-219.764a6 6 0 0 0 -11.954 1.059z" fill="url(#linear-gradient-5)" data-original="url(#linear-gradient-5)" style="" class=""/><path xmlns="http://www.w3.org/2000/svg" d="m407.35 95h-22.439l-.129-1.347a44.609 44.609 0 0 0 -44.598-40.653h-15.184v-19.157c0-15.905-13.336-28.843-29.24-28.843h-79.519c-15.904 0-29.241 12.938-29.241 28.843v19.157h-15.192a44.6 44.6 0 0 0 -44.59 40.64l-.13 1.36h-22.438c-27.24 0-49.65 22.532-49.65 49.772v16.51c0 3.318 2.936 5.718 6.249 5.718h26.8l37.761 299.749a46.081 46.081 0 0 0 45.64 40.251h169.1a46.081 46.081 0 0 0 45.639-40.251l37.761-299.749h26.8c3.313 0 6.249-2.4 6.249-5.718v-16.51c.001-27.24-22.409-49.772-49.649-49.772zm-208.35-61.157c0-9.287 7.954-16.843 17.241-16.843h79.519c9.287 0 17.24 7.556 17.24 16.843v19.157h-114zm-59.835 60.924a32.662 32.662 0 0 1 32.647-29.767h168.369a32.667 32.667 0 0 1 32.655 29.781l.021.219h-233.714zm235.118 370.482a34.059 34.059 0 0 1 -33.733 29.751h-169.1a34.06 34.06 0 0 1 -33.733-29.751l-37.571-298.249h311.708zm70.717-310.249h-378v-10.228a37.976 37.976 0 0 1 37.65-37.772h302.7a37.976 37.976 0 0 1 37.65 37.772z" fill="url(#linear-gradient-3)" data-original="url(#linear-gradient-3)" style="" class=""/></g></svg>
